<svg width="248" height="487" viewBox="0 0 248 487" fill="none" xmlns="http://www.w3.org/2000/svg">
<path d="M132.106 216.406C128.121 217.244 124.269 218.109 120.839 218.684C123.939 217.541 128.336 216.869 132.106 216.406Z" fill="#803D1D"/>
<path d="M222.117 270.611C222.688 272.259 223.162 272.939 223.129 274.27C223.115 275.229 222.829 276.09 222.723 276.473C222.437 277.334 222.106 278.006 221.821 278.519C222.416 276.271 221.468 269.212 221.202 267.027C221.481 268.602 221.865 269.794 222.141 270.63L222.117 270.611Z" fill="#803D1D"/>
<path d="M40.676 260.456C42.5184 266.47 37.8342 273.701 38.3893 281.461C41.7245 276.005 38.6951 269.528 45.1702 262.186C45.0136 265.359 42.8214 268.064 43.1622 271.392C45.1151 269.934 49.6374 264.942 47.6446 260.903C48.4022 261.767 52.4615 256.723 49.3226 258.261C60.0371 251.985 43.4883 273.353 52.8634 275.526C59.2763 282.826 51.1635 284.586 65.2722 290.808C64.242 290.739 63.9483 291.362 63.8199 292.27C66.6599 292.203 68.1031 297.44 73.637 296.107C71.3569 295.061 78.7414 295.174 75.7457 297.173C76.0195 297.814 76.2535 298.307 76.5273 298.947C71.3425 300.825 54.0226 290.736 51.676 299.483C50.6091 299.114 51.4042 294.581 49.9487 297.978C47.7741 293.875 44.2537 290.503 45.7916 282.79C48.047 298.429 56.3775 277.42 48.2783 278.221C49.6636 267.831 37.297 304.058 30.7949 282.656C31.8231 284.313 33.1753 285.951 34.3216 285.723C37.8032 285.034 38.3126 267.64 36.1005 267.151C35.298 266.989 33.8174 268.933 30.8605 276.777C28.7329 271.276 33.6939 262.751 40.6864 260.542L40.676 260.456ZM40.4729 282.857C39.9933 283.025 39.7404 283.447 39.2775 283.395C39.3862 283.752 40.2567 285.362 40.4729 282.857Z" fill="#803D1D"/>
<path d="M65.1119 285.166C62.6469 285.099 60.2363 283.874 58.6761 281.957C56.9321 279.779 55.629 277.83 54.8233 275.146C53.9747 272.467 52.4657 265.977 56.1688 264.608C58.2054 263.835 60.6923 265.508 62.2388 266.601C65.6924 269.068 69.0655 272.48 71.2495 276.125C71.2975 276.163 71.308 276.249 71.3561 276.286C71.633 276.774 71.867 277.267 72.1064 277.803C72.8671 279.406 73.7512 280.949 74.7345 282.416C73.329 279.805 71.1032 277.6 68.4574 276.23C71.2433 279.997 75.6039 285.266 75.8622 290.236C76.1204 295.205 70.8874 291.696 68.8737 290.161C69.6909 290.799 72.2604 291.723 73.1412 290.745C73.9844 289.814 72.9384 287.834 72.5288 286.971C70.5235 282.651 67.1817 278.605 63.795 275.26C62.9277 274.388 59.9025 270.976 58.3237 271.758C57.3373 272.227 57.3708 274.463 57.5129 275.272C58.1254 279.045 62.2059 283.088 65.1171 285.208L65.1119 285.166Z" fill="#803D1D"/>
<path d="M77.3956 280.893L77.4206 280.913L77.401 280.938L77.3956 280.893Z" fill="#803D1D"/>
<path d="M86.3664 288.143C86.1261 289.739 83.7188 297.276 80.3248 292.801C82.0458 291.937 79.4805 291.404 77.4185 280.916C77.8103 278.78 76.1801 274.328 77.5154 269.945C79.5359 292.572 88.2983 283.839 78.7807 267.484C74.0344 260.479 93.7483 272.013 86.3664 288.143Z" fill="#803D1D"/>
<path d="M114.413 216.106C113.75 215.666 113.247 214.575 113.273 213.354C113.45 208.57 113.892 203.993 110.338 200.168C109.586 199.347 108.672 198.634 107.584 198.441C106.513 198.225 105.241 198.664 104.751 199.638C104.114 199.412 103.801 198.624 103.913 197.936C104.049 197.267 104.457 196.695 104.89 196.142C105.115 195.853 105.36 195.54 105.711 195.388C106.043 195.26 106.482 195.293 106.931 195.412C107.85 195.277 108.863 195.566 109.646 196.1C110.669 196.822 111.381 197.844 112.012 198.918C113.871 202.038 115.184 205.856 116.047 209.36C116.43 210.9 117.207 213.523 116.442 215.095C115.836 216.366 115.032 216.552 114.394 216.13L114.413 216.106ZM109.921 198.175L113.396 203.489C112.692 201.466 111.472 199.659 109.921 198.175Z" fill="#803D1D"/>
<path d="M50.1831 299.163C55.505 303.4 63.7046 306.631 71.7505 308.425C66.7245 308.217 49.9105 302.632 50.1831 299.163Z" fill="#803D1D"/>
<path d="M76.6475 309.937C80.7226 309.479 85.6839 308.977 91.4789 306.22C87.0977 309.695 81.9442 310.046 76.6475 309.937Z" fill="#803D1D"/>
<path d="M41.2274 290.605C42.6632 292.929 45.1136 294.302 46.1179 296.832C45.4094 295.658 40.1074 293.722 41.2274 290.605Z" fill="#803D1D"/>
<path d="M92.6943 295.605C94.4801 295.45 98.9764 296.484 100.703 297.446C97.9148 297.05 95.4435 296.397 92.6943 295.605Z" fill="#803D1D"/>
<path d="M138.467 268.605C137.46 268.903 136.772 268.443 134.18 267.347C134.873 267.501 136.822 266.893 138.467 268.605Z" fill="#803D1D"/>
<path d="M83.26 316.84C81.6739 317.034 80.3913 315.799 78.8135 315.883C80.4914 315.373 82.8444 315.933 83.26 316.84Z" fill="#803D1D"/>
<path d="M132.44 264.074C134.147 263.974 135.156 265.112 136.463 265.474C135.035 265.366 133.576 265.35 132.44 264.074Z" fill="#803D1D"/>
<path d="M75.7605 286.059C76.2298 285.805 78.0529 290.564 76.5402 289.226C76.314 288.623 76.184 288.095 75.7605 286.059Z" fill="#803D1D"/>
<path d="M45.9774 294.939C45.1759 294.08 45.2725 292.915 44.678 291.791C45.905 292.75 46.0384 291.886 45.9774 294.939Z" fill="#803D1D"/>
<path d="M81.0459 296.583C82.4627 296.605 83.9714 296.312 85.1713 297.405C83.7899 297.139 82.4085 296.873 81.0459 296.583Z" fill="#803D1D"/>
<path d="M94.6016 333.037C94.515 333.396 92.7673 330.673 94.0555 330.711C94.3036 331.137 94.4607 331.531 94.6016 333.037Z" fill="#803D1D"/>
<path d="M78.2746 295.82C77.8039 295.529 77.4378 295.204 77.1552 294.673C77.979 294.413 78.3521 294.795 78.2746 295.82Z" fill="#803D1D"/>
<path d="M29.1308 297.013C30.4409 296.875 31.1317 298.074 32.2882 298.28C30.8307 298.459 29.4554 297.887 29.1308 297.013Z" fill="#803D1D"/>
<path d="M221.263 275.565C221.172 277.316 220.803 279.275 219.765 280.751C217.721 282.177 214.956 282.148 212.057 278.873C209.634 277.91 210.704 265.644 206.067 270.586C200.477 280.907 195.517 275.363 203.555 264.785C200.874 265.984 195.263 275.59 201.322 277.498C194.391 276.111 194.136 287.036 190.776 293.713C180.28 278.956 180.23 296.554 178.465 308.47C173.426 319.028 172.275 306.384 167.307 308.43C164.375 312.379 151.416 325.39 152.412 310.742C144.726 320.277 137.144 305.706 149.762 299.173C144.257 315.181 147.417 306.681 158.124 296.6C157.276 298.922 158.714 298.767 162.113 295.261C161.892 295.941 161.748 296.372 161.527 297.051C163.22 295.777 163.687 293.545 165.775 293.201C165.21 294.271 164.012 294.962 163.433 296.099C165.207 294.424 167.213 293.046 168.889 291.1C168.559 289.64 162.274 294.263 164.296 290.339C160.905 291.952 157.762 293.992 154.536 295.889C156.554 292.466 159.764 290.44 163.142 288.546C162.264 288.48 161.436 288.103 160.508 287.804C160.836 287.286 161.481 287.402 161.881 286.94C159.04 288.246 156.287 278.691 155.253 287.146C143.433 274.38 162.471 279.3 169.3 284.483C168.216 284.333 167.957 285.061 167.714 285.917C168.589 285.788 169.123 285.352 169.377 284.582C171.417 282.765 171.453 283.065 175.048 283.123C172.985 282.79 170.816 281.404 172.325 278.087C170.575 267.843 175.212 284.647 185.719 273.286C186.975 268.608 190.09 264.376 195.982 261.346C194.255 261.623 187.487 262.108 189.031 258.548C190.478 255.26 197.968 254.991 200.845 254.332C201.967 254.086 203.108 253.815 204.262 253.825C205.806 253.831 207.322 254.318 208.858 254.434C211.053 254.598 213.156 251.165 214.469 249.633C219.465 243.887 224.616 237.99 228.939 231.718C234.017 224.33 237.688 215.919 238.263 206.911C120.485 307.451 166.968 243.976 142.814 301.028C139.335 301.565 132.606 307.003 133.135 296.37C135.754 303.224 142.395 296.709 142.63 287.047C139.592 292.618 133.313 295.152 125.231 301.975C113.448 294.857 98.3347 309.634 91.888 324.518C97.2309 329.818 105.012 341.56 98.6516 351.628C98.8041 351.631 99.0183 351.605 99.2325 351.578C94.9746 355.886 84.7979 346.07 88.6878 335.001C88.8497 334.547 90.5666 337.749 90.6356 337.958C91.1393 339.592 91.3483 341.306 91.8708 342.916C92.9106 346.094 97.453 348.753 97.3995 343.323C97.3984 342.78 97.2689 342.252 97.1821 341.719C96.6993 339.365 96.3917 327.573 92.3719 327.416C90.0355 327.333 88.0147 331.801 86.5519 333.177C85.6313 334.008 84.6763 334.734 83.3983 334.239C82.599 333.924 81.8811 332.316 81.2802 330.955C80.8999 331.937 78.8007 333.978 73.642 337.853C74.5208 335.788 76.1623 334.629 77.3952 333.151C76.5802 332.708 46.1347 344.957 68.0267 340.48C66.0603 344.679 57.4921 347.517 52.4669 344.286C53.5671 338.867 45.9253 328.978 57.5792 328.088C57.4517 327.755 54.3243 326.357 57.5029 326.749C54.5875 325.129 48.9857 324.122 45.6533 319.618C47.9427 320.206 49.7641 321.591 52.135 322.669C51.0764 316.841 43.4421 314.323 40.6207 311.691C40.3219 312.272 39.7848 311.968 40.9771 314.257C31.1439 297.81 48.5602 318.673 62.2662 311.789C55.4178 311.436 44.4908 301.886 39.7311 299.406C34.1784 297.197 27.2662 297.569 20.5723 291.174C23.0874 291.473 24.9087 292.858 27.0101 293.687C5.57525 280.342 14.641 282.118 36.1134 291.849C38.3161 293.687 36.9588 292.897 36.546 291.296C37.6389 290.987 37.7999 292.663 39.9336 291.618C44.4218 300.786 51.8953 307.868 61.96 310.348C69.4919 312.205 77.0194 310.995 84.592 310.868C85.569 310.857 86.4394 310.684 87.4038 310.392C92.5396 308.825 97.4767 306.521 101.993 303.617C101.116 304.986 100.004 306.21 98.738 307.235C97.8446 307.932 96.8979 308.549 95.922 309.104C92.7152 310.977 88.6422 313.414 85.0477 314.248C82.2139 314.901 78.8398 314.512 75.9736 314.364C73.3456 314.209 70.6434 313.802 68.0092 313.953C67.8138 313.955 66.3258 313.877 66.2579 314.212C66.1848 314.503 66.654 315.141 67.0395 315.094C68.4105 314.925 72.818 316.122 74.7898 316.423C77.2244 316.776 88.5556 317.339 86.8984 321.935C84.564 319.374 80.8472 319.027 77.585 318.841C76.0301 318.75 74.4189 318.731 72.839 318.969C72.4774 319.035 69.5193 320.095 69.4712 320.057C71.5339 321.282 76.4305 322.745 80.8474 323.485C80.4827 323.703 80.1368 323.898 79.488 324.282C80.6708 324.354 81.5433 324.377 82.421 324.443C82.9446 324.814 62.6514 332.595 71.8738 331.199C71.9062 330.217 72.5781 331.091 72.8759 330.859C74.0755 331.603 79.461 329.766 80.9771 330.253C80.6689 329.508 80.4055 328.953 80.253 328.95C82.7389 329.188 82.6342 323.873 87.561 324.159C86.9299 325.759 86.3364 327.31 85.719 328.843C101.321 292.935 126.652 294.015 137.137 275.698C136.017 276.14 135.019 276.872 134.367 277.409C135.046 276.738 136.243 275.504 138.161 273.398C136.173 272.968 137.85 274.24 132.284 273.882C141.929 268.28 119.355 269.667 111.698 269.457C111.238 271.035 109.764 269.107 107.365 271.186C108.937 271.601 111.232 274.015 113.92 271.271C115.207 273.983 120.817 273.988 125.222 274.446C123.437 276.036 121.322 276.166 119.085 276.006C119.253 277.029 120.825 276.901 122.028 278.036C132.535 275.047 129.562 282.762 117.472 280.249C116.151 279.759 102.281 275.856 108.61 279.252C109.504 279.99 110.464 281.09 113.109 281.025C90.9359 284.624 91.4097 265.691 118.296 262.947C127.335 269.315 165.293 273.56 121.424 258.996C125.292 257.911 132.331 263.569 136.628 261.191C142.765 255.174 106.927 257.432 119.119 252.93C114.771 249.725 106.917 242.733 107.4 234.932C106.295 234.068 107.912 232.89 107 231.828C107.237 232.169 87.7147 260.709 82.8848 250.344C85.9967 254.288 97.226 237.793 103.06 228.051C85.371 225.27 94.4091 245.36 73.4731 247.871C69.0248 244.2 70.8823 233.403 87.2655 227.255C85.9814 230.631 79.3567 234.252 78.5637 238.09C78.059 238.587 79.1656 238.211 77.0716 240.295C78.9598 239.911 80.7832 239.708 82.5344 238.558C82.3129 239.237 82.1562 239.735 81.9806 240.257C81.0643 241.479 102.16 222.269 89.9435 224.968C87.6237 222.884 86.2715 219.462 77.0709 217.115C78.0792 214.686 70.3078 205.161 80.6745 207.8C70.6381 209.296 91.0291 222.639 104.761 221.318C104.525 220.63 102.844 220.75 105.024 219.546C102.752 218.391 100.714 216.837 98.0445 216.339C98.3006 217.547 99.3925 217.587 99.9902 218.209C98.6475 217.896 97.31 217.625 96.4092 216.301C100.607 216.132 89.731 213.6 86.2252 210.705C91.1458 210.403 97.126 214.691 103.745 215.833C72.6692 202.24 105.583 183.663 101.269 196.959C101.83 197.281 102.764 197.275 102.245 198.187C103.359 203.399 113.354 209.236 111.061 218.064C109.565 216.313 110.441 210.486 106.452 209.15C107.324 211.848 105.437 210.993 108.613 217.778C111.188 219.636 115.61 219.527 120.982 218.648C118.94 219.378 117.444 220.301 117.041 221.46C123.248 218.869 129.953 216.979 138.353 215.793C136.953 215.9 134.715 216.088 132.249 216.37C141.998 214.3 152.654 212.358 160.812 215.247C155.489 215.815 147.771 214.394 140.576 215.476C145.652 215.025 170.088 219.281 165.679 213.974C166.75 213.842 166.838 213.135 166.747 212.211C166.221 212.537 165.934 211.964 164.365 211.939C164.317 211.902 164.25 211.888 164.184 211.875C164.16 211.856 164.112 211.818 164.069 211.823C164.069 211.823 163.997 211.767 163.973 211.748C164.164 211.355 163.668 210.503 162.805 210.022C162.805 210.022 162.781 210.003 162.757 209.984C162.637 209.89 162.503 209.863 162.364 209.793C160.702 207.215 158.068 209.148 150.059 201.957C150.566 201.656 151.751 201.923 152.289 201.879C151.781 200.745 149.76 198.972 148.388 199.488C147.951 199.651 147.608 200.041 147.35 200.421C146.11 202.204 146.419 203.841 147.771 205.479C149.224 207.235 150.976 208.76 152.942 209.909C150.875 209.185 148.971 208.006 147.353 206.509C145.49 204.781 143.436 201.315 145.298 198.934C146.145 197.851 147.549 197.243 148.936 197.203C150.317 197.12 151.694 197.538 152.959 198.1C155.076 199.057 156.508 200.642 158.343 201.96C159.468 202.8 161.973 203.557 162.706 204.75C160.959 201.834 156.755 200.524 155.597 197.449C155.43 196.969 155.348 196.479 155.267 195.989C155.06 194.47 154.976 192.893 155.543 191.475C156.095 190.124 157.485 189.04 158.931 188.775C159.826 188.622 160.753 188.921 161.512 189.436C162.271 189.952 162.855 190.641 163.463 191.349C163.612 191.504 163.735 191.794 163.574 191.901C162.668 191.425 161.73 191.04 160.772 190.68C160.136 190.454 159.462 190.276 158.825 190.397C155.619 191.031 157.817 196.045 158.892 197.543C160.488 199.761 162.831 201.321 164.702 203.287C166.225 204.904 167.709 210.832 169.731 211.366C170.437 210.561 170.353 209.332 170.179 208.266C170.08 207.452 169.957 206.619 169.79 205.792C168.641 200.823 162.22 198.091 161.575 193.516C164.535 193.544 167.792 198.144 169.451 200.332C172.264 203.965 175.085 210.163 171.564 214.272C172.653 215.355 174.263 215.722 175.801 216.033C178.318 216.528 181.509 217.549 186.38 217.558C200.422 217.526 211.748 212.349 211.748 212.349C217.64 209.667 217.911 208.329 225.061 205.274C229.341 203.465 233.09 202.286 235.932 201.523C236.221 201.4 236.511 201.278 236.805 201.198C237.641 200.921 238.486 201.078 239.111 201.566C241.913 199.221 244.776 196.846 247.203 194.286C249.531 191.803 251.782 189.222 254.201 186.771C258.595 182.338 263.434 177.98 267.14 172.893C273.926 165.599 280.679 158.397 286.941 150.733C284.979 152.649 283.016 154.565 281.054 156.481C281.146 156.165 281.262 155.868 281.354 155.552C283.685 152.917 287.122 150.254 288.532 145.775C286.989 147.204 285.461 148.762 283.968 150.425C284.915 148.916 285.952 147.441 286.904 145.975C288.48 143.563 289.615 140.923 290.166 138.137C293.654 134.468 296.771 131.323 299.404 128.846C304.061 131.556 304.371 136.411 302.566 141.047C297.868 153.15 286.23 163.085 277.023 171.742C266.939 181.224 256.74 190.655 246.559 200.063C244.724 201.767 242.831 203.544 241.941 205.872C241.348 207.423 241.246 209.088 241.011 210.726C239.7 221.369 234.2 229.396 228.339 238.032C227.199 239.738 226.011 241.407 224.775 243.037C223.515 244.649 222.202 246.181 220.87 247.737C219.575 249.244 218.304 250.77 217.202 252.428C216.559 253.399 215.999 254.512 216.036 255.703C216.07 256.699 216.523 257.557 217.018 258.409C217.596 259.403 218.15 260.379 218.623 261.408C219.546 263.447 220.203 265.628 220.684 267.787C221.25 270.283 221.611 272.891 221.467 275.453L221.263 275.565ZM170.54 286.809C170.547 287.047 170.105 289.842 171.506 288.843C171.748 288.335 172.129 287.896 170.54 286.809ZM161.1 310.129C163.535 307.807 166.183 298.326 170.547 296.311C169.538 298.74 170.075 303.849 172.821 306.577C175.701 304.527 170.21 296.939 176.643 298.518C174.74 297.534 178.471 295.683 177.859 291.91C177.294 292.98 177.255 294.268 176.285 295.409C185.304 267.922 136.243 327.91 161.076 310.11L161.1 310.129ZM199.376 266.712C198.606 266.459 198.602 267.851 193.562 270.385C195.564 262.376 183.666 282.302 189.711 287.298C190.037 286.584 190.144 285.853 191.043 285.743C190.535 286.74 190.806 288.077 189.464 288.655C189.433 285.375 184.368 283.781 190.306 289.856C192.478 283.065 194.633 274.711 199.376 266.712ZM57.5476 318.915C59.883 319.345 65.1297 322.788 68.3061 319.418C67.3302 319.973 56.5778 315.599 57.5476 318.915ZM57.5134 326.834C57.8039 327.255 57.6315 327.625 61.2072 328.598C60.2281 328.414 60.064 326.89 57.5134 326.834ZM55.5909 333.355C57.2032 333.027 57.9723 332.736 55.5909 333.355C55.6986 334.06 61.2325 335.401 55.5909 333.355ZM56.7207 342.262C56.867 342.571 59.3905 340.977 56.7207 342.262V342.262ZM69.0764 325.912C69.5289 326.769 70.4902 325.738 73.2205 324.771C72.9489 325.218 68.6824 323.394 69.0764 325.912ZM95.2321 199.876C93.7202 201.563 96.1151 201.768 97.5081 204.989C89.506 201.951 115.029 226.709 95.2321 199.876ZM103.771 205.892C103.944 206.415 104.228 208.924 106.422 208.197C105.636 207.272 104.822 206.481 103.771 205.892ZM105.775 222.498C105.105 222.711 104.537 223.042 104.643 224.094C108.606 225.564 105.936 218.825 105.775 222.498ZM154.548 203.645C155.84 204.073 156.264 204.521 160.255 206.4C160.513 205.129 153.658 201.514 154.548 203.645ZM138.945 283.391C138.34 278.964 142.199 281.903 143.05 279.972C146.872 275.479 142.807 273.348 137.205 281.604C112.964 296.417 118.051 308.534 138.945 283.391ZM146.457 272.79C147.59 270.845 145.298 269.17 140.245 273.554C141.7 274.071 143.398 272.84 146.457 272.79ZM109.866 235.542C111.821 238.737 115.418 247.906 119.511 245.097C119.267 244.518 115.409 243.014 116.996 239.449C117.819 240.674 119.169 239.442 118.247 237.403C117.531 235.099 118.898 232.408 116.634 227.033L116.658 227.052C115.94 216.529 104.065 227.014 109.89 235.561L109.866 235.542ZM208.331 216.771C194.26 220.307 174.837 219.892 171.384 219.752C171.537 219.755 171.671 219.782 171.866 219.779C172.128 219.791 170.061 224.764 169.845 225.138C168.67 227.088 167.137 228.603 165.268 229.855C161.572 232.354 157.157 233.593 152.689 232.968C151.916 232.868 151.089 232.687 150.54 232.102C149.494 231.013 150.032 229.186 150.804 227.851C152.789 224.519 155.998 221.95 159.65 220.696C157.725 222.563 155.993 224.581 154.386 226.736C154.123 227.073 153.87 227.496 153.941 227.9C153.998 228.371 154.492 228.68 154.979 228.751C155.442 228.803 155.922 228.635 156.383 228.491C159.531 227.386 162.571 225.925 165.402 224.185C166.416 223.581 172.109 220.163 168.709 219.211C135.543 218.596 118.64 220.306 118.069 224.356C117.998 224.843 118.17 225.365 118.562 225.904C118.607 232.335 128.34 244.75 122.523 252.142C136.298 252.599 136.163 252.029 141.617 261.447C141.679 261.418 141.783 261.383 141.869 261.373C141.696 260.85 141.5 260.309 141.317 259.701C146.556 262.905 139.199 240.021 139.943 254.673C129.714 245.32 146.091 227.54 148.694 256.901C148.184 256.464 147.152 255.308 146.688 257.388C146.03 259.121 145.426 261.479 145.613 263.369C145.758 264.917 146.757 266.512 147.666 267.727C148.919 269.442 149.831 268.721 151.652 267.78C159.198 263.872 165.929 258.629 173.107 254.201C176.768 251.946 180.228 249.302 183.371 246.371C191.238 239.032 200.023 232.797 208.252 225.935C215.495 219.89 222.737 213.845 229.96 207.824C222.949 210.949 215.775 214.876 208.307 216.752L208.331 216.771ZM206.939 263.476C204.945 264.244 202.147 268.22 201.538 272.317C204.002 270.057 203.669 267.858 206.939 263.476ZM210.705 265.296C210.818 266.043 210.811 266.697 211.309 267.396C211.604 266.425 212.139 265.642 210.705 265.296ZM214.519 261.804C212.706 266.55 210.005 269.362 216.299 275.328C218.501 277.515 218.027 264.895 214.519 261.804Z" fill="#803D1D"/>
<path d="M334.63 359.529C325.846 360.958 316.444 359.81 305.657 357.114C305.203 360.519 307.754 366.816 316.596 366.402C316.729 366.429 316.863 366.456 316.997 366.483C317.107 366.491 317.216 366.499 317.307 366.532C316.89 367.213 323.371 366.155 329.661 364.25C322.087 371.314 301.169 370.583 299.66 356.613C299.312 358.395 296.576 360.559 300.116 363.559C298.588 363.334 298.067 364.05 298.595 365.703C300.315 363.404 298.551 367.839 301.009 366.776C299.773 372.864 299.779 382.366 290.254 391.976C310.471 353.086 279.378 393.358 283.905 397.323C284.17 397.53 284.509 397.641 284.79 397.628C284.487 397.817 283.951 398.057 283.276 398.227C281.988 398.538 280.647 398.42 280.378 398.171C277.567 395.625 287.128 380.966 288.146 375.404C285.304 376.167 263.735 388.107 273.822 392.193C274.641 392.136 275.878 391.94 277.229 391.252C277.371 391.169 278.025 390.828 278.913 390.088C279.721 389.401 280.886 388.258 281.973 386.471C281.798 387.536 280.99 391.246 277.855 393.175C274.535 395.193 269.776 394.496 268.092 392.637C264.413 388.676 265.863 378.103 286.03 356.812C283.881 364.861 276.374 371.939 271.91 381.512C281.534 375.74 296.969 357.183 280.697 348.378C288.987 343.618 268.901 348.46 258.385 361.714C242.402 384.687 256.739 382.444 270.495 365.986C238.666 406.109 244.881 355.461 279.847 342.481C279.138 341.655 278.5 340.886 277.911 340.154C277.869 339.811 277.889 339.439 277.933 339.086C278.034 338.312 278.269 337.565 278.389 336.768C278.506 336.123 278.565 335.355 278.168 334.773C277.63 333.926 276.42 333.988 275.55 333.812C274.614 333.623 273.783 333.051 273.256 332.29C270.908 324.989 277.295 322.268 283.24 317.535C284.774 316.564 286.386 315.691 288.031 314.923C290.028 314.004 292.131 313.245 293.862 311.923C294.174 312.167 294.562 312.315 295.033 312.257C295.117 312.942 294.404 313.161 294.368 313.752C301.204 305.452 303.224 292.418 310.107 281.829C306.67 287.514 297.504 295.97 292.741 302.558C287.239 304.148 281.719 298.826 288.233 291.979C285.28 312.152 303.488 281.034 308.083 273.967C308.481 276.875 309.475 275.753 311.093 270.661C304.925 274.638 298.849 280.083 292.796 286.786C304.415 270.634 284.643 283.397 302.356 264.799C302.412 267.402 298.735 270.768 300.398 275.13C304.125 270.214 311.477 265.068 318.552 261.219C314.483 270.287 336.319 246.811 307.284 261.714C317.611 250.832 325.11 260.259 330.974 241.315C352.661 189.698 358.266 200.359 341.643 176.55C341.351 180.935 344.911 188.369 349.467 192.744C343.654 187.153 336.271 180.995 335.111 172.374C333.969 164.078 342.538 170.699 345.068 173.258C346.653 174.846 348.12 176.536 349.55 178.273C350.491 179.397 353.354 184.503 354.778 184.414C356.569 184.303 358.223 178.967 358.853 177.716C360.326 174.642 361.799 171.569 363.224 168.458C364.585 165.529 365.921 162.581 366.693 159.463C367.324 156.972 367.602 154.437 367.88 151.902C368.879 142.798 369.859 133.719 370.881 124.634C373.389 123.803 375.013 121.429 376.112 119.032C377.187 116.617 377.917 114.048 379.463 111.922C381.218 112.054 382.5 113.832 382.691 115.57C382.881 117.308 382.247 119.06 381.664 120.698C380.015 125.184 379.371 130.069 378.22 134.712C376.324 142.339 374.299 149.981 372.068 157.541C369.175 167.334 367.189 168.34 367.887 172.102C369.101 178.672 374.344 178.158 376.084 185.293C377.609 191.564 375.158 198.563 373.36 203.786C372.348 206.715 372.14 206.437 371.469 208.781C369.543 215.454 370.996 218.45 369.212 223.258C368.587 224.901 367.383 227.332 364.723 229.943C352.732 236.811 361.3 219.709 350.345 241.302C350.394 240.991 350.472 240.742 350.535 240.365C345.519 242.026 339.299 238.442 343.748 231.067C346.772 249.439 356.806 219.762 355.99 208.968C358.197 211.197 357.657 207.132 355.837 203.616C354.019 205.644 352.799 207.947 352.026 210.521L352.743 208.911C353.045 209.069 351.874 214.976 350.937 211.22C350.215 215.811 348.54 220.083 346.75 224.304C346.324 221.53 347.274 218.978 347.941 216.243C343.916 225.849 338.806 236.002 333.641 248.207C334.045 248.135 333.969 247.688 334.406 247.525C317.019 289.828 333.991 240.379 333.91 284.814C330.653 278.974 332.39 271.997 328.951 285.163C328.82 285.332 322.66 296.332 327.351 292.362C327.014 293.882 331.074 294.187 332.317 291.012C333.578 294.749 324.471 303.872 322.251 295.469C307.785 306.643 318.603 283.74 320.485 277.072C321.215 276.635 320.394 276.148 320.541 275.565C319.518 276.626 318.773 277.827 318.1 279.084C318.052 279.046 318.028 279.027 317.98 278.99C320.569 272.408 321.249 267.824 314.024 283.456C313.215 284.49 303.035 301.922 300.464 313.285C304.844 316.399 309.821 320.483 310.028 328.243C312.719 339.61 290.97 343.657 315.996 342.947C314.008 346.432 344.202 348.522 328.92 356.926C330.749 356.766 331.472 357.525 334.649 359.505L334.63 359.529ZM360.157 220.676C356.997 226.501 359.69 236.281 366.931 223.452C368.79 221.222 368.908 217.555 369.278 212.921C367.274 218.06 361.764 214.955 360.181 220.694L360.157 220.676ZM362.851 175.375C365.666 179.204 362.977 181.405 364.507 188.958C364.49 189.177 364.498 189.416 364.481 189.635C344.716 251.127 393.069 186.4 362.827 175.356L362.851 175.375ZM360.745 201.25C361.554 197.193 362.698 192.312 362.012 186.503C361.521 191.391 354.318 189.559 360.745 201.25ZM321.283 293.239C321.283 292.348 321.614 292.568 322.011 288.692C320.849 288.792 314.676 298.075 321.283 293.239ZM322.964 271.722C322.047 273.836 325.515 273.213 324.113 270.45C323.765 270.449 323.669 270.374 322.964 271.722ZM289.449 316.923C287.786 317.367 286.664 318.506 285.634 319.872C285.549 319.882 285.468 319.936 285.417 320.051C284.309 321.666 282.788 322.918 281.213 324.091C279.8 325.156 278.089 326.106 277.094 327.577C276.301 328.74 275.925 330.113 276.607 331.42C277.112 332.359 277.949 332.625 278.727 332.225C278.812 332.215 278.922 332.223 279.027 332.188C283.977 329.818 285.223 323.271 289.449 316.923ZM288.89 345.674C289.315 344.882 289.364 344.572 289.309 343.405C289.069 344.108 288.494 344.744 288.89 345.674ZM289.537 342.42C290.949 339.028 291.439 335.379 292.245 331.823C290.947 335.266 289.85 338.75 289.537 342.42ZM286.442 340.039C285.654 340.353 284.936 340.529 282.941 342.536C284.431 343.7 289.327 342.837 286.442 340.039ZM280.33 338.595C283.746 338.435 287.134 323.253 291.242 327.162C299.263 303.973 288.009 321.341 280.33 338.595ZM297.217 351.912C296.992 352.201 296.916 352.297 296.884 352.388C296.788 352.313 296.668 352.219 296.571 352.144C295.986 350.911 295.458 349.606 294.634 348.381C294.546 349.088 294.475 349.575 294.401 350.215C293.972 348.832 294.106 347.62 294.637 346.445C294.526 347.677 302.576 344.512 296.048 341.966C293.586 340.856 297.853 339.657 297.879 321.148C303.128 320.872 299.322 348.131 302.703 332.362C302.877 331.645 303.108 331.399 305.929 332.248C308.402 327.747 307.117 316.315 298.209 314.584C297.908 320.318 285.365 358.307 294.471 353.642C295.004 355.338 295.605 354.916 297.32 354.357C297.411 354.389 297.502 354.421 297.611 354.43C297.769 354.475 297.964 354.473 298.141 354.495C298.774 354.874 299.488 354.307 300.309 354.446C299.408 353.121 297.832 353.207 297.217 351.912ZM329.134 352.442C326.564 351.867 294.126 341.898 302.003 352.824C301.615 350.893 334.8 363.422 329.134 352.442Z" fill="#803D1D"/>
</svg>
