<svg width="480" height="549" viewBox="0 0 480 549" fill="none" xmlns="http://www.w3.org/2000/svg">
<path d="M403.755 447.515C405.647 447.136 406.836 445.353 407.7 443.624C409.916 439.3 412.078 434.545 411.051 430.059C410.294 426.763 410.024 423.574 410.132 420.17C410.132 419.143 411.213 411.145 410.511 410.82C406.403 408.713 399.54 413.522 402.729 419.197C404.944 418.494 405.539 418.116 406.62 416.603C406.025 424.115 399.702 428.762 399.864 436.22C399.864 436.652 399.918 437.139 400.297 437.409C400.837 437.787 401.648 437.409 402.242 437.571C403.161 437.841 403.161 439.084 403.053 440.003C402.837 442.543 403.053 445.083 403.755 447.515ZM406.241 413.09C406.89 413.847 407.088 414.729 406.836 415.738C406.133 414.928 406.457 414.117 406.241 413.09Z" fill="#803D1D"/>
<path d="M376.896 450.875C379.166 451.469 381.436 451.793 383.76 452.064C383.706 451.793 383.76 451.469 383.922 451.253C382.193 450.983 379.977 450.767 376.896 450.875Z" fill="#803D1D"/>
<path d="M1308.14 485.775C1252.86 435.571 1209.51 368.613 1193.36 296.198C1199.79 324.894 1207.89 348.132 1214.65 364.993C1226.97 395.742 1235.67 417.413 1253.67 437.354C1257.12 441.191 1264.31 448.703 1277.28 463.24C1286.31 473.346 1293.55 481.668 1298.25 487.126C1203.57 507.014 1169.52 388.717 1131.15 316.139C1134.07 319.544 1136.34 323.381 1139.26 326.677C1126.4 298.468 1100.19 283.12 1067.87 294.847C1010.15 300.305 960.275 317.814 907.044 343.268C892.182 350.347 877.375 357.211 862.784 364.885C841.924 375.801 820.956 386.393 799.393 395.85C771.237 408.172 742.271 418.656 712.71 427.032C675.26 437.678 636.944 444.974 598.305 449.46C571.77 452.54 545.02 454.377 518.431 455.782C506.434 456.431 494.437 457.079 482.44 457.728C468.983 458.43 455.851 457.728 442.341 457.241C436.288 457.025 430.181 456.863 424.129 456.647C424.075 456.647 423.967 456.647 423.913 456.647C423.805 456.647 423.642 456.593 423.534 456.593C408.781 456.053 394.082 455.404 379.382 454.053C375.546 453.729 372.195 451.999 368.304 451.621C362.63 451.027 356.901 450.702 351.227 450.216C339.932 449.189 328.692 448 317.451 446.379C309.885 445.298 302.319 444.055 294.862 442.542C291.133 441.786 287.404 440.975 283.675 440.11C281.405 439.57 274.704 436.598 272.596 437.3C296.105 429.032 314.046 409.577 322.909 387.528C293.294 430.545 261.14 449.568 202.991 421.52C200.181 413.09 217.798 429.518 244.441 419.629C234.335 420.115 224.932 422.871 217.096 419.088C244.441 415.738 270.273 415.197 293.186 402.714C304.049 395.472 314.533 368.722 316.748 373.585C323.612 363.804 324.909 355.157 321.72 345.051C322.963 345.268 322.801 346.727 324.152 347.159C323.504 339.107 320.477 335.972 317.343 331.919C316.965 319.868 327.395 338.242 328.259 342.241C325.395 322.246 308.696 301.062 303.292 287.659C303.508 272.636 299.779 259.936 305.075 246.264C304.211 270.69 311.614 294.847 330.529 310.032C327.989 304.574 323.666 300.305 320.531 295.117C340.31 300.359 324.747 300.575 334.15 311.275C341.662 318.679 349.768 315.977 357.982 317.814C369.547 329.974 388.678 332.514 403.215 329.974C386.516 328.244 372.573 325.867 361.657 313.978C345.931 312.302 330.151 312.951 338.257 295.279C339.176 291.226 337.338 290.848 335.231 290.361C309.561 297.549 331.88 259.99 343.769 260.53L343.661 260.639C370.682 239.238 444.881 227.349 474.441 221.296C434.397 249.344 385.651 225.295 360.252 285.822C376.518 266.367 385.921 247.561 421.913 244.642C416.779 254.856 378.95 268.907 383.814 277.391C389.65 279.931 459.58 227.025 430.938 250.857C434.235 249.992 437.585 249.236 440.99 248.479C450.015 246.48 459.094 244.804 467.254 243.399C467.254 244.318 466.227 244.318 466.011 245.399C471.901 242.589 474.82 239.995 480.224 239.562C475.738 244.426 443.422 261.882 440.99 251.019C439.693 261.233 420.184 259.504 413.861 265.232C428.398 277.499 440.125 264.8 373.6 289.821C362.197 292.145 385.219 297.063 386.408 296.522C371.979 315.329 405.539 301.062 415.428 308.681C405.809 312.897 395.919 315.437 385.273 314.734C400.242 318.085 413.915 312.518 426.399 308.627C380.193 289.118 460.066 311.816 474.982 282.904C479.954 280.31 527.564 266.745 516.648 257.396C535.4 254.046 553.612 250.533 571.5 251.397C534.698 263.773 497.463 276.094 466.93 300.143C494.653 287.605 534.157 272.744 565.934 268.258C565.231 269.285 563.934 269.501 563.718 270.906C599.061 249.83 643.699 247.885 683.15 248.641C677.205 240.967 666.559 235.131 664.668 227.187C654.129 227.025 644.402 213.947 634.674 213.622C640.187 219.729 604.411 205.516 615.976 211.947C548.154 210.164 476.279 197.032 414.509 226.052C378.572 238.428 331.664 245.129 316.154 283.012C305.724 255.559 327.989 209.731 295.726 190.006C298.104 190.277 299.725 191.303 302.049 191.303C285.837 175.902 164.297 194.6 193.588 230.591C207.801 215.784 239.145 214.163 249.467 213.082C258.167 209.948 264.49 214.757 270.597 216.054C269.732 215.082 268.435 215.19 267.571 213.514C301.887 221.621 282.864 264.53 287.188 295.333C291.403 323.975 325.557 340.296 301.725 376.612C301.293 375.098 300.86 373.639 300.374 372.018C299.293 373.153 299.347 374.882 298.212 376.071C297.347 365.965 291.997 363.371 294.699 359.913C269.192 344.727 321.612 284.849 244.333 261.773C275.569 274.635 292.105 300.089 280.595 337.432C277.893 356.4 267.787 394.121 273.137 364.02C272.164 364.506 272.38 365.641 271.516 366.182C271.408 364.776 271.948 363.479 272.164 362.182C270.165 366.182 270.273 370.505 268.543 372.883C268.435 372.937 268.543 372.612 268.489 372.721C268.489 372.721 268.489 372.721 268.489 372.667C268.489 372.721 268.489 372.829 268.489 372.883C268.489 372.883 268.597 372.883 268.651 372.883C268.651 372.883 268.651 372.937 268.651 372.991V372.883C266.328 383.637 253.412 386.447 248.656 392.77C257.249 388.285 264.598 383.313 270.543 377.638C264.923 389.582 242.82 404.173 220.122 408.55L220.23 408.442C217.798 408.118 217.366 408.442 216.826 408.766C216.772 408.928 216.772 409.036 216.718 409.145C209.368 410.225 202.072 410.171 195.317 408.55C218.555 398.985 245.792 401.957 260.167 378.881C274.434 326.623 304.535 281.877 225.148 265.124C224.067 260.855 218.123 262.368 217.636 263.395C218.987 263.773 220.23 264.151 222.014 264.692C218.933 264.962 216.339 264.692 213.529 265.232C218.609 265.016 254.384 279.283 250.548 282.255C281.621 294.901 258.275 329.758 259.086 321.868C255.249 331.217 259.897 334.892 260.329 340.296C255.79 353.374 257.897 364.182 250.818 374.828C227.688 394.553 183.752 393.527 170.566 387.42C154.786 370.883 146.356 348.456 128.792 335.594C135.385 330.46 133.548 320.571 125.387 320.03C110.094 304.088 105.122 316.247 89.666 310.032C52.7016 262.206 -28.1985 307.114 112.58 231.618C75.2369 253.343 101.177 315.22 140.303 309.546C135.061 323.543 147.869 334.351 160.352 330.568C157.434 332.352 154.462 332.676 152.084 334.351C162.298 337.702 177.862 348.402 184.887 337.594C176.511 338.728 170.134 336.675 164.081 334.351C179.645 330.73 184.995 309.654 200.613 310.465C200.019 312.572 199.208 314.95 198.127 317.382C196.614 320.949 194.885 323.921 193.264 326.407C212.124 321.922 203.153 321.219 215.583 311.816C209.098 308.195 220.014 300.413 219.42 296.414C251.034 351.158 212.989 319.706 202.883 340.512C199.208 359.751 206.288 356.346 184.563 360.831C217.528 369.316 200.829 346.565 211.746 339.107C220.392 336.891 231.741 339.431 237.199 333.054C239.145 330.622 238.821 330.082 240.172 329.271C243.144 315.22 242.658 333.973 241.036 338.188C233.47 345.97 220.5 337.594 213.367 341.052C216.609 342.133 211.151 343.862 212.286 345.159C213.907 342.619 216.015 342.079 219.041 342.728C203.477 351.482 222.068 371.424 202.072 373.099C224.283 381.367 217.636 346.132 227.85 356.94C227.148 347.537 235.2 355.049 239.847 350.564C259.464 347.321 259.14 305.655 254.925 304.142C227.31 254.586 215.475 306.412 215.204 273.23C209.908 275.176 208.557 266.421 205.099 266.961C205.261 268.042 206.558 267.88 206.558 269.123C187.535 257.774 190.399 267.286 182.563 247.615C170.728 244.804 164.622 242.156 155.11 234.104C134.304 231.24 131.116 226.16 112.958 230.375C238.604 166.66 358.577 5.56273 791.017 170.984C886.076 205.516 928.714 257.288 1087.16 275.878C1101.81 277.77 1114.4 266.745 1123.53 256.694C1137.69 241.13 1148.56 222.593 1159.09 204.489C1170.93 184.062 1182.01 163.256 1194.11 142.99C1198.22 136.073 1202.49 126.021 1211.95 115.051C1216.86 109.376 1224.7 100.297 1236.97 93.8125C1258.48 82.3557 1279.71 86.8952 1279.82 84.2471C1279.93 82.1936 1267.28 79.9238 1258.53 79.4915C1252.26 79.1672 1248.59 79.8698 1246.15 80.5183C1242.75 81.3829 1240.16 82.6259 1237.24 84.031C1232.86 86.1386 1229.46 88.2462 1227.94 89.273C1219.67 94.7852 1214.38 102.783 1212.81 105.215C1200.87 123.535 1160.44 194.978 1156.45 202.274C1142.39 227.889 1126.4 250.587 1105.65 266.907C1090.68 278.688 1006.16 259.882 954.762 240.427C948.331 237.131 941.792 233.888 935.307 230.646C945.089 233.077 933.686 215.784 963.409 212.434C954.924 203.301 936.658 201.787 930.39 212.217C942.819 207.84 925.202 221.891 920.824 223.242C921.257 223.512 921.635 223.728 922.067 223.998C851.975 189.628 779.182 159.257 707.468 132.83C728.274 139.099 748.486 146.179 768.697 153.312C766.86 151.745 764.266 151.691 762.483 150.124C761.294 149.691 760.267 149.313 759.294 148.935C759.294 148.935 759.294 148.935 759.348 148.935C759.997 148.935 760.645 148.935 761.294 148.935C758.484 147.692 757.673 147.314 756.592 147.26C756.7 147.584 756.916 147.8 757.133 148.016C742.703 141.801 752.593 139.315 748.27 128.183C749.945 95.758 780.316 72.4661 807.932 61.5497C807.391 62.9008 805.662 63.225 805.554 65.0624C849.165 30.9082 912.394 45.6075 961.031 73.7631C986.431 94.6231 996.32 67.116 979.135 52.3627C979.405 53.5516 980.432 53.9299 980.324 54.9567C970.38 49.2283 963.463 36.9608 954.762 32.4754C956.005 34.2047 957.951 34.8532 958.978 36.6906C855.974 -29.8344 756.754 2.26621 662.29 67.9807C642.132 86.679 616.679 104.783 589.766 102.027C628.19 110.511 668.18 117.969 704.064 132.452C596.467 103.702 482.169 78.3566 349.93 102.351C351.227 101.378 352.956 101.54 354.253 100.514C338.311 103.648 321.828 111.268 307.399 114.402C309.507 112.403 309.885 112.024 310.48 111.484C274.758 123.643 237.145 148.232 203.261 164.283C204.666 163.202 206.017 162.121 207.422 161.04C167.27 181.792 133.44 203.625 95.0702 226.484C98.0965 223.566 101.879 221.675 105.176 218.973C88.8013 227.295 70.5894 237.887 55.782 247.182C56.4305 247.452 56.7547 247.561 57.5654 247.885C49.4051 253.505 41.0827 258.261 32.6522 262.854C34.6518 259.071 36.1109 258.207 33.9492 257.342C46.5409 247.993 59.727 240.805 71.2379 232.699C37.57 251.397 -43.1139 285.011 38.4887 303.656C10.0629 302.034 -16.7417 311.87 12.9811 338.188C12.2245 336.567 10.9816 336.026 10.5493 334.189C44.9197 369.1 99.8799 386.393 156.84 419.034C183.482 426.762 208.287 434.436 233.687 441.678C235.632 443.083 231.093 441.678 230.985 442.326C243.252 445.839 254.979 450 267.084 453.134L258.654 452.108C277.406 459.565 304.265 456.647 316.91 469.887C312.965 465.077 315.668 463.672 317.343 465.564C323.395 468.266 328.097 480.425 333.609 485.451C328.151 481.074 325.179 476.913 320.693 474.697C322.855 478.912 325.449 481.074 324.044 484.316C316.586 476.913 312.641 467.671 304.211 464.105C309.939 470.752 306.535 474.265 311.236 478.264C309.777 484.37 322.963 501.285 317.181 501.664C332.258 505.663 340.851 520.902 352.146 523.172C373.33 536.52 391.758 519.605 391.164 499.016C394.082 490.801 402.728 486.316 401.702 476.156C398.405 467.347 460.769 479.128 533.941 471.725C582.254 469.725 629.757 456.323 675.746 449.243C691.04 459.025 696.174 472.265 712.602 479.074C711.468 479.723 710.495 478.372 709.306 479.182C732.111 491.882 725.14 495.233 710.495 485.829C738.488 518.47 782.208 524.037 816.092 541.708C815.227 541.87 814.471 541.979 813.282 542.195C853.813 554.03 894.668 552.571 926.715 518.416C866.35 525.172 787.288 514.742 765.401 449.622C758.538 420.926 754.106 426.384 787.666 414.603C800.096 406.496 813.12 406.821 824.468 403.47C806.743 401.146 828.575 395.958 833.007 392.121C840.897 391.581 842.518 399.795 850.084 398.498C846.301 400.876 841.383 400.552 838.627 404.767C881.05 409.199 868.404 406.334 860.946 386.123C857.217 390.824 856.731 389.149 853.38 388.825C837.168 377.692 871.863 380.881 874.457 376.666C856.569 374.99 878.023 367.803 884.67 364.614C890.777 366.992 893.641 372.45 900.288 371.748C896.397 374.072 891.534 373.801 888.886 377.855C895.911 378.611 903.099 380.286 910.178 380.232C912.178 380.232 928.93 373.261 927.525 371.856C925.202 369.532 921.527 369.316 918.555 367.911C914.123 365.803 912.772 362.507 910.34 358.616C909.746 362.561 909.205 362.777 907.044 362.128C880.401 357.427 928.552 347.916 931.416 346.565C930.227 345.484 928.606 346.078 927.417 344.727C938.874 338.404 947.413 337.432 957.302 341.485C952.222 343.808 948.169 344.511 945.737 347.591C947.251 345.7 957.897 350.51 959.518 351.266C961.896 352.347 964.598 352.239 967.192 352.077C973.028 351.807 978.919 351.536 984.593 349.969C985.458 349.699 986.539 349.213 986.485 348.294C986.485 347.483 985.62 346.997 984.863 346.673C980.27 344.619 968.111 338.728 968.921 331.811C969.462 327.11 981.837 325.975 984.593 328.082C982.972 326.839 981.135 326.191 979.567 324.462C998.32 317.328 991.781 321.003 1003.13 329.541C1000.37 329.65 997.617 329.812 995.347 332.622C1000.75 334.783 1006.16 337.161 1011.72 338.891C1015.07 339.917 1018.26 340.728 1021.77 340.674C1022.91 340.674 1030.64 338.783 1030.96 339.053C1028.69 337.107 1025.77 336.189 1023.23 334.621C1017.99 331.379 1017.88 324.57 1017.23 318.949C1015.56 326.083 1008.97 320.895 1008.7 317.382C1013.02 307.763 1031.61 318.031 1037.88 314.41C1035.82 313.113 1033.99 311.978 1032.15 310.843C1058.58 304.034 1044.47 311.492 1056.85 315.653C1054.09 316.409 1050.9 315.923 1048.9 318.571C1053.87 321.219 1059.28 322.786 1064.14 325.218C1069.92 328.028 1076.63 328.893 1082.89 327.542C1080.19 328.136 1070.03 310.627 1071.11 307.817C1072.95 303.169 1083 305.277 1086.46 305.601C1131.75 306.628 1122.13 358.292 1196.27 456.377C1214.16 477.939 1235.24 491.828 1262.53 495.935C1269.18 497.502 1332.62 499.88 1308.25 485.505L1308.14 485.775ZM644.294 236.212C630.297 238.319 617.543 243.345 604.898 244.588C604.898 244.426 604.898 244.21 604.898 244.048C623.596 236.968 643.375 240.751 604.195 230.051C619.597 230.267 631.54 232.051 644.294 236.266V236.212ZM541.669 233.672C537.346 234.32 534.427 236.266 532.59 234.915C535.022 232.105 540.048 233.564 541.669 233.672ZM516.756 234.591C516.216 235.779 514.919 235.779 514.27 236.752C519.35 235.185 524.43 235.023 529.618 236.158C527.618 237.347 525.349 237.401 523.187 238.211C523.835 239.076 524.916 238.103 525.835 239.022C508.866 240.643 497.031 248.641 480.818 248.803C493.788 237.293 501.408 235.509 516.756 234.645V234.591ZM496.166 228.754C495.139 228.97 494.167 229.619 492.545 229.294C493.896 228.16 495.031 228.43 496.166 228.754ZM485.466 231.672C472.712 229.889 461.363 239.292 450.177 239.238C453.852 235.942 492.599 220.648 485.466 231.672ZM296.321 209.299C298.32 210.164 298.861 210.974 299.401 214.325C298.428 212.758 297.456 211.137 296.321 209.299ZM305.021 243.129C301.293 247.074 302.157 222.323 300.05 218.864C306.426 226.214 303.022 236.104 305.021 243.129ZM272.218 387.204C273.785 396.607 259.194 398.39 254.547 400.498C260.599 396.121 267.138 392.77 272.218 387.204ZM197.101 266.421C194.615 267.34 194.074 266.853 193.426 266.421C192.669 263.233 196.884 266.151 197.101 266.421ZM187.859 277.878C189.048 278.905 189.102 280.202 189.373 281.715C187.535 280.994 187.031 279.715 187.859 277.878ZM177.808 298.792C188.562 302.953 181.699 294.036 187.643 299.548C187.157 295.495 186.725 294.523 189.751 294.198C201.964 287.821 185.59 308.519 184.509 307.222C185.211 312.626 176.781 318.193 176.024 313.059C172.566 326.893 149.544 329.758 144.68 318.733C143.924 304.899 162.676 307.493 167.756 301.062C173.268 299.17 169.972 297.495 171.971 295.333C177.051 293.55 180.077 291.82 177.808 298.792ZM145.869 249.128C141.816 251.722 141.708 251.181 139.438 252.803C135.601 255.721 142.14 242.697 145.869 249.128ZM156.137 274.473C139.6 294.739 113.12 274.581 140.573 274.797C138.52 276.419 136.736 277.77 134.845 279.283C151.003 283.876 145.761 267.286 149.652 266.097C149.976 269.609 149.652 272.203 151.435 273.825C150.463 252.748 157.758 252.911 142.897 242.373C154.246 221.513 169.593 262.26 167.756 277.878C171.269 268.529 174.187 272.69 170.566 281.499C163.757 286.2 159.109 289.172 157.326 297.171C147.436 303.385 137.168 302.737 130.089 295.225C123.928 299.008 121.929 290.361 117.497 289.821C125.063 283.984 143.708 307.493 156.137 274.473ZM621.921 107.485C629.054 104.134 635.647 101.054 641.376 96.5145C631.648 100.297 623.218 108.133 614.895 105.972C641.051 96.2443 696.606 47.0666 768.535 23.7747C767.995 25.2879 766.32 25.2338 765.617 26.747C794.367 15.2902 797.123 21.1807 772.372 29.7733C819.28 22.6398 870.62 6.85973 908.449 28.098C911.583 29.6652 914.069 31.7188 917.095 33.0158C916.555 33.9886 915.636 33.1779 914.934 33.8805C923.634 39.8791 936.55 43.9862 946.926 52.0384C943.954 51.6601 941.36 50.7414 940.171 47.7151C867.647 18.4787 729.896 41.6084 744.919 142.828C703.848 128.561 663.1 116.78 621.921 107.431V107.485ZM106.365 325.002C105.987 332.676 109.823 314.518 115.336 328.407C93.9353 350.239 97.6101 346.24 88.315 322.084C95.5565 324.299 101.015 326.785 106.365 325.002ZM56.7007 299.008C51.0263 299.494 45.9464 297.657 41.0287 295.063C50.4319 296.252 55.6739 296.846 56.7007 299.008ZM19.9525 288.578C25.4107 288.092 29.734 290.199 32.9765 291.604C34.2735 291.388 35.3003 292.091 36.8675 292.415C30.8689 291.388 24.6541 290.361 19.9525 288.578ZM37.2458 293.442C38.7589 293.009 39.5695 293.712 40.6504 294.252C39.6776 294.469 38.5428 294.198 37.2458 293.442ZM26.1132 323.165C50.8642 324.786 67.2928 316.355 77.885 346.348C85.1806 366.182 93.9893 373.261 109.986 358.237C112.634 367.316 116.471 375.963 121.172 384.123C117.984 384.069 28.1668 339.539 26.1672 323.165H26.1132ZM140.465 371.586H139.168C139.871 373.369 140.843 374.99 141.33 377.422C137.114 371.424 134.412 366.506 131.656 362.074C134.25 361.318 138.898 369.856 140.411 371.532L140.465 371.586ZM189.21 413.09C155.435 412.009 122.956 376.882 149.22 392.662C149.22 392.554 149.22 392.446 149.22 392.338C165.162 415.251 191.48 405.632 189.21 413.144V413.09ZM197.695 416.116C194.885 413.144 203.045 414.387 203.045 414.495C200.829 416.44 198.992 416.44 197.695 416.116ZM366.034 476.804C362.035 469.293 370.087 470.103 366.899 473.4C378.302 479.29 373.06 483.992 367.331 485.829C359.225 479.344 357.712 475.345 366.034 476.75V476.804ZM361.765 512.148C352.416 513.769 342.796 506.203 336.69 500.042C346.904 504.258 352.146 505.176 361.279 502.582C360.414 500.258 359.657 498.205 358.847 496.151C366.521 500.421 374.573 495.611 377.707 502.69C369.709 503.285 368.79 511.067 361.711 512.202L361.765 512.148ZM379.869 472.157C384.516 471.454 387.164 472.157 389.542 473.184C387.759 478.912 381.922 471.833 379.869 472.157ZM761.023 461.673C771.291 484.857 786.477 504.474 806.635 516.201C804.905 515.876 803.554 515.444 801.879 515.985C809.877 521.605 815.227 519.822 822.793 519.119C838.573 525.28 851.381 526.523 865.594 530.306C856.731 533.44 849.598 528.09 843.491 528.036C844.356 528.901 845.598 528.63 846.571 529.441C783.289 527.766 735.192 479.615 687.149 446.703C711.143 440.543 734.381 433.733 757.511 425.681C756.43 452.918 765.131 461.565 761.023 461.673ZM960.437 331.919C964.112 330.352 964.76 329.541 966.597 329.812C967.678 334.729 961.463 332.081 960.437 331.919ZM1068.25 309.384C1059.55 307.601 1067.06 306.033 1069.28 306.412C1069.17 308.952 1069.11 308.735 1068.25 309.384Z" fill="#803D1D"/>
<path d="M486.277 423.453C485.52 423.615 482.98 428.425 482.71 429.343C481.846 432.316 483.413 435.504 484.386 438.26C485.683 441.935 486.331 445.88 486.331 449.825C486.331 450.366 486.331 450.906 486.601 451.392C487.142 452.203 488.493 452.149 489.195 451.5C489.952 450.852 490.222 449.825 490.492 448.906C490.762 447.934 491.033 446.961 491.735 446.258C492.654 445.394 494.167 445.286 495.194 445.988C496.113 446.637 496.653 447.934 497.788 448.15C498.652 448.312 499.517 447.718 499.895 446.961C500.328 446.204 500.436 445.286 500.49 444.421C500.49 444.313 500.49 444.259 500.49 444.151C500.976 438.152 501.03 432.1 501.3 426.155C501.463 422.804 499.571 414.428 496.383 412.591C474.442 399.621 484.007 421.453 493.356 426.749C499.517 426.749 496.491 430.64 495.14 432.64C490.276 432.91 491.627 422.48 486.277 423.561V423.453Z" fill="#803D1D"/>
<path d="M463.201 424.374C465.849 444.261 467.848 449.233 469.307 449.179C471.739 449.179 475.846 435.344 470.496 423.995C467.956 418.699 464.011 415.349 461.201 413.457C466.011 419.726 467.848 423.401 466.876 424.536C466.389 425.076 465.146 425.022 463.255 424.374H463.201Z" fill="#803D1D"/>
<path d="M446.77 432.701C447.635 432.323 448.554 433.188 448.986 434.052C449.418 434.917 449.797 435.998 450.715 436.268C452.067 436.646 449.797 422.812 449.797 421.947C449.797 419.461 451.85 416.759 449.797 414.435C446.77 411.085 436.611 413.354 432.882 413.516C432.828 413.733 432.774 413.895 432.72 414.111C433.638 415.894 433.152 416.759 432.017 416.975C431.152 420.812 430.45 424.649 430.126 428.54C430.018 429.891 429.91 431.242 429.855 432.593C429.855 431.728 433.801 435.025 433.963 435.241C435.422 437.078 436.34 439.51 436.989 441.78C437.8 444.536 437.259 450.805 439.961 452.372C441.582 453.345 443.69 452.426 445.365 451.508C445.798 451.291 446.284 451.021 446.446 450.535C446.554 450.265 446.554 449.94 446.554 449.616C446.23 444.212 443.69 438.592 445.906 433.62C446.068 433.188 446.338 432.755 446.77 432.539V432.701ZM436.178 425.297C435.476 426.865 434.503 428.216 436.395 429.351C430.558 434.052 431.693 422.595 436.178 425.297Z" fill="#803D1D"/>
<path d="M416.67 421.355C416.67 425.57 416.562 430.704 418.886 434.433C421.48 438.702 423.209 442.215 424.344 447.349C425.047 447.241 425.479 446.646 425.695 445.944C425.857 445.403 425.966 444.701 425.966 444.16C425.966 442.053 428.668 416.761 429.64 416.923C424.885 415.951 418.292 411.573 427.695 411.573C427.154 411.573 424.56 406.602 423.047 406.061C415.481 403.413 416.724 417.464 416.724 421.301L416.67 421.355Z" fill="#803D1D"/>
<path d="M389.487 408.934C382.192 408.447 377.382 397.693 385.38 400.125C381.111 391.857 376.68 396.342 372.734 399.206C367.006 399.747 362.304 397.855 359.224 400.936C352.145 394.342 354.685 405.421 350.577 405.205C351.172 410.771 354.036 412.717 353.171 416.229C345.66 417.148 351.118 420.607 347.875 421.85C348.848 428.335 344.038 450.329 357.657 442.169C358.792 426.713 360.197 432.388 367.276 429.091C363.277 428.281 368.195 422.552 369.87 423.795C373.005 426.065 370.303 429.253 374.464 429.794C373.599 436.819 375.923 455.896 382.084 446.276C382.3 442.493 387.218 438.386 390.298 438.548C380.138 433.793 386.839 423.687 391.541 418.067C385.921 419.364 388.839 410.393 389.487 408.826V408.934ZM368.303 423.093C365.763 417.364 368.519 412.717 370.357 411.582C371.221 415.311 368.195 420.39 368.303 423.093Z" fill="#803D1D"/>
<path d="M349.497 388.233C345.282 395.313 346.957 389.26 345.336 390.503C345.336 390.503 345.336 390.557 345.336 390.611C345.336 390.989 345.228 391.368 345.011 391.746C345.66 396.231 338.851 397.204 336.689 399.906C333.933 403.365 333.879 409.039 333.987 413.2C334.149 419.415 328.637 421.415 326.907 427.143C325.34 432.277 326.367 436.384 329.015 441.032C329.015 438.978 329.015 436.924 329.285 434.925C329.61 435.033 330.853 436.6 330.853 436.654C347.335 433.466 345.498 411.903 345.119 401.906C347.065 397.582 353.28 392.773 349.497 388.233Z" fill="#803D1D"/>
<path d="M333.824 270.251C334.365 270.251 334.743 270.251 335.013 269.927C335.121 270.899 333.986 271.494 334.148 272.521C335.067 271.602 335.986 270.737 336.905 269.819C347.227 259.875 361.223 256.578 371.761 250.255C361.439 253.444 352.631 257.983 343.822 260.631C339.282 266.522 336.04 266.198 333.824 270.251ZM335.013 269.927C336.31 268.738 336.364 268.684 336.851 269.764C335.067 269.927 335.608 269.873 335.013 269.927Z" fill="#803D1D"/>
<path d="M371.168 308.619C376.14 309.537 380.409 310.294 384.732 311.05C380.085 307.322 374.897 307.051 371.168 308.619Z" fill="#803D1D"/>
<path d="M185.318 322.414C179.049 323.765 177.373 326.521 178.779 330.736C180.778 324.9 183.264 325.548 185.318 322.414Z" fill="#803D1D"/>
<path d="M332.42 323.969C331.448 320.564 330.529 317.484 328.529 314.728C328.908 318.024 328.259 321.807 332.42 323.969Z" fill="#803D1D"/>
<path d="M454.662 304.25C457.31 302.412 460.066 301.331 462.606 299.17C457.634 299.278 455.689 300.521 454.662 304.25Z" fill="#803D1D"/>
<path d="M269.895 356.553C271.3 353.851 271.84 350.987 272.11 348.015C269.732 350.393 270.273 353.635 269.895 356.553Z" fill="#803D1D"/>
<path d="M335.339 276.136C332.961 277.379 332.204 279.648 331.502 282.296C334.907 281.216 333.988 278.027 335.339 276.136Z" fill="#803D1D"/>
<path d="M343.661 289.278C345.336 286.954 346.147 284.793 346.903 282.091C343.877 283.766 343.444 286.144 343.661 289.278Z" fill="#803D1D"/>
<path d="M332.582 359.541C331.988 361.325 331.285 362.946 331.556 364.891C333.771 363.378 334.096 361.811 332.582 359.541Z" fill="#803D1D"/>
<path d="M427.696 319.055C425.535 319.542 423.968 319.65 422.562 321.217C424.94 322.028 426.183 321.001 427.696 319.055Z" fill="#803D1D"/>
<path d="M221.42 257.769C222.879 258.634 224.338 258.688 225.959 258.418C224.5 256.472 224.176 256.418 221.42 257.769Z" fill="#803D1D"/>
<path d="M354.361 303.002C355.82 303.218 357.334 303.435 359.225 303.705C357.982 301.759 357.442 301.705 354.361 303.002Z" fill="#803D1D"/>
<path d="M201.801 367.203C197.802 369.041 203.098 369.473 203.26 369.527C202.828 367.582 202.342 367.419 201.801 367.203Z" fill="#803D1D"/>
<path d="M272.38 362.009C273.029 358.388 273.623 355.686 273.407 354.011C273.083 356.659 271.57 359.199 272.38 362.009Z" fill="#803D1D"/>
<path d="M234.876 401.677C233.039 402.055 231.742 402.703 230.553 403.73C232.228 403.946 233.633 403.46 234.876 401.677Z" fill="#803D1D"/>
<path d="M214.447 438.703C212.826 437.298 210.88 437.082 208.881 436.974C210.664 437.839 212.448 438.541 214.447 438.703Z" fill="#803D1D"/>
<path d="M329.719 279.007C332.043 275.062 332.637 274.305 332.961 273.819C331.394 275.116 329.773 276.305 329.719 279.007Z" fill="#803D1D"/>
<path d="M334.366 341.433C334.528 339.488 335.447 338.191 334.582 336.785C333.231 338.028 333.717 339.433 334.366 341.433Z" fill="#803D1D"/>
<path d="M211.368 423.737C209.854 423.089 208.341 422.44 206.666 422.494C208.125 423.251 209.638 423.954 211.368 423.737Z" fill="#803D1D"/>
<path d="M179.537 334.507C181.483 334.291 181.591 333.102 181.861 331.319C180.51 332.346 179.969 333.156 179.537 334.507Z" fill="#803D1D"/>
<path d="M325.989 281.393C324.908 282.42 325.179 283.447 325.449 284.582C325.611 283.609 325.773 282.636 325.989 281.393Z" fill="#803D1D"/>
<path d="M202.612 257.284C201.477 257.446 200.397 257.771 199.424 259.014C201.261 259.23 201.802 257.987 202.612 257.284Z" fill="#803D1D"/>
<path d="M411.754 264.15C412.889 263.934 413.483 263.556 414.024 262.745C412.889 262.637 412.51 263.34 411.754 264.15Z" fill="#803D1D"/>
<path d="M333.07 87.1164C334.475 87.927 335.555 86.6841 336.907 86.9003C317.668 113.597 370.25 94.4661 378.086 85.7654C392.299 97.4924 414.132 87.2785 441.855 87.2785C462.121 86.8462 474.766 95.3848 485.953 75.9839C488.223 82.5229 486.926 83.8739 486.115 84.3063C484.061 87.7109 491.681 82.5769 490.817 80.1451C489.79 79.1723 490.817 78.3077 490.763 77.3349C491.843 77.6592 492.06 78.1996 491.952 78.9562C499.734 82.8471 500.004 75.2273 505.516 73.0116C510.812 72.0929 493.357 86.0356 492.654 88.1973L492.762 88.0892C498.112 90.7912 506.597 89.224 510.704 90.1968C509.677 87.0083 511.136 84.9007 512.974 82.685C517.189 87.7109 523.296 89.3862 515.243 89.5483C533.455 93.8176 556.801 95.1686 575.013 98.0328C562.043 73.9303 525.673 86.0356 522.215 66.5266C516.54 59.5553 496.977 72.0929 505.408 65.4998C500.328 44.2615 472.767 62.2573 455.798 45.4504C444.557 39.722 441.207 48.6389 437.208 35.2906C434.343 33.183 442.99 8.26989 444.611 8.91838C416.239 8.91838 344.743 57.2315 306.211 97.0601C317.398 86.576 327.719 83.928 336.636 76.7405C345.877 71.4444 336.744 87.1164 333.178 87.1164H333.07ZM515.027 78.6319C515.406 75.4975 514.055 73.6601 512.379 71.9308C516.594 72.7414 517.567 74.795 515.027 78.6319ZM502.868 63.2841C502.003 64.3109 506.002 66.0943 502.868 63.2841V63.2841ZM465.633 70.904C463.147 72.6873 460.878 74.3626 458.392 76.2C452.015 64.365 461.904 65.6079 465.633 70.904ZM433.857 74.6328C433.587 70.7419 431.641 67.9857 429.912 64.6892C433.425 65.0135 435.424 66.9049 437.64 69.1746C424.724 51.2869 464.661 55.5562 433.857 74.6328ZM431.857 53.3405C418.563 58.4744 409.106 71.0121 397.973 75.9839C403.81 65.4998 428.129 40.7488 431.857 53.3405ZM427.048 43.3428C424.67 41.8837 427.48 42.7484 427.048 43.3428V43.3428ZM395.812 32.2103C391.867 35.5608 387.706 38.6412 384.247 42.4781C406.944 26.698 367.818 59.0148 364.522 56.0966C373.168 45.7747 383.869 38.1548 395.812 32.1562V32.2103ZM426.723 27.2925C415.159 53.2864 428.453 31.7779 405.485 42.1539C381.923 58.5285 390.57 71.2823 344.094 97.0601C339.555 96.3035 425.264 16.8625 426.723 27.2925Z" fill="#803D1D"/>
<path d="M303.022 94.5709C298.537 95.3274 297.186 96.6244 297.186 100.299C299.077 98.2997 301.293 96.8406 303.022 94.5709Z" fill="#803D1D"/>
<path d="M303.075 110.184C305.074 107.86 304.966 104.456 306.858 102.024C304.156 104.456 302.805 107.266 303.075 110.184Z" fill="#803D1D"/>
<path d="M443.26 32.6371C443.746 35.1771 444.989 36.7443 446.394 38.3115C447.475 36.312 447.421 36.312 443.26 32.6371Z" fill="#803D1D"/>
<path d="M444.719 19.3343C444.557 21.55 444.449 23.6576 444.287 25.7652C446.449 22.1985 446.503 21.0096 444.719 19.3343Z" fill="#803D1D"/>
<path d="M291.188 109.205C288.972 109.097 289.404 110.448 289.08 111.258C290.269 111.096 290.377 110.123 291.188 109.205Z" fill="#803D1D"/>
<path d="M160.947 271.663C160.298 272.906 159.488 274.041 159.596 275.608C162.622 274.149 162.676 274.041 160.947 271.663Z" fill="#803D1D"/>
<path d="M163.053 262.574C163.161 261.061 162.189 260.142 161.432 258.575C160.784 260.79 160.946 261.061 163.053 262.574Z" fill="#803D1D"/>
<path d="M161.595 264.465C160.136 267.113 162.567 265.708 162.135 265.222C162.027 265.06 161.811 264.736 161.595 264.465Z" fill="#803D1D"/>
<path d="M150.787 320.198C148.085 317.118 148.139 315.334 153.705 310.254C146.085 312.524 144.734 318.577 150.787 320.198Z" fill="#803D1D"/>
</svg>
