<svg width="48" height="48" viewBox="0 0 48 48" fill="none" xmlns="http://www.w3.org/2000/svg">
<rect width="48" height="48" rx="24" fill="#DEDBCA"/>
<path d="M17.0341 18.0369C17.1757 17.974 19.1956 17.9973 19.3033 18.063C19.3466 18.0898 19.5743 18.1174 19.809 18.1245C20.2162 18.1367 20.5865 18.1908 21.0779 18.3095C21.2015 18.3394 21.3912 18.381 21.4993 18.402C21.9915 18.4978 22.4105 18.6126 22.8359 18.7678C23.0891 18.8603 23.2961 18.9204 23.2964 18.9016C23.2964 18.8826 23.3282 18.893 23.3668 18.9246C23.4056 18.9563 23.6756 19.0739 23.9671 19.1862C24.2583 19.2983 24.5234 19.4119 24.5567 19.4389C24.5894 19.4657 24.869 19.6205 25.1779 19.7825C25.4868 19.9447 25.8281 20.1315 25.9363 20.1975C26.0444 20.2636 26.2542 20.3797 26.4026 20.4557C26.551 20.5317 26.7214 20.6389 26.7813 20.694C26.8412 20.749 26.9978 20.8435 27.1292 20.9036C27.2607 20.9638 27.4317 21.0619 27.5089 21.1216C27.825 21.3661 29.0431 22.1384 29.1126 22.1384C29.1537 22.1385 29.2206 22.1861 29.2613 22.2442C29.3021 22.3023 29.4993 22.4291 29.6997 22.526C29.9001 22.6231 30.2665 22.8159 30.5137 22.9542C30.7606 23.0924 31.0004 23.2213 31.047 23.2407C31.0933 23.26 31.3418 23.3642 31.5991 23.4722C32.1079 23.6859 32.216 23.7179 33.0128 23.8899C33.6613 24.03 34.8269 24.0842 35.2595 23.9945C35.8602 23.8698 36.6984 23.5819 37.236 23.316C37.8869 22.9941 38.2214 22.774 38.6119 22.4101C38.7723 22.2608 38.9407 22.1384 38.9863 22.1384C39.032 22.1384 39.1088 22.1234 39.1569 22.1049C39.2148 22.0827 39.2657 22.1183 39.3076 22.21C39.361 22.3273 39.3471 22.3915 39.2187 22.6229C38.8013 23.3747 37.9845 24.1204 37.0848 24.5711C36.1909 25.019 35.5853 25.1704 34.6788 25.1727L34.108 25.1739L34.3432 25.3833C34.4724 25.4983 34.6873 25.6754 34.8205 25.7767C34.9538 25.8781 35.1385 26.0205 35.2312 26.093C35.5324 26.3287 36.7934 26.9562 37.2127 27.0791C37.5459 27.1768 37.7742 27.1993 38.4484 27.2012C38.9294 27.2025 39.3045 27.2278 39.3454 27.2614C39.4476 27.3458 39.431 27.5276 39.3171 27.5713C39.263 27.5921 39.1178 27.6772 38.9943 27.7603C38.6017 28.0248 38.1182 28.148 37.4826 28.1458C36.7871 28.1434 36.4118 28.0575 35.7977 27.7603C35.3342 27.5359 34.3593 26.9092 34.1172 26.6802C33.9678 26.5388 33.3167 26.1125 33.0158 25.959C32.5297 25.711 31.7424 25.5103 31.2508 25.509C30.8938 25.5081 29.9656 25.701 29.7833 25.8139C29.7215 25.8522 29.6008 25.901 29.5149 25.9221C29.2315 25.992 27.625 26.8172 27.0721 27.1769C26.9091 27.2829 26.5678 27.473 26.3137 27.5993C26.0598 27.7255 25.7918 27.8753 25.718 27.9322C25.6444 27.989 25.5295 28.0357 25.4626 28.0358C25.3957 28.0358 25.3167 28.0579 25.2873 28.0849C25.2577 28.1122 25.1074 28.2037 24.9532 28.2887C24.6832 28.4376 24.46 28.5302 23.6053 28.8473C23.3892 28.9274 23.1618 29.0167 23.0999 29.0458C23.0382 29.0749 22.8233 29.1393 22.6226 29.1885C22.4218 29.2377 21.9668 29.362 21.6115 29.4648C20.3757 29.8226 19.1452 29.999 17.8767 30C17.1621 30.0005 15.9713 29.8622 15.4581 29.719C15.2399 29.6582 15.0094 29.6081 14.946 29.6081C14.748 29.6077 13.0996 28.9536 12.6695 28.7046C11.5429 28.0525 11.0337 27.6599 10.1943 26.7963C9.52806 26.1108 9.18154 25.6319 8.74251 24.7903C8.6076 24.5317 8.5877 24.4293 8.58697 23.9923C8.58618 23.497 8.58983 23.484 8.89067 22.8851C9.05815 22.5517 9.26561 22.1864 9.35176 22.0736C9.43788 21.9606 9.60531 21.7394 9.72402 21.582C9.8428 21.4246 9.96701 21.3125 9.99975 21.3327C10.0324 21.3529 10.0433 21.3439 10.024 21.3128C9.98399 21.2471 10.7386 20.5069 11.1005 20.2569C11.2346 20.1642 11.4243 20.0222 11.5217 19.9415C11.6191 19.8607 11.7999 19.7401 11.9234 19.6734C12.047 19.6067 12.3123 19.4476 12.513 19.3196C12.7138 19.1916 13.0676 19.0171 13.2993 18.932C13.531 18.8468 13.8469 18.7274 14.0014 18.6667C14.552 18.4504 14.8469 18.3581 15.0684 18.3326C15.1919 18.3184 15.3184 18.2887 15.3493 18.2668C15.3802 18.2448 15.5189 18.2198 15.6576 18.2115C15.7964 18.2031 15.9527 18.1733 16.005 18.1454C16.0574 18.1174 16.2851 18.0928 16.511 18.0907C16.7369 18.0885 16.9723 18.0643 17.0341 18.0369ZM19.1967 19.1306C18.6751 19.0797 17.23 19.0649 16.8094 19.1063C16.2113 19.1652 14.9828 19.4415 14.409 19.6461C13.8882 19.8318 13.0857 20.2274 12.6535 20.5114C12.4682 20.6331 12.2429 20.7771 12.1527 20.8317C12.0626 20.8862 11.9135 21.0004 11.8214 21.0853C11.7294 21.1702 11.6335 21.2398 11.6083 21.2399C11.5379 21.2399 10.6368 22.1851 10.3769 22.5316C10.0745 22.9348 9.73743 23.516 9.65116 23.783C9.56427 24.052 9.61049 24.189 9.98008 24.7611C10.4365 25.4676 10.5983 25.6651 11.2321 26.2867C11.5624 26.6107 11.8276 26.9014 11.8217 26.9328C11.8157 26.9642 11.8616 27.0003 11.9234 27.0131C11.9852 27.0258 12.0735 27.0699 12.1198 27.1108C12.1662 27.1517 12.2169 27.1833 12.2323 27.1809C12.307 27.1698 12.513 27.2629 12.513 27.3078C12.513 27.3358 12.7027 27.4628 12.9344 27.59C13.1796 27.7245 13.34 27.8459 13.319 27.8808C13.2971 27.9163 13.3088 27.924 13.3479 27.8999C13.3843 27.8777 13.5714 27.9401 13.7638 28.0385C13.9564 28.137 14.3648 28.2993 14.6712 28.3994C14.9774 28.4994 15.1921 28.5943 15.1486 28.6103C15.1046 28.6262 15.1317 28.6379 15.2088 28.6364C15.2861 28.6349 15.6697 28.6891 16.0612 28.7566C16.6076 28.8508 17.0205 28.8808 17.8383 28.8857C18.4242 28.8892 18.9298 28.8761 18.9615 28.8565C18.9933 28.8369 19.2046 28.8055 19.4309 28.7867C19.6571 28.7679 19.8886 28.7282 19.9455 28.6985C20.0021 28.6688 20.0602 28.6562 20.0746 28.6705C20.0889 28.6849 20.1942 28.6734 20.3085 28.6453C20.4228 28.6172 20.63 28.5709 20.769 28.5423C21.4446 28.4038 22.6182 28.0749 22.8251 27.966C22.9146 27.9189 23.114 27.8301 23.2684 27.7683C23.4228 27.7066 23.7388 27.577 23.9705 27.4806C24.2018 27.3842 24.4206 27.3055 24.4571 27.3054C24.4931 27.3054 24.5313 27.282 24.5416 27.2534C24.5532 27.2242 25.0159 26.9681 25.5711 26.6838C26.1271 26.3991 26.6453 26.1232 26.7226 26.0706C26.9833 25.8933 29.3651 24.7223 29.4654 24.7221C29.5197 24.7221 29.5882 24.7011 29.6176 24.6756C29.6894 24.6132 30.0644 24.5104 30.3679 24.47C30.7461 24.4196 30.7495 24.3832 30.3919 24.2235C30.1085 24.0969 29.8999 23.9823 29.4092 23.6837C29.3577 23.6524 29.1683 23.5404 28.9881 23.435C28.8078 23.3297 28.5432 23.1591 28.4 23.056C28.2571 22.953 28.1181 22.8684 28.0911 22.8679C28.0644 22.8676 27.937 22.7856 27.8083 22.6856C27.6795 22.5855 27.4427 22.4278 27.2823 22.3351C26.7514 22.0283 26.6986 21.9953 26.1047 21.6029C25.7804 21.3886 25.3887 21.1472 25.2342 21.0662C25.0797 20.9854 24.8395 20.8562 24.7005 20.7791C24.1362 20.4662 23.8534 20.3361 23.1562 20.0697C22.7546 19.9162 22.211 19.7348 21.9484 19.6667C21.6859 19.5985 21.3574 19.5086 21.2184 19.4669C20.9066 19.3732 19.8047 19.1899 19.1967 19.1306Z" fill="#283122"/>
</svg>
