<svg width="319" height="462" viewBox="0 0 319 462" fill="none" xmlns="http://www.w3.org/2000/svg">
<path d="M98.2515 256.869C98.3771 257.318 98.4849 257.749 98.6106 258.197C98.9337 258.646 99.2569 259.095 99.5621 259.561C99.1312 258.664 98.6824 257.767 98.2515 256.869Z" fill="#803D1D"/>
<path d="M248.693 328.691C213.071 315.483 213.825 344.412 205.512 370.828C185.08 380.967 199.174 345.65 203.914 337.449C204.848 330.396 214.058 319.485 205.62 320.813C213.717 313.186 201.885 320.095 201.239 317.96C199.12 320.831 202.747 326.538 205.871 325.174C207.487 331.204 204.704 327.92 203.268 329.535C202.424 326.412 208.564 327.22 203.716 326.071C195.152 326.538 198.707 330.629 201.418 333.214C205.566 331.778 202.621 335.044 202.226 336.892C195.906 337.359 198.707 334.362 201.346 334.631C200.969 333.573 200.61 333.465 200.251 333.214C186.57 334.99 197.989 336.39 193.249 340.051C196.193 340.051 198.51 340.589 200.125 340.769C200.323 340.374 200.485 339.943 201.203 339.818C199.479 344.519 197.989 348.342 195.78 351.393C196.445 347.642 199.784 344.322 199.407 341.379C199.066 342.599 198.168 343.55 197.809 344.771C191.13 345.524 193.375 342.474 195.421 342.079C199.605 340.105 189.532 341.935 188.652 341.54C187.288 347.66 191.938 349.921 196.283 347.947C192.477 355.736 189.191 364.116 193.698 371.671C190.951 365.462 191.651 357.763 195.062 352.631C186.085 374.022 207.864 389.366 211.85 355.646C214.399 346.942 214.22 342.492 218.619 335.672C224.669 325.658 245.317 327.866 251.853 335.206C249.483 335.116 248.459 335.511 248.765 332.926C247.238 334.362 245.425 332.478 246 331.563C216.608 325.318 220.127 363.327 222.587 368.477C221.222 378.006 214.489 385.669 212.748 391.107C209.085 389.581 207.379 391.878 205.314 390.317C208.367 388.343 199.12 389.168 201.149 390.263C203.016 392.596 199.156 388.307 199.012 388.845C197.558 390.317 195.116 386.62 194.236 386.189C191.777 386.943 188.652 385.041 189.263 387.643C184.72 386.638 189.245 384.377 189.209 382.887C188.365 381.147 185.097 381.47 188.078 380.77C188.042 378.473 182.045 381.972 182.045 378.58C178.149 379.155 171.667 377.27 172.296 375.889C177.18 374.291 179.208 376.176 178.382 371.384C176.838 372.856 174.899 371.025 174.019 370.72C175.187 369.877 175.384 369.069 175.169 368.387C170.069 370.2 169.082 366.808 171.721 365.534C176.551 363.883 176.192 369.913 176.946 361.765C176.3 361.658 176.084 362.357 175.402 362.25C178.347 358.661 174.486 360.868 173.714 361.317C169.585 359.02 170.159 358.356 171.614 356.561C175.528 351.106 177.97 363.093 178.382 352.81C181.058 348.485 169.423 353.708 174.899 347.427C186.211 349.203 186.498 343.102 180.752 346.35C181.004 344.089 180.214 343.73 178.849 344.214C177.179 342.33 182.243 340.607 183.176 341.738C186.713 345.596 189.891 337.108 186.175 340.284C186.426 338.346 182.44 339.261 181.74 338.328C181.094 334.99 186.983 334.38 189.119 337.18C190.592 333.752 192.19 334.165 191.687 332.603C180.447 333.285 187.36 329.858 186.498 328.996C191.435 328.117 194.344 331.545 196.517 326.394C183.356 326.125 192.459 322.787 190.771 322.482C194.362 321.531 196.247 322.769 197.773 324.043C199.371 316.542 194.649 320.059 193.518 318.588C194.182 318.032 193.877 317.78 193.734 317.457C205.458 317.87 197.091 316.129 199.084 313.76C192.62 309.274 184.882 315.734 193.841 315.017C185.51 319.718 183.23 329.23 178.364 334.362C181.273 292.89 153.084 316.65 110.604 267.55C118.145 265.145 114.679 265.379 111.861 265.127C111.807 265.127 111.753 265.127 111.699 265.127C109.329 264.894 107.587 264.284 113.728 261.341C116.349 263.782 117.786 260.785 118.127 263.459C112.471 270.242 119.294 274.37 124.142 271.068C122.418 277.6 133.209 279.538 133.46 274.226C130.264 276.236 128.002 276.182 127.14 274.244C132.257 264.302 135.579 278.425 134.95 267.191C133.945 268.035 132.957 267.801 131.97 267.03C133.945 266.043 134.914 265.11 135.363 264.212C127.373 266.204 127.858 263.746 130.857 260.39C136.979 259.977 136.692 263.423 136.638 256.693C133.532 258.362 131.988 254.97 129.277 255.85C123.459 264.661 115.613 263.333 121.125 256.926C123.549 255.437 125.237 257.267 126.422 258.272C130.336 250.286 115.092 250.986 115.595 258.864C114.374 258.47 113.261 258.129 112.094 257.752C112.687 256.567 114.733 256.531 114.267 254.539C107.839 258.523 107.354 252.996 110.927 251.83C115.703 250.125 115.128 256.28 115.882 248.079C108.324 248.312 108.952 245.244 105.433 252.027C102.039 252.781 98.8076 252.53 102.345 250.268C107.641 250.233 106.259 248.779 106.69 246.5C99.7771 246.931 99.9747 244.418 97.7842 251.614C97.479 251.13 97.2097 250.663 96.9762 250.233C97.1019 251.255 97.2815 252.278 97.4969 253.283C97.5328 253.481 97.5867 253.678 97.6226 253.876C97.8381 254.432 98.0894 254.988 98.3408 255.544C98.646 256.083 98.9512 256.621 99.2385 257.16C100.316 259.152 101.429 261.305 102.147 263.548C105.379 269.219 107.605 275.339 108.898 281.584V281.53C109.078 305.344 114.733 330.235 129.384 348.791C130.551 354.408 171.578 373.843 155.077 372.748C154.988 379.083 146.513 378.742 150.248 374.579C149.727 372.012 151.666 370.756 153.731 371.51C158.022 371.366 151.451 365.534 150.05 366.126C155.49 368.926 147.77 368.854 146.693 369.464C141.755 376.409 139.277 377.163 139.798 370.648C142.222 367.077 143.838 369.015 145.184 368.908C144.215 360.904 140.373 367.131 136.889 366.629C135.615 368.477 135.758 371.348 134.681 369.356C126.601 373.95 126.188 371.115 127.768 380.716C125.183 379.28 122.597 377.845 119.814 376.283C123.711 375.207 126.368 372.425 125.219 369.626C123.513 372.766 120.335 376.014 117.947 373.035C119.294 355.215 127.14 377.629 136.099 367.723C136.512 363.291 136.405 363.201 134.34 366.521C127.212 373.412 127.158 361.55 130.623 359.863C136.782 361.119 136.189 360.383 133.352 356.615C130.192 353.923 125.937 362.806 127.194 354.156C117.319 369.518 114.626 344.555 126.565 350.854C123.477 339.279 115.326 354.318 118.665 344.089C117.139 342.186 116.224 349.203 113.207 348.719C103.386 349.257 109.76 332.783 117.732 339.477C115.811 328.943 103.027 338.023 104.427 339.692C86.6523 334.039 85.9701 358.14 99.849 356.184C99.2565 372.999 115.829 367.346 113.764 359.773C103.44 376.822 99.8669 348.88 113.297 356.346C110.263 349.131 108.377 351.805 114.59 349.903C112.956 357.799 117.121 363.201 124.393 360.24C124.07 361.388 123.926 362.483 123.944 363.65C118.899 359.809 111.071 366.395 113.979 372.694C111.232 371.366 109.06 369.374 107.516 368.818C107.516 368.836 107.48 368.872 107.462 368.89C107.462 368.89 107.444 368.89 107.426 368.908C110.281 371.025 114.087 373.035 115.559 375.045C96.3119 364.583 80.9607 346.888 72.6298 327.597C67.5307 312.02 66.0045 291.292 70.6548 273.795C70.7625 272.665 70.942 271.534 71.1755 270.421C71.6423 268.16 72.2887 265.953 72.9171 263.728C73.2043 262.687 73.4916 261.628 73.743 260.569C74.0123 259.421 74.1918 258.272 74.3534 257.088C74.4971 255.939 74.6587 254.809 74.7843 253.66C74.4432 254.199 74.0841 254.755 73.7071 255.311C73.7071 251.578 73.7071 247.882 73.1684 244.203C74.12 268.878 63.2395 299.906 40.9758 315.591C37.8876 318.624 43.1124 309.938 40.0063 308.807C39.2881 309.274 39.3419 308.61 39.1803 308.251C46.3263 313.096 52.5565 305.236 49.4504 299.26C54.8727 298.201 58.5175 294.289 56.4706 288.367C55.1599 287.452 55.537 286.752 56.2193 286.788C64.0834 289.749 69.003 277.815 58.0506 274.226C65.3402 274.926 68.195 269.381 63.2216 265.092C66.8484 260.372 74.9998 247.702 64.4245 247.523C59.5947 248.025 60.5643 251.022 61.0311 250.394C69.4159 246.769 66.7945 253.212 63.2934 254.199C57.0452 251.919 59.7384 254.683 57.3145 257.806C58.3738 257.554 59.3613 257.393 60.3129 256.855C63.7243 258.721 64.3347 258.775 61.1747 260.587C58.4636 262.184 57.3325 260.085 56.4527 259.672C54.6393 262.328 56.2731 263.764 55.932 264.607C57.925 263.225 59.2356 264.84 60.1693 264.804C58.0147 268.376 51.174 260.515 48.9836 267.819C62.0904 262.579 53.0592 272.79 54.5674 272.055C50.007 274.513 49.199 271.05 47.9063 270.332C46.2545 273.095 46.9188 276.505 48.9297 275.321C51.4792 276.631 53.8852 276.2 54.0108 278.353C63.3652 273.921 61.1747 279.717 59.2716 282.678C53.2209 286.124 47.3317 269.614 42.4122 280.292C52.1077 275.787 49.6658 281.871 47.7986 284.599C41.8197 287.667 40.886 278.479 40.6526 286.393C37.0078 285.657 33.776 286.698 33.8119 289.031C41.1194 285.783 41.8735 289.785 38.4801 292.602C36.0562 293.823 34.0274 292.656 32.7346 291.274C29.0898 297.609 37.5106 296.443 40.3653 297.735C39.5574 299.063 39.5753 299.799 40.114 299.709C53.957 291.938 43.669 312.989 38.6237 302.634C38.6956 303.334 38.2287 303.531 37.7081 303.657C38.0492 299.027 32.591 295.563 28.3537 298.435C26.5044 299.87 27.1148 299.924 27.0251 300.75C41.5324 294.343 30.7596 312.145 25.9298 303.19C24.5294 308.125 20.6153 306.995 21.4771 309.705C22.5723 308.448 23.9907 308.323 25.3373 307.892C24.4576 309.471 26.1094 309.346 26.1094 308.682C31.6753 308.933 24.4576 313.168 26.3069 313.384C22.9673 314.371 22.2312 313.868 21.0641 312.235C19.4123 312.648 14.2055 313.707 14.1516 316.398C17.2757 314.586 21.6746 314.299 18.1555 315.788C27.6714 317.17 15.3546 325.335 13.0384 318.947C12.0509 320.526 3.86362 315.95 3.05567 321.692C13.4155 317.565 10.8659 322.931 9.08841 326.484C4.13294 329.373 2.17589 324.007 -0.876396 323.559C-7.42983 322.536 -7.64529 327.327 -5.36505 325.658C1.42179 323.2 -0.589119 328.835 -3.83891 329.301C-7.64528 330.073 -13.8755 322.105 -16.6944 329.445C-6.63982 325.246 -9.56643 332.478 -13.3549 334.003C-17.7896 335.349 -19.639 323.308 -25.2588 331.455C-27.3594 328.243 -32.1713 328.889 -33.482 331.258C-31.9199 332.568 -25.5281 328.871 -28.2572 334.147C-38.4554 338.795 -32.3508 321.369 -42.567 329.355C-45.6193 327.704 -48.4741 325.928 -51.257 328.207C-50.88 324.815 -53.4295 324.618 -53.3398 323.774C-32.4765 334.613 9.89637 309.202 24.4576 275.339C9.73478 300.66 -15.5453 326.843 -46.9479 324.097C-58.3671 320.472 -59.9471 314.783 -76.8783 315.699C-71.6176 314.64 -69.1219 315.376 -66.0696 315.286C-73.1258 312.45 -90.7033 316.506 -94.1686 329.93C-93.3067 327.991 -92.5347 326.287 -91.3317 324.779C-91.0624 325.407 -91.1881 325.946 -91.2958 326.484C-92.5347 327.848 -92.6783 328.332 -92.8579 328.871C-97.7236 335.206 -87.1842 329.176 -88.6565 333.07C-95.0483 339.279 -94.7611 328.494 -95.9102 338.418C-93.5401 337.844 -95.192 342.707 -94.2224 343.461C-87.1483 337.377 -83.4856 345.812 -95.2099 344.878C-95.8922 349.688 -87.8665 350.011 -89.1413 355.736C-13.2651 381.649 -78.2249 417.989 -76.4294 387.015C-75.1008 389.563 -75.9267 391.465 -74.5801 393.045C-75.8369 386.477 -71.5996 385.615 -68.2421 382.205C-66.6082 371.869 -90.5058 376.158 -83.9703 399.595C-80.954 398.016 -80.8103 402.915 -82.139 403.579C-79.7869 402.646 -75.6753 404.225 -76.5192 406.36C-71.5637 405.786 -65.7285 408.011 -61.6528 408.55C-55.4405 406.163 -50.5927 403.256 -46.3375 399.433C-40.6459 394.068 -44.2547 389.653 -46.2657 385.884C-37.9706 391.214 -41.3102 383.246 -43.1775 379.603C-40.592 376.858 -47.1275 373.34 -44.5959 369.608C-47.5404 363.111 -52.4241 359.379 -56.3202 354.461C-86.5917 343.209 -77.8119 333.77 -63.4482 338.131C-64.8846 344.681 -62.6762 341.522 -59.2648 343.407C-51.3648 345.883 -46.8043 348.773 -38.7247 350.388C-34.1463 347.193 -33.4461 350.136 -28.0238 350.818C-21.6858 346.547 -24.2892 348.773 -18.2565 349.903C-12.9419 345.165 -13.4087 348.27 -8.2737 349.06C-0.642982 344.412 -6.51414 341.361 2.24771 344.609C8.89091 338.884 6.10795 339.243 13.2 341.702C29.2694 325.246 50.6533 318.785 63.9577 292.19C63.2395 314.909 73.5096 338.633 86.4369 353.905C102.776 371.169 120.73 381.165 142.204 390.568C163.193 400.259 185.618 407.545 200.915 424.755C206.05 430.785 220.342 472.562 226.86 459.336C234.042 458.224 240.452 457.273 245.748 453.647C242.57 452.212 246.287 452.014 247.436 451.368C247.4 445.428 251.907 450.902 248.495 445.016C252.284 442.701 249.052 443.867 249.339 442.144C252.607 441.157 247.256 439.632 247.777 436.007C239.985 439.847 244.671 442.97 248.477 445.016C246.682 445.805 245.263 447.582 246.035 448.802C234.257 460.198 228.925 453.647 225.316 458.636C225.316 460.018 223.718 460.072 223.646 459.857C223.664 455.352 228.296 456.591 225.262 452.75C223.879 455.173 221.509 454.311 220.109 454.509C226.591 449.574 229.733 449.699 223.233 448.497C223.628 450.776 221.689 448.371 221.168 448.856C215.71 453.109 218.367 446.954 222.246 447.043C229.661 449.753 250.865 452.391 238.494 434.84C230.253 436.097 231.69 446.092 238.171 445.249C231.797 449.825 226.824 438.555 232.534 434.32C227.506 436.743 229.356 445.949 233.862 446.99C222.174 449.592 223.808 423.893 217.721 418.276C223.484 420.125 206.481 404.081 208.187 404.027C199.389 400.887 209.552 402.412 205.063 399.954C202.711 399.092 205.961 398.034 206.302 398.231C214.112 396.993 219.391 391.591 224.077 385.328C233.467 371.402 225.029 357.064 230.63 342.94C231.654 335.726 242.014 335.672 244.976 339.692C244.761 342.994 243.953 344.95 244.473 347.857C256.288 351.644 261.907 334.308 248.765 328.548L248.693 328.691ZM193.518 317.475C192.8 318.767 192.459 318.731 191.274 317.385C192.1 317.421 192.836 317.457 193.518 317.475ZM125.201 261.933C126.009 264.499 123.89 263.53 123.405 263.423C123.926 262.848 124.662 262.705 125.201 261.933ZM124.914 267.766C127.894 260.192 127.697 268.537 124.555 269.901C113.441 272.934 121.772 263.8 124.914 267.766ZM106.492 262.956C103.943 260.623 99.2744 254.611 99.0231 253.391C101.088 254.701 102.829 254.988 105.074 252.96C108.054 260.462 111.017 255.15 106.492 262.956ZM101.142 353.708H101.196C92.4158 357.853 94.6601 344.932 96.7608 343.245C105.11 337.359 108.09 353.133 101.124 353.708H101.142ZM105.415 352.559C106.905 348.019 107.498 350.513 109.509 350.495C107.929 353.528 106.295 351.752 105.415 352.559ZM62.5752 267.137C63.8679 268.95 60.9413 269.865 60.277 269.614C57.2965 266.994 61.6775 266.168 62.5752 267.137ZM44.9438 295.958C33.5605 300.624 48.2833 292.315 42.7354 288.331C49.9172 291.364 52.6643 283.683 54.1904 289.964C53.2747 293.266 50.1147 291.256 52.0538 293.536C45.8595 298.112 47.1342 286.483 44.9438 295.976V295.958ZM-92.9117 340.446C-93.4504 337.969 -90.9188 339.082 -90.5417 339.584C-91.9781 340.374 -92.409 340.428 -92.9117 340.446ZM-83.1803 392.076C-83.4317 391.25 -82.4262 391.573 -82.3903 391.555C-80.0562 391.591 -82.8212 393.045 -83.1803 392.076ZM-81.7619 396.06C-81.2951 396.454 -80.6487 395.916 -80.164 396.436C-81.0018 396.616 -81.5345 396.49 -81.7619 396.06ZM-55.9432 400.708C-56.3561 399.021 -55.0455 399.631 -54.417 399.559C-52.1548 401.443 -55.8355 400.923 -55.9432 400.708ZM-79.4996 316.847C-84.4192 317.96 -87.3099 322.374 -90.6135 324.007C-88.0819 320.634 -82.911 316.506 -79.4996 316.847ZM-85.6042 322.303C-82.6237 319.054 -81.7799 320.275 -79.8767 319.539C-76.4474 323.397 -85.1913 324.994 -85.6042 322.303ZM-87.651 349.167C-87.0765 351.644 -84.2038 347.391 -82.8931 349.383C-82.2647 355.43 -91.9601 350.783 -87.651 349.167ZM-84.7065 344.896C-86.4122 343.12 -80.7206 340.535 -82.1031 342.833C-77.2912 343.999 -82.8931 346.26 -84.7065 344.896ZM-80.541 354.928C-84.2576 354.138 -79.4278 352.541 -79.4278 352.093C-75.8369 353.313 -79.7151 354.39 -80.541 354.928ZM-70.0914 361.568C-70.4146 359.953 -68.1703 361.478 -68.2062 361.209C-64.3639 363.775 -70.3069 361.532 -70.0914 361.568ZM-45.3141 383.067C-45.1345 383.533 -45.2243 383.3 -45.1345 383.533C-46.2836 382.708 -45.4757 382.852 -45.3141 383.067ZM-45.0627 379.621C-47.2352 379.962 -47.2173 379.191 -47.325 378.491C-47.1634 378.006 -45.1166 379.316 -45.0627 379.621ZM-49.3718 394.893C-49.2282 393.565 -48.6357 393.745 -48.492 393.637C-45.3859 394.821 -48.4023 395.629 -49.3718 394.893ZM-47.9534 374.83C-48.2945 374.866 -48.6177 374.74 -48.6536 374.148C-48.1509 374.22 -48.115 374.596 -47.9534 374.83ZM-51.0236 366.539C-52.3702 366.898 -52.9627 366.844 -53.1961 366.377C-53.2859 364.332 -50.1259 365.749 -51.0236 366.539ZM-53.9143 362.106C-53.645 362.483 -53.7707 362.681 -53.9143 362.896C-55.7457 363.273 -54.3093 361.173 -53.9143 362.106ZM-57.9002 358.374C-59.193 358.786 -59.5162 358.338 -59.8573 357.71C-62.1734 354.336 -54.848 356.094 -57.9002 358.374ZM-58.6364 362.698C-59.7675 363.021 -60.0548 362.932 -60.3062 362.806C-60.5216 361.55 -58.2952 362.142 -58.6364 362.698ZM-58.3671 366.79C-53.5732 365.175 -55.1711 368.513 -55.3866 370.002C-53.268 368.495 -51.5623 370.379 -52.6934 371.797C-48.2945 374.166 -47.4686 384.162 -49.3359 389.222C-48.3843 379.567 -55.3327 371.205 -61.6348 366.126C-61.545 364.475 -58.8698 366.413 -58.3671 366.79ZM-62.4428 364.96C-64.4357 364.565 -64.7948 363.434 -65.4232 363.309C-63.6996 363.542 -62.5325 363.991 -62.4428 364.96ZM-64.31 355.502C-65.1719 354.731 -66.303 354.928 -67.3803 354.838C-64.9205 350.944 -61.6707 353.959 -64.31 355.502ZM-66.9673 358.158C-67.9189 358.427 -68.2062 358.338 -68.4396 358.212C-68.9244 356.848 -66.5185 357.422 -66.9673 358.158ZM-70.648 350.28C-72.3717 349.114 -70.2889 349.347 -70.1273 349.347C-66.8057 354.695 -78.7096 351.357 -70.648 350.28ZM-72.0844 355.897C-72.4076 357.53 -73.4669 356.74 -74.0414 356.938C-78.1171 357.117 -73.1617 354.425 -72.0844 355.897ZM-77.4349 349.58C-78.9431 348.485 -77.381 347.068 -76.986 346.996C-73.5208 347.911 -76.9142 348.898 -77.4349 349.58ZM-76.2858 330.899C-78.2249 333.124 -80.6308 329.481 -82.6597 332.657C-87.0047 335.923 -72.6948 333.626 -81.4028 336.892C-81.331 337.215 -80.5051 337.844 -81.6721 337.772C-81.6721 337.987 -81.6362 338.203 -81.6183 338.526C-85.2631 334.775 -85.1913 339.889 -85.4606 339.818C-91.4035 341.612 -84.5269 334.649 -84.7963 332.729C-79.2842 324.097 -69.6605 328.943 -76.2858 330.917V330.899ZM-75.6394 321.369C-71.3123 316.183 -66.6262 323.092 -72.2101 323.451C-72.0305 323.72 -71.9048 323.936 -71.6535 324.33C-74.6878 325.228 -76.3935 324.851 -75.6574 321.369H-75.6394ZM-67.2546 333.393C-72.4614 335.708 -71.6714 330.468 -69.0501 329.301C-69.0501 329.212 -68.9962 329.122 -68.9244 329.086C-68.3678 328.799 -67.7394 328.655 -67.111 328.817C-66.698 328.925 -66.3389 329.176 -66.0696 329.499C-62.2273 330.629 -65.6925 333.088 -67.2546 333.375V333.393ZM-66.5544 327.507C-69.1578 327.507 -67.1289 326.089 -67.5239 326.125C-66.0157 323.918 -64.5973 327.92 -63.3944 326.951C-60.9525 322.931 -64.4357 320.526 -66.1594 323.451C-66.1594 319.826 -62.0478 317.314 -67.1289 320.598C-70.9892 314.119 -76.6628 322.285 -78.1351 318.265C-69.4091 316.291 -61.5989 317.78 -54.6145 323.343C-57.1282 322.5 -60.9525 323.756 -60.7191 325.999C-52.6575 322.751 -54.2734 327.094 -56.6255 329.355C-60.5934 330.36 -62.5325 327.722 -66.5544 327.507ZM-56.5716 339.351C-64.9025 342.653 -63.0532 332.46 -57.6489 333.68H-57.7027C-49.5873 335.995 -59.1212 338.113 -56.5716 339.351ZM-24.0199 331.598C-17.9153 329.086 -20.2853 333.68 -22.3142 334.434C-24.5765 336.749 -25.0074 331.993 -24.0199 331.598ZM-39.389 329.301C-35.3313 330.988 -40.1072 337.736 -42.0284 334.219C-44.0572 331.957 -41.2563 329.212 -39.389 329.301ZM-47.7918 328.655C-42.3875 331.096 -51.0236 334.954 -52.3523 331.76C-55.3866 334.901 -50.5568 327.399 -47.7918 328.655ZM-47.7738 342.366C-55.3507 346.17 -51.9034 338.023 -50.862 336.552C-40.5202 338.292 -49.5334 340.948 -47.7738 342.366ZM-38.9581 345.076C-45.9963 350.172 -43.4827 340.93 -42.154 338.795C-29.927 339.405 -41.759 344.125 -38.9581 345.076ZM-35.0979 338.579C-36.8754 337.216 -36.4804 337.287 -36.3727 336.892C-35.0261 334.667 -34.649 338.023 -35.0979 338.579ZM-32.4406 338.508C-32.9972 339.154 -33.8411 339.602 -34.0924 340.769C-35.7622 338.22 -33.6077 337.7 -32.4406 338.508ZM-31.0042 347.014C-37.6474 345.309 -31.8301 336.892 -28.4008 340.428C-28.5624 340.212 -28.724 339.997 -28.9035 339.782C-21.4703 340.284 -29.4601 346.763 -31.0042 347.032V347.014ZM-25.0074 339.064C-26.6413 337.574 -26.5694 338.274 -25.941 337.413C-20.4828 338.472 -24.5047 340.751 -25.0074 339.064ZM-16.9637 342.366C-18.2565 344.932 -20.016 342.186 -18.849 345.076C-24.5765 348.109 -22.009 341.935 -23.0503 340.769C-20.9856 337.646 -15.2939 339.136 -16.9817 342.366H-16.9637ZM-8.1121 343.64C-17.0176 348.001 -11.2003 338.095 -18.2206 337.539C-15.5274 335.08 -14.5937 339.961 -12.7444 338.238C-2.49231 337.485 -7.25028 338.92 -8.1121 343.658V343.64ZM-0.44548 340.553C-15.2401 332.747 -1.88185 330.791 -3.37209 335.295C6.14386 330.181 4.92295 339.01 -0.44548 340.553ZM13.1821 336.659C7.41863 339.764 6.00022 331.275 0.937027 331.957C2.0143 328.009 7.20319 331.168 7.70591 332.388C17.0244 328.279 14.8518 333.519 13.1821 336.659ZM21.6926 330.217C17.4193 331.275 16.0369 328.763 12.5896 329.032C15.9471 319.808 16.5575 328.494 18.2632 326.053C23.2007 326.592 22.1953 323.631 22.9314 327.776C23.5419 330.271 19.8073 328.099 21.6926 330.235V330.217ZM29.5746 322.877C21.6566 325.892 24.1344 316.345 29.1796 318.372C28.4973 317.529 28.4076 317.87 28.1921 317.421C36.0383 318.947 27.438 322.428 29.5567 322.877H29.5746ZM34.0453 318.57L34.2608 318.39C36.8462 319.377 34.1889 319.683 34.0453 318.57ZM35.8946 314.209C29.5746 316.686 30.1133 309.633 34.4044 309.292C41.5324 308.287 34.6737 314.335 35.8946 314.209ZM36.3076 307.21C37.1156 306.098 37.5285 304.967 37.6362 303.908C37.9594 305.47 37.9415 308.395 36.3076 307.21ZM116.367 375.53C119.545 376.247 122.992 378.975 125.219 380.285C121.879 378.688 118.181 377.199 116.367 375.53ZM246.915 441.05C246.502 440.206 246.538 440.152 247.687 439.704C246.987 439.883 247.274 440.637 246.915 441.05ZM238.387 440.924C240.793 440.045 239.608 443.706 239.608 444.728C235.694 442.593 237.812 442.521 238.387 440.924ZM201.293 404.512C207.289 399.954 201.652 406.037 201.759 406.666C197.307 407.563 200.915 403.363 197.307 407.724V407.67C193.033 410.721 195.026 405.391 195.798 404.368C202.801 401.695 201.041 402.43 201.293 404.494V404.512ZM197.917 395.414C196.499 396.006 195.493 395.503 195.134 395.019C195.35 393.045 199.623 393.493 197.917 395.414ZM196.93 398.303C196.211 400.923 195.224 400.743 193.949 400.815C191.094 396.688 196.229 398.68 196.93 398.303ZM191.04 392.901C189.712 393.565 188.76 393.117 188.365 392.632C188.832 390.317 192.495 391.43 191.04 392.901ZM186.426 400.869C188.76 395.808 191.866 402.628 189.927 403.597C184.774 408.675 185.941 402.125 186.426 400.869ZM183.895 387.23C186.211 388.056 185.726 388.451 185.475 389.438C180.663 391.968 181.417 388.163 183.895 387.23ZM183.087 382.026C183.212 382.887 183.087 383.103 182.925 383.336C180.268 383.533 182.207 381.201 183.087 382.026ZM183.428 396.383C179.083 402.484 177.772 398.949 177.862 395.79C180.645 392.129 183.805 393.673 183.428 396.383ZM179.873 384.538C178.185 385.561 176.461 384.736 176.084 383.892C177.197 381.111 182.045 381.936 179.873 384.538ZM177.969 387.751C177.61 389.886 177.61 389.886 178.759 391.16C174.594 392.022 175.707 387.176 177.969 387.751ZM169.333 391.519C172.87 387.392 172.942 391.968 174.432 393.242C166.927 401.425 170.662 390.371 169.333 391.519ZM173.607 380.447C168.92 392.112 164.45 383.856 167.951 382.672C165.545 379.711 172.027 379.926 173.607 380.447ZM110.55 271.624C120.712 281.817 130.354 292.369 142.042 299.153C141.54 299.009 141.037 298.848 140.516 298.704C165.617 311.481 180.178 304.465 174.289 341.54C165.706 350.244 172.619 349.365 167.969 354.3C164.593 358.912 169.926 361.693 166.479 365.354C164.468 371.438 172.673 370.63 169.459 373.538C130.462 345.883 123.765 354.031 110.532 271.642L110.55 271.624ZM159.261 377.342C156.998 374.453 165.778 373.43 166.909 375.548C171.057 377.575 164.575 378.024 164.486 377.683C158.848 384.413 156.065 379.675 159.261 377.342ZM159.566 387.302C161.703 383.516 163.498 385.92 164.091 387.302C165.671 393.134 157.034 393.475 159.566 387.302ZM149.081 383.354C151.953 379.262 154.718 381.936 156.927 382.636C148.344 393.081 147.662 384.826 149.996 383.946C149.727 383.551 149.314 383.767 149.098 383.354H149.081ZM140.462 379.998C142.904 376.032 144.251 378.903 146.118 378.15C146.926 382.582 138.685 388.989 140.462 379.998ZM135.345 378.993C128.074 383.767 132.975 374.812 131.054 375.996C135.615 370.272 138.182 376.678 135.345 378.993ZM214.256 450.345C214.292 449.951 213.645 449.053 213.466 448.676C213.196 448.12 212.945 447.564 212.694 447.008C212.209 445.967 211.742 444.908 211.293 443.867C210.485 442.019 209.695 440.152 208.923 438.286C207.684 435.289 206.463 432.274 205.027 429.367C203.77 426.837 202.28 424.414 200.467 422.242C198.33 419.694 195.78 417.505 193.087 415.531C189.191 412.659 184.99 410.183 180.77 407.814C174.397 404.261 167.879 400.959 161.344 397.711C157.016 395.557 152.654 393.439 148.308 391.322C144.071 389.276 139.636 387.482 135.633 385.023C134.699 384.449 133.927 383.803 132.885 383.372C132.095 383.049 131.323 382.78 130.821 382.026C132.85 382.941 134.34 381.667 136.099 380.949C136.225 387.446 140.965 387.338 144.753 385.328C145.023 386.171 145.256 386.925 145.508 387.733C144.7 387.733 144.071 387.212 143.12 387.105C149.134 390.766 152.689 390.712 154.988 386.387C154.539 394.193 161.397 395.988 165.15 390.873C165.078 397.746 168.615 398.626 172.565 397.352C176.425 397.944 173.786 403.489 180.627 401.282C184.164 405.391 182.763 409.734 190.681 405.714C190.681 409.95 193.554 411.152 196.624 410.344C195.924 413.736 198.42 416.392 200.772 415.692C201.993 424.539 204.848 419.838 204.704 422.404C204.488 426.837 209.103 425.006 208.654 428.164C211.67 436.294 215.046 442.054 214.292 450.345H214.256ZM220.36 445.213C219.193 442.324 218.17 446.344 216.787 445.357C219.714 441.301 225.082 442.252 220.36 445.213ZM218.331 439.363C218.044 440.027 218.224 441.103 217.093 441.157C216.733 440.009 218.044 440.045 218.331 439.363ZM219.032 440.816C218.044 439.291 219.965 438.645 219.876 437.855C223.359 439.488 219.822 439.883 219.032 440.816ZM219.606 437.407C219.57 436.366 219.014 435.827 218.529 435.217C217.559 438.286 215.531 436.348 216.177 436.15C220.63 432.615 222.335 433.961 219.624 437.407H219.606ZM217.883 425.652C217.757 425.742 217.577 425.85 217.38 425.993C215.441 432.471 224.598 427.483 219.068 430.713C219.157 431.879 218.888 432.148 218.421 432.525C218.26 432.023 217.918 431.628 217.865 431.072C216.41 432.202 214.256 433.297 213.34 432.418C217.093 428.595 217.182 429.385 215.387 426.119C214.669 427.59 213.268 427.698 212.011 428.147C212.101 424.827 215.243 425.616 216.698 424.952C216.374 426.208 217.272 425.939 217.865 425.634L217.883 425.652ZM215.136 414.041C217.075 415.764 215.082 414.992 214.974 414.131C215.028 414.095 215.082 414.077 215.136 414.041ZM212.137 414.095C212.55 414.777 211.778 420.896 215.656 419.694C213.825 420.825 215.513 421.955 215.369 422.117C214.094 422.386 210.521 421.973 208.169 423.678C209.444 419.694 213.484 420.591 210.018 417.11C208.438 416.159 206.051 420.502 204.686 418.581C205.817 412.426 211.006 415.477 212.137 414.095ZM204.363 409.106C204.363 406.594 206.697 407.976 205.494 408.981C207.81 408.011 208.6 407.509 206.894 409.339C207.63 412.157 205.135 412.606 204.506 410.99C197.217 416.984 200.538 409.214 204.345 409.124L204.363 409.106ZM202.693 396.131C202.065 394.678 203.896 395.396 203.788 395.091C206.302 395.396 203.285 397.495 202.693 396.131ZM217.29 389.904C216.823 389.779 217.057 389.15 216.626 389.043C217.434 388.863 217.362 389.366 217.29 389.904ZM225.944 355.843C225.28 355.969 225.064 355.843 224.849 355.736C224.436 354.174 226.77 355.43 225.944 355.843ZM224.58 359.181C227.255 358.948 224.705 360.689 224.185 359.773C224.005 359.145 224.382 359.307 224.58 359.181ZM224.454 364.798C224.49 366.09 223.395 365.552 223.538 365.031C226.609 361.891 226.77 365.857 224.454 364.798ZM219.104 386.154C218.762 385.274 219.409 385.364 219.427 385.274C222.928 384.79 220.289 387.338 219.104 386.154ZM223.646 382.295C222.443 382.6 222.12 382.403 221.833 382.17C222.946 380.285 224.131 382.367 223.646 382.295ZM224.328 378.975C221.904 378.024 225.172 377.809 225.029 378.078C225.1 379.101 224.4 379.029 224.328 378.975ZM224.651 373.753C225.711 373.484 225.998 373.556 226.231 373.645C226.698 375.386 224.131 374.345 224.651 373.753ZM225.675 370.254C225.334 369.464 226.285 369.751 226.267 369.554C228.099 370.092 225.567 370.684 225.675 370.254ZM250.273 344.286C252.715 340.571 250.524 337.79 251.063 335.277C253.702 338.418 252.589 342.707 250.273 344.286Z" fill="#803D1D"/>
<path d="M79.0042 207.323C78.8067 207.036 78.6092 206.767 78.4297 206.48C78.4117 206.444 78.3938 206.426 78.3758 206.39C76.9574 208.956 71.1221 208.992 63.5273 207.61C65.4664 208.382 67.3876 209.171 69.3267 209.961C73.941 210.087 77.496 209.351 79.0222 207.323H79.0042Z" fill="#803D1D"/>
<path d="M22.4659 195.818C24.8359 198.869 51.5164 208.829 67.6397 209.87C65.2697 208.901 62.8996 207.931 60.5296 206.998C41.3002 202.853 13.704 191.403 13.722 188.119C-10.3372 176.114 -12.0788 159.55 -40.7882 177.836C-34.1989 165.221 -52.5126 168.594 -43.248 171.771C-42.3503 173.942 -45.9951 173.96 -46.2464 172.848C-50.4478 170.856 -41.7219 177.711 -42.0271 177.89C-42.458 181.39 -43.7867 176.562 -45.7258 175.791C-50.376 172.704 -49.8374 177.675 -46.7312 178.231C-47.2878 180.259 -49.4783 179.272 -49.8015 178.339C-52.4587 177.854 -47.3417 181.928 -46.7133 181.785C-44.846 184.225 -55.4392 180.187 -50.4837 184.943C-47.6828 187.635 -57.1449 182.897 -50.1426 188.891C-53.3924 187.132 -62.9981 189.304 -55.3494 191.332C-55.1699 194.329 -58.8685 193.575 -59.066 192.067C-61.454 191.619 -58.276 195.369 -57.0372 195.011C-55.9419 197.236 -69.4258 190.542 -64.5242 196.733C-64.8115 198.941 -66.0504 196.697 -66.0683 196.967C-67.9895 196.59 -65.9786 199.389 -65.1526 198.851C-61.1488 202.745 -62.2081 202.045 -58.7788 200.161C-64.9551 201.238 -56.3908 196.913 -55.6367 196.428C-52.9794 199.802 -49.6578 186.845 -47.9162 191.206C-18.4168 152.21 -11.6838 184.028 22.4299 195.818H22.4659Z" fill="#803D1D"/>
<path d="M-98.7464 30.4105C-99.0516 32.5461 -101.296 32.2051 -98.8361 32.7614C-101.063 36.4583 -98.4232 33.91 -98.8721 36.1173C-98.2436 36.1352 -97.7409 36.1532 -97.1125 36.1711C-97.6152 37.4991 -97.2202 38.5041 -96.3405 39.6347C-94.0423 36.4403 -91.4209 37.4991 -93.3959 33.0845C-101.87 29.5312 -94.5091 29.5671 -96.3405 26.6599C-86.0345 13.057 -79.4452 20.3609 -76.8597 12.8596C-71.7067 11.9444 -83.6465 23.1066 -72.9456 17.5434C-71.3656 16.7 -71.6708 17.1666 -71.4913 17.6152C-77.3983 24.0757 -80.9174 21.7069 -73.556 24.7397C-75.6388 27.629 -79.9299 22.5324 -83.7543 24.1834C-97.5255 25.5831 -89.392 40.4063 -86.2679 39.3834C-79.3015 35.9019 -81.9049 27.3418 -88.0813 29.1723C-81.7613 23.1964 -75.4592 35.8302 -82.1922 40.1551C-76.1415 36.889 -78.6911 27.6648 -84.2211 26.6958C-74.6872 22.5683 -69.3726 44.8569 -70.5397 44.7851C-67.3258 46.4002 -63.6451 53.8118 -65.7278 53.5964C-56.7505 60.6491 -52.9262 67.7377 -50.5562 66.2661C-47.4141 66.2123 -50.0535 67.9889 -50.3946 68.6888C-42.6562 73.1752 -42.3868 69.4425 -39.173 76.7106C-38.2932 73.5162 -35.3486 76.9618 -34.2534 77.0874C-34.415 74.1802 -31.632 70.5013 -30.0341 72.7625C-29.2261 82.7762 -38.2034 74.8621 -31.9911 82.1661C-30.9497 81.5739 -28.0591 79.4383 -26.1379 81.8251C14.9243 109.085 41.4612 96.7201 58.4642 177.602C62.3245 182.339 66.9927 187.328 71.1402 192.317C70.7811 191.42 70.4579 190.504 70.1347 189.589C58.7336 173.797 63.4197 157.287 48.1044 130.584C37.7087 99.7529 -12.8156 93.8846 4.02584 89.2367C6.52153 80.6586 9.5379 84.5708 9.41222 88.2138C8.17336 90.2058 7.5629 91.2287 5.7854 90.7441C1.40447 90.6185 7.81427 96.2355 8.67609 95.087C5.35448 93.2924 12.1413 92.4849 12.6979 91.8927C16.5043 83.7991 19.9157 83.8889 19.1795 90.0083C15.5168 94.8537 12.0516 90.3673 17.0429 96.6662C18.5332 94.2256 21.7291 93.8308 23.3271 93.2027C24.6018 100.076 24.3864 90.4749 28.48 90.5647C35.5182 91.3184 30.6346 102.158 24.9609 98.9633C28.9469 109.641 35.3926 94.3333 33.7946 103.414C35.5721 105.531 35.3028 98.7479 38.0499 98.8735C45.914 96.7918 43.149 111.669 35.1412 107.505C41.156 118.991 44.6392 101.727 44.6033 114.074C53.0958 94.3153 60.5649 124.159 45.7703 117.609C48.3917 127.371 60.3136 117.735 58.7695 115.384C64.084 117.842 75.0723 112.602 71.2659 103.755C69.5602 97.0969 63.0068 98.5685 60.2956 98.2096C60.8163 94.5845 59.1824 89.2008 55.7531 89.1111C50.7079 86.8678 44.5135 92.8438 46.7758 96.8636C54.8015 78.5051 61.8756 106.052 47.7633 100.273C51.3183 106.68 53.5267 104.168 47.2965 106.806C46.6501 87.5318 34.0101 103.378 36.2005 94.2256C39.1989 97.5097 39.0373 94.2794 42.0358 93.8846C48.0506 92.0542 45.6267 87.6575 44.8008 84.1042C47.5478 85.1092 49.9178 86.4551 52.4315 87.4601C47.9069 84.4811 45.2137 84.499 43.4003 82.2378C80.297 96.1817 105.846 132.45 101.501 174.389C101.735 176.112 101.861 177.853 101.896 179.593C102.004 184.798 101.43 190.038 100.334 195.117C113.621 156.964 100.64 113.643 60.8342 89.0572C33.1303 72.0806 0.650375 69.2272 -38.0059 52.2146C-53.6623 45.3952 -62.3165 17.9741 -74.3999 10.5984C-79.5888 11.8905 -80.8636 15.7848 -86.0525 15.7668C-85.6215 13.8287 -100.093 23.1066 -95.5864 22.1914C-93.4138 22.9451 -101.386 24.7217 -97.9205 25.4396C-96.9689 27.934 -102.14 26.5163 -98.7105 30.0875C-97.6511 29.9798 -98.5848 30.913 -98.7105 30.3747L-98.7464 30.4105ZM-96.0891 34.3766C-95.6402 35.238 -96.125 35.5969 -96.7355 35.9199C-96.3405 35.5251 -96.6277 34.879 -96.0891 34.3766ZM-87.8479 33.6228C-90.182 34.7893 -89.5357 30.6438 -89.392 29.9081C-85.2086 31.6488 -87.5427 31.7565 -87.8479 33.6228ZM59.9904 101.314H59.9186C64.2995 97.5635 68.4111 103.073 65.7538 104.903C69.8295 108.08 65.4845 108.349 66.1488 110.682C58.2129 118.65 53.2753 102.481 59.9904 101.314ZM56.0045 102.983C55.6633 103.97 55.2324 104.885 55.2145 105.962C53.2754 106.106 53.2215 105.37 52.216 105.549C53.1138 102.391 55.3581 103.845 55.9865 102.983H56.0045ZM-64.1658 46.3105C-64.0581 45.3235 -64.0581 45.3055 -64.9199 45.2337C-63.9683 39.1681 -71.2579 44.1211 -67.7028 41.6984C-67.0206 40.9626 -67.7567 39.5629 -66.8949 39.186C-65.7278 42.7752 -62.3883 35.4174 -61.9574 39.2219C-66.9308 42.8111 -62.7115 46.1849 -62.3165 43.816C-57.2173 41.1062 -62.0651 46.9745 -64.1658 46.2925V46.3105ZM-62.2985 55.9294C-61.724 56.0371 -61.2272 56.5096 -60.8083 57.3471C-61.3649 56.9164 -61.8496 56.5216 -62.2985 55.9294ZM-57.5405 55.5884C-59.0667 51.7121 -63.3219 49.774 -62.3524 48.3025C-58.9589 50.438 -51.6514 42.9905 -58.2946 50.6354C-55.8708 58.4238 -49.5866 44.0852 -52.226 54.8347C-55.6732 56.073 -60.4133 56.7011 -57.5405 55.5884ZM-51.3282 61.672C-50.3407 59.6083 -52.3337 61.2234 -52.3876 61.9592C-55.0807 57.0959 -47.0191 57.8496 -47.7553 56.4498C-42.5843 53.5067 -50.9871 63.8255 -51.3103 61.672H-51.3282ZM-43.6437 65.6201C-49.066 68.2581 -43.518 63.2871 -46.9832 64.9202C-50.1073 69.4605 -47.1987 63.1256 -46.8216 62.4796C-42.8896 61.0619 -45.6187 65.1535 -42.5664 60.9362V60.9721C-37.7366 56.6293 -39.8014 65.5124 -43.6437 65.638V65.6201ZM-37.8443 70.0347C-38.8318 72.278 -39.2627 73.1035 -40.8068 72.3139C-42.7639 65.7637 -35.6359 66.5174 -37.8443 70.0347ZM-31.9732 68.0966C-38.347 68.0428 -33.6968 59.6083 -30.8959 62.3001C-29.9981 64.8305 -31.237 67.0019 -31.9732 68.0966ZM-25.7968 67.5762C-21.5056 63.7537 -21.7211 70.1245 -22.5829 71.1474C-27.0177 75.2749 -28.2206 69.9271 -25.7968 67.5762ZM-24.6656 79.4742C-24.4322 72.2959 -15.7961 74.0905 -19.9615 78.3077C-17.9506 80.3176 -22.8702 82.2917 -24.6656 79.4742ZM-18.2738 83.2607C-11.9897 80.5509 -10.1044 72.924 -8.99126 82.1302C-11.469 86.2577 -15.4549 85.1451 -18.2738 83.2607ZM-12.9413 72.9061C-15.1676 77.9129 -15.9576 73.1752 -17.5377 72.6189C-17.7172 66.2302 -9.96081 69.4246 -13.9288 72.6907C-13.5158 72.7804 -13.2465 72.8343 -12.9413 72.9061ZM-9.83512 87.478C-6.85465 86.5089 -4.75396 84.3375 -3.22782 83.0095C-3.08418 82.848 -2.94055 82.7044 -2.79691 82.5609C-2.74305 82.507 -2.65327 82.4711 -2.58146 82.4891C-1.07327 81.3226 -0.265305 81.5918 0.237419 86.15C-2.34805 90.2955 -7.07011 89.9186 -9.81717 87.478H-9.83512ZM-2.18645 75.8851C-4.66419 80.8381 -7.15988 76.9259 -7.71648 75.3287C-6.20828 69.1195 -0.0139465 71.9729 -3.24578 75.4723C-3.01237 75.7953 -2.5635 75.5082 -2.20441 75.8851H-2.18645ZM3.39743 81.6636C0.057869 79.4742 0.542648 79.6716 2.08675 78.4333C8.11949 69.6758 9.51996 76.7285 7.50904 78.0026C7.79631 78.3077 8.19131 78.0924 8.47859 78.4513C6.21631 83.2249 3.68471 79.3486 3.37948 81.6636H3.39743ZM12.6081 83.8709L11.1 82.4173C13.7034 81.8251 12.1054 79.9767 13.075 78.0385C19.4668 72.4574 16.235 81.538 17.6175 80.5689C14.9961 85.5219 12.3388 81.2867 12.6081 83.8709ZM21.5496 83.7632C23.0039 75.8312 29.5932 80.21 26.1459 82.9557C28.7493 85.5219 21.8009 87.4421 21.5496 83.7632ZM41.1201 85.0374C40.7071 102.122 31.5682 80.9458 23.9555 91.9644C23.3271 85.3245 35.8953 91.6055 30.0421 78.1642C32.8609 79.1691 35.608 80.2638 38.6423 81.52C34.9976 82.6506 32.5019 86.2577 34.0101 88.788C35.3207 85.5399 38.4449 80.874 41.1201 85.0553V85.0374ZM39.3605 81.2867C36.7751 79.9767 34.5667 79.4742 33.238 78.3077C38.1037 79.546 42.6821 81.9866 39.3605 81.2867ZM31.3528 77.6078C29.288 77.3925 27.295 76.5311 25.4277 75.7953C27.3489 76.3875 29.3239 76.9977 31.3528 77.6078ZM22.0343 74.7365C21.6214 74.6827 21.2084 74.6468 20.8134 74.6827C23.1296 75.8492 25.715 76.3157 26.6846 77.1054C21.2982 78.8999 21.0109 77.9488 19.5745 74.1623C19.0898 73.9828 18.623 73.8033 18.1561 74.1982C18.2818 73.7675 13.3802 74.575 12.5184 75.8492C11.1 73.3188 11.7284 73.6957 13.1109 73.7136C8.78382 71.1653 3.54107 71.9011 2.03288 75.9748C1.92516 68.2222 -5.74147 67.8454 -8.54239 73.1573C-9.04512 65.1176 -14.5033 66.1405 -17.9147 68.4914C-18.8304 63.4666 -22.4213 63.9691 -25.1145 64.9202C-29.1722 60.6312 -29.4236 57.4189 -35.7077 61.9053C-36.0129 58.1008 -39.4423 56.7728 -41.9918 57.9752C-42.5664 55.5166 -43.3205 53.1299 -45.6905 53.1837C-48.635 53.9195 -47.1269 50.8328 -48.2759 49.7919C-54.9012 45.4491 -51.3282 43.6007 -55.8887 43.8699C-59.4617 36.3147 -64.7942 29.5492 -65.2431 20.9352C-45.7443 49.3074 -59.7849 49.4689 22.0343 74.7365ZM-69.5163 37.3555C-69.3188 36.4403 -69.3008 35.4892 -68.7442 34.4663C-67.9183 36.6736 -67.4335 36.6198 -67.2001 35.2918C-59.9285 33.4613 -73.7895 40.2448 -69.5342 37.3555H-69.5163ZM-68.1517 32.2948C-71.5272 35.6866 -71.0065 32.2948 -68.7083 31.0566C-68.2056 31.2719 -68.026 31.6129 -67.7926 31.9359C-66.2665 28.1853 -66.7512 32.905 -68.1517 32.2948ZM-67.8285 26.1395C-64.5249 27.27 -73.8433 30.9489 -72.6583 29.0108C-72.2813 29.1364 -71.9222 29.262 -71.581 29.4056C-72.4429 25.9779 -68.7622 28.5262 -67.8285 26.1395ZM-73.5381 24.7217C-74.6513 21.1864 -72.7481 23.4655 -72.7481 23.6091C-66.0151 18.4946 -69.9472 25.7985 -73.5381 24.7217Z" fill="#803D1D"/>
<path d="M319.166 254.054C316.024 252.977 316.76 248.67 317.801 248.185C313.402 243.824 311.768 232.375 307.441 234.08C297.943 226.417 285.608 226.22 283.4 236.7C282.736 227.278 277.708 234.726 276.631 238.207C274.207 236.413 273.525 243.125 272.915 242.945C265.787 247.252 265.194 258.199 266.648 259.545C262.16 262.937 266.99 268.267 266.487 271.856C267.995 276.988 267.097 281.798 268.246 286.033C259.089 294.97 258.335 279.519 256.073 280.667C253.757 279.195 259.395 278.406 259.305 277.006C259.305 275.947 254.098 267.961 256.917 267.997C252.823 263.188 254.224 257.984 250.938 253.246C245.462 249.118 246.521 249.352 244.6 243.717C234.348 240.469 243.11 237.22 233.019 235.013C231.781 225.897 226.717 228.194 223.737 228.427C217.973 216.511 214.831 227.494 212.982 219.023C212.066 214.017 208.206 215.38 204.633 215.919C169.245 202.818 133.479 195.927 97.1748 229.145C115.955 212.276 150.697 201.616 176.265 211.02C170.412 211.343 170.106 213.711 169.927 215.919C168.562 215.362 168.383 208.184 165.043 209.674C161.668 209.117 156.443 210.715 156.353 213.227C151.936 210.302 146.209 209.117 143.444 214.77C142.385 218.718 141.505 212.043 140.769 212.366C136.819 210.23 129.098 212.276 130.373 217.821C133.73 226.955 129.026 219.203 128.003 217.731C123.263 218.252 120.534 218.682 120.911 222.774C115.686 224.443 99.6346 223.671 106.386 233.488C108.037 234.708 108.863 235.121 110.192 234.887C103.19 228.248 109.007 227.368 113.029 230.886C111.503 236.126 117.033 232.339 118.577 232.393C114.734 229.988 114.555 226.381 117.266 226.955C123.694 230.634 117.912 234.654 124.915 229.576C127.105 232.572 129.206 234.654 131.504 233.003C121.162 227.942 129.888 224.623 133.389 227.243C135.813 233.542 134.197 233.416 138.973 229.432C135.813 226.291 135.993 223.312 136.944 222.738C126.459 216.816 135.867 214.681 138.901 216.978C142.187 221.877 134.467 231.819 145.509 230.706C136.837 226.076 141.595 223.994 145.67 223.797C151.954 227.009 144.898 232.967 151.47 228.373C153.175 231.693 154.863 232.913 157.197 232.77C156.533 230.078 149.602 227.709 155.833 225.663C160.07 227.261 160.752 227.243 160.142 230.652C166.677 234.223 161.596 223.061 160.716 221.859C145.275 221.913 157.197 229.037 146.514 219.382H146.568C139.314 214.214 156.91 213.64 152.529 219.203C151.236 222.29 155.33 219.598 155.563 219.418C157.592 218.952 159.262 221.805 160.752 221.841C164.415 220.674 160.357 220.441 159.28 219.526C153.624 213.676 162.889 213.622 164.02 214.501C170.968 216.242 157.538 231.729 171.058 230.311C161.363 225.017 168.401 224.156 171.184 223.295C174.559 225.52 174.559 226.489 173.877 228.66C173.159 231.119 176.067 229.019 176.319 228.822C179.353 229.629 179.802 231.155 181.597 229.486C180.107 229.091 178.976 228.319 177.863 227.422C178.904 226.884 178.779 226.65 178.581 226.381C176.211 226.435 177.109 223.438 178.599 223.456C182.01 222.828 180.125 226.13 181.615 223.42C184.003 225.376 184.596 225.215 183.878 227.942C184.847 229.36 189.497 232.77 191.257 230.975C187.02 229.342 185.655 226.704 188.456 228.158C184.362 221.697 191.742 224.533 193.322 225.035C195.746 228.84 195.099 239.212 202.281 236.467C187.828 229.145 209.66 225.089 205.244 235.982C206.321 238.1 207.757 243.196 211.294 242.263C206.285 237.238 207.578 234.887 212.515 237.525C215.657 240.325 212.677 246.588 217.65 247.737C225.048 249.603 210.271 242.281 218.476 241.151C229.985 242.945 215.226 252.654 227.22 253.282C226.251 257.122 229.752 260.137 232.176 259.814C226.663 254.197 229.967 253.12 232.894 255.292C239.447 259.653 224.096 264.749 235.766 268.195C237.095 270.133 236.682 275.086 240.435 275.84C237.885 277.383 238.926 279.465 238.208 280.165C235.21 257.499 186.481 238.297 153.229 247.952C178.132 244.058 218.817 247.808 234.941 275.499C237.957 285.279 236.467 290.896 243.164 299.905C232.499 287.648 246.647 313.956 264.871 309.667C258.443 309.614 268.121 308.196 269.144 308.052C269.683 306.401 266.289 305.863 266.433 303.763C273.974 298.756 268.013 315.392 278.66 300.766C266.271 295.993 280.24 292.655 279.468 300.874C282.592 300.21 282.466 298.182 283.346 297.823C279.683 297.195 283.58 291.165 284.298 289.855C285.788 278.029 269.97 255.184 287.53 241.689C294.316 235.964 304.461 241.007 307.369 247.252C307.082 247.252 306.992 247.001 306.759 247.108C309.757 251.721 307.244 259.437 302.629 259.904C304.479 256.727 306.131 256.512 306.633 254.125C303.006 260.263 297.692 256.763 293.365 256.584C285.106 262.344 302.845 277.186 317.173 258.45C314.084 257.068 318.07 254.233 319.13 254.054H319.166ZM124.915 229.54C123.155 228.714 122.706 227.063 122.545 225.986C126.01 225.915 124.825 228.086 124.915 229.54ZM123.604 224.425C120.731 221.303 126.046 221.159 126.351 223.384C125.112 225.358 125.13 225.412 123.604 224.425ZM127.213 222.918C126.495 223.097 126.656 222.828 126.746 222.684C127.392 222.415 127.249 222.613 127.213 222.918ZM167.934 219.652C169.263 217.175 170.573 218.216 170.609 219.239C169.729 219.382 168.868 219.508 167.934 219.652ZM178.743 218.934C171.956 225.448 169.64 211.073 175.762 216.296C176.642 213.729 179.622 218.413 178.743 218.934ZM180.771 213.999C180.43 213.514 180.359 213.065 180.394 212.545C181.017 212.701 181.143 213.185 180.771 213.999ZM183.662 217.857C184.416 221.931 178.868 214.358 187.109 215.057C194.381 219.454 185.099 223.169 183.662 217.857ZM199.552 225.251C195.44 227.494 198.116 222.2 196.931 222.182C190.575 217.265 196.607 216.08 197.397 217.839C198.026 215.632 200.988 219.687 199.911 220.567C200.899 224.389 204.759 224.389 199.534 225.251H199.552ZM208.062 226.507C199.067 221.967 204.256 219.992 208.027 219.634C213.952 222.343 208.188 228.517 211.707 232.196C207.901 233.685 206.985 226.668 208.08 226.507H208.062ZM217.399 237.508C214.813 236.718 215.801 233.99 216.914 233.577C207.524 228.553 214.293 227.261 217.076 226.363C221.564 228.606 220.379 238.207 217.399 237.508ZM277.726 242.568C276.631 240.899 278.84 241.743 277.565 240.81C276.505 238.243 280.06 241.707 277.726 242.568ZM273.92 267.28C272.807 267.818 272.825 266.544 272.627 266.795C271.801 264.031 274.656 266.795 273.92 267.28ZM269.79 277.85C269.719 278.639 269.647 278.89 269.27 278.747C267.797 270.815 277.206 283.592 269.79 277.85ZM270.167 294.001C271.604 294.593 271.586 294.934 271.622 295.311C270.347 296.423 269.988 294.198 270.167 294.001ZM271.837 282.803C272.394 284.095 273.615 283.915 273.22 284.561C269.539 286.643 270.652 281.493 271.837 282.803ZM272.681 250.177C271.514 250.554 271.388 249.657 271.209 249.244C271.568 247.252 273.238 249.962 272.681 250.177ZM270.006 257.75C269.431 258.217 269.27 258.163 269.072 258.073C268.587 256.207 270.652 257.176 270.006 257.75ZM267.043 265.27C265.858 263.529 266.738 263.565 266.99 263.026C271.37 261.878 268.857 268.033 267.043 265.27ZM268.085 269.828C270.293 268.374 270.652 271.838 271.317 272.663C270.94 272.663 270.598 272.645 270.275 272.609C270.221 272.609 270.15 272.609 270.096 272.574C267.941 272.215 267.438 270.851 268.067 269.828H268.085ZM256.091 286.607C257.743 292.063 249.538 289.317 250.92 286.284C247.365 283.413 255.947 284.328 256.091 286.607ZM254.834 302.704C260.059 305.755 254.547 308.214 252.41 305.019H252.464C248.263 302.238 253.488 301.358 254.834 302.704ZM249.268 295.365C249.627 295.167 249.484 294.754 249.771 294.36C250.615 296.011 252.015 295.185 251.854 296.388C248.568 306.85 241.997 289.514 249.268 295.347V295.365ZM248.64 277.347V277.401C245.39 271.246 253.506 274.35 254.044 274.44C259.341 279.285 249.34 281.726 248.64 277.347ZM247.832 270.294C240.129 262.721 250.274 265.844 249.574 264.516C256.055 267.423 250.346 269.684 247.832 270.294ZM246.216 255.866C253.829 258.414 247.204 260.981 243.936 262.38C235.192 253.3 248.065 257.93 246.216 255.866ZM242.876 264.372C242.751 264.103 242.392 263.888 242.643 263.403C243.038 263.672 243.056 263.995 242.876 264.372ZM243.164 248.526C244.977 255.633 235.318 254.628 236.341 250.177C235.91 250.428 236.341 250.823 235.964 251.11C232.14 244.363 242.104 247.611 243.182 248.526H243.164ZM237.257 254.646C238.047 254.807 238.926 255.166 240.022 254.52C238.944 257.571 237.095 255.902 237.257 254.646ZM236.898 258.504C237.795 257.391 238.065 257.158 238.352 256.853C240.237 258.253 237.741 259.312 236.898 258.504ZM222.642 235.91C221.762 238.638 220.613 233.613 222.211 233.183C225.496 231.98 227.112 232.698 229.59 234.044C227.902 245.996 222.48 235.228 222.642 235.892V235.91ZM227.436 243.878C225.532 243.591 226.107 241.24 225.568 240.899C227.92 239.123 226.825 243.537 227.436 243.878ZM224.599 251.38C222.516 246.157 227.094 249.549 227.92 249.226C231.529 250.482 225.712 253.443 224.599 251.38ZM232.912 250.195C230.955 250.034 231.529 245.942 232.768 246.947C233.504 248.096 233.001 249.8 232.912 250.195ZM233.396 245.852C224.85 243.286 230.524 239.93 233.827 239.535C240.111 242.819 233.432 244.165 233.396 245.852ZM234.348 263.672C236.646 261.196 240.56 262.578 239.555 264.965C238.891 268.966 232.176 266.167 234.348 263.672ZM238.352 271.784C239.357 267.082 245.013 272.233 243.972 274.422C248.586 275.499 237.885 275.57 238.352 271.784ZM238.514 281.313C239.824 284.166 242.607 286.194 244.403 284.615C236.862 280.452 241.691 278.962 244.636 279.411C253.524 292.78 246.916 291.686 246.916 286.302C242.23 286.446 242.212 291.111 245.677 290.591C243.254 292.619 238.083 291.273 243.99 293.068C241.153 299.815 250.974 299.761 248.891 303.045C242.93 298.703 238.37 291.201 238.496 281.295L238.514 281.313ZM247.724 304.625C251.89 308.16 257.258 308.142 261.047 309.578C257.114 310.242 250.202 307.729 247.724 304.625ZM261.154 303.53C262.806 303.673 263.47 303.907 264.278 305.307C265.248 314.046 255.75 302.884 261.154 303.53ZM258.748 299.815C255.319 295.472 251.082 291.452 259.287 294.288C258.838 298.236 264.637 299.223 265.463 297.105C264.584 296.872 263.74 296.657 262.752 296.388C263.04 290.447 268.641 292.314 266.972 296.136C280.797 297.985 262.07 299.618 258.748 299.815ZM275.105 301.915C273.31 303.225 273.345 300.623 273.327 300.102C275.015 300.874 275.715 301.305 275.105 301.915ZM270.76 292.475C270.401 290.95 270.006 289.371 271.011 288.85C276.218 291.991 273.256 294.467 270.76 292.475ZM275.123 275.499C276.811 274.942 277.044 276.934 277.87 277.473C277.529 279.321 274.764 276.575 275.123 275.499ZM276.793 267.8C277.834 266.831 278.283 270.797 278.409 270.833C276.021 270.079 277.242 268.267 276.793 267.8ZM276.649 265.736C276.093 264.193 275.751 263.08 276.326 262.38C277.062 263.475 277.098 265.629 276.649 265.736ZM280.563 292.655C279.055 290.753 276.541 289.478 276.559 288.258C279.253 284.705 282.718 290.483 280.563 292.655ZM279.683 284.651C276.865 284.83 275.931 282.623 276.47 281.708C279.63 282.049 280.545 283.969 279.683 284.651ZM276.595 261.429C274.602 257.984 272.358 254.502 274.872 254.394C277.619 252.923 271.137 250.949 277.116 250.213C271.568 247.037 286.291 236.969 288.014 237.077C279.235 242.317 277.457 253.067 276.595 261.429ZM292.162 234.008C289.451 234.816 290.51 231.137 291.48 232.339C292.467 233.954 292.234 233.667 292.162 234.008ZM300.744 235.928C298.464 236.592 298.931 232.68 300.241 234.116C300.87 235.587 300.834 235.067 300.744 235.928ZM297.602 265.054C297.117 264.139 297.71 264.39 297.907 264.444C298.482 265.27 297.854 265.09 297.602 265.054ZM310.529 262.56C309.686 262.829 309.309 261.286 309.291 261.214C310.009 260.55 310.996 262.326 310.529 262.56ZM312.415 248.239C311.966 245.87 314.444 248.49 313.743 248.867C312.504 249.154 312.846 248.724 312.415 248.239Z" fill="#803D1D"/>
<path d="M132.779 165.025C187.72 131.933 170.106 107.706 120.767 90.317C121.306 90.4427 121.826 90.5145 122.311 90.4965C112.005 86.3331 99.76 81.4339 89.6516 77.2346C96.4923 80.6981 103.997 83.4977 109.922 86.5843C90.7827 78.9215 69.309 71.7073 56.0226 55.287C42.6823 31.1499 55.3762 6.06181 84.3011 4.75177C76.042 8.03584 70.5299 9.16642 67.0826 15.7166C72.8999 16.0037 67.9445 16.5601 65.8079 16.596C61.6065 25.2817 68.9499 20.6337 68.3394 23.9537C64.7665 24.8869 67.9983 23.1103 66.9749 22.518C58.3567 24.8689 63.1147 24.0434 63.3122 27.489C64.8563 39.8895 66.7235 33.788 66.2567 38.5077C67.2083 44.6631 72.7922 40.1408 71.8586 47.6959C74.9647 44.7349 78.8968 48.7368 77.4963 51.1953C81.8593 50.316 86.33 50.5493 85.0911 53.3847C93.063 53.5462 99.4548 50.3698 97.1566 53.1873C92.7218 54.4256 91.7164 56.3996 93.8709 58.0506C103.064 57.2072 101.933 52.6669 102.758 59.1274C106.116 56.7406 111.879 57.7814 111.036 61.6039C122.796 58.1942 118.774 63.4343 119.42 65.4263C121.665 63.9189 124.591 65.6416 126.441 64.9956C130.139 57.4763 128.613 69.3205 130.444 66.6646C140.84 66.6646 137.285 61.6398 138.955 69.7871C146.029 66.6466 157.484 68.0643 157.161 72.7482C163.822 74.3453 161.38 69.7333 164.971 75.1888C164.917 79.3701 169.442 76.0681 174.523 77.3602C174.595 77.3602 174.649 77.3602 174.703 77.3961C175.941 77.7371 177.198 78.3472 178.437 79.424C184.308 75.5477 175.726 82.7619 183.572 79.6932C180.125 82.0082 182.603 81.2006 184.075 83.3362C186.122 84.8615 188.402 80.8058 187.989 83.4618C188.043 85.1846 186.93 85.4538 186.104 85.4717C185.547 87.8585 188.976 85.9742 189.856 85.1487C192.406 85.0231 189.3 87.2483 188.869 86.7458C188.51 92.1475 197.505 86.5125 200.467 89.8325C208.924 98.0158 188.851 104.512 189.336 91.1964C181.058 103.489 199.624 99.0566 193.878 108.137C201.814 100.241 205.172 110.578 200.144 112.695C193.806 115.926 187.307 102.305 182.585 113.987C190.126 108.101 191.203 112.049 190.072 116.446C186.122 119.999 184.075 117.774 181.938 116.805C181.992 125.742 187.558 119.389 190.969 122.135C187.953 122.458 184.721 124.306 185.026 126.585C187.971 123.732 194.129 122.243 194.165 126.352C194.04 128.775 189.264 127.231 192.837 129.277C189.21 131.7 186.696 131.538 184.272 129.475C183.752 133.207 185.942 133.674 186.229 134.805C183.375 136.097 180.538 138.142 181.058 140.763C184.344 136.832 186.391 136.168 187.325 136.761C199.085 134.715 189.623 157.165 180.125 144.657C180.484 146.415 180.394 147.905 180.394 148.605C176.354 144.908 168.472 147.672 167.862 152.122C171.022 149.861 172.386 148.659 174.002 149.053H173.966C183.357 148.066 176.139 155.532 178.509 155.622C172.53 160.216 171.686 158.708 166.856 155.963C166.838 157.847 167.377 158.188 167.018 158.959C162.799 157.075 156.586 160.054 156.963 163.679C173.033 150.525 167.557 177.982 156.12 167.089C157.664 176.654 159.297 171.252 162.17 172.921C160.016 174.985 158.974 175.793 159.262 177.785C161.829 175.039 163.194 173.908 164.756 174.357H164.72C174.505 173.155 165.546 190.059 158.741 181.158C158.669 186.596 161.937 187.691 157.556 189.072C157.592 177.838 153.103 186.883 157.466 174.698C157.735 165.797 143.767 166.461 143.031 173.208C145.885 171.001 146.981 169.924 148.74 170.068H148.686C157.107 169.296 151.038 176.385 153.049 176.744C147.645 181.122 146.137 179.687 142.259 176.816C142.672 182.127 144.665 182.325 143.839 185.806C146.209 181.966 151.846 181.93 153.588 183.563C155.006 187.314 150.895 187.583 153.337 189.216C147.555 195.461 146.352 191.136 143.336 189.378C147.34 208.364 136.944 180.297 131.091 196.233C132.85 194.546 133.946 193.164 135.256 193.541C143.372 192.68 135.256 205.134 130.606 199.014C130.014 209.925 127.805 190.293 118.882 200.432C118.541 201.563 118.63 201.401 118.882 201.922C129.565 193.702 124.304 208.292 120.587 205.385C118.343 204.29 119.097 204.452 118.541 204.416C115.829 212.294 118.702 202.191 116.673 200.378C109.994 195.102 104.68 206.318 111.843 200.899C116.206 200.037 113.423 204.524 111.484 205.672C108.45 205.277 107.696 204.47 108.163 207.575C105.057 204.775 99.5984 208.203 101.34 210.589C103.548 208.113 105.236 207.144 106.547 209.226C102.651 219.329 100.011 207 100.783 217.122C118.558 216.906 98.3416 207.144 125.866 208.992C130.552 202.406 130.965 204.147 137.339 203.985C141.361 204.398 140.625 201.993 141.72 200.36C145.616 196.556 151.182 196.412 154.737 194.654C166.174 186.291 179.963 180.961 187.756 170.211C204.417 158.098 193.465 162.656 202.712 146.613C206.662 147.097 206.68 144.872 208.062 141.947C209.122 129.008 202.191 139.829 209.552 124.773C209.786 116.697 203.484 117.63 207.003 109.968C207.506 106.361 205.441 104.835 203.717 103.866C199.875 100.726 207.506 98.3567 205.423 94.8035C202.748 83.2823 193.411 89.4915 191.418 84.8077C193.806 83.6951 194.058 83.3362 191.885 81.7031C191.598 76.6065 186.912 80.1239 184.991 79.5496C183.285 77.9883 186.176 79.5137 185.924 78.7062C184.129 74.8299 184.326 74.2556 181.992 74.1838C176.803 76.3912 174.577 72.138 170.878 71.0613C172.297 73.7352 169.155 72.6584 168.508 74.0044C171.291 67.508 168.885 72.2098 165.743 71.7253C173.948 68.8719 154.773 63.6317 152.152 63.3267C152.205 63.8291 152.547 64.2419 152.457 64.7623C148.938 65.9647 153.229 61.4244 149.656 64.0624C147.807 64.3855 148.956 62.4114 149.728 63.1472C149.764 62.1243 145.383 61.7295 144.593 60.3477C136.441 58.6608 129.134 55.9689 121.772 55.5382C116.817 55.7894 116.691 50.2981 112.113 53.2412C108.055 53.0438 108.253 47.9472 103.225 51.5184C98.9341 49.5623 97.9466 47.5882 93.8529 49.4187C92.3986 45.7219 88.9154 42.2404 85.8811 46.3679C86.3479 41.9892 81.2847 41.2534 79.0763 41.9712C78.1606 34.7391 67.3519 46.4936 69.6322 22.5001C73.6361 10.5123 89.6875 12.6838 96.2409 2.4906C106.816 -2.24707 38.7682 -5.51319 49.523 44.8246C58.7158 98.8772 237.31 91.6809 132.743 164.935L132.779 165.025ZM118.325 89.4736C116.242 88.7558 114.088 88.0559 111.897 87.3739C114.196 87.6431 116.35 88.666 118.325 89.4736ZM109.617 208.777C110.587 208.831 111.395 208.867 112.221 208.902C110.605 210.284 109.779 209.782 109.617 208.777ZM181.597 171.019C176.085 177.497 173.266 172.634 171.004 171.091C171.309 175.326 170.393 173.729 168.275 172.67C175.026 161.651 166.102 160.808 176.929 161.741C165.779 169.476 173.482 165.312 177.234 163.805C186.912 163.482 178.688 171.091 181.615 171.019H181.597ZM184.452 159.193C187.325 172.239 185.314 161.346 178.724 161.759C185.834 155.316 180.412 149.628 186.84 151.853C184.811 153.755 184.811 154.85 185.098 155.783C187.253 153.127 188.905 152.05 190.197 152.23C199.713 151.153 191.724 168.525 184.452 159.211V159.193ZM196.464 152.661C192.406 149.825 195.997 148.013 196.338 145.895C197.182 147.474 197.469 147.187 197.972 146.523C201.114 146.649 196.679 151.62 196.464 152.678V152.661ZM200.072 143.724C193.663 140.691 196.356 133.818 187.361 134.625C191.275 133.351 196.517 135.253 197.164 130.856C197.918 132.202 202.478 130.192 203.322 131.52C203.232 134.769 200.485 132.292 199.013 133.746C194.83 136.061 195.943 139.237 197.092 137.209C205.315 129.654 205.997 143.006 200.09 143.742L200.072 143.724ZM202.496 127.501C196.859 129.923 198.331 123.014 195.404 123.086C192.119 121.291 191.724 122.763 191.221 121.74C196.033 115.351 195.512 116.069 202.047 116.895C197.271 116.895 193.663 125.114 199.175 119.658C207.111 115.351 206.231 126.388 202.478 127.501H202.496ZM161.793 69.3205C159.477 69.7871 160.698 68.4232 161.129 68.3694C162.709 66.1262 158.436 68.836 158.059 68.2438C160.913 64.5649 164.325 69.482 161.811 69.3205H161.793ZM139.924 63.4343C141.343 62.6627 142.474 62.9498 142.959 63.3267C143.264 66.4313 137.393 66.4672 139.924 63.4343ZM130.606 60.6707C132.258 59.5401 133.964 60.0067 134.448 60.6527C133.281 64.9597 128.326 63.2728 130.606 60.6707ZM123.909 58.6069C125.381 60.9937 121.647 59.917 122.742 62.214C118.433 61.4423 121.359 56.3817 123.909 58.6069ZM112.238 55.8433C113.585 55.1613 114.573 55.5023 114.95 55.9151C114.968 58.3736 110.407 57.7994 112.238 55.8433ZM106.152 54.3897C104.895 55.0896 104.338 55.269 103.782 55.0537C103.064 52.0388 106.888 53.3309 106.152 54.3897ZM87.6227 46.6012C89.3284 46.027 89.9029 46.4756 90.0645 47.2473C86.5634 52.3618 86.3838 47.6959 87.6227 46.6012ZM79.1481 45.3091C79.4174 44.2683 80.782 43.3172 81.8593 43.5146C82.9725 43.694 82.775 45.0579 82.3261 45.7937C82.2722 45.9013 82.1645 45.9731 82.0568 46.0449C81.6618 46.2603 81.1411 46.2603 80.764 46.5294C80.5665 46.673 80.5127 46.8345 80.5127 47.0678C80.5127 47.2832 80.6204 47.66 80.4409 47.8036C80.1356 48.0548 79.8484 47.6241 79.6868 47.4088C79.2379 46.8166 78.9506 46.0629 79.1302 45.3091H79.1481ZM75.9702 41.9353C75.2699 41.7379 74.9108 41.3431 74.5517 40.8765C75.6649 40.6073 75.6829 40.6253 75.9702 41.9353ZM72.9538 42.2943C74.0131 41.72 74.9108 41.8994 75.2699 42.1327C75.4674 44.4657 71.3379 44.1427 72.9538 42.2943ZM67.6751 32.3882C68.3754 31.0064 66.6697 31.9037 66.5081 32.0652C64.7485 30.5218 70.3324 31.2038 67.6751 32.3882ZM70.3324 38.3282C69.4526 37.8617 69.2731 38.1847 69.0397 38.4898C66.7774 37.7719 71.1763 37.0541 70.3324 38.3282ZM90.5313 3.81859C89.7593 5.0389 89.5977 4.24929 89.4541 3.94421C90.0645 3.63913 90.28 3.74681 90.5313 3.81859Z" fill="#803D1D"/>
<path d="M70.6918 221.233C84.4809 222.274 52.414 243.737 41.354 240.165C44.8012 238.048 45.3758 235.248 44.101 231.875C45.2142 231.875 46.1837 231.785 47.0456 231.282C57.5849 240.542 60.8527 223.925 53.5631 224.84C61.0681 234.818 46.7763 229.254 51.4983 224.266C46.5069 223.53 47.2251 221.376 45.0347 222.04C50.6006 229.793 45.0347 228.088 42.7006 226.993C40.6178 222.184 42.144 212.996 35.7521 212.852C47.8535 226.347 22.9505 224.732 32.628 212.009C29.8989 211.416 29.9348 205.638 26.4696 206.733C36.6139 220.3 12.9139 218.649 22.9864 205.781C19.7007 206.033 18.7671 201.044 16.0559 202.174C20.9575 205.028 18.1566 210.681 15.8764 212.044C13.8295 212.314 13.5961 209.065 11.9623 211.38C7.56337 207.074 9.77179 204.364 12.4111 201.474C7.00678 201.026 8.26361 196.737 4.547 197.634C7.43769 199.949 7.32997 200.775 7.94042 201.977C3.50563 213.857 2.78745 202.784 0.596985 206.661C-4.21485 203.789 -1.21642 199.141 0.974037 196.952C-2.15006 197.544 -3.47871 195.391 -5.72304 195.499C-1.01893 205.189 -11.684 201.762 -8.64964 194.799C2.89518 189.989 15.6609 193.56 25.6975 198.424C13.4345 190.133 1.88972 189.828 -14.2335 194.619C-7.24918 208.653 -23.0851 199.411 -18.4169 196.019C-14.7542 192.179 -21.7565 194.332 -22.7979 194.781C-20.5535 204.579 -26.0117 198.908 -21.7206 204.992C-21.4154 210.537 -26.4067 205.207 -27.0531 204.31C-24.3061 198.46 -28.292 201.546 -30.7338 201.116C-28.4536 206.589 -30.8595 209.514 -35.2943 209.389C-33.1577 214.431 -34.7915 218.828 -39.4238 218.074C-37.0897 221.197 -39.5495 225.091 -42.1709 224.571C-42.0632 225.881 -39.5495 236.074 -37.9157 245.118C-37.9695 244.006 -38.0054 242.983 -38.0234 242.104C-37.1077 247.613 -35.815 253.033 -33.9118 258.344C-35.2225 257.034 -36.1022 255.204 -36.7127 253.176C-36.2997 257.124 -36.4434 259.78 -37.7002 259.475C-35.007 260.893 -38.1132 262.939 -37.1975 263.836C-32.4754 267.479 -35.1866 270.637 -30.5004 271.57C-26.712 272.324 -29.8002 274.37 -28.9563 275.752C-26.9813 278.103 -22.0438 279.628 -20.4997 277.044C-23.2826 282.733 -6.08213 286.878 -6.42327 284.42C-1.01893 287.022 2.06926 287.865 3.25427 282.374C8.74838 285.191 10.7593 282.769 10.8311 278.856C16.0918 281.243 16.6484 276.183 16.002 273.652C20.2393 274.855 20.1316 269.722 19.5391 268.017C23.92 268.986 24.2432 256.137 23.8123 255.365C18.1566 253.23 21.1371 249.425 18.1207 244.58C21.2807 245.388 20.3291 248.618 21.3525 249.946C19.8264 222.812 -15.7956 224.589 -16.9267 248.833C-19.8174 252.925 -18.8658 246.698 -18.7581 244.867C-13.4435 210.07 19.8802 237.258 40.133 242.552C47.2251 248.313 87.3896 222.327 70.6379 221.215L70.6918 221.233ZM21.2089 259.672C22.9505 260.444 20.2752 261.108 20.0598 260.408C19.7905 259.278 20.5984 259.816 21.2089 259.672ZM20.778 264.051C22.0168 265.612 19.2518 264.59 19.2159 264.177C20.2752 263.997 20.5087 264.051 20.778 264.051ZM-8.81123 206.356C-5.95644 209.281 -6.15395 209.604 -5.04076 212.224C-5.66917 212.242 -5.75895 211.488 -6.29758 211.363C-3.35303 221.179 -15.9033 215.867 -16.2085 211.183C-11.7019 197.634 0.112217 209.891 -8.81123 206.356ZM-5.04076 212.224C-6.20781 212.134 -5.54349 214.306 -5.04076 212.224V212.224ZM-19.6379 204.902C-18.7222 205.225 -17.7526 205.44 -16.7292 205.979C-21.2358 207.45 -17.7526 208.007 -18.9017 209.586C-20.8408 211.38 -19.7097 212.744 -19.0813 214.18C-19.4224 218.81 -22.5285 213.695 -23.4622 213.139C-22.5824 209.245 -19.0633 208.671 -19.6379 204.902ZM-28.4715 209.712C-23.7136 214.09 -27.0711 216.8 -30.249 215.006C-32.9422 211.47 -29.5488 208.096 -28.4715 209.712ZM-34.2709 217.805C-31.3981 220.353 -29.9258 222.327 -31.9906 223.673C-35.4918 222.615 -36.4075 219.941 -34.2709 217.805ZM-38.2388 225.324C-36.587 225.845 -36.5511 226.904 -36.7486 227.693C-38.0952 228.321 -38.5441 226.024 -38.2388 225.324ZM-38.185 240.165C-38.5441 237.151 -38.58 234.602 -37.6463 232.808C-35.3661 225.881 -38.0772 238.496 -38.185 240.165ZM-32.4754 261.646C-32.0445 261.97 -31.9368 262.346 -31.8111 262.831C-33.7502 263.567 -32.7986 261.934 -32.4754 261.646ZM-14.3233 279.52C-18.6504 278.031 -17.2858 274.083 -15.221 275.86C-14.036 278.085 -13.2819 279.467 -14.3233 279.52ZM-6.65667 281.225C-11.7737 284.994 -9.78078 273.275 -7.73395 280.525C-6.47713 278.928 -6.65667 281.046 -6.65667 281.225ZM1.20744 283.074C-1.05484 284.438 -1.23438 281.046 -2.45529 280.884C-1.82688 276.739 2.71563 281.315 1.20744 283.074ZM8.47906 277.959H8.42521C10.2207 285.748 1.71018 272.234 8.47906 277.959ZM12.1239 272.342C12.2675 272.719 12.3393 273.024 11.8725 273.168C19.6468 275.608 9.50248 278.533 12.1239 272.342ZM18.39 269.937C16.828 272.342 14.7632 267.64 16.7023 267.604C18.5875 269.273 18.1745 269.417 18.39 269.937ZM-14.7362 252.566C-13.9642 252.404 -14.3053 252.889 -14.1976 253.086C-15.5622 253.661 -15.4006 252.871 -14.7362 252.566ZM-13.9822 228.411C-23.0672 238.317 -25.9758 255.276 -15.0415 264.715C15.3018 281.853 14.7452 228.788 -10.6965 242.534C1.31518 222.381 29.0012 246.662 10.4182 269.686C-12.9946 291.975 -25.6347 259.116 -22.0797 273.419C-19.6199 278.874 -29.6745 269.919 -23.3006 270.171C-26.0117 262.454 -29.5847 261.036 -26.1195 267.425C-28.8306 264.715 -26.5863 271.642 -30.3927 266.187C-25.2217 262.687 -45.6361 240.327 -32.1702 226.904C-29.0999 225.755 -29.1358 221.807 -29.9079 219.743C-11.3787 216.136 -13.6769 224.23 -6.13599 218.9C-5.79486 226.186 4.24178 225.504 6.55792 220.82C7.8327 231.677 -3.47871 218.343 -14.0001 228.429L-13.9822 228.411ZM-0.139153 257.627C-22.4208 238.855 14.3682 242.893 0.740627 262.113C1.20745 259.942 0.740623 258.739 -0.139153 257.627ZM-0.659832 262.867C-1.52165 263.854 -2.63485 264.374 -3.89167 264.608C-3.11962 263.441 -1.5037 263.872 -0.659832 262.867ZM6.52201 220.335C6.3245 219.725 6.30655 219.402 6.34246 219.241C6.41428 219.636 6.46814 219.994 6.52201 220.335ZM6.27065 218.828C6.57587 216.89 7.16837 218.505 6.27065 218.828V218.828ZM16.1636 220.712C14.1168 228.752 12.9318 220.228 11.3338 222.597C10.5259 220.928 9.05362 220.246 9.9693 218.9C13.9014 212.942 6.4861 219.025 3.30814 213.157C0.489262 213.085 10.7593 223.781 -0.983013 219.725C-5.59735 213.875 3.12859 212.152 -3.46075 212.547C-3.60439 211.255 -3.8378 210.088 -4.37644 208.94C-0.857338 210.376 2.51813 211.704 5.69609 210.86C6.75542 216.657 16.6305 213.839 16.9536 218.02C12.7882 214.324 15.3198 219.169 16.1816 220.694L16.1636 220.712ZM23.7046 232.449C23.148 231.121 26.6491 229.47 26.8287 228.483C26.7928 232.826 26.5594 234.441 23.7046 232.449ZM27.6725 234.261C30.6889 236.056 34.1721 234.459 34.3517 237.42C31.9278 236.648 29.7014 235.625 27.6725 234.261ZM32.7178 226.922C36.1292 231.157 33.2026 233.938 31.6585 231.534C31.2096 229.631 28.9832 229.488 30.4196 227.711C31.7482 225.594 28.3907 226.258 27.9778 226.347C26.0746 226.275 26.3798 222.345 24.9075 222.13C20.4368 220.569 26.7928 225.001 25.2666 226.814C22.1246 231.067 21.2628 224.624 20.4727 226.904C18.9646 224.553 19.0543 223.673 20.2573 222.238C20.8677 220.766 16.792 220.353 17.2948 218.272C26.0387 219.366 27.7444 227.891 36.9192 225.881C39.8458 224.23 37.4578 229.254 38.3555 229.793C35.3212 230.08 35.1417 225.737 32.7178 226.939V226.922ZM38.553 234.854C35.7342 230.744 40.0612 228.716 41.9465 231.892C45.4476 238.461 39.5944 235.769 38.553 234.854Z" fill="#803D1D"/>
<path d="M-90.2359 196.359C-89.5895 200.63 -87.9557 202.263 -82.8566 202.03C-86.25 199.553 -81.887 197.867 -81.9229 199.715C-86.5193 200.881 -80.4147 201.474 -80.325 203.609C-70.1088 202.461 -78.4397 200.63 -75.154 198.459C-77.7215 198.513 -80.0197 197.687 -80.702 196.7C-76.8597 193.272 -78.1884 198.656 -74.9386 196.628C-47.881 187.189 -69.0136 185.071 -56.7326 182.738C-49.1558 178.126 -59.2822 176.673 -48.1144 172.114C-47.091 160.163 -42.0278 167.933 -43.5001 158.978C-41.8662 156.591 -37.8084 156.95 -39.0114 153.038C-33.9662 150.903 -37.1441 155.64 -38.4728 155.963C-32.8889 161.132 -37.18 159.911 -39.2807 157.991C-40.1964 158.727 -38.9037 160.414 -38.7421 160.468C-31.2191 165.654 -34.4689 166.551 -30.8061 159.786C-25.6352 159.229 -41.0582 153.2 -30.5189 152.877C-27.5384 155.676 -27.3409 156.412 -26.9279 159.014C-24.3425 157.04 -23.8218 157.507 -22.2777 156.861C-28.1489 152.446 -29.1723 149.628 -23.9834 149.27C-20.4284 151.872 -19.7461 153.397 -19.387 156.232C-18.1481 155.353 -17.2325 157.202 -16.4604 156.502C-18.9741 153.953 -14.4315 151.495 -17.5556 151.297C-19.6025 143.976 -7.89606 152.841 -13.7133 157.453C-10.2122 158.26 -8.32697 165.851 -3.73059 163.231C-7.32151 161.957 -12.3847 157.345 -8.09356 156.43C-7.80629 152.966 1.2967 157.614 -1.0374 162.316C16.4324 157.112 0.686249 175.488 -0.983528 162.316C-6.90855 163.303 1.51216 169.602 3.54103 168.131C4.49263 171.594 7.32946 175.381 11.1179 174.537C9.34038 179.688 15.8938 185.34 19.5745 182.505C0.758072 176.565 27.1873 167.61 22.5729 180.639C32.5557 176.798 20.7954 175.955 30.2216 174.896C19.8079 171.45 26.1818 168.83 29.0904 167.843C34.9257 169.835 31.8555 173.209 32.6634 173.945C36.1646 173.299 42.0537 172.545 38.5346 176.206C32.1966 177.121 35.4464 178.683 39.7196 178.413C48.1403 181.159 44.3519 168.166 36.8468 170.23C26.1818 158.727 27.0077 155.533 21.729 156.771C22.16 155.515 22.95 155.497 22.6447 154.994C19.8438 154.42 18.982 150.149 17.8149 148.947C15.409 146.721 12.3029 149.772 12.3747 146.47C10.9024 137.766 4.92354 143.742 2.6433 140.422C-6.40582 127.591 27.1154 149.216 30.85 151.746C16.2709 138.448 -2.36604 131.485 -20.5002 133.675C-12.2949 144.657 -24.2168 139.292 -23.4807 134.608C-27.2511 138.215 -26.497 137.407 -29.8366 136.995C-33.3736 138.036 -20.9132 142.055 -28.9209 143.186C-29.9802 141.679 -30.088 142.755 -30.3573 143.347C-36.9646 138.179 -28.5618 137.3 -39.9271 141.876C-35.9053 141.768 -36.6593 146.075 -34.7562 144.909C-33.3916 149.898 -41.0223 147.583 -41.5789 147.188C-41.9021 139.31 -45.6187 144.801 -45.9957 146.56C-43.8053 150.418 -41.7764 152.105 -41.3814 153.307C-51.2205 156.789 -45.2776 145.124 -50.9692 151.746C-51.0051 160.055 -57.8637 156.52 -55.4578 161.562C-55.4219 161.867 -55.386 162.137 -55.3501 162.37C-65.3149 170.517 -62.1549 177.588 -77.0752 181.68C-72.9995 181.823 -69.3906 178.395 -66.9129 177.444C-71.5631 187.189 -115.462 185.825 -64.866 145.788C-64.7224 146.093 -64.6506 146.273 -64.5249 146.542C-51.0769 135.11 -68.439 103.939 -82.1025 116.913C-82.2102 116.267 -81.7972 115.89 -81.7434 115.352C-87.5786 124.163 -79.9479 125.85 -75.0104 130.947C-84.4545 110.776 -63.1424 120.162 -68.5467 136.636C-69.9831 137.641 -71.3297 138.556 -72.6045 139.417C-72.6224 139.884 -72.8379 140.153 -72.9636 140.656C-73.1611 140.225 -73.1611 139.956 -73.0533 139.722C-90.2359 151.136 -92.7316 148.821 -99.8237 156.215C-100.057 155.874 -99.6082 155.73 -99.698 155.461C-104.959 162.19 -109.034 170.212 -110.166 170.463C-107.67 171.235 -108.801 174.914 -109.806 175.596C-107.742 184.389 -98.8003 199.679 -90.3616 199.141C-91.9057 199.284 -90.9182 196.539 -90.2359 196.413V196.359ZM9.73537 173.299C8.96332 172.725 8.31695 172.204 7.79626 171.738C7.47308 171.504 7.16786 171.235 6.88059 170.948C6.82673 170.894 6.79082 170.804 6.80877 170.733C2.91262 166.318 12.4465 167.754 10.4176 166.48C17.1506 168.777 14.2779 173.765 9.73537 173.299ZM22.4652 160.647C34.1177 166.246 19.0897 172.563 17.797 164.057C19.754 158.027 22.5729 164.99 22.4652 160.647ZM14.619 154.061C15.1038 153.541 14.7447 152.966 14.8165 152.428C21.6752 156.197 19.0179 161.239 14.4395 159.05C8.19128 155.945 11.4051 150.131 14.6011 154.061H14.619ZM-6.22628 135.738C-4.78991 135.685 -3.38945 135.433 -2.00694 136.026C-0.337166 135.738 -6.98038 137.856 -6.22628 135.738ZM-12.8156 138.43C-10.1404 134.985 -6.13651 141.481 -7.86015 144.693C-5.13105 149.449 0.578522 146.632 -3.33559 146.219C-8.66811 143.635 -2.68922 141.822 -2.65331 140.315C4.70808 142.899 -5.56196 153.9 6.03672 153.092C-4.08968 147.224 4.15149 143.814 7.65264 146.542C13.0211 148.749 6.62923 152.446 9.0531 155.497C10.669 158.673 12.6979 160.091 15.5168 160.504C16.2349 163.554 16.0733 167.036 18.8383 168.777C14.6549 167.054 15.2115 160.378 10.0585 162.352C4.25921 150.149 1.45829 161.491 -1.36058 151.638C-8.41675 148.767 -6.40583 153.756 -9.76334 147.403C-17.412 142.755 -16.1013 144.622 -12.7797 138.394L-12.8156 138.43ZM-24.145 141.589C-23.0677 146.057 -18.7945 142.953 -17.2145 145.124C-20.0334 148.624 -21.4338 144.693 -24.4323 145.088C-24.3784 143.922 -24.145 142.827 -24.145 141.589ZM-29.7289 147.511C-30.2316 148.767 -30.878 148.677 -31.4525 148.623C-34.3791 148.498 -30.3034 147.152 -29.7289 147.511ZM-90.0743 193.883C-88.8534 192.16 -88.0454 194.475 -87.8839 194.959C-88.8175 194.959 -89.2484 194.188 -90.0743 193.883ZM-50.0714 154.438C-49.461 155.335 -50.3048 155.551 -50.4844 156.035C-42.2612 160.127 -45.116 161.275 -49.5508 162.029C-54.8294 160.324 -51.9746 155.945 -50.0894 154.438H-50.0714ZM-55.3321 162.352C-54.7755 166.605 -55.4578 162.119 -50.5921 166.408C-44.9005 171.63 -63.5194 171.612 -55.3321 162.352ZM-57.756 172.653C-62.9629 173.945 -58.0433 174.358 -57.3071 174.609C-51.023 181.087 -61.2033 177.534 -59.8028 179.329C-65.4765 179.006 -60.4492 172.94 -58.9051 171.379C-58.7615 171.863 -58.4383 172.24 -57.756 172.653ZM-60.126 169.315C-59.7669 170.194 -60.4672 170.41 -60.8801 170.786C-60.8322 170.32 -60.5809 169.829 -60.126 169.315ZM-61.9753 172.079C-62.2088 173.245 -64.7224 176.116 -66.5897 177.157C-64.4172 174.232 -62.9269 173.209 -61.9753 172.079ZM-82.9284 148.354C-82.677 149.054 -83.0182 148.839 -83.2875 148.875C-83.3054 148.3 -83.1259 148.3 -82.9284 148.354ZM-62.7474 133.459C-53.7521 145.501 -117.778 172.796 -79.3554 184.569C-73.8972 186.345 -64.1299 175.399 -64.2376 182.146C-74.2204 180.405 -54.1471 186.812 -66.9847 188.66C-72.8558 186.597 -67.5772 181.195 -72.1556 184.551C-75.3156 188.068 -76.2313 188.427 -73.7895 188.445C-66.7513 192.878 -76.0518 192.16 -76.7699 192.232C-76.2672 187.655 -81.3484 189.881 -83.7722 188.517C-86.2859 190.311 -78.6552 190.258 -80.9893 192.967C-86.2141 195.444 -90.0025 183.402 -95.8198 182.218C-116.468 152.069 -73.1431 156.197 -62.7654 133.459H-62.7474ZM-104.653 163.859C-104.546 164.488 -104.474 164.936 -104.402 165.385C-105.013 164.811 -105.013 164.793 -104.653 163.859ZM-105.551 168.866C-102.894 170.158 -105.031 171.45 -106.036 170.194C-106.682 168.633 -105.497 169.028 -105.551 168.866ZM-105.749 174.842C-103.666 174.429 -102.14 174.196 -102.176 175.111C-102.912 177.373 -105.408 175.434 -105.749 174.842ZM-101.493 190.222C-102.84 187.44 -100.237 188.122 -101.493 190.258C-101.493 190.258 -101.493 190.24 -101.493 190.222ZM-100.542 180.764C-104.258 179.293 -98.89 177.426 -98.2616 179.203C-96.52 181.482 -99.9134 181.787 -100.542 180.764ZM-95.8737 192.932C-95.73 193.398 -95.1555 193.542 -95.1914 194.116C-95.9574 193.972 -96.2627 194.259 -96.1071 194.977C-92.7136 196.592 -98.8541 194.941 -95.8737 192.914V192.932ZM-98.4412 184.874C-96.5021 183.707 -95.6223 183.815 -95.0298 184.533C-94.7784 187.099 -96.915 185.969 -98.4412 184.874ZM-93.4498 188.445C-92.5161 186.184 -90.6848 186.991 -90.2539 188.391C-89.9845 191.586 -95.3709 190.096 -93.4498 188.445Z" fill="#803D1D"/>
<path d="M139.709 270.998C125.525 273.78 137.393 293.592 145.042 281.353C134.52 286.665 136.262 279.81 138.057 276.364C144.737 272.595 145.239 278.805 146.263 278.482C149.8 269.096 136.441 272.685 143.426 271.088C147.502 268.934 141.882 269.993 141.289 269.527C132.869 265.758 142.528 262.079 144.952 263.048C147.537 264.161 145.939 268.755 148.309 267.409C147.107 271.088 150.59 268.468 151.308 269.437C153.732 266.045 152.242 274.139 148.866 271.806C151.344 275.969 157.377 269.85 160.052 271.842C160.878 268.055 162.35 273.439 160.86 274.336C158.256 275.772 156.12 273.457 157.879 275.772C161.829 277.656 164.343 273.349 167.072 275.198C166.408 266.727 161.901 265.65 157.107 269.078C156.964 263.892 151.182 265.327 149.135 266.045C150.644 256.713 137.178 256.049 135.31 264.233V264.251C135.616 267.553 137.734 269.85 139.745 270.998H139.709Z" fill="#803D1D"/>
<path d="M158.076 282.876C153.857 267.856 139.691 284.438 150.087 281.118C151.326 277.259 154.234 283.361 152.08 283.756C149.781 287.65 145.993 283.128 147.681 285.999C152.331 288.117 157.879 284.24 161.147 284.563C164.612 283.235 161.021 289.463 158.687 287.542C159.8 289.211 160.141 289.48 161.183 289.157C165.941 286.825 175.852 288.493 169.154 291.203C164.576 292.316 174.236 292.818 174.631 291.006C172.727 295.564 176.39 292.172 177.629 294.075C177.683 290.898 181.058 293.608 179.712 295.098C172.117 296.551 176.282 298.22 180.25 296.946C189.282 295.69 181.992 298.723 183.931 301.432C184.883 302.581 184.919 302.366 185.224 301.809C187.63 298.705 187.935 298.92 188.743 300.571C188.599 303.622 184.236 305.075 189.335 303.586C199.588 295.582 188.492 294.487 186.175 295.977C181.759 284.51 178.635 292.208 175.546 288.852C176.354 282.535 170.196 284.958 167.197 285.64C166.389 279.108 160.949 280.256 158.041 282.859L158.076 282.876Z" fill="#803D1D"/>
<path d="M168.293 259.512C182.082 266.386 196.733 273.636 203.251 287.705C202.999 289.015 198.906 284.941 197.613 286.557C192.262 271.877 183.465 288.19 191.652 283.721C192.478 285.39 190.79 287.149 189.533 286.485C187.774 288.854 193.304 286.969 194.399 287.454C190.287 294.112 194.74 289.805 196.661 290.935C199.516 285.964 200.324 298.203 193.573 294.327C194.291 296.839 196.248 296.409 197.433 296.678C200.575 294.255 206.985 295.26 203.556 291.815C203.179 284.134 206.429 298.76 208.134 299.172C205.387 278.104 186.104 265.524 168.293 259.512ZM194.381 287.203C195.135 286.467 194.902 286.521 195.333 286.808C194.381 287.203 194.884 287.256 194.381 287.203Z" fill="#803D1D"/>
<path d="M167.556 273.527C168.094 276.075 177.161 273.33 170.877 276.632C163.606 277.654 176.443 278.013 176.964 277.385C179.226 282.913 177.951 278.893 181.165 279.234C183.033 275.25 184.056 284.097 179.406 282.589C182.278 286.322 185.313 280.31 187.467 281.01C190.879 277.78 182.117 271.445 178.867 276.237C176.21 269.31 170.662 269.489 167.556 273.527Z" fill="#803D1D"/>
<path d="M24.5118 182.201C22.4291 185.79 28.2464 186.921 29.5391 187.836C34.8896 193.166 37.8521 175.866 27.7616 178.289C23.3807 180.388 29.7007 181.465 30.2393 181.555C31.0653 186.041 25.2121 185.09 24.5118 182.201Z" fill="#803D1D"/>
<path d="M176.838 100.008C175.671 101.551 179.801 106.666 180.483 106.45C186.516 108.029 191.382 98.4464 183.966 101.659C183.392 106.343 179.514 97.1723 185.852 98.249C183.248 93.9959 179.424 101.102 176.838 100.008Z" fill="#803D1D"/>
<path d="M136.01 180.513C134.394 177.265 130.426 181.644 129.528 181.859C128.415 182.721 127.338 181.572 127.176 182.595C132.365 196.934 143.299 179.939 134.232 183.456C132.293 187.727 132.617 178.701 136.028 180.531L136.01 180.513Z" fill="#803D1D"/>
<path d="M190.287 309.471C190.287 309.471 190.287 309.471 190.287 309.489C206.159 314.263 198.079 301.163 190.807 303.98C190.879 303.675 190.933 303.46 190.987 303.226C184.99 308.251 190.933 306.744 191.544 308.054C195.26 305.236 192.711 309.525 190.287 309.453V309.471Z" fill="#803D1D"/>
<path d="M206.966 298.683C206.302 297.086 204.686 297.625 204.219 297.373C193.052 297.93 201.634 306.58 207.379 302.829C207.397 305.88 207.792 308.015 209.193 309.092C209.498 305.431 208.69 301.537 208.187 299.186C204.596 303.798 200.844 297.732 206.966 298.683Z" fill="#803D1D"/>
<path d="M209.337 317.763C209.588 315.036 209.858 312.469 209.265 309.903C208.816 311.698 204.525 311.464 205.89 310.119C206.769 308.109 209.534 309.76 207.937 308.127C199.246 307.696 199.857 310.154 202.945 314.264C211.079 314.605 205.405 315.861 209.337 317.763Z" fill="#803D1D"/>
<path d="M183.464 365.406C182.728 361.565 185.224 362.786 186.337 362.516C184.434 359.25 180.538 363.342 178.437 361.852C177.863 364.508 179.209 367.613 180.071 367.936C187.684 371.328 188.851 361.781 183.482 365.424L183.464 365.406Z" fill="#803D1D"/>
<path d="M180.394 85.883C177.952 82.1861 175.115 88.8619 173.122 86.7443C170.734 88.844 175.42 89.6695 174.11 91.3205C179.388 96.6324 184.218 86.2957 180.466 87.8749C175.887 90.6027 177.701 85.3446 180.394 85.9009V85.883Z" fill="#803D1D"/>
<path d="M117.84 191.767C114.608 194.943 122.993 199.663 125.381 195.679C128.272 189.111 121.395 194.943 122.221 193.346C126.728 185.234 121.216 191.731 117.84 191.767Z" fill="#803D1D"/>
<path d="M52.8985 190.203C48.8048 189.378 57.0101 194.456 56.9203 195.282C58.8594 193.523 59.9187 191.603 60.0265 190.885C59.6853 186.578 54.0655 184.783 53.114 187.87C57.441 190.4 54.299 191.298 52.8985 190.221V190.203Z" fill="#803D1D"/>
<path d="M189.874 351.858C190.736 347.999 184.38 352.88 183.734 351.068C182.118 365.819 197.433 353.257 187.774 353.796C188.294 355.77 186.643 354.549 186.84 354.029C186.643 351.032 188.833 351.642 189.874 351.858Z" fill="#803D1D"/>
<path d="M44.8544 182.665C42.9153 184.818 51.731 189.215 50.7076 187.08C56.0222 178.519 42.4485 177.371 47.1705 183.257C46.3446 183.544 45.0878 183.796 44.8544 182.665Z" fill="#803D1D"/>
<path d="M36.7754 189.343C34.1899 189.218 37.7808 191.838 38.4631 191.909C42.0181 196.916 43.3108 191.568 43.6699 189.505C42.0002 183.726 34.4951 186.023 38.6426 188.912C40.9947 189.415 37.0447 190.581 36.7754 189.343Z" fill="#803D1D"/>
<path d="M67.9623 200.059C73.8514 192.468 58.3925 192.755 65.2691 196.937C57.2973 196.219 69.273 203.433 67.9623 200.059Z" fill="#803D1D"/>
<path d="M55.2151 201.134C49.0926 198.998 59.5961 207.307 58.5008 204.059C63.4204 197.473 51.5344 195.481 55.2151 201.134Z" fill="#803D1D"/>
<path d="M169.262 81.2367C173.696 90.2813 180.573 78.8679 173.966 80.6983C178.49 76.1042 168.077 80.6265 169.262 81.2367Z" fill="#803D1D"/>
<path d="M183.143 370.341C183.143 370.341 183.161 370.341 183.178 370.359C183.178 370.359 183.178 370.359 183.214 370.341H183.143Z" fill="#803D1D"/>
<path d="M179.155 370.915C178.096 374.809 182.135 379.278 183.931 376.801C188.419 373.015 182.836 373.14 181.956 374.127C179.873 370.072 188.006 372.728 183.159 370.341C179.855 372.943 179.927 369.336 179.137 370.897L179.155 370.915Z" fill="#803D1D"/>
<path d="M49.9892 192.969C41.0658 190.188 49.6301 196.81 44.4951 195.159C50.887 203.988 51.7847 194.495 49.9892 192.969Z" fill="#803D1D"/>
<path d="M73.241 205.992C77.4603 200.896 67.5134 199.693 70.5298 203.408C67.8366 202.924 73.8155 208.864 73.241 205.992Z" fill="#803D1D"/>
<path d="M95.3613 214.593C96.3309 212.188 97.7493 209.909 97.8211 207.218C96.8156 209.622 95.9538 212.063 95.3613 214.593Z" fill="#803D1D"/>
<path d="M243.541 435.38C241.889 433.693 240.183 432.078 237.49 433.281C239.986 432.635 241.566 434.519 243.541 435.38Z" fill="#803D1D"/>
<path d="M93.8711 230.799C95.882 232.504 98.0186 234.101 99.7423 234.46C97.3004 233.06 95.1279 230.781 93.8711 230.799Z" fill="#803D1D"/>
<path d="M73.5289 239.628C71.4461 239.143 67.9989 240.974 66.7959 241.871C69.0402 241.117 71.2846 240.382 73.5289 239.628Z" fill="#803D1D"/>
<path d="M120.174 246.228C118.074 245.798 115.973 245.349 113.89 244.918C115.291 246.372 118.81 246.408 120.174 246.228Z" fill="#803D1D"/>
<path d="M68.3754 220.085C64.3715 219.098 63.6533 219.062 62.5581 219.277C64.6049 219.995 67.37 220.372 68.3754 220.085Z" fill="#803D1D"/>
<path d="M127.159 246.93C131.037 248.24 131.216 249.012 132.527 248.922C130.193 247.415 129.223 246.751 127.159 246.93Z" fill="#803D1D"/>
<path d="M234.347 280.648C234.616 282.891 234.885 285.152 235.155 287.395C235.262 287.395 235.37 287.377 235.496 287.36C234.903 284.65 235.46 281.348 234.347 280.648Z" fill="#803D1D"/>
<path d="M131.666 92.8857C131.666 92.8857 131.576 92.8499 131.54 92.814V92.8499C131.54 92.8499 131.63 92.8678 131.666 92.8857Z" fill="#803D1D"/>
<path d="M131.666 92.8838C133.479 93.9246 135.472 94.4989 137.537 95.468C135.705 93.7631 133.12 93.2248 131.666 92.8838Z" fill="#803D1D"/>
<path d="M115.201 178.265C113.872 178.749 113.298 179.934 112.598 181.029C113.603 180.239 114.429 179.27 115.201 178.265Z" fill="#803D1D"/>
<path d="M146.675 251.844C147.752 252.472 148.847 252.741 150.014 252.705C148.973 252.023 147.878 251.862 146.675 251.844Z" fill="#803D1D"/>
<path d="M37.7095 258.256C39.0022 257.735 39.5049 257.305 40.3488 255.959C38.7149 257.143 38.2122 257.52 37.7095 258.256Z" fill="#803D1D"/>
<path d="M48.4993 166.73C47.6734 165.923 46.8295 165.115 45.8779 164.182C46.3627 165.582 47.44 166.12 48.4993 166.73Z" fill="#803D1D"/>
<path d="M41.7484 209.838C41.0302 209.246 40.33 208.672 39.6118 208.08C39.8632 209.228 40.7968 209.533 41.7484 209.838Z" fill="#803D1D"/>
<path d="M183.088 84.7393C183.088 84.7393 182.962 84.7393 182.908 84.7213C182.585 84.5598 182.262 84.4163 181.938 84.2548C182.441 85.1341 183.465 85.2418 184.147 85.8519C183.842 85.4212 183.501 85.0444 183.088 84.7393Z" fill="#803D1D"/>
<path d="M53.9036 217.733C53.6164 217.075 53.0059 216.68 52.0723 216.549C52.6827 216.943 53.4548 217.087 53.9036 217.733Z" fill="#803D1D"/>
<path d="M103.423 194.439C103.118 195.21 102.633 195.623 102.561 196.287C103.028 195.82 103.315 195.204 103.423 194.439Z" fill="#803D1D"/>
<path d="M110.192 240.256C110.407 241.045 110.928 241.081 111.413 241.135C111.108 240.758 110.784 240.435 110.192 240.256Z" fill="#803D1D"/>
<path d="M182.603 284.722C183.105 284.668 183.536 284.579 183.895 284.004C183.285 284.058 182.638 283.699 182.603 284.722Z" fill="#803D1D"/>
<path d="M204.256 297.376C203.268 296.586 205.279 296.514 204.256 297.376V297.376Z" fill="#803D1D"/>
<path d="M233.756 433.67C233.235 433.724 232.804 433.886 232.589 434.37C233.72 433.598 233.379 433.921 233.756 433.67Z" fill="#803D1D"/>
<path d="M235.91 286.016C235.82 286.411 235.838 286.698 236.089 287.021C236.233 286.645 236.179 286.357 235.91 286.016Z" fill="#803D1D"/>
<path d="M122.347 90.5331C122.562 90.2998 123.298 91.3765 122.347 90.5331V90.5331Z" fill="#803D1D"/>
<path d="M122.346 90.5327C122.346 90.5327 122.346 90.5327 122.311 90.5148V90.5864C122.311 90.5685 122.328 90.5685 122.346 90.5506V90.5327Z" fill="#803D1D"/>
<path d="M131.54 92.8326C130.893 92.4378 130.624 92.348 130.247 92.3301C130.768 92.7069 131.091 92.9223 131.54 92.8326Z" fill="#803D1D"/>
<path d="M86.7433 280.919C78.7176 293.104 78.9689 274.764 86.4381 278.568C86.6356 276.146 92.1476 276.522 91.6269 273.472C91.3576 272.287 91.1781 272.538 91.0165 272.431C86.0969 279.448 85.8815 271.318 89.3108 270.726C92.3092 270.834 90.1367 268.429 89.7417 267.478C89.1672 265.36 91.5013 263.243 90.1008 262.166C86.2226 269.183 83.2781 265.001 85.4147 261.592C87.1922 257.195 92.381 263.476 87.8206 255.544C74.5162 260.264 81.7878 271.067 88.8799 266.688C86.1687 270.726 82.2008 265.898 83.2242 273.723C65.0182 282.947 87.9822 293.894 86.7433 280.919Z" fill="#803D1D"/>
<path d="M102.633 311.86C102.345 302.905 89.6156 308.289 91.3392 314.175C87.7483 312.076 90.262 310.227 86.4556 312.399C68.9858 316.544 90.6749 334.849 91.6445 318.734C84.8217 329.304 83.3315 319.308 85.7194 316.329C89.9926 312.13 92.6679 320.241 95.2354 321.39C99.6881 323.292 105.541 318.608 103.171 314.732C95.8279 331.116 91.3931 304.521 102.615 311.878L102.633 311.86ZM91.1238 315.665C90.9442 315.055 91.1597 314.893 91.3213 314.696C91.429 315.808 91.5906 315.647 91.1238 315.665Z" fill="#803D1D"/>
<path d="M87.4609 310.672C90.9082 304.014 86.7427 308.896 85.2884 310.26C79.0581 310.762 84.6959 302.22 87.8918 304.499C88.0893 302.471 86.4554 301.089 86.0784 300.192C91.3032 294.09 87.2454 296.441 84.7318 298.846C79.1479 294.934 91.4827 293.875 86.1502 289.389C75.3415 293.426 79.3993 300.605 83.8341 300.802C74.0668 303.584 79.2018 316.828 87.4788 310.672H87.4609Z" fill="#803D1D"/>
<path d="M103.243 325.621C111.251 326.249 109.743 326.159 105.757 321.026C82.9009 327.792 108.378 347.227 109.635 329.515C102.615 342.077 98.4316 329.694 103.243 325.621Z" fill="#803D1D"/>
<path d="M96.9049 292.838C78.9323 299.783 94.9478 313.224 100.388 301.721C100.532 300.716 100.388 300.249 99.9931 300.267C90.7644 312.273 90.926 293.915 99.9213 297.468C98.8799 293.933 97.2999 293.968 96.8869 292.838H96.9049Z" fill="#803D1D"/>
<path d="M96.1151 330.719C96.1151 328.189 94.3376 326.987 93.7451 325.82C73.2589 332.927 96.8692 348.18 96.5101 333.339C88.3048 346.44 87.5866 326.089 96.133 330.719H96.1151Z" fill="#803D1D"/>
<path d="M91.8243 287.901C92.1834 280.956 98.9523 290.683 95.4332 281.153C78.9149 283.163 94.0866 302.078 97.7314 289.516C96.8875 284.061 94.4457 297.933 91.8243 287.901Z" fill="#803D1D"/>
<path d="M137.841 358.837C138.631 359.932 139.673 360.076 140.499 360.56C139.87 359.753 139.062 359.232 137.841 358.837Z" fill="#803D1D"/>
<path d="M109.994 363.311C109.528 363.688 108.917 363.67 108.54 364.208C109.414 364.22 109.899 363.921 109.994 363.311Z" fill="#803D1D"/>
<path d="M84.2117 171.325C89.0595 160.845 91.5192 170.661 88.8619 173.515C84.7863 173.658 83.8885 175.184 81.2492 176.817C79.1306 179.939 81.5724 181.536 82.0751 178.504C84.3913 174.95 86.2226 179.491 84.1758 180.28C84.2117 183.134 81.0337 180.962 81.6801 183.116C82.2008 184.695 83.1344 185.144 83.3858 186.041C80.5669 197.095 88.7183 179.437 88.7004 188.93C87.5513 190.527 87.659 193.183 85.0915 192.412C82.3265 197.975 90.1906 195.067 92.2733 193.291C95.0742 186.31 88.6824 181.949 83.9244 185.807C87.8206 181.285 90.6574 184.892 88.2515 176.888C106.027 171.289 82.2906 156.251 84.2117 171.343V171.325Z" fill="#803D1D"/>
<path d="M78.4657 144.908C78.9146 146.559 79.4891 145.662 79.4532 145.68C84.9653 134.859 86.4376 149.7 80.8896 148.192C77.9271 148.731 83.7085 151.638 80.1714 156.017C80.5305 157.973 87.6944 148.39 84.4625 156.896C84.6062 160.701 78.3939 157.058 83.6546 162.962C93.6912 157.47 88.8794 151.369 84.5164 151.405C96.3126 144.908 81.3564 133.082 78.4478 144.926L78.4657 144.908Z" fill="#803D1D"/>
<path d="M56.1837 130.1C59.4335 138.571 70.4936 129.059 67.6029 123.155C64.3531 113.626 51.5873 120.32 54.9449 126.26C62.1806 110.145 68.716 132.469 56.1658 130.082L56.1837 130.1Z" fill="#803D1D"/>
<path d="M64.1917 142.955C66.7951 152.825 78.5015 143.422 74.6413 136.961C71.9301 128.401 59.4696 133.587 63.2042 140.138C68.7163 122.999 76.2931 148.59 64.1917 142.955Z" fill="#803D1D"/>
<path d="M78.4297 142.111C98.2875 130.715 71.9481 120.091 74.3001 134.645C78.6811 124.865 80.674 130.751 81.5179 134.232C79.4531 138.844 77.6756 137.516 74.6413 136.978C76.8317 141.411 77.9808 140.836 78.4297 142.128V142.111Z" fill="#803D1D"/>
<path d="M71.4814 127.462C90.1901 118.597 65.287 105.999 67.262 120.983C73.4205 106.77 77.8193 127.264 67.5852 123.155C69.65 126.995 71.1223 128.18 71.4634 127.444L71.4814 127.462Z" fill="#803D1D"/>
<path d="M68.9677 156.845C72.5406 164.92 73.4025 157.742 77.8013 157.545C83.2416 150.941 74.8927 142.973 69.2729 149.631C65.5563 157.132 69.3806 153.058 70.6734 150.42C78.717 146.113 74.4977 159.662 68.9677 156.845Z" fill="#803D1D"/>
<path d="M73.9415 167.934C76.4013 179.473 90.1366 161.581 75.5395 159.535C70.2788 162.353 71.5894 169.19 75.0188 161.976C80.0102 162.999 79.1483 169.926 73.9415 167.934Z" fill="#803D1D"/>
<path d="M22.7705 101.281C22.1601 100.437 21.4598 100.114 19.9517 99.9346C20.8135 100.545 21.6573 100.886 22.7705 101.281Z" fill="#803D1D"/>
</svg>
