<svg width="750" height="1025" viewBox="0 0 750 1025" fill="none" xmlns="http://www.w3.org/2000/svg">
<g clip-path="url(#clip0_179_22)">
<path d="M260.659 636.51C260.938 637.504 261.176 638.459 261.455 639.454C262.17 640.449 262.886 641.443 263.562 642.477C262.608 640.488 261.614 638.499 260.659 636.51Z" fill="#803D1D"/>
<path d="M593.899 795.732C514.993 766.451 516.664 830.582 498.25 889.144C452.991 911.622 484.211 833.327 494.71 815.146C496.778 799.511 517.181 775.322 498.488 778.266C516.425 761.358 490.216 776.675 488.784 771.941C484.091 778.306 492.125 790.957 499.045 787.934C502.625 801.301 496.46 794.021 493.279 797.601C491.409 790.679 505.011 792.469 494.273 789.923C475.302 790.957 483.177 800.028 489.182 805.757C498.369 802.574 491.847 809.815 490.972 813.913C476.972 814.947 483.177 808.303 489.023 808.9C488.188 806.553 487.392 806.314 486.597 805.757C456.292 809.696 481.586 812.799 471.086 820.915C477.609 820.915 482.739 822.108 486.319 822.506C486.756 821.631 487.114 820.676 488.705 820.397C484.887 830.821 481.586 839.295 476.694 846.058C478.166 837.743 485.563 830.383 484.728 823.859C483.972 826.564 481.984 828.673 481.188 831.378C466.393 833.049 471.365 826.285 475.899 825.41C485.165 821.034 462.854 825.092 460.905 824.217C457.882 837.783 468.183 842.796 477.808 838.419C469.376 855.686 462.098 874.265 472.081 891.014C465.996 877.248 467.547 860.181 475.103 848.803C455.218 896.225 503.46 930.24 512.289 855.487C517.936 836.192 517.539 826.325 527.283 811.207C540.685 789.008 586.422 793.901 600.898 810.173C595.649 809.974 593.382 810.849 594.058 805.12C590.677 808.303 586.66 804.126 587.933 802.097C522.828 788.252 530.623 872.514 536.072 883.932C533.049 905.057 518.135 922.045 514.277 934.099C506.164 930.718 502.386 935.81 497.812 932.349C504.573 927.973 484.091 929.803 488.586 932.23C492.722 937.402 484.171 927.893 483.853 929.087C480.631 932.349 475.222 924.154 473.274 923.199C467.825 924.87 460.905 920.653 462.257 926.421C452.195 924.193 462.217 919.181 462.138 915.879C460.269 912.02 453.03 912.736 459.632 911.184C459.553 906.092 446.269 913.85 446.269 906.33C437.639 907.604 423.282 903.426 424.674 900.363C435.492 896.822 439.986 900.999 438.156 890.377C434.736 893.639 430.441 889.581 428.492 888.905C431.077 887.035 431.514 885.245 431.037 883.733C419.742 887.751 417.555 880.232 423.401 877.408C434.099 873.747 433.304 887.115 434.974 869.053C433.543 868.814 433.065 870.366 431.554 870.127C438.077 862.17 429.526 867.064 427.816 868.058C418.668 862.966 419.941 861.494 423.163 857.516C431.833 845.421 437.241 871.997 438.156 849.201C444.082 839.613 418.31 851.19 430.441 837.266C455.496 841.204 456.133 827.678 443.406 834.879C443.963 829.866 442.213 829.07 439.19 830.144C435.491 825.967 446.707 822.148 448.775 824.654C456.61 833.208 463.649 814.39 455.417 821.432C455.973 817.135 447.144 819.164 445.593 817.095C444.161 809.696 457.206 808.343 461.939 814.549C465.2 806.951 468.74 807.866 467.626 804.404C442.73 805.916 458.042 798.317 456.133 796.408C467.069 794.458 473.512 802.057 478.325 790.639C449.173 790.042 469.336 782.643 465.598 781.966C473.552 779.858 477.728 782.603 481.109 785.428C484.648 768.798 474.188 776.595 471.683 773.333C473.154 772.1 472.478 771.543 472.16 770.827C498.13 771.742 479.597 767.883 484.012 762.631C469.694 752.685 452.553 767.008 472.399 765.416C453.945 775.84 448.894 796.925 438.116 808.303C444.559 716.363 382.119 769.037 288.021 660.188C304.725 654.857 297.049 655.374 290.805 654.817C290.686 654.817 290.567 654.817 290.447 654.817C285.197 654.3 281.34 652.948 294.941 646.423C300.748 651.834 303.93 645.19 304.685 651.117C292.157 666.156 307.27 675.306 318.008 667.986C314.19 682.467 338.093 686.764 338.65 674.988C331.57 679.443 326.559 679.324 324.65 675.028C335.985 652.987 343.342 684.297 341.95 659.392C339.723 661.262 337.536 660.745 335.349 659.034C339.723 656.846 341.871 654.778 342.865 652.788C325.167 657.204 326.241 651.754 332.883 644.314C346.445 643.399 345.808 651.038 345.689 636.119C338.809 639.819 335.388 632.3 329.383 634.249C316.497 653.783 299.117 650.839 311.327 636.636C316.696 633.334 320.434 637.392 323.059 639.62C331.729 621.916 297.964 623.468 299.078 640.933C296.373 640.058 293.907 639.302 291.322 638.466C292.635 635.84 297.169 635.761 296.134 631.345C281.897 640.177 280.823 627.923 288.737 625.338C299.316 621.558 298.043 635.204 299.714 617.023C282.97 617.54 284.362 610.737 276.567 625.775C269.051 627.446 261.892 626.889 269.727 621.876C281.459 621.797 278.397 618.574 279.351 613.522C264.039 614.477 264.477 608.907 259.625 624.86C258.949 623.786 258.352 622.752 257.835 621.797C258.114 624.064 258.511 626.332 258.989 628.56C259.068 628.998 259.187 629.435 259.267 629.873C259.744 631.106 260.301 632.34 260.858 633.573C261.534 634.766 262.21 635.96 262.846 637.153C265.233 641.569 267.698 646.343 269.289 651.316C276.448 663.888 281.38 677.454 284.243 691.299V691.18C284.641 743.973 297.169 799.153 329.621 840.289C332.207 852.742 423.083 895.828 386.534 893.401C386.335 907.444 367.563 906.688 375.835 897.459C374.682 891.77 378.977 888.985 383.551 890.656C393.056 890.337 378.5 877.408 375.398 878.72C387.448 884.927 370.347 884.768 367.961 886.12C357.024 901.517 351.535 903.188 352.689 888.746C358.058 880.829 361.637 885.126 364.62 884.887C362.472 867.143 353.961 880.948 346.246 879.834C343.422 883.932 343.74 890.298 341.354 885.882C323.457 896.066 322.542 889.78 326.042 911.065C320.315 907.882 314.588 904.699 308.424 901.238C317.054 898.851 322.94 892.685 320.395 886.478C316.616 893.44 309.577 900.641 304.288 894.037C307.27 854.532 324.65 904.222 344.496 882.261C345.411 872.435 345.172 872.236 340.598 879.596C324.809 894.873 324.69 868.576 332.366 864.836C346.007 867.621 344.695 865.99 338.411 857.635C331.411 851.667 321.986 871.36 324.769 852.185C302.896 886.24 296.93 830.9 323.378 844.865C316.537 819.204 298.481 852.543 305.878 829.866C302.498 825.649 300.47 841.204 293.788 840.13C272.033 841.324 286.152 804.802 303.81 819.642C299.555 796.288 271.238 816.419 274.34 820.119C234.967 807.587 233.456 861.017 264.198 856.68C262.886 893.958 299.595 881.426 295.021 864.637C272.153 902.432 264.238 840.488 293.987 857.038C287.266 841.045 283.09 846.973 296.85 842.756C293.231 860.261 302.458 872.236 318.565 865.671C317.849 868.218 317.531 870.644 317.571 873.23C306.395 864.717 289.055 879.317 295.498 893.281C289.413 890.337 284.601 885.921 281.181 884.688C281.181 884.728 281.101 884.807 281.061 884.847C281.061 884.847 281.022 884.847 280.982 884.887C287.305 889.581 295.737 894.037 298.998 898.493C256.364 875.299 222.36 836.072 203.906 793.305C192.611 758.772 189.23 712.822 199.531 674.033C199.77 671.527 200.167 669.02 200.684 666.554C201.719 661.541 203.15 656.647 204.542 651.714C205.179 649.407 205.815 647.059 206.372 644.712C206.968 642.166 207.366 639.62 207.724 636.994C208.042 634.448 208.4 631.942 208.678 629.396C207.923 630.589 207.127 631.822 206.292 633.056C206.292 624.781 206.292 616.585 205.099 608.429C207.207 663.132 183.106 731.918 133.79 766.689C126.949 773.413 138.523 754.157 131.642 751.651C130.051 752.685 130.171 751.213 129.813 750.418C145.642 761.159 159.442 743.734 152.562 730.486C164.573 728.139 172.646 719.466 168.112 706.337C165.209 704.308 166.044 702.757 167.555 702.836C184.975 709.401 195.872 682.944 171.612 674.988C187.759 676.539 194.083 664.246 183.066 654.738C191.1 644.275 209.156 616.187 185.731 615.789C175.032 616.903 177.18 623.547 178.214 622.155C196.787 614.119 190.98 628.401 183.225 630.589C169.385 625.536 175.35 631.663 169.981 638.586C172.328 638.029 174.515 637.671 176.623 636.477C184.18 640.615 185.532 640.734 178.532 644.752C172.527 648.293 170.021 643.638 168.072 642.723C164.056 648.611 167.675 651.794 166.919 653.664C171.334 650.6 174.237 654.181 176.305 654.101C171.532 662.018 156.38 644.593 151.528 660.785C180.56 649.168 160.556 671.805 163.896 670.174C153.795 675.624 152.005 667.946 149.141 666.355C145.483 672.481 146.954 680.04 151.408 677.415C157.056 680.319 162.385 679.364 162.664 684.138C183.384 674.311 178.532 687.162 174.316 693.726C160.914 701.364 147.869 664.763 136.972 688.435C158.448 678.449 153.039 691.936 148.903 697.983C135.659 704.786 133.591 684.416 133.074 701.961C125.001 700.33 117.842 702.637 117.921 707.809C134.108 700.608 135.779 709.48 128.262 715.726C122.893 718.432 118.399 715.846 115.535 712.782C107.462 726.826 126.114 724.24 132.438 727.104C130.648 730.048 130.688 731.68 131.881 731.481C162.544 714.254 139.756 760.921 128.58 737.965C128.739 739.517 127.705 739.955 126.552 740.233C127.307 729.969 115.217 722.291 105.831 728.656C101.735 731.839 103.087 731.958 102.888 733.788C135.023 719.585 111.16 759.051 100.462 739.199C97.3599 750.139 88.6898 747.633 90.5988 753.64C93.0248 750.855 96.1667 750.577 99.1496 749.622C97.2008 753.123 100.86 752.845 100.86 751.373C113.189 751.93 97.2008 761.319 101.297 761.796C93.8998 763.984 92.2692 762.87 89.6841 759.25C86.0252 760.165 74.4916 762.512 74.3723 768.48C81.2924 764.461 91.0363 763.825 83.2412 767.127C104.32 770.19 77.037 788.292 71.9066 774.129C69.7192 777.63 51.5837 767.485 49.794 780.216C72.7417 771.066 67.0943 782.961 63.157 790.838C52.1802 797.243 47.8452 785.348 41.0842 784.353C26.5678 782.086 26.0905 792.708 31.1414 789.008C46.1748 783.558 41.7205 796.05 34.522 797.084C26.0906 798.795 12.2901 781.131 6.04607 797.402C28.3177 788.093 21.8351 804.126 13.4434 807.508C3.62003 810.491 -0.476364 783.796 -12.9246 801.858C-17.5778 794.737 -28.2364 796.169 -31.1397 801.421C-27.6796 804.325 -13.5212 796.129 -19.5664 807.826C-42.1562 818.13 -28.6341 779.5 -51.2637 797.203C-58.0248 793.543 -64.3483 789.605 -70.5128 794.657C-69.6776 787.138 -75.3251 786.701 -75.1262 784.831C-28.9125 808.86 64.9467 752.526 97.2008 677.454C64.5887 733.589 8.59137 791.634 -60.9678 785.547C-86.2621 777.511 -89.7619 764.899 -127.266 766.928C-115.613 764.581 -110.085 766.212 -103.324 766.013C-118.954 759.727 -157.889 768.718 -165.565 798.477C-163.656 794.18 -161.946 790.4 -159.281 787.059C-158.685 788.451 -158.963 789.645 -159.202 790.838C-161.946 793.862 -162.264 794.936 -162.662 796.129C-173.44 810.173 -150.094 796.806 -153.355 805.439C-167.514 819.204 -166.878 795.294 -169.423 817.294C-164.173 816.021 -167.832 826.803 -165.684 828.474C-150.015 814.987 -141.901 833.685 -167.872 831.616C-169.383 842.279 -151.606 842.995 -154.429 855.686C13.6423 913.133 -130.249 993.696 -126.271 925.029C-123.328 930.678 -125.158 934.895 -122.175 938.396C-124.959 923.835 -115.573 921.926 -108.136 914.367C-104.517 891.451 -157.452 900.96 -142.975 952.917C-136.294 949.416 -135.976 960.277 -138.919 961.749C-133.709 959.68 -124.601 963.181 -126.47 967.916C-115.494 966.643 -102.568 971.576 -93.5401 972.769C-79.7794 967.478 -69.0413 961.033 -59.6156 952.559C-47.0082 940.664 -55.0022 930.877 -59.4565 922.522C-41.0824 934.338 -48.4798 916.674 -52.6159 908.598C-46.8889 902.511 -61.3655 894.714 -55.7578 886.439C-62.2802 872.037 -73.0979 863.762 -81.7282 852.861C-148.782 827.917 -129.334 806.99 -97.5172 816.658C-100.699 831.179 -95.807 824.177 -88.2506 828.354C-70.7514 833.844 -60.6496 840.25 -42.7528 843.83C-32.6112 836.749 -31.0601 843.273 -19.0493 844.785C-5.01024 835.316 -10.777 840.25 2.58598 842.756C14.3582 832.253 13.3241 839.136 24.6986 840.886C41.6012 830.582 28.5961 823.819 48.0043 831.02C62.7195 818.329 56.555 819.124 72.2645 824.575C107.859 788.093 155.226 773.771 184.697 714.811C183.106 765.178 205.855 817.772 234.49 851.628C270.681 889.9 310.452 912.059 358.018 932.906C404.51 954.389 454.184 970.541 488.068 1008.69C499.443 1022.06 531.101 1114.68 545.537 1085.36C561.446 1082.89 575.644 1080.78 587.376 1072.75C580.337 1069.56 588.569 1069.13 591.115 1067.69C591.035 1054.53 601.018 1066.66 593.461 1053.61C601.853 1048.48 594.694 1051.06 595.33 1047.24C602.569 1045.06 590.717 1041.67 591.87 1033.64C574.61 1042.15 584.99 1049.07 593.421 1053.61C589.444 1055.36 586.302 1059.3 588.013 1062C561.923 1087.27 550.111 1072.75 542.117 1083.81C542.117 1086.87 538.577 1086.99 538.418 1086.51C538.458 1076.53 548.719 1079.27 541.998 1070.76C538.935 1076.13 533.686 1074.22 530.583 1074.66C544.941 1063.72 551.901 1063.99 537.504 1061.33C538.379 1066.38 534.083 1061.05 532.93 1062.12C520.84 1071.55 526.726 1057.91 535.316 1058.11C551.742 1064.11 598.711 1069.96 571.309 1031.05C553.054 1033.84 556.236 1056 570.593 1054.13C556.474 1064.27 545.458 1039.29 558.105 1029.9C546.969 1035.27 551.065 1055.68 561.048 1057.99C535.157 1063.75 538.776 1006.78 525.294 994.332C538.06 998.43 500.397 962.863 504.176 962.744C484.688 955.782 507.198 959.163 497.256 953.713C492.046 951.803 499.244 949.456 500 949.894C517.3 947.149 528.993 935.174 539.373 921.289C560.173 890.417 541.481 858.63 553.889 827.32C556.156 811.327 579.104 811.207 585.666 820.119C585.189 827.439 583.399 831.776 584.553 838.221C610.722 846.615 623.17 808.184 594.058 795.413L593.899 795.732ZM471.683 770.867C470.092 773.731 469.336 773.651 466.712 770.668C468.541 770.747 470.172 770.827 471.683 770.867ZM320.355 647.736C322.145 653.425 317.452 651.277 316.378 651.038C317.531 649.765 319.162 649.447 320.355 647.736ZM319.719 660.666C326.32 643.877 325.883 662.376 318.923 665.4C294.305 672.123 312.759 651.873 319.719 660.666ZM278.914 650.003C273.266 644.832 262.926 631.504 262.369 628.799C266.943 631.703 270.8 632.34 275.772 627.844C282.374 644.474 288.936 632.698 278.914 650.003ZM267.062 851.19H267.181C247.733 860.38 252.705 831.736 257.358 827.996C275.851 814.947 282.453 849.917 267.022 851.19H267.062ZM276.527 848.644C279.828 838.579 281.141 844.109 285.595 844.069C282.095 850.792 278.476 846.854 276.527 848.644ZM181.634 659.273C184.498 663.291 178.015 665.32 176.544 664.763C169.942 658.955 179.646 657.125 181.634 659.273ZM142.579 723.166C117.365 733.51 149.977 715.09 137.688 706.258C153.596 712.981 159.681 695.954 163.061 709.878C161.033 717.198 154.033 712.743 158.329 717.795C144.608 727.94 147.431 702.16 142.579 723.206V723.166ZM-162.781 821.79C-163.974 816.3 -158.367 818.766 -157.531 819.88C-160.713 821.631 -161.668 821.75 -162.781 821.79ZM-141.225 936.248C-141.782 934.418 -139.555 935.134 -139.475 935.094C-134.305 935.174 -140.43 938.396 -141.225 936.248ZM-138.083 945.08C-137.049 945.955 -135.618 944.762 -134.544 945.915C-136.4 946.313 -137.58 946.035 -138.083 945.08ZM-80.893 955.384C-81.8077 951.644 -78.9044 952.997 -77.5125 952.838C-72.5013 957.015 -80.6544 955.861 -80.893 955.384ZM-133.072 769.474C-143.97 771.941 -150.373 781.728 -157.69 785.348C-152.083 777.869 -140.629 768.718 -133.072 769.474ZM-146.594 781.568C-139.992 774.368 -138.123 777.073 -133.908 775.442C-126.311 783.995 -145.68 787.536 -146.594 781.568ZM-151.128 841.125C-149.856 846.615 -143.492 837.186 -140.589 841.602C-139.197 855.009 -160.673 844.705 -151.128 841.125ZM-144.606 831.656C-148.384 827.718 -135.777 821.989 -138.839 827.081C-128.181 829.667 -140.589 834.68 -144.606 831.656ZM-135.379 853.895C-143.612 852.145 -132.913 848.604 -132.913 847.61C-124.959 850.315 -133.55 852.702 -135.379 853.895ZM-112.232 868.615C-112.948 865.035 -107.977 868.416 -108.056 867.82C-99.5455 873.509 -112.71 868.536 -112.232 868.615ZM-57.3487 916.276C-56.951 917.311 -57.1498 916.794 -56.9509 917.311C-59.4963 915.481 -57.7066 915.799 -57.3487 916.276ZM-56.7919 908.638C-61.6041 909.394 -61.5644 907.683 -61.803 906.132C-61.4451 905.057 -56.9112 907.962 -56.7919 908.638ZM-66.3369 942.494C-66.0187 939.55 -64.7063 939.948 -64.3881 939.709C-57.5077 942.335 -64.1892 944.125 -66.3369 942.494ZM-63.195 898.016C-63.9506 898.095 -64.6665 897.817 -64.746 896.504C-63.6325 896.663 -63.5529 897.498 -63.195 898.016ZM-69.9958 879.635C-72.9786 880.431 -74.291 880.312 -74.8081 879.277C-75.0069 874.742 -68.0072 877.885 -69.9958 879.635ZM-76.3989 869.809C-75.8023 870.644 -76.0807 871.082 -76.3989 871.559C-80.4555 872.395 -77.2738 867.74 -76.3989 869.809ZM-85.228 861.534C-88.0915 862.449 -88.8074 861.454 -89.563 860.062C-94.6935 852.583 -78.467 856.481 -85.228 861.534ZM-86.8586 871.122C-89.3642 871.838 -90.0005 871.639 -90.5573 871.36C-91.0345 868.576 -86.103 869.888 -86.8586 871.122ZM-86.262 880.192C-75.6432 876.612 -79.1828 884.012 -79.6601 887.314C-74.9671 883.972 -71.1889 888.149 -73.6945 891.292C-63.9506 896.544 -62.1212 918.703 -66.2573 929.922C-64.1495 908.518 -79.5408 889.979 -93.5003 878.72C-93.3015 875.06 -87.3756 879.357 -86.262 880.192ZM-95.29 876.135C-99.7046 875.259 -100.5 872.753 -101.892 872.474C-98.074 872.992 -95.4889 873.986 -95.29 876.135ZM-99.4262 855.168C-101.335 853.458 -103.841 853.895 -106.227 853.696C-100.778 845.063 -93.5799 851.747 -99.4262 855.168ZM-105.312 861.056C-107.42 861.653 -108.056 861.454 -108.573 861.176C-109.647 858.152 -104.318 859.425 -105.312 861.056ZM-113.465 843.591C-117.283 841.005 -112.67 841.523 -112.312 841.523C-104.954 853.378 -131.322 845.978 -113.465 843.591ZM-116.647 856.044C-117.363 859.664 -119.709 857.914 -120.982 858.351C-130.01 858.749 -119.033 852.781 -116.647 856.044ZM-128.499 842.04C-131.839 839.613 -128.379 836.47 -127.504 836.311C-119.829 838.34 -127.345 840.528 -128.499 842.04ZM-125.953 800.625C-130.249 805.558 -135.578 797.482 -140.072 804.524C-149.697 811.764 -117.999 806.672 -137.288 813.913C-137.129 814.629 -135.299 816.021 -137.885 815.862C-137.885 816.339 -137.805 816.817 -137.765 817.533C-145.839 809.218 -145.68 820.557 -146.276 820.397C-159.44 824.376 -144.208 808.94 -144.805 804.683C-132.595 785.547 -111.278 796.288 -125.953 800.665V800.625ZM-124.522 779.5C-114.937 768.002 -104.557 783.319 -116.925 784.115C-116.528 784.711 -116.249 785.189 -115.692 786.064C-122.414 788.053 -126.192 787.218 -124.561 779.5H-124.522ZM-105.949 806.155C-117.482 811.287 -115.732 799.67 -109.926 797.084C-109.926 796.885 -109.806 796.686 -109.647 796.607C-108.414 795.97 -107.022 795.652 -105.63 796.01C-104.716 796.249 -103.92 796.806 -103.324 797.522C-94.8128 800.028 -102.489 805.479 -105.949 806.115V806.155ZM-104.398 793.106C-110.164 793.106 -105.67 789.963 -106.545 790.042C-103.204 785.149 -100.063 794.021 -97.3979 791.872C-91.9891 782.961 -99.7046 777.63 -103.523 784.115C-103.523 776.078 -94.4151 770.509 -105.67 777.789C-114.221 763.427 -126.789 781.529 -130.05 772.617C-110.721 768.241 -93.4208 771.543 -77.9499 783.876C-83.5179 782.006 -91.989 784.791 -91.472 789.764C-73.6149 782.563 -77.1943 792.191 -82.4043 797.203C-91.1936 799.431 -95.4889 793.583 -104.398 793.106ZM-82.285 819.363C-100.739 826.683 -96.6422 804.086 -84.6712 806.791H-84.7905C-66.8141 811.923 -87.9324 816.618 -82.285 819.363ZM-10.1805 802.176C3.34163 796.607 -1.90811 806.791 -6.40221 808.462C-11.4133 813.594 -12.3678 803.052 -10.1805 802.176ZM-44.2243 797.084C-35.2361 800.824 -45.8151 815.783 -50.0706 807.985C-54.5647 802.972 -48.3605 796.885 -44.2243 797.084ZM-62.837 795.652C-50.866 801.063 -69.9958 809.616 -72.9388 802.535C-79.6601 809.497 -68.9617 792.867 -62.837 795.652ZM-62.7973 826.047C-79.5806 834.481 -71.9446 816.419 -69.6378 813.157C-46.7299 817.016 -66.6948 822.904 -62.7973 826.047ZM-43.2698 832.054C-58.8599 843.353 -53.292 822.864 -50.349 818.13C-23.265 819.482 -49.474 829.946 -43.2698 832.054ZM-34.719 817.652C-38.6564 814.629 -37.7814 814.788 -37.5428 813.913C-34.56 808.979 -33.7248 816.419 -34.719 817.652ZM-28.833 817.493C-30.0659 818.925 -31.9351 819.92 -32.4919 822.506C-36.1906 816.857 -31.4181 815.703 -28.833 817.493ZM-25.6513 836.351C-40.3665 832.571 -27.4808 813.913 -19.8845 821.75C-20.2425 821.273 -20.6004 820.795 -20.9981 820.318C-4.53299 821.432 -22.231 835.794 -25.6513 836.391V836.351ZM-12.3678 818.727C-15.987 815.424 -15.8279 816.976 -14.4359 815.066C-2.3456 817.414 -11.2543 822.466 -12.3678 818.727ZM5.44949 826.047C2.586 831.736 -1.31155 825.649 1.27356 832.054C-11.4133 838.778 -5.7261 825.092 -8.03282 822.506C-3.45917 815.584 9.14818 818.886 5.40973 826.047H5.44949ZM25.0565 828.871C5.33018 838.539 18.2159 816.578 2.66553 815.345C8.63115 809.895 10.6992 820.716 14.7956 816.896C37.5048 815.226 26.9655 818.408 25.0565 828.911V828.871ZM42.0387 822.029C9.2675 804.723 38.857 800.386 35.556 810.372C56.6346 799.034 53.9301 818.607 42.0387 822.029ZM72.2247 813.396C59.4583 820.278 56.3164 801.46 45.101 802.972C47.4873 794.22 58.981 801.222 60.0946 803.927C80.7357 794.816 75.9234 806.433 72.2247 813.396ZM91.0761 799.113C81.6106 801.46 78.5483 795.891 70.9123 796.487C78.3494 776.039 79.7016 795.294 83.4799 789.883C94.4168 791.077 92.1896 784.512 93.8203 793.703C95.1725 799.232 86.9001 794.419 91.0761 799.153V799.113ZM108.535 782.842C90.9966 789.525 96.4849 768.36 107.661 772.856C106.149 770.986 105.95 771.742 105.473 770.747C122.853 774.129 103.803 781.847 108.496 782.842H108.535ZM118.438 773.293L118.916 772.896C124.643 775.084 118.757 775.76 118.438 773.293ZM122.535 763.626C108.535 769.116 109.729 753.481 119.234 752.725C135.023 750.497 119.83 763.904 122.535 763.626ZM123.45 748.11C125.239 745.644 126.154 743.137 126.393 740.79C127.108 744.251 127.069 750.736 123.45 748.11ZM300.788 899.567C307.827 901.159 315.463 907.206 320.395 910.11C312.997 906.569 304.805 903.267 300.788 899.567ZM589.961 1044.82C589.047 1042.95 589.126 1042.83 591.672 1041.83C590.12 1042.23 590.757 1043.9 589.961 1044.82ZM571.07 1044.54C576.4 1042.59 573.775 1050.71 573.775 1052.97C565.105 1048.24 569.798 1048.08 571.07 1044.54ZM488.904 963.818C502.187 953.713 489.699 967.2 489.938 968.592C480.075 970.581 488.068 961.272 480.075 970.939V970.82C470.609 977.583 475.024 965.767 476.734 963.5C492.244 957.572 488.347 959.203 488.904 963.778V963.818ZM481.427 943.648C478.285 944.96 476.058 943.847 475.262 942.772C475.74 938.396 485.205 939.391 481.427 943.648ZM479.239 950.053C477.648 955.861 475.461 955.463 472.637 955.623C466.314 946.472 477.688 950.888 479.239 950.053ZM466.195 938.078C463.251 939.55 461.144 938.555 460.269 937.481C461.303 932.349 469.416 934.816 466.195 938.078ZM455.973 955.742C461.144 944.523 468.024 959.641 463.729 961.789C452.315 973.048 454.9 958.527 455.973 955.742ZM450.366 925.506C455.496 927.336 454.422 928.212 453.866 930.4C443.207 936.009 444.877 927.575 450.366 925.506ZM448.576 913.969C448.854 915.879 448.576 916.356 448.218 916.873C442.332 917.311 446.627 912.139 448.576 913.969ZM449.332 945.796C439.707 959.322 436.804 951.485 437.003 944.483C443.167 936.367 450.167 939.789 449.332 945.796ZM441.457 919.539C437.719 921.806 433.901 919.976 433.065 918.106C435.531 911.94 446.269 913.77 441.457 919.539ZM437.241 926.66C436.446 931.394 436.446 931.394 438.991 934.219C429.764 936.128 432.23 925.387 437.241 926.66ZM418.112 935.014C425.946 925.864 426.106 936.009 429.406 938.834C412.782 956.975 421.055 932.468 418.112 935.014ZM427.577 910.468C417.197 936.327 407.294 918.027 415.049 915.401C409.72 908.837 424.077 909.314 427.577 910.468ZM287.902 669.219C310.412 691.816 331.769 715.209 357.66 730.247C356.546 729.929 355.433 729.571 354.279 729.253C409.879 757.579 442.133 742.023 429.088 824.217C410.078 843.512 425.39 841.562 415.089 852.503C407.612 862.727 419.424 868.894 411.788 877.01C407.334 890.496 425.509 888.706 418.39 895.151C332.008 833.844 317.173 851.906 287.862 669.259L287.902 669.219ZM395.8 903.585C390.789 897.18 410.237 894.912 412.743 899.607C421.93 904.103 407.572 905.097 407.373 904.341C394.885 919.26 388.721 908.757 395.8 903.585ZM396.476 925.665C401.209 917.271 405.186 922.602 406.499 925.665C409.998 938.595 390.869 939.351 396.476 925.665ZM373.25 916.913C379.613 907.842 385.738 913.77 390.63 915.322C371.62 938.476 370.108 920.175 375.278 918.226C374.682 917.35 373.767 917.828 373.29 916.913H373.25ZM354.16 909.473C359.569 900.681 362.552 907.047 366.688 905.376C368.478 915.202 350.223 929.405 354.16 909.473ZM342.825 907.245C326.718 917.828 337.576 897.976 333.32 900.602C343.422 887.911 349.109 902.113 342.825 907.245ZM517.618 1065.43C517.698 1064.55 516.266 1062.56 515.868 1061.73C515.272 1060.49 514.715 1059.26 514.158 1058.03C513.084 1055.72 512.05 1053.37 511.056 1051.06C509.266 1046.97 507.516 1042.83 505.806 1038.69C503.062 1032.05 500.358 1025.36 497.176 1018.92C494.392 1013.31 491.091 1007.94 487.074 1003.12C482.341 997.475 476.694 992.621 470.728 988.245C462.098 981.88 452.792 976.39 443.446 971.138C429.327 963.261 414.89 955.941 400.414 948.74C390.829 943.966 381.165 939.271 371.54 934.577C362.154 930.042 352.331 926.063 343.462 920.613C341.394 919.34 339.684 917.908 337.377 916.953C335.627 916.237 333.917 915.64 332.803 913.969C337.297 915.998 340.598 913.173 344.496 911.582C344.774 925.984 355.274 925.745 363.665 921.289C364.262 923.159 364.779 924.83 365.336 926.62C363.546 926.62 362.154 925.466 360.046 925.228C373.369 933.344 381.244 933.224 386.335 923.636C385.34 940.942 400.533 944.921 408.845 933.582C408.686 948.819 416.521 950.769 425.27 947.944C433.821 949.257 427.975 961.55 443.128 956.657C450.962 965.767 447.86 975.395 465.399 966.483C465.399 975.872 471.762 978.538 478.563 976.748C477.012 984.267 482.54 990.155 487.75 988.603C490.455 1008.22 496.778 997.793 496.46 1003.48C495.983 1013.31 506.204 1009.25 505.21 1016.25C511.891 1034.28 519.368 1047.05 517.698 1065.43H517.618ZM531.14 1054.05C528.555 1047.64 526.288 1056.55 523.226 1054.37C529.709 1045.37 541.6 1047.48 531.14 1054.05ZM526.646 1041.08C526.01 1042.55 526.408 1044.94 523.902 1045.06C523.107 1042.51 526.01 1042.59 526.646 1041.08ZM528.197 1044.3C526.01 1040.92 530.265 1039.49 530.067 1037.74C537.782 1041.36 529.947 1042.23 528.197 1044.3ZM529.47 1036.74C529.39 1034.43 528.158 1033.24 527.084 1031.89C524.936 1038.69 520.442 1034.39 521.874 1033.96C531.737 1026.12 535.515 1029.1 529.51 1036.74H529.47ZM525.652 1010.68C525.374 1010.88 524.976 1011.12 524.538 1011.44C520.243 1025.8 540.526 1014.74 528.277 1021.9C528.476 1024.49 527.879 1025.09 526.845 1025.92C526.487 1024.81 525.731 1023.93 525.612 1022.7C522.391 1025.2 517.618 1027.63 515.59 1025.68C523.902 1017.21 524.101 1018.96 520.124 1011.72C518.533 1014.98 515.431 1015.22 512.647 1016.21C512.846 1008.85 519.806 1010.6 523.027 1009.13C522.311 1011.92 524.3 1011.32 525.612 1010.64L525.652 1010.68ZM519.567 984.943C523.862 988.762 519.448 987.052 519.209 985.142C519.328 985.063 519.448 985.023 519.567 984.943ZM512.925 985.062C513.84 986.574 512.13 1000.14 520.72 997.475C516.664 999.981 520.402 1002.49 520.084 1002.85C517.26 1003.44 509.346 1002.53 504.136 1006.31C506.96 997.475 515.908 999.464 508.232 991.746C504.732 989.638 499.443 999.265 496.42 995.008C498.926 981.363 510.42 988.126 512.925 985.062ZM495.704 974.003C495.704 968.433 500.875 971.496 498.21 973.724C503.34 971.576 505.09 970.462 501.312 974.52C502.943 980.766 497.415 981.76 496.023 978.18C479.876 991.468 487.233 974.241 495.665 974.042L495.704 974.003ZM492.006 945.239C490.614 942.016 494.67 943.608 494.432 942.931C500 943.608 493.318 948.263 492.006 945.239ZM524.34 931.434C523.305 931.155 523.822 929.763 522.868 929.524C524.658 929.127 524.499 930.24 524.34 931.434ZM543.509 855.924C542.037 856.203 541.56 855.924 541.083 855.686C540.168 852.224 545.339 855.009 543.509 855.924ZM540.486 863.324C546.412 862.807 540.765 866.666 539.612 864.637C539.214 863.245 540.049 863.603 540.486 863.324ZM540.208 875.776C540.288 878.641 537.862 877.447 538.18 876.294C544.981 869.332 545.338 878.124 540.208 875.776ZM528.356 923.119C527.601 921.17 529.032 921.369 529.072 921.17C536.828 920.096 530.981 925.745 528.356 923.119ZM538.418 914.566C535.754 915.242 535.038 914.804 534.402 914.287C536.867 910.11 539.492 914.725 538.418 914.566ZM539.93 907.206C534.561 905.097 541.799 904.62 541.481 905.216C541.64 907.484 540.089 907.325 539.93 907.206ZM540.646 895.629C542.992 895.032 543.628 895.191 544.145 895.39C545.179 899.249 539.492 896.941 540.646 895.629ZM542.912 887.871C542.157 886.12 544.265 886.757 544.225 886.319C548.282 887.513 542.674 888.826 542.912 887.871ZM597.398 830.304C602.807 822.068 597.955 815.902 599.148 810.332C604.995 817.294 602.529 826.803 597.398 830.304Z" fill="#803D1D"/>
<path d="M218.025 526.671C217.587 526.034 217.15 525.438 216.752 524.801C216.712 524.721 216.672 524.682 216.633 524.602C213.491 530.291 200.565 530.371 183.742 527.307C188.037 529.018 192.293 530.769 196.588 532.519C206.809 532.798 214.684 531.166 218.064 526.671H218.025Z" fill="#803D1D"/>
<path d="M92.7882 501.166C98.0379 507.929 157.137 530.009 192.852 532.316C187.602 530.168 182.352 528.02 177.102 525.951C134.508 516.761 73.38 491.379 73.4198 484.099C20.1269 457.483 16.2691 420.763 -47.3245 461.302C-32.7286 433.334 -73.2948 440.814 -52.7731 447.856C-50.7845 452.669 -58.858 452.709 -59.4148 450.243C-68.7212 445.827 -49.3925 461.024 -50.0686 461.422C-51.0231 469.18 -53.9662 458.478 -58.2614 456.767C-68.5621 449.924 -67.3689 460.944 -60.4886 462.178C-61.7215 466.673 -66.5735 464.485 -67.2894 462.416C-73.1755 461.342 -61.8408 470.373 -60.4488 470.055C-56.3127 475.465 -79.7774 466.514 -68.8007 477.057C-62.5964 483.024 -83.5557 472.521 -68.0451 485.809C-75.2436 481.91 -96.521 486.724 -79.5786 491.22C-79.1809 497.864 -87.3737 496.193 -87.8112 492.851C-93.1007 491.856 -86.0612 500.171 -83.317 499.376C-80.891 504.309 -110.759 489.469 -99.9015 503.195C-100.538 508.088 -103.282 503.115 -103.322 503.712C-107.577 502.876 -103.123 509.083 -101.293 507.889C-92.4246 516.522 -94.771 514.971 -87.1748 510.793C-100.856 513.18 -81.8853 503.593 -80.2149 502.518C-74.3288 509.998 -66.9712 481.274 -63.1135 490.941C2.22999 404.491 17.144 475.028 92.7086 501.166H92.7882Z" fill="#803D1D"/>
<path d="M-175.706 134.475C-176.382 139.209 -181.353 138.453 -175.905 139.687C-180.836 147.882 -174.99 142.233 -175.984 147.126C-174.592 147.166 -173.479 147.206 -172.087 147.246C-173.2 150.19 -172.325 152.417 -170.377 154.924C-165.286 147.842 -159.48 150.19 -163.854 140.403C-182.626 132.526 -166.32 132.605 -170.377 126.16C-147.548 96.004 -132.952 112.196 -127.225 95.5664C-115.811 93.5374 -142.259 118.283 -118.555 105.95C-115.055 104.08 -115.732 105.114 -115.334 106.109C-128.418 120.431 -136.214 115.18 -119.908 121.903C-124.521 128.308 -134.026 117.01 -142.497 120.67C-173.002 123.773 -154.985 156.634 -148.065 154.367C-132.634 146.649 -138.401 127.672 -152.082 131.73C-138.083 118.482 -124.123 146.49 -139.037 156.078C-125.635 148.837 -131.282 128.388 -143.531 126.24C-122.413 117.089 -110.641 166.501 -113.226 166.342C-106.107 169.922 -97.954 186.353 -102.567 185.876C-82.682 201.511 -74.2108 217.225 -68.9611 213.963C-62.0012 213.844 -67.8475 217.782 -68.6032 219.334C-51.4619 229.28 -50.8654 221.005 -43.7464 237.117C-41.7976 230.036 -35.2752 237.674 -32.8492 237.953C-33.2071 231.508 -27.0426 223.352 -23.503 228.365C-21.7133 250.564 -41.5988 233.019 -27.8381 249.211C-25.5313 247.898 -19.1283 243.164 -14.8728 248.455C76.0831 308.887 134.864 281.476 172.527 460.781C181.078 471.284 191.419 482.344 200.606 493.404C199.81 491.415 199.094 489.386 198.378 487.357C173.124 452.347 183.504 415.746 149.58 356.548C126.552 288.199 14.6372 275.19 51.9422 264.886C57.4704 245.87 64.1519 254.542 63.8735 262.618C61.1293 267.034 59.7771 269.302 55.8398 268.228C46.1357 267.95 60.3339 280.402 62.2429 277.856C54.8853 273.877 69.9187 272.087 71.1516 270.774C79.583 252.832 87.1394 253.031 85.5089 266.597C77.3956 277.338 69.7198 267.393 80.7761 281.357C84.0771 275.946 91.1563 275.071 94.6959 273.678C97.5196 288.916 97.0424 267.631 106.11 267.83C121.7 269.501 110.883 293.53 98.315 286.449C107.144 310.12 121.422 276.185 117.882 296.315C121.82 301.01 121.223 285.972 127.308 286.25C144.728 281.635 138.603 314.616 120.865 305.386C134.188 330.848 141.904 292.576 141.824 319.947C160.636 276.145 177.181 342.305 144.409 327.784C150.216 349.427 176.624 328.063 173.203 322.851C184.976 328.301 209.315 316.685 200.884 297.071C197.106 282.311 182.589 285.574 176.584 284.778C177.737 276.742 174.118 264.807 166.522 264.608C155.346 259.635 141.625 272.883 146.637 281.794C164.414 241.095 180.084 302.164 148.824 289.353C156.699 303.556 161.59 297.986 147.79 303.834C146.358 261.107 118.36 296.236 123.212 275.946C129.853 283.226 129.495 276.065 136.137 275.19C149.46 271.132 144.091 261.385 142.262 253.508C148.347 255.736 153.596 258.72 159.164 260.948C149.142 254.343 143.177 254.383 139.16 249.37C220.889 280.282 277.483 360.685 267.858 453.66C268.375 457.479 268.654 461.338 268.733 465.198C268.972 476.735 267.699 488.352 265.273 499.61C294.703 415.03 265.949 318.992 177.777 264.488C116.411 226.853 44.4653 220.527 -41.1613 182.812C-75.8415 167.694 -95.011 106.905 -121.777 90.5536C-133.271 93.4181 -136.094 102.051 -147.588 102.011C-146.634 97.7147 -178.689 118.283 -168.706 116.254C-163.894 117.925 -181.552 121.863 -173.877 123.455C-171.769 128.985 -183.223 125.842 -175.626 133.759C-173.28 133.52 -175.348 135.589 -175.626 134.395L-175.706 134.475ZM-169.82 143.267C-168.826 145.177 -169.899 145.972 -171.252 146.689C-170.377 145.813 -171.013 144.381 -169.82 143.267ZM-151.565 141.596C-156.735 144.182 -155.304 134.992 -154.985 133.361C-145.719 137.22 -150.889 137.459 -151.565 141.596ZM175.908 291.661H175.749C185.453 283.346 194.56 295.559 188.674 299.617C197.702 306.659 188.078 307.256 189.549 312.428C171.971 330.092 161.034 294.247 175.908 291.661ZM167.079 295.361C166.323 297.549 165.369 299.578 165.329 301.965C161.034 302.283 160.914 300.652 158.687 301.05C160.676 294.048 165.647 297.27 167.039 295.361H167.079ZM-99.1074 169.723C-98.8688 167.535 -98.8688 167.495 -100.778 167.336C-98.6699 153.889 -114.817 164.87 -106.942 159.499C-105.431 157.868 -107.062 154.765 -105.153 153.929C-102.567 161.886 -95.1701 145.575 -94.2156 154.009C-105.232 161.966 -95.8859 169.445 -95.011 164.193C-83.7161 158.186 -94.4542 171.195 -99.1074 169.684V169.723ZM-94.9712 191.047C-93.6986 191.286 -92.5982 192.334 -91.6702 194.19C-92.9031 193.236 -93.977 192.36 -94.9712 191.047ZM-84.432 190.292C-87.8125 181.698 -97.2382 177.402 -95.0905 174.139C-87.5738 178.874 -71.3871 162.363 -86.1023 179.311C-80.7333 196.577 -66.8135 164.79 -72.6598 188.621C-80.2958 191.366 -90.7953 192.758 -84.432 190.292ZM-70.6712 203.778C-68.4838 199.203 -72.8984 202.784 -73.0177 204.415C-78.9833 193.633 -61.1263 195.304 -62.7569 192.201C-51.3028 185.677 -69.9156 208.552 -70.6315 203.778H-70.6712ZM-53.6493 212.531C-65.6601 218.379 -53.3709 207.359 -61.0467 210.979C-67.9668 221.044 -61.524 207.001 -60.6888 205.569C-51.979 202.426 -58.0241 211.496 -51.2631 202.147V202.227C-40.5647 192.599 -45.1384 212.292 -53.6493 212.57V212.531ZM-40.8033 222.318C-42.9908 227.29 -43.9452 229.121 -47.3655 227.37C-51.7005 212.849 -35.9115 214.52 -40.8033 222.318ZM-27.7983 218.021C-41.9169 217.902 -31.6163 199.203 -25.412 205.171C-23.4235 210.78 -26.1677 215.594 -27.7983 218.021ZM-14.1171 216.867C-4.61188 208.393 -5.08914 222.516 -6.99814 224.784C-16.8215 233.934 -19.4862 222.079 -14.1171 216.867ZM-11.6116 243.244C-11.0945 227.33 8.03525 231.309 -1.19159 240.658C3.26274 245.114 -7.63448 249.49 -11.6116 243.244ZM2.54686 251.638C16.4667 245.631 20.6426 228.723 23.1084 249.132C17.62 258.282 8.79088 255.815 2.54686 251.638ZM14.3588 228.683C9.42722 239.783 7.67729 229.28 4.17746 228.046C3.77975 213.883 20.9608 220.965 12.1714 228.206C13.0861 228.404 13.6827 228.524 14.3588 228.683ZM21.2392 260.987C27.8411 258.839 32.4943 254.025 35.8748 251.081C36.193 250.723 36.5112 250.405 36.8293 250.087C36.9486 249.967 37.1475 249.888 37.3066 249.927C40.6473 247.341 42.437 247.938 43.5506 258.043C37.8236 267.233 27.3639 266.398 21.2789 260.987H21.2392ZM38.1815 235.287C32.6931 246.267 27.165 237.594 25.9321 234.054C29.2729 220.289 42.9938 226.614 35.835 234.372C36.3521 235.088 37.3463 234.452 38.1418 235.287H38.1815ZM50.5503 248.097C43.1529 243.244 44.2267 243.681 47.647 240.936C61.01 221.522 64.1121 237.157 59.6578 239.981C60.2941 240.658 61.1691 240.18 61.8054 240.976C56.7943 251.559 51.1866 242.965 50.5105 248.097H50.5503ZM70.9527 252.991L67.6119 249.768C73.3787 248.455 69.8391 244.358 71.9867 240.061C86.1451 227.688 78.9864 247.819 82.0488 245.671C76.2422 256.651 70.3561 247.262 70.9527 252.991ZM90.7586 252.752C93.98 235.168 108.576 244.875 100.94 250.962C106.707 256.651 91.3154 260.908 90.7586 252.752ZM134.109 255.577C133.194 293.451 112.951 246.506 96.0879 270.933C94.6959 256.213 122.535 270.138 109.57 240.34C115.814 242.567 121.899 244.994 128.62 247.779C120.547 250.286 115.019 258.282 118.36 263.892C121.263 256.691 128.183 246.347 134.109 255.617V255.577ZM130.211 247.262C124.484 244.358 119.592 243.244 116.649 240.658C127.427 243.403 137.569 248.814 130.211 247.262ZM112.473 239.106C107.9 238.629 103.485 236.719 99.3491 235.088C103.605 236.401 107.979 237.754 112.473 239.106ZM91.8324 232.741C90.9177 232.622 90.0029 232.542 89.128 232.622C94.2584 235.207 99.9854 236.242 102.133 237.992C90.2018 241.971 89.5655 239.862 86.3838 231.468C85.31 231.07 84.2759 230.672 83.2419 231.547C83.5203 230.593 72.6628 232.383 70.7538 235.207C67.612 229.598 69.0039 230.433 72.0663 230.473C62.4815 224.824 50.8684 226.455 47.5277 235.486C47.289 218.299 30.3069 217.464 24.1026 229.24C22.9891 211.417 10.8987 213.684 3.34229 218.896C1.31396 207.757 -6.64021 208.871 -12.6058 210.979C-21.594 201.471 -22.1508 194.35 -36.0706 204.295C-36.7467 195.861 -44.3429 192.917 -49.9904 195.583C-51.2631 190.132 -52.9334 184.841 -58.1832 184.961C-64.7056 186.592 -61.3649 179.749 -63.9102 177.441C-78.5856 167.814 -70.6712 163.716 -80.773 164.313C-88.6874 147.564 -100.499 132.565 -101.494 113.469C-58.3025 176.367 -89.4033 176.725 91.8324 232.741ZM-110.959 149.871C-110.522 147.842 -110.482 145.734 -109.249 143.466C-107.419 148.359 -106.346 148.24 -105.829 145.296C-89.7215 141.238 -120.425 156.276 -110.999 149.871H-110.959ZM-107.937 138.652C-115.413 146.171 -114.26 138.652 -109.169 135.907C-108.056 136.385 -107.658 137.14 -107.141 137.857C-103.761 129.542 -104.834 140.005 -107.937 138.652ZM-107.221 125.006C-99.9028 127.513 -120.544 135.668 -117.919 131.372C-117.084 131.65 -116.288 131.929 -115.533 132.247C-117.442 124.648 -109.289 130.298 -107.221 125.006ZM-119.868 121.863C-122.334 114.026 -118.118 119.079 -118.118 119.397C-103.204 108.058 -111.914 124.25 -119.868 121.863Z" fill="#803D1D"/>
<path d="M750 630.268C743.04 627.88 744.671 618.332 746.977 617.258C737.234 607.591 733.614 582.209 724.03 585.988C702.991 569 675.668 568.563 670.776 591.797C669.305 570.91 658.169 587.42 655.783 595.138C650.414 591.16 648.903 606.039 647.55 605.641C631.761 615.189 630.449 639.458 633.67 642.441C623.728 649.96 634.426 661.776 633.312 669.733C636.653 681.111 634.665 691.773 637.21 701.162C616.927 720.975 615.256 686.721 610.245 689.267C605.115 686.005 617.603 684.254 617.404 681.151C617.404 678.804 605.87 661.1 612.114 661.179C603.047 650.517 606.149 638.98 598.871 628.477C586.741 619.327 589.087 619.844 584.832 607.352C562.123 600.151 581.531 592.95 559.18 588.057C556.435 567.847 545.22 572.939 538.618 573.456C525.852 547.04 518.892 571.388 514.795 552.61C512.767 541.51 504.216 544.533 496.302 545.727C417.914 516.685 338.69 501.408 258.273 575.048C299.874 537.651 376.83 514.019 433.464 534.866C420.499 535.582 419.823 540.834 419.425 545.727C416.402 544.494 416.005 528.58 408.607 531.882C401.13 530.649 389.557 534.19 389.358 539.759C379.574 533.275 366.888 530.649 360.763 543.181C358.416 551.933 356.468 537.134 354.837 537.85C346.087 533.116 328.986 537.651 331.81 549.944C339.247 570.194 328.827 553.007 326.56 549.745C316.06 550.899 310.015 551.854 310.85 560.924C299.277 564.624 263.722 562.914 278.676 584.675C282.335 587.381 284.164 588.296 287.107 587.778C271.597 573.058 284.482 571.109 293.391 578.907C290.011 590.524 302.26 582.129 305.68 582.248C297.169 576.917 296.772 568.921 302.777 570.194C317.015 578.35 304.209 587.261 319.719 576.002C324.571 582.646 329.225 587.261 334.315 583.601C311.407 572.382 330.736 565.022 338.491 570.831C343.86 584.795 340.281 584.516 350.86 575.684C343.86 568.722 344.258 562.118 346.366 560.845C323.14 547.716 343.98 542.982 350.701 548.074C357.979 558.935 340.877 580.975 365.336 578.509C346.127 568.245 356.666 563.63 365.694 563.192C379.614 570.313 363.984 583.522 378.54 573.337C382.319 580.697 386.057 583.402 391.227 583.084C389.756 577.116 374.404 571.865 388.205 567.33C397.591 570.87 399.102 570.831 397.75 578.389C412.226 586.306 400.971 561.561 399.022 558.895C364.819 559.015 391.227 574.809 367.564 553.405H367.683C351.616 541.947 390.591 540.674 380.887 553.007C378.023 559.85 387.091 553.883 387.608 553.485C392.102 552.45 395.801 558.776 399.102 558.856C407.215 556.27 398.227 555.752 395.841 553.724C383.313 540.754 403.835 540.635 406.34 542.584C421.732 546.443 391.983 580.776 421.93 577.634C400.454 565.897 416.044 563.988 422.209 562.078C429.686 567.011 429.686 569.16 428.174 573.973C426.584 579.424 433.026 574.769 433.583 574.332C440.305 576.122 441.299 579.503 445.276 575.804C441.975 574.928 439.469 573.218 437.004 571.228C439.31 570.035 439.032 569.518 438.594 568.921C433.345 569.04 435.333 562.396 438.634 562.436C446.191 561.044 442.015 568.364 445.316 562.357C450.605 566.693 451.918 566.335 450.327 572.382C452.474 575.525 462.775 583.084 466.673 579.106C457.287 575.485 454.264 569.637 460.468 572.859C451.401 558.537 467.746 564.823 471.246 565.937C476.615 574.371 475.184 597.366 491.092 591.279C459.076 575.048 507.438 566.056 497.654 590.205C500.04 594.9 503.222 606.198 511.057 604.13C499.961 592.99 502.824 587.778 513.761 593.627C520.721 599.833 514.119 613.717 525.136 616.264C541.521 620.401 508.79 604.169 526.965 601.663C552.458 605.641 519.767 627.164 546.334 628.557C544.186 637.071 551.941 643.754 557.31 643.038C545.101 630.586 552.419 628.199 558.901 633.013C573.418 642.68 539.413 653.979 565.264 661.617C568.207 665.914 567.293 676.894 575.605 678.565C569.957 681.986 572.264 686.601 570.673 688.153C564.032 637.906 456.094 595.337 382.438 616.741C437.6 608.108 527.721 616.423 563.435 677.809C570.117 699.491 566.815 711.944 581.65 731.915C558.026 704.743 589.366 763.066 629.733 753.557C615.495 753.438 636.931 750.295 639.198 749.977C640.392 746.317 632.875 745.123 633.193 740.469C649.897 729.369 636.693 766.248 660.277 733.825C632.835 723.242 663.777 715.842 662.067 734.063C668.987 732.591 668.708 728.096 670.657 727.3C662.544 725.908 671.174 712.54 672.765 709.636C676.066 683.419 641.028 632.774 679.924 602.856C694.957 590.165 717.428 601.345 723.871 615.189C723.234 615.189 723.035 614.632 722.518 614.871C729.16 625.096 723.592 642.203 713.371 643.237C717.467 636.195 721.126 635.718 722.24 630.427C714.206 644.033 702.434 636.275 692.849 635.877C674.555 648.648 713.848 681.549 745.585 640.015C738.745 636.951 747.574 630.665 749.92 630.268H750ZM319.719 575.923C315.822 574.093 314.828 570.433 314.47 568.046C322.145 567.887 319.52 572.7 319.719 575.923ZM316.816 564.584C310.453 557.662 322.225 557.344 322.901 562.277C320.157 566.653 320.197 566.773 316.816 564.584ZM324.81 561.243C323.219 561.64 323.577 561.044 323.776 560.725C325.208 560.129 324.89 560.566 324.81 561.243ZM415.01 554.002C417.953 548.512 420.857 550.819 420.936 553.087C418.987 553.405 417.078 553.684 415.01 554.002ZM438.952 552.411C423.919 566.852 418.788 534.985 432.35 546.562C434.299 540.873 440.901 551.257 438.952 552.411ZM443.446 541.47C442.691 540.396 442.532 539.401 442.611 538.248C443.99 538.592 444.268 539.667 443.446 541.47ZM449.849 550.024C451.52 559.055 439.231 542.266 457.486 543.817C473.593 553.564 453.031 561.8 449.849 550.024ZM485.047 566.415C475.939 571.388 481.865 559.651 479.24 559.612C465.161 548.711 478.524 546.085 480.274 549.984C481.666 545.09 488.228 554.082 485.842 556.031C488.029 564.505 496.58 564.505 485.007 566.415H485.047ZM503.898 569.199C483.973 559.134 495.467 554.758 503.819 553.962C516.943 559.97 504.176 573.655 511.972 581.811C503.54 585.113 501.512 569.557 503.938 569.199H503.898ZM524.579 593.587C518.852 591.836 521.039 585.789 523.505 584.874C502.705 573.735 517.699 570.87 523.863 568.881C533.806 573.854 531.181 595.138 524.579 593.587ZM658.209 604.806C655.783 601.106 660.675 602.976 657.851 600.907C655.504 595.218 663.379 602.896 658.209 604.806ZM649.777 659.588C647.312 660.782 647.351 657.957 646.914 658.514C645.085 652.387 651.408 658.514 649.777 659.588ZM640.63 683.021C640.471 684.771 640.312 685.328 639.477 685.01C636.216 667.426 657.056 695.752 640.63 683.021ZM641.465 718.826C644.647 720.139 644.607 720.895 644.687 721.73C641.863 724.197 641.068 719.264 641.465 718.826ZM645.164 694.001C646.397 696.866 649.101 696.468 648.226 697.9C640.073 702.515 642.539 691.097 645.164 694.001ZM647.033 621.674C644.448 622.51 644.17 620.52 643.772 619.605C644.568 615.189 648.266 621.197 647.033 621.674ZM641.107 638.463C639.835 639.497 639.477 639.378 639.039 639.179C637.966 635.042 642.539 637.19 641.107 638.463ZM634.545 655.132C631.92 651.273 633.869 651.353 634.426 650.159C644.13 647.613 638.562 661.259 634.545 655.132ZM636.852 665.237C641.744 662.015 642.539 669.693 644.011 671.523C643.176 671.523 642.42 671.484 641.704 671.404C641.585 671.404 641.426 671.404 641.306 671.324C636.534 670.529 635.42 667.505 636.812 665.237H636.852ZM610.285 702.435C613.944 714.53 595.769 708.443 598.831 701.719C590.956 695.354 609.967 697.383 610.285 702.435ZM607.501 738.121C619.074 744.885 606.865 750.335 602.132 743.253H602.251C592.945 737.087 604.518 735.138 607.501 738.121ZM595.172 721.85C595.968 721.412 595.649 720.497 596.286 719.622C598.155 723.282 601.257 721.452 600.899 724.117C593.621 747.311 579.065 708.88 595.172 721.81V721.85ZM593.78 681.907V682.026C586.582 668.38 604.558 675.263 605.751 675.462C617.484 686.204 595.331 691.614 593.78 681.907ZM591.99 666.272C574.929 649.483 597.399 656.405 595.848 653.461C610.206 659.906 597.558 664.919 591.99 666.272ZM588.411 634.286C605.274 639.935 590.598 645.624 583.36 648.727C563.992 628.597 592.508 638.861 588.411 634.286ZM581.014 653.143C580.735 652.546 579.94 652.069 580.497 650.995C581.372 651.592 581.411 652.308 581.014 653.143ZM581.65 618.014C585.667 633.768 564.27 631.541 566.537 621.674C565.583 622.231 566.537 623.106 565.702 623.743C557.231 608.784 579.304 615.985 581.69 618.014H581.65ZM568.565 631.58C570.315 631.938 572.264 632.734 574.69 631.302C572.304 638.065 568.207 634.365 568.565 631.58ZM567.77 640.134C569.759 637.667 570.355 637.15 570.991 636.474C575.167 639.577 569.639 641.924 567.77 640.134ZM536.192 590.046C534.243 596.093 531.698 584.954 535.237 583.999C542.516 581.333 546.095 582.925 551.583 585.909C547.845 612.405 535.834 588.534 536.192 590.006V590.046ZM546.811 607.71C542.595 607.074 543.868 601.862 542.675 601.106C547.885 597.167 545.459 606.954 546.811 607.71ZM540.527 624.34C535.914 612.763 546.055 620.282 547.885 619.566C555.879 622.351 542.993 628.915 540.527 624.34ZM558.941 621.714C554.606 621.356 555.879 612.285 558.623 614.513C560.253 617.059 559.14 620.839 558.941 621.714ZM560.015 612.086C541.084 606.397 553.651 598.958 560.969 598.082C574.889 605.363 560.094 608.347 560.015 612.086ZM562.123 651.592C567.213 646.101 575.883 649.165 573.656 654.456C572.185 663.328 557.31 657.122 562.123 651.592ZM570.991 669.574C573.219 659.151 585.746 670.568 583.44 675.422C593.661 677.809 569.957 677.968 570.991 669.574ZM571.349 690.699C574.253 697.025 580.417 701.52 584.394 698.019C567.69 688.789 578.389 685.487 584.911 686.482C604.598 716.121 589.962 713.694 589.962 701.759C579.582 702.077 579.542 712.421 587.218 711.267C581.849 715.763 570.395 712.779 583.479 716.757C577.196 731.716 598.95 731.597 594.337 738.877C581.133 729.25 571.031 712.62 571.31 690.659L571.349 690.699ZM591.752 742.378C600.979 750.216 612.87 750.176 621.262 753.359C612.552 754.831 597.24 749.261 591.752 742.378ZM621.5 739.951C625.159 740.27 626.631 740.787 628.421 743.89C630.568 763.265 609.529 738.519 621.5 739.951ZM616.171 731.716C608.575 722.088 599.189 713.177 617.364 719.463C616.37 728.215 629.216 730.403 631.045 725.709C629.097 725.192 627.227 724.714 625.04 724.117C625.676 710.949 638.085 715.087 634.386 723.56C665.01 727.658 623.529 731.279 616.171 731.716ZM652.402 736.371C648.425 739.275 648.505 733.506 648.465 732.353C652.203 734.063 653.755 735.018 652.402 736.371ZM642.778 715.445C641.982 712.063 641.107 708.562 643.335 707.408C654.868 714.37 648.306 719.861 642.778 715.445ZM652.442 677.809C656.181 676.576 656.698 680.992 658.527 682.185C657.771 686.283 651.647 680.196 652.442 677.809ZM656.141 660.742C658.448 658.594 659.442 667.386 659.72 667.465C654.431 665.794 657.135 661.776 656.141 660.742ZM655.823 656.167C654.59 652.745 653.834 650.279 655.107 648.727C656.737 651.154 656.817 655.928 655.823 656.167ZM664.493 715.842C661.152 711.625 655.584 708.801 655.624 706.095C661.589 698.218 669.265 711.029 664.493 715.842ZM662.544 698.099C656.3 698.497 654.232 693.603 655.425 691.574C662.425 692.33 664.453 696.587 662.544 698.099ZM655.703 646.619C651.289 638.98 646.317 631.262 651.885 631.023C657.97 627.761 643.613 623.385 656.857 621.754C644.567 614.712 677.18 592.393 680.998 592.632C661.55 604.249 657.612 628.079 655.703 646.619ZM690.185 585.829C684.179 587.619 686.526 579.464 688.673 582.129C690.861 585.71 690.344 585.073 690.185 585.829ZM709.195 590.086C704.144 591.558 705.178 582.885 708.082 586.068C709.473 589.33 709.394 588.176 709.195 590.086ZM702.235 654.655C701.161 652.626 702.474 653.183 702.911 653.302C704.184 655.132 702.792 654.735 702.235 654.655ZM730.87 649.125C729.001 649.722 728.166 646.3 728.126 646.141C729.717 644.669 731.904 648.608 730.87 649.125ZM735.046 617.378C734.052 612.126 739.54 617.935 737.989 618.77C735.245 619.407 736.001 618.452 735.046 617.378Z" fill="#803D1D"/>
<path d="M337.139 432.901C458.838 359.54 419.822 305.832 310.532 267.281C311.725 267.56 312.879 267.719 313.953 267.679C291.124 258.449 264 247.588 241.609 238.279C256.762 245.957 273.386 252.163 286.511 259.006C244.115 242.018 196.549 226.025 167.119 189.623C137.569 136.114 165.687 80.4963 229.758 77.5921C211.463 84.8725 199.253 87.3789 191.617 101.9C204.503 102.536 193.526 103.77 188.794 103.849C179.487 123.105 195.754 112.801 194.401 120.161C186.487 122.229 193.646 118.291 191.379 116.978C172.289 122.19 182.828 120.36 183.266 127.998C186.686 155.489 190.822 141.962 189.788 152.425C191.896 166.071 204.265 156.046 202.196 172.795C209.077 166.23 217.787 175.102 214.685 180.552C224.349 178.603 234.252 179.12 231.508 185.406C249.166 185.764 263.324 178.722 258.234 184.968C248.41 187.714 246.183 192.09 250.956 195.75C271.318 193.88 268.813 183.815 270.642 198.137C278.079 192.846 290.846 195.153 288.976 203.627C315.026 196.068 306.118 207.685 307.549 212.101C312.521 208.759 319.003 212.578 323.1 211.146C331.293 194.477 327.912 220.734 331.969 214.846C354.996 214.846 347.121 203.707 350.82 221.768C366.49 214.806 391.864 217.949 391.148 228.333C405.903 231.874 400.494 221.649 408.448 233.743C408.329 243.013 418.351 235.693 429.606 238.557C429.765 238.557 429.884 238.557 430.004 238.637C432.748 239.393 435.532 240.745 438.276 243.132C451.281 234.539 432.271 250.532 449.651 243.729C442.015 248.861 447.503 247.071 450.764 251.805C455.298 255.187 460.349 246.196 459.434 252.084C459.553 255.903 457.088 256.5 455.258 256.54C454.025 261.831 461.622 257.653 463.57 255.823C469.218 255.545 462.337 260.478 461.383 259.364C460.588 271.339 480.513 258.847 487.075 266.207C505.807 284.348 461.343 298.75 462.417 269.231C444.083 296.482 485.206 286.656 472.479 306.786C490.058 289.282 497.495 312.197 486.359 316.892C472.32 324.053 457.923 293.857 447.463 319.756C464.167 306.707 466.553 315.459 464.048 325.206C455.298 333.084 450.764 328.15 446.031 326.002C446.151 345.814 458.48 331.731 466.036 337.818C459.355 338.534 452.196 342.632 452.872 347.684C459.394 341.359 473.036 338.057 473.115 347.167C472.837 352.538 462.258 349.116 470.172 353.652C462.139 359.023 456.571 358.664 451.202 354.089C450.048 362.364 454.9 363.399 455.537 365.905C449.213 368.77 442.929 373.305 444.083 379.113C451.361 370.401 455.895 368.929 457.963 370.242C484.013 365.706 463.053 415.476 442.015 387.746C442.81 391.645 442.611 394.947 442.611 396.499C433.663 388.303 416.203 394.43 414.851 404.297C421.851 399.284 424.873 396.618 428.453 397.493H428.373C449.173 395.305 433.185 411.855 438.435 412.054C425.192 422.239 423.322 418.897 412.624 412.81C412.584 416.988 413.777 417.743 412.982 419.454C403.636 415.277 389.875 421.881 390.71 429.917C426.305 400.756 414.175 461.625 388.841 437.476C392.261 458.681 395.88 446.706 402.244 450.406C397.471 454.981 395.165 456.771 395.801 461.187C401.488 455.1 404.511 452.594 407.971 453.589H407.891C429.566 450.923 409.721 488.399 394.648 468.667C394.488 480.721 401.727 483.148 392.023 486.211C392.102 461.307 382.159 481.358 391.824 454.345C392.42 434.612 361.479 436.084 359.848 451.042C366.172 446.149 368.598 443.762 372.495 444.08H372.376C391.028 442.37 377.586 458.084 382.04 458.88C370.069 468.587 366.728 465.404 358.138 459.039C359.053 470.815 363.467 471.253 361.638 478.971C366.888 470.457 379.376 470.377 383.233 473.998C386.375 482.312 377.268 482.909 382.676 486.53C369.87 500.374 367.206 490.786 360.524 486.888C369.393 528.979 346.366 466.757 333.4 502.085C337.298 498.345 339.724 495.282 342.627 496.117C360.604 494.208 342.627 521.818 332.327 508.252C331.014 532.44 326.122 488.917 306.356 511.394C305.601 513.901 305.8 513.543 306.356 514.697C330.02 496.476 318.367 528.82 310.135 522.375C305.163 519.948 306.834 520.306 305.601 520.226C299.595 537.692 305.959 515.293 301.464 511.275C286.67 499.579 274.898 524.444 290.766 512.429C300.43 510.519 294.266 520.465 289.971 523.011C283.249 522.136 281.579 520.346 282.613 527.228C275.733 521.022 263.642 528.621 267.5 533.912C272.392 528.422 276.13 526.274 279.034 530.889C270.403 553.287 264.557 525.955 266.267 548.393C305.64 547.916 260.859 526.274 321.827 530.371C332.207 515.771 333.122 519.63 347.241 519.272C356.149 520.187 354.519 514.856 356.945 511.235C365.575 502.801 377.904 502.483 385.779 498.584C411.113 480.045 441.657 468.229 458.917 444.399C495.824 417.545 471.564 427.65 492.046 392.083C500.796 393.157 500.836 388.224 503.898 381.739C506.244 353.055 490.893 377.045 507.199 343.666C507.716 325.763 493.756 327.832 501.551 310.844C502.665 302.848 498.091 299.466 494.273 297.318C485.763 290.356 502.665 285.104 498.052 277.227C492.126 251.686 471.445 265.451 467.03 255.068C472.32 252.601 472.877 251.805 468.064 248.185C467.428 236.886 457.048 244.684 452.792 243.411C449.014 239.95 455.417 243.331 454.861 241.541C450.883 232.948 451.321 231.675 446.151 231.516C434.657 236.409 429.725 226.98 421.533 224.593C424.674 230.521 417.715 228.134 416.283 231.118C422.447 216.716 417.118 227.139 410.158 226.065C428.333 219.74 385.858 208.123 380.052 207.446C380.171 208.56 380.927 209.475 380.728 210.629C372.933 213.295 382.438 203.229 374.524 209.077C370.427 209.794 372.972 205.417 374.683 207.048C374.762 204.781 365.058 203.906 363.308 200.842C345.252 197.103 329.065 191.135 312.759 190.18C301.783 190.737 301.504 178.563 291.363 185.088C282.375 184.65 282.812 173.352 271.676 181.269C262.171 176.932 259.984 172.556 250.916 176.614C247.694 168.418 239.979 160.7 233.258 169.851C234.292 160.143 223.076 158.512 218.184 160.104C216.156 144.071 192.214 170.129 197.265 116.938C206.134 90.3627 241.689 95.1765 256.205 72.5793C279.63 62.0764 128.899 54.8358 152.722 166.429C173.084 286.258 568.685 270.305 337.059 432.702L337.139 432.901ZM305.123 265.411C300.51 263.82 295.737 262.268 290.885 260.757C295.976 261.353 300.749 263.621 305.123 265.411ZM285.835 529.894C287.982 530.013 289.772 530.093 291.601 530.172C288.022 533.236 286.193 532.122 285.835 529.894ZM445.276 446.189C433.066 460.551 426.822 449.769 421.811 446.348C422.487 455.737 420.459 452.196 415.766 449.849C430.72 425.422 410.954 423.552 434.935 425.621C410.238 442.767 427.299 433.538 435.612 430.196C457.048 429.48 438.833 446.348 445.316 446.189H445.276ZM451.599 419.971C457.963 448.894 453.508 424.745 438.912 425.66C454.662 411.378 442.651 398.767 456.889 403.7C452.395 407.917 452.395 410.344 453.031 412.412C457.804 406.524 461.462 404.137 464.326 404.535C485.405 402.148 467.707 440.659 451.599 420.011V419.971ZM478.206 405.49C469.218 399.204 477.172 395.186 477.928 390.492C479.797 393.992 480.433 393.356 481.547 391.884C488.507 392.162 478.683 403.183 478.206 405.53V405.49ZM486.2 385.678C472.002 378.954 477.967 363.717 458.042 365.507C466.712 362.683 478.325 366.9 479.757 357.153C481.427 360.137 491.529 355.681 493.399 358.625C493.2 365.826 487.115 360.335 483.853 363.558C474.587 368.69 477.053 375.732 479.598 371.236C497.813 354.487 499.324 384.086 486.24 385.717L486.2 385.678ZM491.569 349.713C479.081 355.084 482.342 339.767 475.86 339.926C468.582 335.948 467.707 339.21 466.593 336.943C477.252 322.78 476.098 324.371 490.575 326.201C479.996 326.201 472.002 344.422 484.211 332.328C501.79 322.78 499.841 347.247 491.529 349.713H491.569ZM401.409 220.734C396.278 221.768 398.983 218.745 399.937 218.626C403.437 213.653 393.971 219.66 393.136 218.347C399.46 210.191 407.016 221.092 401.448 220.734H401.409ZM352.968 207.685C356.11 205.974 358.615 206.611 359.689 207.446C360.365 214.329 347.36 214.408 352.968 207.685ZM332.327 201.558C335.986 199.052 339.764 200.086 340.838 201.519C338.253 211.067 327.276 207.327 332.327 201.558ZM317.492 196.983C320.753 202.274 312.481 199.887 314.907 204.98C305.362 203.269 311.845 192.05 317.492 196.983ZM291.641 190.856C294.624 189.345 296.811 190.101 297.646 191.016C297.686 196.466 287.584 195.193 291.641 190.856ZM278.159 187.634C275.375 189.186 274.142 189.583 272.909 189.106C271.318 182.422 279.789 185.287 278.159 187.634ZM237.115 170.368C240.894 169.095 242.166 170.089 242.524 171.8C234.769 183.138 234.371 172.795 237.115 170.368ZM218.343 167.503C218.94 165.196 221.963 163.087 224.349 163.525C226.815 163.923 226.377 166.946 225.383 168.578C225.264 168.816 225.025 168.975 224.786 169.135C223.911 169.612 222.758 169.612 221.923 170.209C221.485 170.527 221.366 170.885 221.366 171.402C221.366 171.88 221.605 172.715 221.207 173.033C220.531 173.59 219.895 172.636 219.537 172.158C218.542 170.845 217.906 169.174 218.304 167.503H218.343ZM211.304 160.024C209.753 159.586 208.958 158.711 208.162 157.677C210.628 157.08 210.668 157.12 211.304 160.024ZM204.623 160.82C206.969 159.547 208.958 159.945 209.753 160.462C210.19 165.634 201.043 164.917 204.623 160.82ZM192.93 138.859C194.481 135.796 190.703 137.785 190.345 138.143C186.447 134.722 198.816 136.233 192.93 138.859ZM198.816 152.028C196.867 150.993 196.469 151.709 195.952 152.386C190.941 150.794 200.685 149.203 198.816 152.028ZM243.558 75.5233C241.848 78.2286 241.49 76.4781 241.172 75.8018C242.524 75.1255 243.001 75.3642 243.558 75.5233Z" fill="#803D1D"/>
<path d="M199.613 557.507C230.157 559.815 159.126 607.396 134.627 599.479C142.263 594.785 143.536 588.578 140.712 581.099C143.178 581.099 145.326 580.9 147.235 579.786C170.58 600.315 177.818 563.475 161.671 565.504C178.296 587.624 146.638 575.291 157.098 564.231C146.041 562.6 147.632 557.826 142.78 559.298C155.109 576.484 142.78 572.705 137.61 570.278C132.997 559.616 136.377 539.247 122.219 538.928C149.024 568.846 93.8621 565.265 115.299 537.058C109.253 535.746 109.333 522.935 101.657 525.362C124.128 555.439 71.6302 551.778 93.9416 523.254C86.6636 523.81 84.5955 512.751 78.5901 515.257C89.4475 521.583 83.2432 534.114 78.1924 537.138C73.6585 537.735 73.1415 530.534 69.5223 535.666C59.7785 526.118 64.6703 520.111 70.5166 513.705C58.5456 512.711 61.3295 503.202 53.097 505.192C59.5001 510.324 59.2614 512.154 60.6137 514.819C50.7903 541.156 49.1994 516.61 44.3474 525.203C33.6888 518.838 40.3305 508.533 45.1826 503.68C38.2625 504.993 35.3194 500.219 30.3481 500.457C40.768 521.941 17.1441 514.342 23.8654 498.906C49.4381 488.244 77.7151 496.161 99.947 506.942C72.7835 488.562 47.2109 487.886 11.4967 498.508C26.9675 529.619 -8.11033 509.13 2.23008 501.611C10.3433 493.097 -5.16729 497.871 -7.474 498.866C-2.50264 520.588 -14.593 508.016 -5.08775 521.503C-4.41165 533.796 -15.4679 521.98 -16.8997 519.991C-10.8147 507.022 -19.6439 513.865 -25.0527 512.91C-20.0018 525.044 -25.3311 531.529 -35.1545 531.25C-30.4218 542.429 -34.0409 552.176 -44.3018 550.505C-39.1316 557.428 -44.5802 566.061 -50.3867 564.907C-50.1481 567.811 -44.5802 590.409 -40.961 610.46C-41.0803 607.993 -41.1599 605.725 -41.1997 603.776C-39.1713 615.99 -36.3078 628.004 -32.0921 639.78C-34.9954 636.876 -36.9442 632.818 -38.2964 628.322C-37.3817 637.075 -37.6998 642.963 -40.4838 642.287C-34.5182 645.429 -41.3985 649.965 -39.3702 651.954C-28.9105 660.03 -34.9159 667.032 -24.5357 669.101C-16.144 670.772 -22.9846 675.307 -21.1154 678.37C-16.7406 683.582 -5.80363 686.964 -2.38334 681.235C-8.54781 693.846 29.5526 703.036 28.797 697.586C40.768 703.355 47.6086 705.225 50.2335 693.051C62.4033 699.297 66.8577 693.926 67.0168 685.253C78.6696 690.544 79.9025 679.325 78.4707 673.716C87.8567 676.381 87.618 665.003 86.3056 661.224C96.0097 663.372 96.7256 634.887 95.7711 633.176C83.2433 628.442 89.8452 620.008 83.1637 609.266C90.1634 611.056 88.0555 618.217 90.3225 621.161C86.9419 561.008 8.03663 564.947 5.53107 618.695C-0.872036 627.766 1.23582 613.961 1.47444 609.903C13.2466 532.762 87.0612 593.034 131.923 604.77C147.632 617.541 236.6 559.934 199.493 557.468L199.613 557.507ZM90.0043 642.724C93.8621 644.435 87.9362 645.907 87.459 644.355C86.8624 641.849 88.6521 643.042 90.0043 642.724ZM89.0498 652.431C91.794 655.893 85.6693 653.625 85.5897 652.71C87.9362 652.312 88.4532 652.431 89.0498 652.431ZM23.5075 524.527C29.831 531.011 29.3936 531.727 31.8594 537.536C30.4674 537.576 30.2685 535.905 29.0754 535.626C35.5978 557.388 7.79801 545.612 7.12191 535.228C17.1044 505.192 43.2736 532.364 23.5075 524.527ZM31.8594 537.536C29.2742 537.337 30.7458 542.151 31.8594 537.536V537.536ZM-0.474335 521.304C1.55397 522.02 3.70161 522.498 5.96855 523.691C-4.01393 526.953 3.70161 528.187 1.15628 531.688C-3.13897 535.666 -0.633415 538.69 0.758564 541.872C0.00291824 552.137 -6.87743 540.798 -8.94551 539.565C-6.99674 530.932 0.798328 529.659 -0.474335 521.304ZM-20.0416 531.966C-9.50231 541.673 -16.9395 547.681 -23.9789 543.702C-29.9445 535.865 -22.4278 528.386 -20.0416 531.966ZM-32.8876 549.909C-26.5242 555.558 -23.263 559.934 -27.8367 562.918C-35.592 560.571 -37.6203 554.643 -32.8876 549.909ZM-41.6769 566.578C-38.018 567.732 -37.9384 570.079 -38.3759 571.83C-41.3587 573.222 -42.353 568.13 -41.6769 566.578ZM-41.5576 599.479C-42.353 592.796 -42.4326 587.146 -40.3645 583.168C-35.3136 567.811 -41.319 595.779 -41.5576 599.479ZM-28.9105 647.1C-27.956 647.817 -27.7173 648.652 -27.439 649.726C-31.7342 651.357 -29.6263 647.737 -28.9105 647.1ZM11.2978 686.725C1.71307 683.423 4.73565 674.671 9.3093 678.609C11.9342 683.542 13.6045 686.606 11.2978 686.725ZM28.28 690.505C16.9453 698.859 21.3598 672.88 25.8937 688.953C28.6777 685.412 28.28 690.107 28.28 690.505ZM45.6996 694.602C40.6885 697.626 40.2908 690.107 37.5864 689.749C38.9783 680.559 49.0403 690.703 45.6996 694.602ZM61.8068 683.264H61.6875C65.6646 700.53 46.8132 670.573 61.8068 683.264ZM69.8803 670.812C70.1984 671.647 70.3575 672.323 69.3235 672.642C86.5442 678.052 64.0737 684.537 69.8803 670.812ZM83.7603 665.48C80.3002 670.812 75.7266 660.388 80.0218 660.309C84.1978 664.009 83.283 664.327 83.7603 665.48ZM10.3831 626.97C12.0933 626.612 11.3376 627.686 11.5762 628.124C8.55365 629.397 8.91159 627.646 10.3831 626.97ZM12.0535 573.421C-8.07056 595.382 -14.5134 632.977 9.707 653.903C76.9197 691.897 75.6868 574.256 19.3316 604.731C45.9382 560.054 107.265 613.881 66.102 664.924C14.2409 714.335 -13.7578 641.491 -5.88316 673.199C-0.434551 685.293 -22.7062 665.441 -8.58757 665.998C-14.593 648.891 -22.5074 645.748 -14.8316 659.911C-20.837 653.903 -15.8656 669.26 -24.2971 657.166C-12.8431 649.408 -58.0625 599.837 -28.2344 570.079C-21.4336 567.533 -21.5131 558.78 -23.2232 554.205C17.8203 546.209 12.7296 564.151 29.4333 552.335C30.189 568.488 52.4209 566.976 57.5513 556.592C60.375 580.662 35.3194 551.102 12.0137 573.461L12.0535 573.421ZM42.7168 638.189C-6.63881 596.575 74.8516 605.526 44.6656 648.135C45.6996 643.321 44.6656 640.655 42.7168 638.189ZM41.5634 649.806C39.6544 651.994 37.1886 653.148 34.4047 653.665C36.1148 651.079 39.6942 652.034 41.5634 649.806ZM57.4718 555.518C57.0343 554.166 56.9945 553.449 57.0741 553.091C57.2331 553.967 57.3524 554.762 57.4718 555.518ZM56.915 552.176C57.5911 547.88 58.9035 551.46 56.915 552.176V552.176ZM78.8287 556.354C74.2948 574.177 71.6699 555.279 68.1303 560.531C66.3407 556.831 63.0795 555.319 65.1078 552.335C73.8176 539.127 57.3922 552.614 50.3528 539.605C44.1088 539.446 66.8577 563.157 40.8476 554.166C30.6265 541.196 49.9551 537.377 35.3592 538.252C35.041 535.388 34.524 532.802 33.3309 530.255C41.1259 533.438 48.6029 536.382 55.6423 534.512C57.9888 547.362 79.8627 541.116 80.5786 550.386C71.3518 542.191 76.9595 552.932 78.8685 556.314L78.8287 556.354ZM95.5324 582.372C94.2995 579.428 102.055 575.768 102.453 573.58C102.373 583.208 101.856 586.788 95.5324 582.372ZM104.322 586.39C111.003 590.369 118.719 586.828 119.117 593.392C113.747 591.682 108.816 589.414 104.322 586.39ZM115.497 570.119C123.054 579.508 116.571 585.674 113.151 580.343C112.157 576.126 107.225 575.808 110.407 571.869C113.35 567.175 105.913 568.647 104.998 568.846C100.782 568.687 101.458 559.974 98.1971 559.497C88.2942 556.035 102.373 565.862 98.9925 569.88C92.0326 579.309 90.1236 565.026 88.3737 570.079C85.033 564.867 85.2318 562.918 87.8964 559.735C89.2486 556.473 80.2207 555.558 81.3342 550.943C100.703 553.37 104.481 572.267 124.804 567.811C131.286 564.151 125.997 575.291 127.985 576.484C121.264 577.121 120.866 567.493 115.497 570.159V570.119ZM128.423 587.703C122.179 578.593 131.764 574.097 135.94 581.139C143.695 595.7 130.73 589.732 128.423 587.703Z" fill="#803D1D"/>
<path d="M-156.854 502.365C-155.423 511.834 -151.803 515.454 -140.509 514.937C-148.025 509.447 -138.361 505.707 -138.44 509.805C-148.622 512.391 -135.1 513.704 -134.901 518.438C-112.271 515.892 -130.725 511.834 -123.447 507.02C-129.134 507.139 -134.225 505.309 -135.736 503.121C-127.225 495.522 -130.168 507.457 -122.97 502.962C-63.035 482.036 -109.845 477.341 -82.642 472.169C-65.8587 461.945 -88.2895 458.722 -63.552 448.617C-61.2851 422.121 -50.0697 439.348 -53.3309 419.496C-49.7118 414.204 -40.7236 415 -43.3882 406.327C-32.2126 401.593 -39.252 412.096 -42.1951 412.812C-29.8264 424.27 -39.3316 421.564 -43.9848 417.307C-46.0131 418.939 -43.1496 422.678 -42.7917 422.798C-26.1277 434.295 -33.3262 436.284 -25.2129 421.286C-13.7589 420.052 -47.9221 406.685 -24.5766 405.969C-17.9747 412.175 -17.5372 413.806 -16.6224 419.575C-10.8954 415.199 -9.7421 416.233 -6.32179 414.801C-19.3269 405.014 -21.5938 398.768 -10.1 397.972C-2.2254 403.741 -0.714111 407.123 0.0813141 413.409C2.8255 411.459 4.85379 415.557 6.56395 414.005C0.996033 408.356 11.0581 402.906 4.13794 402.468C-0.395935 386.236 25.5346 405.889 12.6489 416.114C20.4042 417.904 24.5801 434.733 34.7615 428.924C26.8073 426.1 15.5919 415.875 25.0972 413.846C25.7335 406.168 45.8973 416.472 40.7271 426.895C79.4241 415.358 44.5451 456.097 40.8464 426.895C27.722 429.083 46.3746 443.048 50.8687 439.785C52.9765 447.464 59.2603 455.858 67.6519 453.988C63.7146 465.406 78.231 477.938 86.384 471.652C44.7042 458.484 103.247 438.632 93.0257 467.515C115.138 459.001 89.0884 457.131 109.968 454.784C86.901 447.145 101.02 441.337 107.463 439.149C120.388 443.565 113.587 451.044 115.377 452.675C123.132 451.243 136.177 449.572 128.382 457.688C114.343 459.717 121.541 463.178 131.007 462.581C149.659 468.668 141.268 439.865 124.644 444.44C101.02 418.939 102.849 411.857 91.1565 414.602C92.111 411.817 93.8609 411.777 93.1848 410.664C86.9806 409.39 85.0716 399.922 82.4865 397.256C77.1572 392.323 70.2768 399.086 70.4359 391.766C67.1747 372.471 53.931 385.719 48.8801 378.359C28.8356 349.914 103.088 397.853 111.36 403.463C79.0662 373.983 37.784 358.547 -2.38449 363.4C15.7908 387.748 -10.6171 375.853 -8.98645 365.469C-17.3383 373.466 -15.6679 371.675 -23.0653 370.76C-30.9002 373.068 -3.29922 381.979 -21.037 384.486C-23.3835 381.144 -23.6221 383.531 -24.2187 384.844C-38.8543 373.386 -20.2416 371.437 -45.4165 381.582C-36.5079 381.343 -38.1782 390.891 -33.9625 388.305C-30.9399 399.365 -47.8425 394.233 -49.0754 393.358C-49.7913 375.892 -58.0239 388.066 -58.8591 391.965C-54.007 400.519 -49.5129 404.258 -48.638 406.924C-70.4324 414.642 -57.2682 388.782 -69.8756 403.463C-69.9551 421.883 -85.1476 414.045 -79.8183 425.224C-79.7387 425.901 -79.6592 426.497 -79.5797 427.015C-101.652 445.076 -94.6528 460.751 -127.702 469.822C-118.674 470.14 -110.68 462.542 -105.192 460.433C-115.493 482.036 -212.732 479.012 -100.658 390.254C-100.34 390.931 -100.181 391.329 -99.9026 391.925C-70.1142 366.583 -108.573 297.479 -138.838 326.242C-139.077 324.81 -138.162 323.975 -138.043 322.781C-150.968 342.315 -134.066 346.055 -123.129 357.353C-144.048 312.636 -96.8402 333.443 -108.811 369.965C-111.993 372.193 -114.976 374.222 -117.799 376.131C-117.839 377.166 -118.316 377.762 -118.595 378.876C-119.032 377.921 -119.032 377.325 -118.794 376.808C-156.854 402.11 -162.383 396.978 -178.092 413.369C-178.609 412.613 -177.615 412.295 -177.814 411.698C-189.466 426.617 -198.494 444.4 -201 444.957C-195.472 446.668 -197.977 454.824 -200.205 456.335C-195.631 475.829 -175.825 509.725 -157.133 508.532C-160.553 508.85 -158.366 502.763 -156.854 502.484V502.365ZM64.5896 451.243C62.8794 449.97 61.4477 448.816 60.2943 447.782C59.5785 447.265 58.9024 446.668 58.266 446.031C58.1467 445.912 58.0672 445.713 58.1069 445.554C49.4767 435.767 70.595 438.95 66.1009 436.125C81.015 441.217 74.6516 452.277 64.5896 451.243ZM92.7871 423.195C118.598 435.608 85.3102 449.612 82.4467 430.754C86.7817 417.387 93.0257 432.823 92.7871 423.195ZM75.4073 408.595C76.481 407.441 75.6856 406.168 75.8447 404.974C91.0372 413.329 85.1511 424.508 75.0096 419.655C61.1693 412.772 68.2883 399.882 75.3675 408.595H75.4073ZM29.2333 367.975C32.415 367.856 35.5171 367.299 38.5795 368.612C42.2782 367.976 27.5629 372.67 29.2333 367.975ZM14.6374 373.943C20.5633 366.305 29.4322 380.706 25.6142 387.828C31.6593 398.37 44.3065 392.124 35.6364 391.209C23.8245 385.48 37.0682 381.462 37.1477 378.12C53.4538 383.849 30.7048 408.237 56.3968 406.446C33.966 393.437 52.2209 385.878 59.9762 391.925C71.8676 396.819 57.7092 405.014 63.0783 411.777C66.6577 418.819 71.1518 421.962 77.3958 422.877C78.9866 429.64 78.6287 437.358 84.7534 441.217C75.4868 437.398 76.7197 422.599 65.3055 426.975C52.4595 399.922 46.2552 425.065 40.0112 403.224C24.3813 396.859 28.8356 407.918 21.3985 393.835C4.45609 383.531 7.35938 387.668 14.717 373.864L14.6374 373.943ZM-10.458 380.945C-8.07172 390.851 1.39374 383.969 4.89357 388.782C-1.35045 396.54 -4.45258 387.828 -11.0943 388.703C-10.975 386.117 -10.458 383.69 -10.458 380.945ZM-22.8267 394.074C-23.9403 396.859 -25.372 396.66 -26.6447 396.54C-33.1273 396.262 -24.0994 393.278 -22.8267 394.074ZM-156.496 496.875C-153.792 493.056 -152.002 498.188 -151.644 499.262C-153.712 499.262 -154.667 497.551 -156.496 496.875ZM-67.887 409.43C-66.5348 411.419 -68.4041 411.897 -68.8018 412.971C-50.5867 422.042 -56.9103 424.588 -66.7337 426.259C-78.4263 422.479 -72.1028 412.772 -67.9268 409.43H-67.887ZM-79.5399 426.975C-78.307 436.404 -79.8183 426.458 -69.0404 435.966C-56.433 447.543 -97.6754 447.503 -79.5399 426.975ZM-84.909 449.811C-96.4425 452.675 -85.5453 453.59 -83.9147 454.147C-69.9949 468.509 -92.545 460.632 -89.4428 464.61C-102.01 463.894 -90.8746 450.447 -87.4543 446.986C-87.1361 448.06 -86.4202 448.896 -84.909 449.811ZM-90.1587 442.411C-89.3633 444.36 -90.9143 444.838 -91.8291 445.673C-91.723 444.639 -91.1662 443.551 -90.1587 442.411ZM-94.2551 448.538C-94.7721 451.124 -100.34 457.489 -104.476 459.796C-99.6639 453.312 -96.363 451.044 -94.2551 448.538ZM-140.668 395.944C-140.111 397.495 -140.867 397.018 -141.463 397.097C-141.503 395.824 -141.105 395.824 -140.668 395.944ZM-95.9652 362.923C-76.0401 389.618 -217.863 450.129 -132.753 476.227C-120.663 480.166 -99.0276 455.898 -99.2662 470.856C-121.379 466.997 -76.915 481.2 -105.351 485.298C-118.356 480.723 -106.664 468.748 -116.805 476.187C-123.805 483.985 -125.833 484.781 -120.424 484.82C-104.834 494.647 -125.435 493.056 -127.026 493.215C-125.913 483.07 -137.168 488.003 -142.537 484.98C-148.105 488.958 -131.202 488.839 -136.372 494.846C-147.946 500.336 -156.337 473.641 -169.223 471.015C-214.96 404.179 -118.993 413.329 -96.005 362.923H-95.9652ZM-188.79 430.317C-188.552 431.709 -188.393 432.704 -188.234 433.698C-189.586 432.425 -189.586 432.385 -188.79 430.317ZM-190.779 441.416C-184.893 444.281 -189.626 447.145 -191.853 444.36C-193.284 440.899 -190.66 441.774 -190.779 441.416ZM-191.216 454.664C-186.603 453.749 -183.222 453.232 -183.302 455.261C-184.933 460.274 -190.461 455.977 -191.216 454.664ZM-181.791 488.759C-184.774 482.593 -179.007 484.104 -181.791 488.839C-181.791 488.839 -181.791 488.799 -181.791 488.759ZM-179.683 467.793C-187.915 464.531 -176.024 460.393 -174.632 464.332C-170.774 469.384 -178.291 470.061 -179.683 467.793ZM-169.342 494.766C-169.024 495.801 -167.752 496.119 -167.831 497.392C-169.528 497.074 -170.204 497.71 -169.859 499.302C-162.343 502.882 -175.944 499.222 -169.342 494.727V494.766ZM-175.03 476.904C-170.734 474.318 -168.786 474.556 -167.473 476.148C-166.916 481.837 -171.649 479.33 -175.03 476.904ZM-163.973 484.82C-161.905 479.808 -157.849 481.598 -156.894 484.701C-156.298 491.783 -168.229 488.481 -163.973 484.82Z" fill="#803D1D"/>
<path d="M352.491 667.832C321.072 673.998 347.361 717.92 364.303 690.787C340.997 702.563 344.855 687.366 348.832 679.727C363.627 671.373 364.741 685.138 367.008 684.422C374.842 663.615 345.253 671.572 360.724 668.031C369.752 663.257 357.304 665.604 355.991 664.57C337.339 656.215 358.735 648.059 364.104 650.208C369.831 652.674 366.292 662.859 371.542 659.875C368.877 668.031 376.592 662.222 378.183 664.371C383.552 656.852 380.251 674.794 372.774 669.622C378.263 678.852 391.626 665.286 397.552 669.702C399.381 661.307 402.642 673.243 399.341 675.232C393.575 678.414 388.842 673.282 392.739 678.414C401.489 682.592 407.057 673.044 413.102 677.141C411.63 658.363 401.648 655.976 391.029 663.575C390.711 652.078 377.905 655.26 373.371 656.852C376.712 636.164 346.884 634.692 342.747 652.833V652.873C343.424 660.193 348.116 665.286 352.571 667.832H352.491Z" fill="#803D1D"/>
<path d="M393.176 694.165C383.83 660.866 352.451 697.626 375.478 690.266C378.223 681.713 384.665 695.239 379.893 696.114C374.802 704.747 366.411 694.722 370.149 701.087C380.45 705.782 392.739 697.189 399.977 697.905C407.653 694.961 399.699 708.766 394.529 704.509C396.994 708.209 397.75 708.805 400.057 708.089C410.596 702.917 432.55 706.617 417.715 712.625C407.574 715.091 428.97 716.205 429.845 712.187C425.629 722.292 433.743 714.773 436.487 718.99C436.606 711.948 444.083 717.956 441.1 721.258C424.277 724.48 433.504 728.18 442.293 725.355C462.298 722.571 446.151 729.294 450.446 735.301C452.554 737.848 452.634 737.37 453.31 736.137C458.639 729.254 459.315 729.732 461.105 733.392C460.787 740.155 451.123 743.377 462.417 740.075C485.127 722.332 460.548 719.905 455.418 723.207C445.634 697.785 438.714 714.853 431.873 707.413C433.663 693.409 420.022 698.78 413.38 700.292C411.59 685.81 399.54 688.357 393.097 694.125L393.176 694.165Z" fill="#803D1D"/>
<path d="M415.806 642.369C446.35 657.606 478.803 673.679 493.239 704.869C492.683 707.774 483.615 698.743 480.751 702.323C468.9 669.78 449.412 705.944 467.548 696.037C469.377 699.737 465.639 703.636 462.855 702.164C458.957 707.416 471.206 703.238 473.632 704.313C464.525 719.072 474.388 709.524 478.644 712.031C484.967 701.01 486.757 728.143 471.803 719.55C473.394 725.119 477.729 724.165 480.354 724.761C487.314 719.391 501.512 721.618 493.916 713.98C493.08 696.952 500.279 729.376 504.057 730.291C497.972 683.585 455.258 655.697 415.806 642.369ZM473.593 703.756C475.263 702.124 474.746 702.244 475.701 702.88C473.593 703.756 474.706 703.875 473.593 703.756Z" fill="#803D1D"/>
<path d="M414.175 673.438C415.368 679.087 435.452 673 421.532 680.321C405.425 682.588 433.861 683.384 435.015 681.991C440.026 694.245 437.202 685.333 444.321 686.089C448.457 677.257 450.724 696.871 440.424 693.529C446.787 701.804 453.508 688.476 458.281 690.028C465.837 682.867 446.429 668.823 439.23 679.445C433.344 664.089 421.055 664.487 414.175 673.438Z" fill="#803D1D"/>
<path d="M97.3208 470.978C92.7073 478.935 105.593 481.441 108.457 483.47C120.308 495.286 126.87 456.934 104.519 462.305C94.8152 466.96 108.815 469.347 110.008 469.546C111.837 479.492 98.8718 477.383 97.3208 470.978Z" fill="#803D1D"/>
<path d="M434.736 288.764C432.151 292.186 441.298 303.524 442.809 303.047C456.172 306.548 466.95 285.303 450.525 292.425C449.252 302.808 440.662 282.479 454.701 284.866C448.934 275.437 440.463 291.191 434.736 288.764Z" fill="#803D1D"/>
<path d="M344.297 467.237C340.717 460.036 331.928 469.743 329.939 470.22C327.474 472.13 325.087 469.584 324.729 471.852C336.223 503.639 360.444 465.964 340.359 473.761C336.064 483.23 336.78 463.218 344.336 467.276L344.297 467.237Z" fill="#803D1D"/>
<path d="M464.525 753.123C464.525 753.123 464.525 753.123 464.525 753.163C499.683 763.745 481.786 734.703 465.679 740.949C465.838 740.273 465.957 739.796 466.077 739.278C452.793 750.418 465.957 747.076 467.309 749.98C475.542 743.734 469.895 753.242 464.525 753.083V753.123Z" fill="#803D1D"/>
<path d="M501.472 729.207C500.001 725.667 496.422 726.86 495.388 726.303C470.65 727.536 489.661 746.712 502.387 738.397C502.427 745.161 503.302 749.895 506.404 752.282C507.08 744.166 505.29 735.533 504.177 730.321C496.223 740.546 487.911 727.099 501.472 729.207Z" fill="#803D1D"/>
<path d="M506.723 771.506C507.279 765.458 507.876 759.769 506.564 754.08C505.569 758.059 496.064 757.541 499.087 754.558C501.035 750.102 507.16 753.762 503.62 750.142C484.371 749.187 485.724 754.637 492.564 763.748C510.58 764.504 498.013 767.288 506.723 771.506Z" fill="#803D1D"/>
<path d="M449.413 877.123C447.782 868.61 453.31 871.315 455.776 870.718C451.561 863.477 442.93 872.548 438.277 869.246C437.004 875.134 439.987 882.017 441.896 882.733C458.759 890.252 461.344 869.087 449.453 877.163L449.413 877.123Z" fill="#803D1D"/>
<path d="M442.611 257.451C437.202 249.256 430.919 264.055 426.504 259.361C421.214 264.016 431.595 265.846 428.691 269.506C440.384 281.282 451.082 258.366 442.77 261.867C432.629 267.914 436.646 256.258 442.611 257.491V257.451Z" fill="#803D1D"/>
<path d="M304.05 492.184C296.891 499.226 315.464 509.689 320.753 500.857C327.157 486.296 311.924 499.226 313.754 495.685C323.736 477.703 311.527 492.105 304.05 492.184Z" fill="#803D1D"/>
<path d="M160.199 488.718C151.131 486.888 169.306 498.147 169.107 499.977C173.402 496.078 175.749 491.821 175.988 490.23C175.232 480.682 162.784 476.703 160.676 483.546C170.261 489.155 163.301 491.145 160.199 488.758V488.718Z" fill="#803D1D"/>
<path d="M463.611 847.088C465.52 838.535 451.441 849.356 450.01 845.338C446.43 878.04 480.355 850.192 458.958 851.385C460.111 855.761 456.452 853.056 456.89 851.902C456.452 845.258 461.304 846.611 463.611 847.088Z" fill="#803D1D"/>
<path d="M142.381 472.007C138.086 476.781 157.613 486.528 155.347 481.793C167.119 462.817 137.052 460.27 147.512 473.319C145.682 473.956 142.898 474.513 142.381 472.007Z" fill="#803D1D"/>
<path d="M124.485 486.811C118.758 486.533 126.712 492.341 128.223 492.501C136.098 503.6 138.961 491.745 139.757 487.17C136.058 474.359 119.434 479.451 128.621 485.857C133.831 486.971 125.081 489.557 124.485 486.811Z" fill="#803D1D"/>
<path d="M193.566 510.568C206.611 493.739 172.368 494.376 187.6 503.645C169.942 502.054 196.469 518.047 193.566 510.568Z" fill="#803D1D"/>
<path d="M165.33 512.95C151.768 508.216 175.034 526.636 172.608 519.435C183.505 504.834 157.177 500.418 165.33 512.95Z" fill="#803D1D"/>
<path d="M417.952 247.151C427.775 267.202 443.008 241.9 428.372 245.958C438.394 235.773 415.327 245.798 417.952 247.151Z" fill="#803D1D"/>
<path d="M448.697 888.064C448.697 888.064 448.737 888.064 448.777 888.104C448.777 888.104 448.777 888.104 448.856 888.064H448.697Z" fill="#803D1D"/>
<path d="M439.867 889.337C437.52 897.97 446.469 907.876 450.446 902.386C460.388 893.992 448.02 894.27 446.071 896.458C441.458 887.467 459.474 893.355 448.736 888.064C441.418 893.833 441.577 885.836 439.827 889.297L439.867 889.337Z" fill="#803D1D"/>
<path d="M153.755 494.851C133.989 488.684 152.959 503.364 141.585 499.704C155.743 519.278 157.732 498.232 153.755 494.851Z" fill="#803D1D"/>
<path d="M205.259 523.721C214.605 512.422 192.572 509.757 199.253 517.992C193.288 516.918 206.531 530.086 205.259 523.721Z" fill="#803D1D"/>
<path d="M254.257 542.788C256.404 537.457 259.546 532.405 259.705 526.437C257.478 531.768 255.569 537.179 254.257 542.788Z" fill="#803D1D"/>
<path d="M250.956 578.715C255.41 582.494 260.143 586.035 263.961 586.831C258.552 583.728 253.74 578.675 250.956 578.715Z" fill="#803D1D"/>
<path d="M205.896 598.287C201.283 597.213 193.647 601.271 190.982 603.26C195.954 601.589 200.925 599.958 205.896 598.287Z" fill="#803D1D"/>
<path d="M309.221 612.92C304.567 611.965 299.914 610.97 295.301 610.016C298.403 613.238 306.198 613.318 309.221 612.92Z" fill="#803D1D"/>
<path d="M194.481 554.963C185.613 552.775 184.022 552.695 181.596 553.173C186.13 554.764 192.254 555.599 194.481 554.963Z" fill="#803D1D"/>
<path d="M324.69 614.476C333.281 617.38 333.679 619.091 336.582 618.892C331.412 615.55 329.264 614.078 324.69 614.476Z" fill="#803D1D"/>
<path d="M562.121 689.224C562.718 694.197 563.314 699.21 563.911 704.183C564.149 704.183 564.388 704.143 564.666 704.103C563.354 698.096 564.587 690.776 562.121 689.224Z" fill="#803D1D"/>
<path d="M334.674 272.976C334.674 272.976 334.475 272.896 334.396 272.817V272.896C334.396 272.896 334.594 272.936 334.674 272.976Z" fill="#803D1D"/>
<path d="M334.674 272.971C338.691 275.279 343.105 276.552 347.679 278.7C343.622 274.921 337.895 273.727 334.674 272.971Z" fill="#803D1D"/>
<path d="M298.203 462.252C295.26 463.326 293.988 465.952 292.437 468.379C294.664 466.628 296.493 464.48 298.203 462.252Z" fill="#803D1D"/>
<path d="M367.922 625.369C370.308 626.761 372.734 627.358 375.319 627.278C373.013 625.767 370.587 625.408 367.922 625.369Z" fill="#803D1D"/>
<path d="M126.554 639.583C129.417 638.43 130.531 637.475 132.4 634.491C128.781 637.117 127.667 637.952 126.554 639.583Z" fill="#803D1D"/>
<path d="M150.454 436.682C148.625 434.891 146.755 433.101 144.647 431.032C145.721 434.136 148.108 435.329 150.454 436.682Z" fill="#803D1D"/>
<path d="M135.501 532.247C133.91 530.934 132.359 529.661 130.769 528.348C131.325 530.894 133.393 531.571 135.501 532.247Z" fill="#803D1D"/>
<path d="M448.577 254.916C448.577 254.916 448.298 254.916 448.179 254.876C447.463 254.518 446.747 254.2 446.031 253.842C447.145 255.791 449.412 256.03 450.923 257.382C450.247 256.428 449.491 255.592 448.577 254.916Z" fill="#803D1D"/>
<path d="M162.426 549.749C161.789 548.29 160.437 547.415 158.369 547.123C159.721 547.998 161.431 548.317 162.426 549.749Z" fill="#803D1D"/>
<path d="M272.113 498.108C271.437 499.818 270.363 500.733 270.204 502.205C271.238 501.171 271.874 499.805 272.113 498.108Z" fill="#803D1D"/>
<path d="M287.107 599.679C287.585 601.429 288.738 601.509 289.812 601.628C289.136 600.793 288.42 600.077 287.107 599.679Z" fill="#803D1D"/>
<path d="M447.503 698.256C448.617 698.137 449.571 697.938 450.366 696.665C449.014 696.784 447.582 695.989 447.503 698.256Z" fill="#803D1D"/>
<path d="M495.466 726.308C493.279 724.557 497.733 724.398 495.466 726.308V726.308Z" fill="#803D1D"/>
<path d="M565.583 701.126C565.384 702.001 565.424 702.638 565.981 703.354C566.299 702.518 566.179 701.882 565.583 701.126Z" fill="#803D1D"/>
<path d="M314.031 267.76C314.508 267.243 316.139 269.63 314.031 267.76V267.76Z" fill="#803D1D"/>
<path d="M314.032 267.759C314.032 267.759 314.032 267.759 313.952 267.72V267.879C313.952 267.839 313.992 267.839 314.032 267.799V267.759Z" fill="#803D1D"/>
<path d="M334.395 272.858C332.963 271.983 332.366 271.784 331.531 271.744C332.685 272.579 333.4 273.057 334.395 272.858Z" fill="#803D1D"/>
<path d="M235.167 689.826C217.39 716.839 217.947 676.18 234.491 684.614C234.929 679.243 247.138 680.078 245.985 673.315C245.389 670.69 244.991 671.246 244.633 671.008C233.736 686.563 233.258 668.541 240.855 667.228C247.496 667.467 242.684 662.136 241.809 660.027C240.536 655.333 245.707 650.638 242.605 648.251C234.014 663.807 227.492 654.537 232.224 646.978C236.162 637.231 247.655 651.156 237.554 633.571C208.083 644.034 224.191 667.984 239.9 658.277C233.895 667.228 225.105 656.526 227.372 673.872C187.045 694.321 237.912 718.589 235.167 689.826Z" fill="#803D1D"/>
<path d="M270.364 758.419C269.728 738.567 241.53 750.502 245.348 763.551C237.394 758.897 242.962 754.799 234.531 759.613C195.834 768.803 243.877 809.382 246.024 773.656C230.912 797.089 227.611 774.93 232.9 768.325C242.366 759.016 248.291 776.998 253.979 779.544C263.842 783.761 276.807 773.378 271.557 764.785C255.291 801.107 245.468 742.148 270.324 758.459L270.364 758.419ZM244.871 766.853C244.473 765.501 244.951 765.143 245.309 764.705C245.547 767.172 245.905 766.814 244.871 766.853Z" fill="#803D1D"/>
<path d="M236.757 755.785C244.393 741.026 235.167 751.847 231.945 754.87C218.145 755.984 230.633 737.047 237.712 742.1C238.149 737.604 234.53 734.541 233.695 732.552C245.268 719.025 236.28 724.237 230.712 729.568C218.344 720.895 245.666 718.548 233.854 708.602C209.912 717.553 218.9 733.467 228.724 733.904C207.088 740.071 218.463 769.431 236.797 755.785H236.757Z" fill="#803D1D"/>
<path d="M271.716 788.924C289.454 790.316 286.114 790.117 277.284 778.739C226.656 793.738 283.091 836.824 285.875 797.557C270.324 825.406 261.058 797.955 271.716 788.924Z" fill="#803D1D"/>
<path d="M257.676 716.248C217.866 731.644 253.341 761.442 265.392 735.941C265.71 733.713 265.392 732.679 264.517 732.719C244.075 759.334 244.432 718.635 264.358 726.512C262.051 718.675 258.551 718.754 257.636 716.248H257.676Z" fill="#803D1D"/>
<path d="M255.927 800.227C255.927 794.618 251.989 791.952 250.677 789.366C205.299 805.121 257.597 838.937 256.802 806.036C238.626 835.078 237.036 789.963 255.967 800.227H255.927Z" fill="#803D1D"/>
<path d="M246.423 705.304C247.218 689.907 262.212 711.47 254.417 690.345C217.827 694.801 251.434 736.733 259.507 708.884C257.638 696.79 252.229 727.543 246.423 705.304Z" fill="#803D1D"/>
<path d="M348.354 862.562C350.103 864.989 352.41 865.307 354.24 866.381C352.848 864.591 351.058 863.437 348.354 862.562Z" fill="#803D1D"/>
<path d="M286.671 872.48C285.637 873.315 284.284 873.275 283.449 874.469C285.385 874.495 286.459 873.832 286.671 872.48Z" fill="#803D1D"/>
<path d="M229.56 446.868C240.298 423.634 245.747 445.396 239.861 451.721C230.833 452.04 228.844 455.421 222.998 459.042C218.305 465.964 223.714 469.505 224.827 462.781C229.958 454.904 234.014 464.969 229.481 466.72C229.56 473.046 222.521 468.232 223.952 473.006C225.106 476.507 227.174 477.501 227.731 479.49C221.487 503.997 239.543 464.85 239.503 485.896C236.957 489.436 237.196 495.324 231.509 493.614C225.384 505.947 242.804 499.502 247.417 495.563C253.621 480.087 239.463 470.42 228.924 478.973C237.554 468.948 243.838 476.944 238.509 459.201C277.882 446.788 225.305 413.449 229.56 446.908V446.868Z" fill="#803D1D"/>
<path d="M216.833 388.304C217.827 391.964 219.1 389.975 219.02 390.015C231.23 366.025 234.491 398.927 222.202 395.585C215.64 396.778 228.446 403.223 220.611 412.931C221.406 417.267 237.275 396.022 230.116 414.88C230.434 423.314 216.674 415.238 228.326 428.327C250.558 416.153 239.9 402.627 230.235 402.706C256.365 388.304 223.236 362.087 216.793 388.344L216.833 388.304Z" fill="#803D1D"/>
<path d="M167.477 355.476C174.675 374.254 199.174 353.169 192.771 340.08C185.572 318.955 157.295 333.794 164.732 346.962C180.76 311.237 195.237 360.728 167.437 355.436L167.477 355.476Z" fill="#803D1D"/>
<path d="M185.214 383.974C190.981 405.855 216.912 385.008 208.361 370.686C202.356 351.709 174.755 363.207 183.027 377.728C195.237 339.734 212.02 396.466 185.214 383.974Z" fill="#803D1D"/>
<path d="M216.752 382.102C260.738 356.839 202.394 333.287 207.604 365.552C217.308 343.87 221.723 356.919 223.592 364.637C219.019 374.861 215.081 371.917 208.36 370.724C213.212 380.55 215.757 379.277 216.752 382.142V382.102Z" fill="#803D1D"/>
<path d="M201.361 349.627C242.802 329.974 187.64 302.046 192.015 335.265C205.656 303.757 215.4 349.19 192.731 340.079C197.305 348.593 200.566 351.219 201.321 349.587L201.361 349.627Z" fill="#803D1D"/>
<path d="M195.793 414.766C203.707 432.669 205.616 416.755 215.36 416.318C227.411 401.677 208.917 384.013 196.469 398.773C188.237 415.403 196.708 406.372 199.571 400.523C217.389 390.975 208.042 421.012 195.793 414.766Z" fill="#803D1D"/>
<path d="M206.81 439.349C212.259 464.93 242.684 425.265 210.35 420.73C198.697 426.976 201.6 442.134 209.197 426.141C220.253 428.408 218.344 443.765 206.81 439.349Z" fill="#803D1D"/>
<path d="M93.4628 291.586C92.1106 289.716 90.5595 289 87.2188 288.602C89.1277 289.955 90.997 290.711 93.4628 291.586Z" fill="#803D1D"/>
</g>
<defs>
<clipPath id="clip0_179_22">
<rect width="951" height="1024.15" fill="white" transform="translate(-201)"/>
</clipPath>
</defs>
</svg>
