<svg width="56" height="56" viewBox="0 0 56 56" fill="none" xmlns="http://www.w3.org/2000/svg">
<path d="M55.2054 56H0V0H55.2054V56ZM0.253688 55.7463H54.9521V0.253688H0.253688V55.7463ZM28.8653 40.0313C30.4044 40.0313 31.9439 41.595 31.944 43.1342V50.3171C31.944 51.1234 33.3609 50.7326 33.3609 51.5387C33.3609 52.3694 32.1391 52.2961 31.6261 52.2961C30.7466 52.296 30.1359 51.7587 29.2808 51.7586C28.3036 51.7586 27.3995 52.2719 26.3979 52.2719C24.9808 52.2719 23.7102 51.099 23.7102 49.6575C23.7103 45.553 28.8655 47.3121 29.5984 45.2598V43.965C29.5984 42.9144 29.6471 41.0088 28.1079 41.0088C26.8864 41.0089 26.5688 42.8166 25.2739 42.8166C24.8586 42.8166 24.37 42.5724 24.3699 42.1082C24.3699 40.3736 27.7901 40.0313 28.8653 40.0313ZM36.8639 37.8644C37.1815 37.8644 37.9389 38.3199 37.9391 38.6388V44.0615C37.9391 44.3348 38.4276 44.517 38.672 44.517C38.843 44.517 38.9897 44.4943 39.1607 44.3576L42.41 41.3276C42.4588 41.2821 42.9229 41.0544 43.0696 41.0088H43.2163C43.5095 41.0088 43.5584 41.1682 43.5584 41.4188C43.5584 42.9224 40.1135 43.3781 40.1135 45.2006C40.1136 46.8408 43.876 50.2807 44.8532 51.3514C44.8532 51.3971 44.8777 51.6021 44.8777 51.6476C44.8777 52.2626 44.2181 52.1259 43.7051 52.1258C43.583 52.1258 43.021 52.1032 42.8988 52.1032C41.384 51.2603 39.8692 47.6837 38.5011 47.6835C38.2812 47.6835 38.0123 47.9342 38.0123 48.162V51.6476L37.5235 52.1032H36.2287C35.8867 52.1031 35.7403 51.4653 35.7403 51.2602V50.8958C35.7647 48.8 35.8622 40.5752 35.8867 38.4794C36.131 38.206 36.4486 37.8645 36.8639 37.8644ZM17.5464 40.0313C19.0856 40.0313 20.7956 41.7173 20.7956 43.3054V51.4411C20.7956 51.5876 20.4294 52.1006 20.3072 52.1007H19.0124L18.5236 51.6122V44.2826C18.5236 42.89 17.4975 41.6685 16.1049 41.6685C15.4697 41.6685 13.4663 41.7416 13.4663 42.8166V51.2944C13.4663 51.5875 13.2462 51.9541 12.9775 52.1007C12.8796 52.1007 12.4155 52.1252 12.3178 52.1252C12.0246 52.1252 11.194 52.1984 11.1939 51.6122V44.6002C11.1939 43.7939 10.7786 41.6685 9.55704 41.6685H7.11382C6.82059 41.6686 6.13659 42.548 6.13659 42.9878V51.2944C6.13659 52.0273 5.47691 52.1252 4.91498 52.1252C4.81694 52.1252 3.86456 52.1495 3.86456 51.7831V41.3506C3.86465 40.6422 4.52407 40.3492 5.11036 40.3492C5.74554 40.3492 6.23428 40.8865 6.86943 40.8866C7.99328 40.8866 9.01956 40.0313 10.2167 40.0313C11.3161 40.0313 12.1958 40.6911 13.1487 41.1797C13.2222 41.2041 13.5637 41.2287 13.6371 41.2287C15.0298 41.2287 16.1049 40.0313 17.5464 40.0313ZM48.4272 41.9432C48.9158 41.9432 49.0625 41.9664 49.2335 42.4311C49.3313 45.847 49.4044 48.2214 49.4044 51.6374C49.3066 52.1949 48.6716 52.1252 48.2563 52.1252C48.1586 52.1252 47.6945 52.102 47.5966 52.1019C47.4745 52.009 47.1079 51.6837 47.1079 51.4746V42.7332C47.108 42.1291 47.9874 41.9433 48.4272 41.9432ZM28.2546 47.0434C27.0819 47.0434 25.9823 47.9474 25.9823 49.1445C25.9823 50.0485 26.6176 50.6347 27.546 50.6347C28.963 50.6347 29.5984 49.9507 29.5984 48.5826C29.5984 47.6053 29.3052 47.0434 28.2546 47.0434ZM48.2563 38.4251C48.8671 38.4251 49.4044 39.0527 49.4044 39.6104C49.4044 40.261 48.9403 40.7722 48.2563 40.7722C47.5966 40.7722 47.1079 40.3538 47.1079 39.7264C47.1079 39.0293 47.4257 38.4251 48.2563 38.4251ZM20.5748 21.9837C20.7177 21.9204 22.7555 21.9439 22.8642 22.0101C22.9079 22.0371 23.1376 22.065 23.3744 22.0721C23.7852 22.0844 24.1588 22.139 24.6546 22.2588C24.7793 22.289 24.9707 22.331 25.0798 22.3522C25.5763 22.4488 25.999 22.5646 26.4282 22.7212C26.6837 22.8145 26.8926 22.8751 26.8928 22.8561C26.8928 22.837 26.9249 22.8476 26.9638 22.8794C27.0031 22.9113 27.2755 23.0301 27.5695 23.1433C27.8633 23.2565 28.1308 23.371 28.1644 23.3983C28.1974 23.4253 28.4795 23.5815 28.7911 23.745C29.1028 23.9086 29.4472 24.0971 29.5562 24.1637C29.6653 24.2303 29.877 24.3475 30.0267 24.4242C30.1764 24.5008 30.3484 24.6089 30.4088 24.6645C30.4692 24.7201 30.6272 24.8153 30.7599 24.876C30.8925 24.9367 31.065 25.0357 31.1429 25.0959C31.4618 25.3426 32.6908 26.1218 32.7608 26.1218C32.8024 26.1219 32.8699 26.1699 32.9109 26.2285C32.952 26.2872 33.1511 26.4151 33.3532 26.5129C33.5554 26.6108 33.9251 26.8054 34.1744 26.9449C34.4235 27.0843 34.6656 27.2144 34.7125 27.234C34.7593 27.2535 35.01 27.3585 35.2695 27.4675C35.7828 27.6831 35.892 27.7154 36.6958 27.889C37.3501 28.0302 38.5261 28.085 38.9626 27.9944C39.5686 27.8686 40.4143 27.5782 40.9567 27.31C41.6133 26.9852 41.9509 26.7631 42.3449 26.396C42.5066 26.2453 42.6765 26.1218 42.7226 26.1218C42.7687 26.1218 42.8462 26.1067 42.8947 26.088C42.9531 26.0656 43.0044 26.1015 43.0467 26.1941C43.1006 26.3124 43.0866 26.3772 42.9571 26.6106C42.5359 27.3691 41.7119 28.1215 40.8041 28.5762C39.9022 29.0281 39.2913 29.1809 38.3767 29.1832L37.8008 29.1844L38.0381 29.3956C38.1685 29.5117 38.3852 29.6903 38.5197 29.7926C38.6541 29.8948 38.8405 30.0385 38.934 30.1117C39.2379 30.3495 40.5101 30.9826 40.9331 31.1066C41.2694 31.2051 41.4997 31.2278 42.1799 31.2297C42.6652 31.2311 43.0437 31.2566 43.0848 31.2905C43.188 31.3756 43.1712 31.559 43.0563 31.6031C43.0017 31.6241 42.8553 31.7099 42.7307 31.7939C42.3346 32.0607 41.8468 32.185 41.2054 32.1828C40.5038 32.1803 40.1252 32.0937 39.5056 31.7939C39.0379 31.5674 38.0543 30.9352 37.8101 30.704C37.6594 30.5615 37.0025 30.1314 36.6989 29.9765C36.2084 29.7263 35.4142 29.5237 34.9181 29.5224C34.558 29.5215 33.6215 29.7161 33.4375 29.8301C33.3752 29.8687 33.2534 29.918 33.1668 29.9393C32.8809 30.0097 31.26 30.8423 30.7022 31.2052C30.5377 31.3122 30.1934 31.504 29.9371 31.6313C29.6809 31.7587 29.4105 31.9098 29.3361 31.9672C29.2617 32.0245 29.1458 32.0717 29.0783 32.0717C29.0108 32.0717 28.9312 32.094 28.9016 32.1214C28.8716 32.1489 28.72 32.2412 28.5644 32.327C28.292 32.4772 28.0668 32.5706 27.2045 32.8905C26.9865 32.9714 26.757 33.0614 26.6947 33.0908C26.6323 33.1202 26.4156 33.1851 26.213 33.2347C26.0104 33.2844 25.5514 33.4098 25.193 33.5135C23.9462 33.8745 22.7046 34.0525 21.4249 34.0535C20.7039 34.054 19.5025 33.9144 18.9848 33.77C18.7646 33.7086 18.532 33.6581 18.4681 33.6581C18.2683 33.6577 16.6052 32.9978 16.1712 32.7466C15.0346 32.0886 14.5209 31.6926 13.6741 30.8213C13.0018 30.1296 12.6522 29.6464 12.2093 28.7974C12.0732 28.5364 12.0531 28.4331 12.0524 27.9922C12.0516 27.4926 12.0553 27.4794 12.3588 26.8752C12.5278 26.5388 12.7371 26.1703 12.824 26.0564C12.9109 25.9425 13.0798 25.7193 13.1995 25.5605C13.3194 25.4017 13.4447 25.2885 13.4777 25.309C13.5107 25.3293 13.5217 25.3202 13.5022 25.2888C13.4618 25.2226 14.2232 24.4758 14.5883 24.2235C14.7236 24.13 14.915 23.9868 15.0132 23.9053C15.1115 23.8238 15.2939 23.7021 15.4185 23.6349C15.5432 23.5676 15.8109 23.407 16.0134 23.2779C16.2159 23.1488 16.573 22.9728 16.8067 22.8868C17.0404 22.8009 17.3592 22.6805 17.515 22.6192C18.0705 22.4009 18.3681 22.3078 18.5915 22.2821C18.7161 22.2678 18.8437 22.2379 18.875 22.2157C18.9061 22.1935 19.0461 22.1683 19.186 22.1599C19.326 22.1515 19.4837 22.1214 19.5365 22.0932C19.5893 22.065 19.8191 22.0402 20.047 22.038C20.2749 22.0358 20.5124 22.0114 20.5748 21.9837ZM22.7566 23.0872C22.2303 23.0359 20.7724 23.0209 20.3481 23.0627C19.7446 23.1222 18.5052 23.4009 17.9263 23.6073C17.4008 23.7947 16.5912 24.1938 16.1551 24.4803C15.9682 24.6031 15.7409 24.7484 15.6499 24.8035C15.559 24.8585 15.4085 24.9737 15.3156 25.0593C15.2228 25.145 15.1261 25.2152 15.1007 25.2153C15.0296 25.2153 14.1205 26.1689 13.8583 26.5185C13.5531 26.9253 13.2131 27.5117 13.126 27.781C13.0384 28.0525 13.085 28.1907 13.4579 28.7679C13.9183 29.4807 14.0817 29.6799 14.7211 30.3071C15.0543 30.634 15.3219 30.9272 15.3159 30.959C15.3099 30.9906 15.3562 31.0271 15.4185 31.0399C15.4809 31.0528 15.57 31.0973 15.6167 31.1385C15.6635 31.1798 15.7146 31.2116 15.7302 31.2093C15.8055 31.198 16.0134 31.292 16.0134 31.3373C16.0134 31.3656 16.2048 31.4937 16.4386 31.622C16.6859 31.7577 16.8477 31.8802 16.8265 31.9154C16.8044 31.9512 16.8163 31.959 16.8557 31.9347C16.8924 31.9123 17.0812 31.9752 17.2753 32.0745C17.4696 32.1739 17.8816 32.3377 18.1908 32.4386C18.4998 32.5395 18.7163 32.6352 18.6725 32.6514C18.6281 32.6674 18.6554 32.6793 18.7332 32.6777C18.8112 32.6762 19.1982 32.7309 19.5932 32.799C20.1445 32.894 20.5611 32.9243 21.3861 32.9292C21.9773 32.9328 22.4873 32.9196 22.5193 32.8998C22.5515 32.88 22.7646 32.8484 22.9929 32.8294C23.2211 32.8104 23.4547 32.7703 23.5121 32.7404C23.5692 32.7104 23.6278 32.6977 23.6423 32.7122C23.6568 32.7267 23.7631 32.715 23.8783 32.6867C23.9936 32.6584 24.2027 32.6116 24.3429 32.5828C25.0245 32.443 26.2086 32.1112 26.4174 32.0013C26.5077 31.9538 26.7089 31.8642 26.8646 31.8019C27.0204 31.7396 27.3392 31.6089 27.5729 31.5116C27.8064 31.4144 28.0271 31.335 28.0639 31.3349C28.1002 31.3349 28.1387 31.3113 28.1492 31.2824C28.1609 31.253 28.6277 30.9946 29.1878 30.7078C29.7488 30.4205 30.2716 30.1421 30.3496 30.0891C30.6126 29.9102 33.0157 28.7287 33.1169 28.7285C33.1717 28.7285 33.2407 28.7074 33.2704 28.6817C33.3429 28.6187 33.7212 28.515 34.0274 28.4742C34.409 28.4234 34.4124 28.3867 34.0516 28.2255C33.7657 28.0978 33.5552 27.9821 33.0601 27.6809C33.0082 27.6493 32.8171 27.5363 32.6352 27.43C32.4534 27.3237 32.1864 27.1516 32.042 27.0476C31.8977 26.9437 31.7575 26.8584 31.7303 26.8578C31.7033 26.8575 31.5748 26.7748 31.445 26.6739C31.315 26.5729 31.0761 26.4138 30.9143 26.3203C30.3787 26.0108 30.3254 25.9775 29.7262 25.5816C29.399 25.3654 29.0038 25.1218 28.8479 25.0401C28.6921 24.9585 28.4498 24.8282 28.3095 24.7504C27.7401 24.4348 27.4548 24.3035 26.7514 24.0346C26.3463 23.8798 25.7978 23.6968 25.5329 23.6281C25.268 23.5593 24.9366 23.4686 24.7963 23.4265C24.4818 23.332 23.3701 23.147 22.7566 23.0872ZM46.8461 6.04479C48.3853 6.04481 49.9245 7.60849 49.9245 9.14767V16.3306C49.9245 17.1369 51.3414 16.7461 51.3415 17.5523C51.3415 18.3829 50.12 18.3096 49.6069 18.3096C48.7274 18.3096 48.1165 17.7721 47.2614 17.7721C46.2841 17.7722 45.3801 18.2854 44.3784 18.2854C42.9614 18.2854 41.6911 17.1125 41.6911 15.671C41.6912 11.5665 46.846 13.3255 47.579 11.2733V9.97851C47.579 8.92796 47.6279 7.02208 46.0888 7.02202C44.8672 7.02202 44.5494 8.83009 43.2545 8.83009C42.8392 8.83004 42.3508 8.5856 42.3508 8.12144C42.351 6.38691 45.7712 6.04479 46.8461 6.04479ZM16.7174 6.06898C18.8918 6.06898 20.7243 7.7549 20.7243 9.9782V10.6134C20.5533 10.8332 20.3334 11.0288 20.0646 11.1021C19.3805 11.0777 16.1799 11.0777 15.4958 11.1021C14.4697 11.151 13.688 11.5174 13.688 12.5923C13.688 14.8156 15.7401 16.8191 17.939 16.8191C18.5742 16.8191 19.2095 16.6479 19.8448 16.6479C20.089 16.6479 20.2355 16.6969 20.2355 16.99C20.2355 18.1138 16.9862 18.2851 16.3021 18.2851C13.126 18.2851 11.5869 15.3287 11.5869 12.4946C11.5869 9.41622 13.2481 6.06902 16.7174 6.06898ZM6.30747 3.70205C7.16259 3.70205 6.38105 5.78876 8.28674 6.15272C8.84866 6.24972 9.60604 6.03161 9.60604 6.71096C9.60591 7.92402 6.96714 6.90503 6.96713 8.5792V16.174C6.96728 17.1929 9.1411 17.1444 9.41035 17.1444C9.43478 17.1687 9.43485 17.2901 9.43485 17.3144C9.43479 18.1393 7.77343 18.2848 7.21151 18.2848C5.40365 18.2847 4.52426 16.9262 4.52421 15.252C4.52421 13.6748 4.6951 12.1217 4.6951 10.5445C4.6951 9.57401 4.71966 9.06437 4.52421 8.09384C4.42645 7.6086 3.86456 7.39013 3.86456 6.8806C3.86456 6.83195 3.86439 6.66252 3.88875 6.63808C4.20634 6.27414 5.79425 3.70252 6.30747 3.70205ZM28.9456 6.04479C29.6785 6.04484 30.6802 6.41142 30.6802 7.2909C30.6802 7.975 30.2647 8.19494 29.6294 8.19494C28.8721 8.19491 28.2369 7.82839 27.4796 7.82836C26.8688 7.82836 26.0868 8.26833 26.0868 9.00129V17.3079C26.0868 17.601 25.8671 17.9676 25.5983 18.1142C25.5006 18.1142 25.0366 18.1387 24.9387 18.1387C24.6455 18.1387 23.8148 18.2118 23.8148 17.6255V7.19321C23.8148 6.63129 24.5965 6.36238 25.0119 6.36237C25.5493 6.36237 25.9891 6.55803 26.5266 6.55806C27.3817 6.55806 28.066 6.04479 28.9456 6.04479ZM38.2381 6.04479C38.971 6.04479 39.9727 6.41136 39.9727 7.2909C39.9727 7.975 39.5575 8.19494 38.9222 8.19494C38.1649 8.19494 37.5295 7.82836 36.7721 7.82836C36.1613 7.82843 35.3796 8.26838 35.3796 9.00129V17.3079C35.3796 17.6011 35.1596 17.9676 34.8908 18.1142C34.7928 18.1142 34.3289 18.1387 34.2312 18.1387C33.9379 18.1387 33.1076 18.2117 33.1076 17.6255V7.19321C33.1076 6.63128 33.8893 6.36237 34.3047 6.36237C34.8421 6.36238 35.2819 6.55806 35.8194 6.55806C36.6745 6.55806 37.3586 6.04482 38.2381 6.04479ZM46.2352 13.0569C45.0625 13.057 43.9631 13.9609 43.9631 15.158C43.9632 16.062 44.5984 16.6482 45.5268 16.6482C46.9438 16.6482 47.579 15.9642 47.579 14.5961C47.579 13.6188 47.2857 13.0569 46.2352 13.0569ZM16.6442 7.02202C15.5692 7.02202 14.201 8.17025 14.201 9.31855C14.201 10.198 15.3493 10.2958 15.96 10.2958C16.9617 10.2958 18.7698 10.369 18.7698 8.97647C18.7698 7.90149 17.6703 7.02205 16.6442 7.02202Z" fill="#283122"/>
</svg>
