<svg width="48" height="48" viewBox="0 0 48 48" fill="none" xmlns="http://www.w3.org/2000/svg">
<path d="M47.3189 48H0V0H47.3189V48ZM0.217447 47.7826H47.1018V0.217447H0.217447V47.7826ZM24.7417 34.3125C26.061 34.3125 27.3805 35.6528 27.3805 36.9721V43.129C27.3805 43.82 28.595 43.4851 28.5951 44.1761C28.5951 44.8881 27.5478 44.8252 27.1081 44.8252C26.3543 44.8252 25.8307 44.3646 25.0979 44.3645C24.2602 44.3645 23.4853 44.8045 22.6267 44.8045C21.4121 44.8045 20.3231 43.7991 20.3231 42.5636C20.3231 39.0455 24.7418 40.5532 25.3701 38.7941V37.6843C25.3701 36.7838 25.4118 35.1504 24.0925 35.1504C23.0455 35.1505 22.7732 36.6999 21.6634 36.6999C21.3074 36.6999 20.8886 36.4906 20.8885 36.0928C20.8885 34.606 23.8201 34.3125 24.7417 34.3125ZM31.5976 32.4552C31.8698 32.4552 32.5191 32.8456 32.5192 33.119V37.767C32.5193 38.0013 32.938 38.1574 33.1474 38.1575C33.294 38.1575 33.4198 38.138 33.5663 38.0208L36.3514 35.4237C36.3933 35.3846 36.7911 35.1895 36.9168 35.1504H37.0426C37.2939 35.1504 37.3358 35.2871 37.3358 35.5018C37.3358 36.7906 34.383 37.1812 34.383 38.7433C34.3831 40.1493 37.608 43.0978 38.4456 44.0155C38.4456 44.0546 38.4666 44.2303 38.4666 44.2694C38.4666 44.7965 37.9013 44.6793 37.4615 44.6793C37.3568 44.6793 36.8752 44.6599 36.7704 44.6599C35.472 43.9374 34.1736 40.8717 33.0009 40.8716C32.8125 40.8716 32.582 41.0865 32.582 41.2817V44.2694L32.163 44.6599H31.0532C30.7601 44.6598 30.6345 44.1131 30.6345 43.9374V43.625C30.6555 41.8286 30.7391 34.7788 30.76 32.9823C30.9694 32.748 31.2417 32.4553 31.5976 32.4552ZM15.0397 34.3125C16.3591 34.3125 17.8248 35.7577 17.8248 37.1189V44.0923C17.8248 44.218 17.5109 44.6577 17.4061 44.6577H16.2963L15.8774 44.2391V37.9565C15.8774 36.7628 14.9978 35.7158 13.8042 35.7158C13.2597 35.7158 11.5426 35.7785 11.5425 36.6999V43.9666C11.5425 44.2179 11.3539 44.5321 11.1236 44.6577C11.0397 44.6578 10.6419 44.6787 10.5582 44.6787C10.3068 44.6788 9.59489 44.7415 9.59479 44.2391V38.2287C9.59478 37.5376 9.23882 35.7158 8.19175 35.7158H6.09756C5.84622 35.716 5.25994 36.4697 5.25994 36.8467V43.9666C5.25994 44.5948 4.6945 44.6787 4.21284 44.6787C4.12881 44.6788 3.31248 44.6996 3.31248 44.3855V35.4434C3.31256 34.8362 3.87777 34.585 4.38031 34.585C4.92475 34.585 5.34367 35.0456 5.88809 35.0457C6.85138 35.0457 7.73105 34.3125 8.75717 34.3125C9.69954 34.3125 10.4536 34.8781 11.2703 35.2969C11.3333 35.3178 11.626 35.3389 11.689 35.3389C12.8827 35.3389 13.8042 34.3125 15.0397 34.3125ZM41.509 35.9514C41.9278 35.9514 42.0536 35.9712 42.2002 36.3695C42.2839 39.2974 42.3466 41.3327 42.3466 44.2606C42.2628 44.7385 41.7185 44.6788 41.3625 44.6787C41.2788 44.6787 40.881 44.6588 40.7971 44.6588C40.6924 44.5791 40.3782 44.3003 40.3782 44.121V36.6284C40.3783 36.1106 41.1321 35.9514 41.509 35.9514ZM24.2182 40.3229C23.213 40.3229 22.2705 41.0977 22.2705 42.1239C22.2705 42.8987 22.8151 43.4011 23.6108 43.4012C24.8254 43.4012 25.3701 42.8149 25.3701 41.6422C25.3701 40.8045 25.1187 40.3229 24.2182 40.3229ZM41.3625 32.9358C41.8861 32.9358 42.3466 33.4738 42.3466 33.9518C42.3466 34.5094 41.9488 34.9476 41.3625 34.9476C40.7971 34.9476 40.3782 34.589 40.3782 34.0512C40.3782 33.4537 40.6506 32.9358 41.3625 32.9358ZM17.6355 18.8432C17.758 18.7889 19.5047 18.809 19.5979 18.8658C19.6353 18.889 19.8322 18.9129 20.0352 18.919C20.3873 18.9295 20.7075 18.9763 21.1325 19.079C21.2394 19.1048 21.4035 19.1408 21.497 19.159C21.9226 19.2418 22.2849 19.3411 22.6528 19.4753C22.8718 19.5553 23.0508 19.6073 23.051 19.591C23.051 19.5746 23.0785 19.5836 23.1119 19.6109C23.1455 19.6383 23.379 19.7401 23.631 19.8371C23.8828 19.9341 24.1121 20.0323 24.1409 20.0556C24.1692 20.0789 24.411 20.2127 24.6781 20.3528C24.9453 20.4931 25.2404 20.6546 25.3339 20.7117C25.4274 20.7688 25.6089 20.8693 25.7372 20.935C25.8655 21.0007 26.0129 21.0934 26.0647 21.141C26.1165 21.1886 26.2519 21.2703 26.3656 21.3223C26.4793 21.3743 26.6271 21.4592 26.6939 21.5108C26.9673 21.7222 28.0206 22.3901 28.0807 22.3901C28.1163 22.3902 28.1742 22.4314 28.2094 22.4816C28.2446 22.5319 28.4152 22.6415 28.5885 22.7254C28.7618 22.8093 29.0787 22.976 29.2924 23.0957C29.5059 23.2151 29.7133 23.3266 29.7536 23.3434C29.7936 23.3601 30.0086 23.4502 30.231 23.5436C30.671 23.7284 30.7646 23.756 31.4535 23.9048C32.0144 24.0259 33.0224 24.0728 33.3965 23.9952C33.9159 23.8874 34.6408 23.6384 35.1058 23.4085C35.6686 23.1302 35.9579 22.9398 36.2956 22.6251C36.4343 22.4959 36.5799 22.3901 36.6194 22.3901C36.6589 22.3901 36.7253 22.3771 36.7669 22.3612C36.817 22.342 36.8609 22.3727 36.8972 22.4521C36.9434 22.5535 36.9314 22.609 36.8203 22.8091C36.4594 23.4593 35.753 24.1041 34.975 24.4939C34.2019 24.8812 33.6783 25.0122 32.8943 25.0141L32.4007 25.0152L32.604 25.1962C32.7158 25.2957 32.9016 25.4489 33.0169 25.5365C33.1321 25.6242 33.2919 25.7473 33.372 25.81C33.6325 26.0138 34.7229 26.5565 35.0856 26.6628C35.3737 26.7472 35.5712 26.7667 36.1542 26.7683C36.5702 26.7695 36.8946 26.7913 36.9299 26.8204C37.0183 26.8934 37.0039 27.0506 36.9054 27.0884C36.8586 27.1064 36.7331 27.1799 36.6263 27.2519C36.2868 27.4806 35.8687 27.5872 35.319 27.5852C34.7175 27.5831 34.393 27.5089 33.8619 27.2519C33.4611 27.0578 32.618 26.5158 32.4087 26.3178C32.2795 26.1955 31.7164 25.8269 31.4562 25.6941C31.0358 25.4797 30.355 25.3061 29.9298 25.305C29.6211 25.3042 28.8184 25.471 28.6608 25.5686C28.6073 25.6018 28.5029 25.644 28.4287 25.6622C28.1836 25.7226 26.7943 26.4362 26.3162 26.7473C26.1752 26.839 25.88 27.0034 25.6604 27.1126C25.4408 27.2218 25.209 27.3513 25.1452 27.4005C25.0815 27.4496 24.9821 27.49 24.9243 27.4901C24.8664 27.4901 24.7982 27.5092 24.7728 27.5326C24.7471 27.5562 24.6172 27.6353 24.4838 27.7088C24.2503 27.8376 24.0573 27.9177 23.3182 28.1918C23.1312 28.2612 22.9346 28.3383 22.8811 28.3636C22.8277 28.3887 22.6419 28.4444 22.4683 28.4869C22.2947 28.5295 21.9012 28.637 21.594 28.7259C20.5253 29.0353 19.4611 29.1879 18.3642 29.1887C17.7462 29.1891 16.7164 29.0695 16.2726 28.9457C16.084 28.8931 15.8846 28.8498 15.8298 28.8498C15.6586 28.8495 14.233 28.2838 13.8611 28.0685C12.8868 27.5045 12.4465 27.1651 11.7206 26.4182C11.1444 25.8254 10.8448 25.4112 10.4651 24.6834C10.3484 24.4598 10.3312 24.3712 10.3306 23.9934C10.3299 23.565 10.3331 23.5538 10.5932 23.0358C10.7381 22.7475 10.9175 22.4317 10.992 22.3341C11.0664 22.2364 11.2112 22.0451 11.3139 21.909C11.4166 21.7729 11.524 21.6759 11.5523 21.6934C11.5806 21.7108 11.59 21.7031 11.5733 21.6761C11.5387 21.6193 12.1913 20.9792 12.5043 20.763C12.6203 20.6829 12.7842 20.5601 12.8685 20.4903C12.9528 20.4204 13.1091 20.3161 13.2159 20.2585C13.3228 20.2008 13.5522 20.0632 13.7258 19.9525C13.8994 19.8418 14.2054 19.6909 14.4057 19.6173C14.6061 19.5437 14.8793 19.4404 15.0129 19.3879C15.489 19.2008 15.7441 19.121 15.9356 19.0989C16.0424 19.0866 16.1518 19.061 16.1785 19.042C16.2053 19.023 16.3252 19.0014 16.4452 18.9942C16.5651 18.987 16.7003 18.9612 16.7456 18.937C16.7909 18.9129 16.9878 18.8916 17.1831 18.8897C17.3785 18.8878 17.582 18.8669 17.6355 18.8432ZM19.5056 19.789C19.0546 19.745 17.8049 19.7322 17.4412 19.768C16.924 19.819 15.8616 20.0579 15.3654 20.2348C14.915 20.3954 14.221 20.7376 13.8472 20.9831C13.687 21.0884 13.4922 21.2129 13.4142 21.2601C13.3363 21.3073 13.2073 21.406 13.1276 21.4794C13.0481 21.5529 12.9652 21.6131 12.9434 21.6131C12.8825 21.6131 12.1032 22.4305 11.8785 22.7301C11.617 23.0789 11.3255 23.5815 11.2509 23.8123C11.1758 24.045 11.2157 24.1635 11.5353 24.6582C11.93 25.2692 12.07 25.4399 12.618 25.9775C12.9037 26.2577 13.1331 26.5091 13.1279 26.5363C13.1228 26.5634 13.1625 26.5946 13.2159 26.6056C13.2693 26.6167 13.3457 26.6548 13.3858 26.6902C13.4258 26.7256 13.4697 26.7528 13.4831 26.7508C13.5476 26.7412 13.7258 26.8217 13.7258 26.8606C13.7258 26.8848 13.8898 26.9946 14.0902 27.1046C14.3022 27.2209 14.4409 27.3259 14.4228 27.3561C14.4038 27.3867 14.4139 27.3934 14.4477 27.3726C14.4792 27.3534 14.6411 27.4073 14.8074 27.4924C14.974 27.5776 15.3271 27.718 15.5921 27.8045C15.8569 27.891 16.0426 27.973 16.005 27.9869C15.9669 28.0006 15.9903 28.0108 16.0571 28.0095C16.1238 28.0082 16.4556 28.055 16.7942 28.1134C17.2667 28.1949 17.6238 28.2208 18.331 28.2251C18.8377 28.2281 19.2748 28.2168 19.3023 28.1998C19.3298 28.1829 19.5125 28.1557 19.7082 28.1395C19.9038 28.1232 20.104 28.0889 20.1532 28.0632C20.2022 28.0375 20.2524 28.0266 20.2649 28.039C20.2772 28.0514 20.3683 28.0415 20.4671 28.0172C20.566 27.9929 20.7451 27.9528 20.8654 27.9281C21.4496 27.8083 22.4645 27.5239 22.6435 27.4297C22.7208 27.389 22.8933 27.3122 23.0268 27.2588C23.1604 27.2054 23.4336 27.0934 23.634 27.01C23.834 26.9266 24.0232 26.8585 24.0548 26.8584C24.0859 26.8585 24.1189 26.8382 24.1279 26.8135C24.1379 26.7882 24.538 26.5668 25.0181 26.3209C25.499 26.0747 25.9471 25.8361 26.0139 25.7906C26.2394 25.6373 28.2992 24.6246 28.3859 24.6244C28.4328 24.6244 28.4921 24.6063 28.5175 24.5843C28.5796 24.5303 28.9039 24.4414 29.1664 24.4065C29.4934 24.3629 29.4963 24.3314 29.1871 24.1933C28.942 24.0838 28.7616 23.9847 28.3372 23.7265C28.2928 23.6994 28.1289 23.6026 27.9731 23.5114C27.8172 23.4203 27.5884 23.2728 27.4645 23.1836C27.3409 23.0946 27.2207 23.0214 27.1974 23.021C27.1743 23.0207 27.0641 22.9498 26.9528 22.8633C26.8414 22.7768 26.6366 22.6404 26.498 22.5603C26.0389 22.2949 25.9932 22.2664 25.4796 21.9271C25.1991 21.7418 24.8604 21.533 24.7268 21.4629C24.5932 21.393 24.3855 21.2813 24.2653 21.2147C23.7772 20.9441 23.5327 20.8316 22.9298 20.6011C22.5825 20.4684 22.1124 20.3115 21.8853 20.2526C21.6583 20.1937 21.3742 20.116 21.254 20.0798C20.9844 19.9988 20.0315 19.8403 19.5056 19.789ZM40.1538 5.18125C41.4731 5.18127 42.7924 6.52156 42.7924 7.84086V13.9977C42.7924 14.6888 44.007 14.3538 44.007 15.0448C44.007 15.7568 42.96 15.6939 42.5202 15.6939C41.7663 15.6939 41.2427 15.2333 40.5098 15.2333C39.6721 15.2333 38.8972 15.6732 38.0386 15.6732C36.824 15.6732 35.7352 14.6678 35.7352 13.4323C35.7353 9.91417 40.1537 11.4219 40.782 9.66284V8.55301C40.782 7.65253 40.8239 6.01893 39.5047 6.01887C38.4576 6.01887 38.1852 7.56865 37.0753 7.56865C36.7193 7.56861 36.3007 7.35908 36.3007 6.96123C36.3008 5.47449 39.2324 5.18125 40.1538 5.18125ZM14.3292 5.20198C16.193 5.20198 17.7637 6.64706 17.7637 8.55274V9.09716C17.6171 9.28563 17.4286 9.45328 17.1983 9.5161C16.6119 9.49516 13.8685 9.49516 13.2821 9.5161C12.4026 9.558 11.7326 9.87203 11.7326 10.7934C11.7326 12.6991 13.4915 14.4164 15.3763 14.4164C15.9208 14.4164 16.4653 14.2696 17.0098 14.2696C17.2192 14.2696 17.3447 14.3116 17.3447 14.5628C17.3447 15.5262 14.5596 15.6729 13.9732 15.6729C11.2508 15.6729 9.93159 13.1389 9.93159 10.7097C9.93159 8.07104 11.3555 5.20202 14.3292 5.20198ZM5.40641 3.17319C6.13936 3.17319 5.46947 4.96179 7.10292 5.27376C7.58457 5.3569 8.23375 5.16995 8.23375 5.75225C8.23364 6.79202 5.97184 5.9186 5.97182 7.3536V13.8635C5.97196 14.7367 7.83523 14.6952 8.06601 14.6952C8.08696 14.716 8.08701 14.8201 8.08701 14.8409C8.08696 15.548 6.66294 15.6727 6.18129 15.6727C4.6317 15.6726 3.87793 14.5081 3.8779 13.0731C3.8779 11.7213 4.02437 10.39 4.02437 9.03815C4.02437 8.20629 4.04542 7.76946 3.8779 6.93757C3.7941 6.52165 3.31248 6.33439 3.31248 5.89766C3.31248 5.85596 3.31234 5.71073 3.33322 5.68978C3.60543 5.37784 4.9665 3.17359 5.40641 3.17319ZM24.8105 5.18125C25.4387 5.18129 26.2973 5.4955 26.2973 6.24935C26.2973 6.83571 25.9411 7.02423 25.3967 7.02423C24.7475 7.02421 24.2031 6.71005 23.5539 6.71003C23.0304 6.71003 22.3601 7.08714 22.3601 7.71539V14.8353C22.3601 15.0866 22.1718 15.4008 21.9414 15.5265C21.8577 15.5265 21.4599 15.5475 21.376 15.5475C21.1247 15.5475 20.4127 15.6101 20.4127 15.1075V6.16561C20.4127 5.68397 21.0827 5.45347 21.4387 5.45346C21.8994 5.45346 22.2764 5.62117 22.7371 5.6212C23.47 5.6212 24.0566 5.18125 24.8105 5.18125ZM32.7755 5.18125C33.4038 5.18125 34.2623 5.49545 34.2623 6.24935C34.2623 6.83571 33.9064 7.02423 33.3619 7.02423C32.7127 7.02423 32.1681 6.71003 31.5189 6.71003C30.9954 6.71008 30.3254 7.08719 30.3254 7.71539V14.8353C30.3254 15.0866 30.1368 15.4008 29.9064 15.5265C29.8224 15.5265 29.4247 15.5475 29.341 15.5475C29.0896 15.5475 28.3779 15.61 28.3779 15.1075V6.16561C28.3779 5.68395 29.048 5.45346 29.404 5.45346C29.8647 5.45347 30.2416 5.62119 30.7023 5.6212C31.4353 5.6212 32.0216 5.18127 32.7755 5.18125ZM39.6301 11.1916C38.625 11.1917 37.6827 11.9665 37.6827 12.9926C37.6827 13.7674 38.2272 14.2699 39.023 14.2699C40.2376 14.2699 40.782 13.6836 40.782 12.5109C40.782 11.6733 40.5306 11.1916 39.6301 11.1916ZM14.2664 6.01887C13.345 6.01887 12.1723 7.00307 12.1723 7.98733C12.1723 8.74116 13.1565 8.82495 13.68 8.82495C14.5386 8.82495 16.0884 8.88775 16.0884 7.69412C16.0884 6.7727 15.146 6.0189 14.2664 6.01887Z" fill="#DEDBCA"/>
</svg>
