<svg width="132" height="40" viewBox="0 0 132 40" fill="none" xmlns="http://www.w3.org/2000/svg">
<path d="M126.916 20.6499V6.66126C126.916 5.7953 128.115 5.52885 128.715 5.52885C129.381 5.52885 129.581 5.56216 129.814 6.22828C129.947 11.1243 130.047 15.987 130.047 20.8831C129.914 21.6824 129.048 21.5825 128.481 21.5825C128.348 21.5825 127.715 21.5492 127.582 21.5492C127.416 21.416 126.916 20.9497 126.916 20.6499ZM126.916 1.86515C126.916 0.865963 127.349 0 128.481 0C129.314 0 130.047 0.899271 130.047 1.69862C130.047 2.6312 129.414 3.36394 128.481 3.36394C127.582 3.36394 126.916 2.76443 126.916 1.86515Z" fill="#283122"/>
<path d="M111.42 20.4033C111.42 20.3102 111.42 19.9375 111.42 19.9064C111.453 17.0493 111.586 5.83725 111.62 2.98011C111.953 2.60744 112.386 2.1416 112.952 2.1416C113.385 2.1416 114.417 2.76272 114.417 3.1975V10.5897C114.417 10.9623 115.084 11.2108 115.417 11.2108C115.65 11.2108 115.85 11.1797 116.083 10.9934L120.513 6.86296C120.579 6.80085 121.212 6.49029 121.412 6.42818C121.412 6.42818 121.578 6.42818 121.612 6.42818C122.011 6.42818 122.078 6.64557 122.078 6.98719C122.078 9.03687 117.382 9.65799 117.382 12.1425C117.382 14.3785 122.511 19.0679 123.843 20.5275C123.843 20.5897 123.876 20.8692 123.876 20.9313C123.876 21.7698 122.977 21.5834 122.278 21.5834C122.111 21.5834 121.345 21.5524 121.179 21.5524C119.114 20.4033 117.049 15.5276 115.184 15.5276C114.884 15.5276 114.517 15.8692 114.517 16.1797V20.9313L113.851 21.5524H112.086C111.62 21.5524 111.42 20.6828 111.42 20.4033Z" fill="#283122"/>
<path d="M98.6832 21.7822C96.7515 21.7822 95.0195 20.1835 95.0195 18.2184C95.0195 12.6229 102.047 15.021 103.046 12.2233C103.046 11.9568 103.046 10.7245 103.046 10.458C103.046 9.02585 103.113 6.42796 101.015 6.42796C99.3493 6.42796 98.9164 8.89262 97.1511 8.89262C96.5849 8.89262 95.9188 8.55956 95.9188 7.92674C95.9188 5.56199 100.582 5.0957 102.047 5.0957C104.145 5.0957 106.244 7.22731 106.244 9.32561V19.1177C106.244 20.2168 108.176 19.6839 108.176 20.783C108.176 21.9154 106.51 21.8155 105.811 21.8155C104.612 21.8155 103.779 21.0827 102.613 21.0827C101.281 21.0827 100.049 21.7822 98.6832 21.7822ZM101.215 14.6546C99.6158 14.6546 98.117 15.887 98.117 17.519C98.117 18.7513 98.983 19.5507 100.249 19.5507C102.18 19.5507 103.046 18.6181 103.046 16.7529C103.046 15.4207 102.647 14.6546 101.215 14.6546Z" fill="#283122"/>
<path d="M69.398 21.5823C69.2648 21.5823 67.9658 21.6156 67.9658 21.116V6.89424C67.9658 5.92836 68.8651 5.52868 69.6644 5.52868C70.5304 5.52868 71.1965 6.26143 72.0625 6.26143C73.5946 6.26143 74.9935 5.0957 76.6255 5.0957C78.1243 5.0957 79.3233 5.99497 80.6222 6.6611C80.7221 6.69441 81.1884 6.72771 81.2884 6.72771C83.1868 6.72771 84.6523 5.0957 86.6174 5.0957C88.7157 5.0957 91.0471 7.39384 91.0471 9.55875V20.6498C91.0471 20.8496 90.5475 21.549 90.381 21.549H88.6157L87.9496 20.8829V10.891C87.9496 8.99254 86.5508 7.32723 84.6523 7.32723C83.7863 7.32723 81.0552 7.42715 81.0552 8.89262V20.4499C81.0552 20.8496 80.7555 21.3492 80.3891 21.549C80.2559 21.549 79.623 21.5823 79.4898 21.5823C79.0901 21.5823 77.9577 21.6823 77.9577 20.8829V11.324C77.9577 10.2249 77.3915 7.32723 75.7262 7.32723H72.3956C71.9959 7.32723 71.0633 8.52625 71.0633 9.12577V20.4499C71.0633 21.4491 70.164 21.5823 69.398 21.5823Z" fill="#283122"/>
<path d="M55.2301 21.7822C53.2983 21.7822 51.5664 20.1835 51.5664 18.2184C51.5664 12.6229 58.594 15.021 59.5932 12.2233C59.5932 11.9568 59.5932 10.7245 59.5932 10.458C59.5932 9.02585 59.6598 6.42796 57.5615 6.42796C55.8962 6.42796 55.4632 8.89262 53.698 8.89262C53.1318 8.89262 52.4657 8.55956 52.4657 7.92674C52.4657 5.56199 57.1286 5.0957 58.594 5.0957C60.6923 5.0957 62.7906 7.22731 62.7906 9.32561V19.1177C62.7906 20.2168 64.7224 19.6839 64.7224 20.783C64.7224 21.9154 63.0571 21.8155 62.3577 21.8155C61.1586 21.8155 60.326 21.0827 59.1602 21.0827C57.828 21.0827 56.5957 21.7822 55.2301 21.7822ZM57.7614 14.6546C56.1627 14.6546 54.6639 15.887 54.6639 17.519C54.6639 18.7513 55.5299 19.5507 56.7955 19.5507C58.7273 19.5507 59.5932 18.6181 59.5932 16.7529C59.5932 15.4207 59.1936 14.6546 57.7614 14.6546Z" fill="#283122"/>
<path d="M41.3963 21.5823C40.9967 21.5823 39.8643 21.6823 39.8643 20.8829V6.6611C39.8643 5.89505 40.9301 5.52868 41.4963 5.52868C42.229 5.52868 42.8285 5.79514 43.5613 5.79514C44.727 5.79514 45.6596 5.0957 46.8586 5.0957C47.8578 5.0957 49.2233 5.5953 49.2233 6.79433C49.2233 7.7269 48.6571 8.02666 47.7912 8.02666C46.7587 8.02666 45.8927 7.52706 44.8602 7.52706C44.0275 7.52706 42.9617 8.12658 42.9617 9.12577V20.4499C42.9617 20.8496 42.662 21.3492 42.2956 21.549C42.1624 21.549 41.5296 21.5823 41.3963 21.5823Z" fill="#283122"/>
<path d="M28.7294 21.5823C28.3297 21.5823 27.1973 21.6823 27.1973 20.8829V6.6611C27.1973 5.89505 28.2631 5.52868 28.8293 5.52868C29.562 5.52868 30.1615 5.79514 30.8943 5.79514C32.06 5.79514 32.9926 5.0957 34.1916 5.0957C35.1908 5.0957 36.5563 5.5953 36.5563 6.79433C36.5563 7.7269 35.9901 8.02666 35.1242 8.02666C34.0917 8.02666 33.2257 7.52706 32.1932 7.52706C31.3606 7.52706 30.2948 8.12658 30.2948 9.12577V20.4499C30.2948 20.8496 29.995 21.3492 29.6286 21.549C29.4954 21.549 28.8626 21.5823 28.7294 21.5823Z" fill="#283122"/>
<path d="M16.9555 21.7821C12.6256 21.7821 10.5273 17.752 10.5273 13.8885C10.5273 9.69187 12.7922 5.12891 17.5217 5.12891C20.4859 5.12891 22.9839 7.42704 22.9839 10.4579C22.9839 10.5911 22.9839 11.1907 22.9839 11.3239C22.7508 11.6236 22.451 11.8901 22.0846 11.99C21.1521 11.9567 16.7889 11.9567 15.8564 11.99C14.4575 12.0566 13.3917 12.5562 13.3917 14.0217C13.3917 17.0526 16.1894 19.7837 19.187 19.7837C20.053 19.7837 20.9189 19.5505 21.7849 19.5505C22.1179 19.5505 22.3178 19.6172 22.3178 20.0168C22.3178 21.5489 17.888 21.7821 16.9555 21.7821ZM14.0911 9.55865C14.0911 10.7577 15.6565 10.8909 16.4892 10.8909C17.8547 10.8909 20.3194 10.9908 20.3194 9.09236C20.3194 7.62688 18.8206 6.42785 17.4218 6.42785C15.9563 6.42785 14.0911 7.99325 14.0911 9.55865Z" fill="#283122"/>
<path d="M0.899271 17.6474C0.899271 15.4973 1.13242 13.3803 1.13242 11.2303C1.13242 9.90717 1.16572 9.21253 0.899271 7.88942C0.766046 7.22787 0 6.93017 0 6.23553C0 6.16938 -1.09053e-07 5.93783 0.0333063 5.90476C0.466289 5.40859 2.6312 1.90234 3.33063 1.90234C4.49635 1.90234 3.43055 4.74703 6.02845 5.2432C6.79449 5.37551 7.82699 5.07781 7.82699 6.00399C7.82699 7.65788 4.2299 6.26861 4.2299 8.55098V18.9043C4.2299 20.2936 7.19417 20.2274 7.56054 20.2274C7.59384 20.2605 7.59384 20.4259 7.59384 20.459C7.59384 21.5836 5.32901 21.7821 4.56297 21.7821C2.0983 21.7821 0.899271 19.9297 0.899271 17.6474Z" fill="#283122"/>
<path d="M52.99 24.6025C53.2364 24.7394 53.3733 25.0132 53.2638 25.287C53.5102 25.1227 53.8114 25.0132 54.1673 25.068C54.5506 25.068 54.797 25.3417 55.0981 25.5334C55.6183 25.8893 56.1932 26.3547 57.0419 26.4642C57.5621 26.5464 58.0549 26.4916 58.3835 26.4642C58.8215 26.4368 59.2869 26.0536 59.8892 26.4642C60.0535 27.2856 59.0953 27.3129 58.5477 27.4224C57.7264 27.4498 57.0693 27.4224 56.4396 27.2582C55.8099 27.0392 55.454 26.8475 54.9612 26.4642C54.6601 26.2452 54.3589 25.944 54.1399 25.944C53.7019 25.9167 53.346 26.3273 52.9627 26.6285C52.2235 27.2582 51.7581 27.7784 51.2379 28.4902C50.9641 28.764 50.7998 29.3389 50.1975 29.0651C49.9237 28.6271 50.1428 28.3533 50.3344 28.0521C50.3618 28.0521 50.4987 27.97 50.4987 27.97C50.5534 27.8605 50.6082 27.7236 50.7177 27.532C50.7177 27.532 50.8272 27.5046 50.8272 27.4498C50.9641 27.2856 51.101 27.0939 51.2379 26.8749C51.6212 26.3 51.9497 25.6429 52.3877 25.068C52.4151 25.0132 52.5246 24.9858 52.5246 24.9858C52.552 24.8763 52.5246 24.8216 52.6341 24.8216C52.6341 24.7121 52.7984 24.7394 52.771 24.6025C52.8805 24.6025 52.9079 24.6025 52.99 24.6025ZM60.6276 27.4772C60.7645 27.8605 61.0109 28.1069 61.2299 28.2164C61.5584 28.3807 62.2428 28.4628 62.6809 28.408C63.6117 28.3259 64.7616 27.8057 65.4187 27.4772C66.4316 26.957 67.472 26.1631 67.6636 26.7106C67.8005 27.3403 67.0613 27.5046 66.5685 27.8057C66.4864 27.8605 66.4316 27.8605 66.2674 27.9426C66.0483 28.0521 65.8841 28.2438 65.7198 28.2985C65.5282 28.4628 65.2544 28.5176 65.0354 28.5997C63.9676 28.983 62.4071 29.421 61.2846 29.0925C60.9013 28.9282 60.4907 28.7913 60.2443 28.5449C60.1895 28.4354 60.2169 28.3259 60.1348 28.2164C60.1348 28.189 59.9979 28.0521 59.9979 28.0521C59.6967 27.4498 59.9157 27.0118 59.9979 26.6285C60.2169 26.2178 60.2717 26.1083 60.6002 25.725C61.0382 25.2049 61.7501 24.5752 62.763 24.3561C63.6391 24.055 64.9259 24.055 65.0901 24.8489C65.1996 25.1501 64.9806 25.6976 64.8164 25.9167C64.7616 26.0536 64.5426 26.1357 64.4331 26.2178C64.2962 26.3 64.1593 26.4368 64.0224 26.519C63.1189 27.1213 61.9417 27.7236 60.6276 27.4772ZM60.8192 26.8749C61.8322 26.9023 62.6261 26.4642 63.3106 26.0262C63.776 25.7524 64.2414 25.5881 64.2962 25.068C62.7356 24.8216 61.2299 25.725 60.8192 26.8749ZM70.9119 24.9311C70.8298 25.3965 70.1454 25.5334 69.7347 25.8072C69.324 26.0536 68.886 26.3273 68.6122 26.7654C68.7491 27.0665 68.9134 27.3951 69.1324 27.5593C70.3918 27.1487 71.9797 26.5464 73.7592 26.4095C74.2794 26.3547 75.0186 26.2178 75.3745 26.7654C75.265 27.5593 74.2246 27.2856 73.6497 27.3677C72.1439 27.4224 70.556 28.0248 69.4062 28.4354C69.4336 29.1746 69.1324 29.8591 68.7491 30.4066C68.5848 30.5709 68.5027 30.8173 68.4206 30.8994C68.3384 30.9815 68.2016 30.9815 68.0647 31.0637C67.9004 31.2279 67.654 31.5017 67.3802 31.6386C66.7505 32.0219 66.203 32.1862 65.1079 32.1314C64.971 31.9945 64.6972 31.885 64.6425 31.7481C64.3687 31.2279 64.8615 30.4887 65.2448 30.0781C65.3543 29.9138 65.4638 29.7222 65.5185 29.6674C65.6281 29.5853 65.7649 29.5031 65.9018 29.421C66.4494 28.983 67.5992 28.2438 68.3384 27.97C68.0099 27.4772 67.7635 27.1487 67.8183 26.5737C67.9278 25.8072 69.3514 25.0406 70.1454 24.6299C70.2549 24.5752 70.8298 24.5752 70.9119 24.9311ZM65.4638 31.3375C67.1065 31.2279 67.9278 30.2697 68.4753 29.0925C68.4753 28.983 68.4753 28.8735 68.3384 28.9008C67.2707 29.5853 65.984 30.1055 65.4638 31.3375ZM76.1334 27.4772C76.2703 27.8605 76.5167 28.1069 76.7357 28.2164C77.0642 28.3807 77.7487 28.4628 78.1867 28.408C79.1176 28.3259 80.2674 27.8057 80.9245 27.4772C81.9375 26.957 82.9778 26.1631 83.1695 26.7106C83.3063 27.3403 82.5671 27.5046 82.0743 27.8057C81.9922 27.8605 81.9375 27.8605 81.7732 27.9426C81.5542 28.0521 81.3899 28.2438 81.2256 28.2985C81.034 28.4628 80.7602 28.5176 80.5412 28.5997C79.4735 28.983 77.9129 29.421 76.7905 29.0925C76.4072 28.9282 75.9965 28.7913 75.7501 28.5449C75.6953 28.4354 75.7227 28.3259 75.6406 28.2164C75.6406 28.189 75.5037 28.0521 75.5037 28.0521C75.2025 27.4498 75.4216 27.0118 75.5037 26.6285C75.7227 26.2178 75.7775 26.1083 76.106 25.725C76.5441 25.2049 77.2559 24.5752 78.2688 24.3561C79.1449 24.055 80.4317 24.055 80.596 24.8489C80.7055 25.1501 80.4864 25.6976 80.3222 25.9167C80.2674 26.0536 80.0484 26.1357 79.9389 26.2178C79.802 26.3 79.6651 26.4368 79.5282 26.519C78.6248 27.1213 77.4475 27.7236 76.1334 27.4772ZM76.325 26.8749C77.338 26.9023 78.132 26.4642 78.8164 26.0262C79.2818 25.7524 79.7472 25.5881 79.802 25.068C78.2415 24.8216 76.7357 25.725 76.325 26.8749ZM84.8572 24.6025C85.1036 24.7394 85.2405 25.0132 85.131 25.287C85.3774 25.1227 85.6786 25.0132 86.0345 25.068C86.4178 25.068 86.6642 25.3417 86.9653 25.5334C87.4855 25.8893 88.0604 26.3547 88.9091 26.4642C89.4293 26.5464 89.9221 26.4916 90.2507 26.4642C90.6887 26.4368 91.1541 26.0536 91.7564 26.4642C91.9207 27.2856 90.9625 27.3129 90.4149 27.4224C89.5936 27.4498 88.9365 27.4224 88.3068 27.2582C87.6771 27.0392 87.3212 26.8475 86.8284 26.4642C86.5273 26.2452 86.2261 25.944 86.0071 25.944C85.5691 25.9167 85.2132 26.3273 84.8299 26.6285C84.0907 27.2582 83.6253 27.7784 83.1051 28.4902C82.8313 28.764 82.667 29.3389 82.0647 29.0651C81.7909 28.6271 82.01 28.3533 82.2016 28.0521C82.229 28.0521 82.3659 27.97 82.3659 27.97C82.4206 27.8605 82.4754 27.7236 82.5849 27.532C82.5849 27.532 82.6944 27.5046 82.6944 27.4498C82.8313 27.2856 82.9682 27.0939 83.1051 26.8749C83.4884 26.3 83.8169 25.6429 84.2549 25.068C84.2823 25.0132 84.3918 24.9858 84.3918 24.9858C84.4192 24.8763 84.3918 24.8216 84.5013 24.8216C84.5013 24.7121 84.6656 24.7394 84.6382 24.6025C84.7477 24.6025 84.7751 24.6025 84.8572 24.6025ZM97.6418 23.5622C97.9429 24.2193 97.587 24.7668 97.2311 25.3417C97.0942 25.5334 96.9847 25.6155 96.8204 25.9167C96.2729 27.0665 98.6 26.6559 99.5582 26.4642C100.215 26.4095 101.037 26.0262 101.31 26.5737C101.283 27.1487 100.489 27.2582 99.832 27.4224C98.4631 27.6688 96.7109 27.8879 95.9717 26.957C95.2599 27.4498 94.4933 28.5997 93.6173 29.0103C92.7412 29.421 91.9746 29.1746 91.8651 28.0795C91.8377 27.8879 91.8651 27.3951 91.8651 27.0665C91.9472 26.3547 92.002 25.3417 92.5495 25.3417C93.0423 25.506 92.7138 26.1631 92.7138 26.6559C92.659 27.1487 92.5221 27.6688 92.7685 28.0248C93.0423 28.5723 93.891 27.7236 94.6028 26.9844C94.6576 26.9844 94.685 26.8475 94.685 26.8475C94.7397 26.8201 94.8219 26.8475 94.8766 26.8475C94.9588 26.8201 94.8219 26.7106 94.8766 26.6559C94.9588 26.6011 95.0956 26.6011 95.2052 26.4642C95.2325 26.4368 95.2325 26.3273 95.2599 26.2452C95.6158 25.9167 95.917 25.7524 96.0539 25.3417C96.1908 24.8489 96.3824 24.274 96.7109 23.836C96.8204 23.6991 97.2585 23.3158 97.6418 23.5622ZM101.749 28.4902C102.488 28.7092 103.146 28.2712 103.666 27.97C104.788 27.3951 105.692 26.6559 106.568 25.725C106.978 25.3144 107.416 24.7394 108.128 24.7394C108.648 25.0953 108.156 25.725 108.019 26.3273C107.855 26.9844 107.772 27.5593 108.238 27.97C109.004 28.0795 109.607 27.8605 110.072 27.5593C110.592 27.3403 111.003 26.9844 111.523 26.738C111.578 26.738 111.578 26.5737 111.633 26.5737C111.824 26.4642 112.208 26.2726 112.427 26.5737C112.646 26.9023 112.372 27.176 112.043 27.4772C111.797 27.7236 111.386 27.8605 111.112 27.97C110.948 28.0795 110.839 28.2712 110.674 28.3533C110.072 28.5997 108.785 29.202 107.827 28.8187C107.197 28.5449 106.924 27.7236 107.033 26.6832C106.814 26.5737 106.65 26.9023 106.403 27.0665C105.555 27.8605 104.487 28.7092 103.091 29.1746C102.844 29.2294 102.543 29.3663 102.269 29.421C101.12 29.5031 100.517 28.9556 100.901 27.6962C100.901 27.5867 101.065 27.532 101.092 27.4772C101.12 27.2034 101.229 27.0392 101.366 26.738C102.05 25.7798 103.501 24.7668 104.597 24.6573C105.692 24.493 106.294 24.7394 106.759 25.3144C106.759 25.4239 106.759 25.4513 106.65 25.506C106.65 25.5608 106.65 25.6703 106.568 25.6703C106.623 25.725 106.568 25.725 106.513 25.725C106.02 25.7798 105.692 25.506 105.281 25.506C104.514 25.4513 103.693 25.8345 103.146 26.2452C102.434 26.7654 101.777 27.5867 101.749 28.4902ZM116.417 28.1616C116.198 28.189 115.979 28.408 115.596 28.6544C115.158 28.8461 114.227 29.4484 113.378 29.421C111.736 29.3389 111.873 27.176 112.94 25.9988C113.187 25.7524 113.57 25.5608 113.816 25.4239C114.501 24.9585 115.322 24.6025 116.363 24.7394C116.773 24.8216 117.129 25.0132 117.567 25.2596C117.649 24.8489 117.841 24.4109 118.06 23.9455C118.169 23.5348 118.334 23.0968 118.553 22.7956C118.662 22.6587 118.772 22.2481 118.881 21.9743C119.1 21.6458 119.265 21.2625 119.511 20.8244C119.566 20.6875 119.566 20.578 119.648 20.4959C119.73 20.2769 119.867 20.2221 120.004 19.9483C120.414 18.9627 121.208 18.0045 121.756 16.9915C121.92 16.6904 122.413 16.0333 122.659 15.7322C122.769 15.65 122.851 15.7048 122.961 15.5953C123.015 15.4584 123.289 15.1572 123.618 15.1025C124.11 15.0477 124.521 15.3763 124.631 15.65C124.85 16.1976 124.384 17.2927 124.11 17.9224C122.796 21.3994 120.305 24.3835 117.841 26.9023C117.485 27.9426 117.184 28.8735 116.883 29.8864C116.664 30.8173 116.445 31.9124 116.335 33.0896C116.308 33.3634 116.308 33.7467 116.253 34.1574C116.171 34.7049 116.472 35.0882 115.924 35.1703C115.213 35.2798 115.377 34.0205 115.377 33.555C115.514 31.5565 115.897 29.7769 116.417 28.1616ZM119.894 22.029C119.867 22.2481 119.785 22.4123 119.703 22.4671C119.648 22.5766 119.62 22.6861 119.566 22.7409C119.511 22.7956 119.456 22.9599 119.429 22.9873C119.21 23.3432 119.1 23.836 118.991 24.1919C118.963 24.274 118.608 24.493 118.827 24.6299C120.77 22.3028 122.55 19.8936 123.535 16.8547C123.946 15.7595 123.563 16.1428 123.152 16.6904C121.811 18.3057 120.716 20.2221 119.894 22.029ZM116.089 25.5608C115.596 25.506 115.076 25.725 114.802 25.8893C114.282 26.0809 114.172 26.0809 113.816 26.4916C113.488 26.7654 113.351 26.9844 113.296 27.2308C113.296 27.2308 113.132 27.3129 113.105 27.3403C113.022 27.6141 112.968 28.0248 113.022 28.3807C113.816 28.7092 114.829 28.0521 115.213 27.8057C115.569 27.6688 115.705 27.532 116.007 27.3129C116.472 26.957 117.102 26.5464 117.184 25.9988C116.855 25.7524 116.445 25.5334 116.089 25.5608ZM126.048 26.8749C126.541 27.176 128.403 26.957 128.977 26.8749C129.388 26.8475 129.936 26.6559 130.319 26.5464C130.73 26.4642 131.113 26.3273 131.113 26.7928C131.031 27.3951 130.538 27.4224 129.99 27.532C129.47 27.6962 128.731 27.8331 128.074 27.8605C127.253 27.9426 126.294 27.6962 125.528 27.8605C125.336 27.9426 125.391 27.97 125.227 28.1343C125.09 28.2438 125.008 28.2438 124.843 28.3259C124.597 28.5176 124.433 28.764 124.049 28.983C123.83 29.0651 123.201 29.3115 122.79 29.202C122.598 29.1746 122.379 28.9008 122.215 28.7913C121.996 28.189 122.188 27.5046 122.352 26.957C122.462 26.7106 122.489 26.4368 122.626 26.2178C122.653 26.1631 122.763 26.1083 122.79 26.0536C122.79 26.0262 122.845 25.8893 122.872 25.8893C122.982 25.8072 123.091 25.8072 123.201 25.6976C123.228 25.6703 123.228 25.506 123.283 25.4786C123.31 25.4239 123.447 25.3965 123.475 25.3965C123.584 25.2596 123.502 25.1227 123.611 25.0132C123.694 24.9858 123.83 25.0132 123.858 24.9311C123.885 24.9311 123.885 24.8216 123.995 24.8216C124.542 24.4383 125.72 24.4383 126.13 25.0132C126.459 25.506 126.267 26.3273 126.048 26.8749ZM123.995 26.2178C124.186 26.5464 124.542 26.7654 125.117 26.7654C125.227 26.4368 125.473 26.1083 125.336 25.506C124.707 25.287 124.104 25.6976 123.995 26.2178ZM122.927 28.3259C123.31 28.3533 123.584 28.189 123.776 28.0521C124.022 27.9426 124.268 27.8331 124.378 27.532C123.83 27.4498 123.584 27.1487 123.201 26.8749C123.091 27.3129 122.872 27.6962 122.927 28.3259Z" fill="#9AB1AB"/>
</svg>
