<svg width="215" height="569" viewBox="0 0 215 569" fill="none" xmlns="http://www.w3.org/2000/svg">
<path d="M186.18 79.1832C186.18 78.5644 186.854 78.4519 186.63 77.8332C150.899 108.376 111.967 134.924 76.9668 162.711C102.866 124.969 131.63 98.4198 150.057 58.8778C135.394 78.7894 122.866 109.219 100.619 101.57C101.742 101.963 107.529 92.0638 108.147 91.1639C111.63 85.6516 114.944 80.0269 118.203 74.3459C125.956 60.959 133.427 47.4595 141.461 34.2414C144.439 29.3478 147.192 24.3981 150.338 19.617C153.371 15.061 156.461 10.0549 161.517 7.58005C162.922 6.90508 164.495 6.39885 165.956 6.84883C167.248 7.29881 168.259 8.48001 168.652 9.82995C170.169 14.2735 168.765 18.5483 167.472 22.8231C166.461 26.1417 165.169 29.3478 163.933 32.554C162.135 37.1662 160.281 41.7785 158.484 46.3908C163.147 39.8099 167.753 32.9477 170.506 25.3543C172.529 19.6733 176.854 -1.36331 165.562 0.042877C158.09 0.999085 151.124 8.98623 146.742 14.4985C144.607 17.2546 142.416 20.292 141.349 23.6106C140.899 23.2731 141.461 22.7106 140.787 22.3731C134.326 52.6343 104.832 78.9582 93.596 97.8573C89.214 107.588 75.0567 110.907 71.405 115.463C71.6859 114.563 71.9106 113.719 72.1354 112.932C58.877 128.737 51.9668 157.536 42.3039 165.636C34.2702 182.285 25.8432 197.472 17.1353 209.846C16.8545 202.759 18.2589 195.616 20.1129 188.753C23.9331 174.466 29.8882 160.742 36.3488 147.468C43.3151 133.237 51.1803 119.344 59.6073 105.957C66.405 95.1574 73.596 84.4142 81.7421 74.5709C83.259 72.7147 91.1241 61.8027 94.5511 63.6588C96.1241 64.5025 95.1691 67.8774 94.9444 69.1148C94.3264 72.096 93.4837 75.0771 92.3039 77.8895C90.8432 81.3206 89.3264 84.6392 87.641 87.9578C86.1803 90.8826 84.7196 94.9324 82.5286 97.2948C90.1129 88.9702 97.641 79.6331 99.3264 68.4961C99.7758 65.5713 100.057 59.609 95.8994 59.4403C93.0904 59.3278 89.8882 61.6339 87.6971 63.0964C84.2702 65.4025 81.0679 68.1024 78.0342 70.971C77.2477 71.7585 70.6747 77.777 71.2365 78.8457C70.9556 78.2832 71.5174 77.777 71.0117 77.327C46.7983 109.838 31.7421 147.58 11.5735 176.716C6.51736 153.43 -7.92084 183.41 -12.8647 182.904C-20.9545 205.459 -28.9883 227.845 -40.168 246.126C-56.404 150.786 -67.3029 219.464 -75.9545 263.338C-76.0107 262.775 -76.0669 262.438 -76.1231 261.875C-91.1231 291.405 -111.91 317.785 -132.359 340.172C-131.966 339.722 -132.471 336.234 -132.528 335.559C-132.528 333.31 -132.528 331.06 -132.415 328.81C-132.247 322.735 -131.91 316.66 -131.46 310.642C-130.393 295.792 -128.932 280.999 -126.685 266.262C-124.943 254.732 -123.258 242.132 -118.258 231.501C-117.247 229.308 -115.561 225.708 -112.808 225.314C-109.775 224.864 -107.808 228.464 -106.516 230.602C-103.483 235.72 -104.494 243.876 -105.224 249.613C-106.853 262.944 -110.674 275.937 -113.37 289.099C-110.842 282.912 -108.707 276.499 -106.741 270.087C-103.651 260.075 -101.011 249.838 -100.168 239.376C-99.7186 233.864 -100.786 230.658 -103.82 226.214C-105.168 224.302 -106.685 222.389 -108.876 221.377C-114.325 218.902 -119.55 223.796 -122.808 227.62C-122.415 226.552 -122.022 225.989 -122.247 225.314C-135.505 256.363 -136.741 292.418 -138.202 322.791C-172.471 338.484 -184.999 382.357 -198.932 411.381C-211.011 294.33 -243.764 355.134 -213.651 467.46C-232.865 501.771 -292.359 537.769 -330.056 565.837C-253.82 591.936 -225.224 449.461 -113.595 486.696C-109.719 487.99 -104.606 487.765 -100.561 487.934C-95.6175 488.103 -90.6175 488.046 -85.6736 487.484C-78.6512 486.696 -63.8197 484.278 -62.2467 475.503C-62.1343 474.828 -62.0781 474.041 -62.4152 473.422C-62.6961 472.86 -63.2579 472.41 -63.7635 472.072C-64.7748 471.341 -65.786 470.61 -66.9096 470.16C-68.3141 469.597 -69.7748 469.147 -71.2916 468.922C-73.2579 468.585 -75.2242 468.247 -77.1905 467.966C-74.9995 469.035 -72.8085 470.272 -70.5051 470.947C-68.3141 471.566 -66.5164 472.241 -64.9995 474.097C-64.7748 474.378 -64.55 474.716 -64.4939 475.109C-63.2018 482.703 -95.7298 482.703 -100.224 482.59C-112.528 482.309 -124.887 480.678 -136.853 477.809C-141.404 476.741 -145.955 475.447 -150.337 473.76C-152.696 472.803 -156.123 471.678 -157.752 469.597C-161.573 464.704 -147.921 464.141 -145.898 463.972C-125.449 462.566 -104.494 464.985 -84.1568 467.066C-99.1006 460.654 -143.202 463.185 -128.089 460.766C-129.943 459.923 -140.617 460.204 -142.415 461.048C-139.438 461.273 -136.404 460.541 -133.314 461.498C-148.595 463.073 -162.696 464.704 -174.775 463.298C-132.471 460.316 -44.213 392.594 -59.3253 415.543C-58.7635 413.743 -59.3253 412.45 -61.2916 412.112C-59.1006 413.518 -59.6624 415.206 -60.2804 417.006C-61.2916 418.412 -62.5837 420.043 -64.213 422.012C-71.7411 428.818 -80.2242 434.668 -88.2017 441.192C-82.0781 437.424 -76.6849 432.53 -70.3365 429.043C-84.55 441.53 -100.337 451.767 -117.19 461.16C-102.247 464.197 -26.9096 403.056 -66.2354 408.569C-59.55 401.65 -47.4152 393.044 -51.7972 387.138C-72.8647 417.625 -128.539 442.486 -149.101 449.573C-124.887 431.124 -101.404 411.269 -78.5388 395.801C-97.3029 403.506 -109.887 417.343 -123.539 426.174C-122.64 424.543 -120.449 424.149 -119.999 421.899C-124.55 425.443 -129.044 428.48 -133.033 432.08C-125.393 427.13 -127.303 427.862 -123.932 426.849C-137.808 437.761 -150.056 447.042 -163.37 451.373C-168.595 455.198 -167.359 453.904 -168.707 454.523C-167.471 452.217 -153.82 440.461 -148.876 437.48C-153.258 442.148 -158.426 445.973 -162.808 450.642C-138.707 431.574 -115.674 414.7 -92.6961 401.763C-100.449 403.563 -103.932 407.444 -107.134 406.15C-87.8647 384.045 -71.1793 388.657 -53.2017 382.47C-55.8984 384.157 -58.4265 385.788 -60.9546 387.363C-38.0332 375.158 85.9556 343.434 24.5511 341.859C81.2365 347.259 -84.213 379.207 -90.786 385.113C-115.28 391.919 -30.5613 347.484 -10.3365 345.346C-19.1006 346.246 -27.5276 348.496 -35.6175 351.365C-33.3141 349.903 -31.2354 348.271 -29.6624 347.146C-16.0669 337.303 -4.04443 325.322 8.25894 313.96C13.9893 308.673 19.7196 303.386 25.7308 298.436C27.9218 296.636 30.2253 294.836 32.5848 293.205C33.7084 292.474 35.3938 291.124 36.7983 291.63C39.214 292.418 39.6635 296.355 38.877 298.324C38.2028 300.011 36.9668 301.417 35.6747 302.767C31.3488 307.267 26.7983 311.485 21.9668 315.423C25.5061 313.229 29.0455 311.035 32.5848 308.842C36.068 306.648 39.7196 304.398 42.023 300.967C44.6635 297.086 45.5061 287.355 38.5399 287.468C35.0567 287.524 31.2926 290.393 28.5398 292.193C22.36 296.242 16.6859 300.911 10.9556 305.579C8.65219 307.436 6.34882 309.348 3.98929 311.092C3.53986 311.429 0.506134 312.948 0.337585 313.342C0.449951 313.004 0.562317 312.667 0.730835 312.329C-14.1568 329.71 -29.4377 343.153 -45.9545 354.29C-45.3365 354.459 -44.6624 354.515 -43.9321 354.515C-53.8759 358.621 -63.2017 363.289 -71.7411 367.058C-68.4265 364.977 -67.4714 364.302 -66.4602 363.346C-72.1343 365.708 -77.5276 368.52 -82.64 371.952C-78.9883 370.433 -75.786 367.958 -71.8534 367.114C-77.8647 371.614 -84.7186 374.764 -88.2017 377.014C-59.55 325.885 -13.4265 316.435 22.7533 282.855C127.36 229.252 129.045 178.066 58.9893 231.389C50.5623 241.57 53.7646 205.684 39.3264 226.158C45.6185 217.89 50.7309 225.033 51.1241 229.477C47.5848 245.957 26.7983 249.951 18.0342 259.457C18.3713 257.713 19.7758 256.644 20.1129 254.9C17.36 258.163 14.7196 261.313 11.9668 264.575C25.787 259.456 114.214 185.322 103.596 221.321C102.641 218.677 103.989 211.815 100.394 212.377C108.315 222.839 91.405 231.22 87.5286 236.283C92.8657 232.57 97.8095 228.352 102.192 223.571C77.641 252.763 36.8545 267.387 9.32635 282.462C0.506134 283.08 -0.448914 287.074 -3.70734 287.243C-3.8197 283.924 -0.392761 284.655 0.730835 282.968C-4.21298 282.687 -8.48264 285.33 -13.2018 286.174C20.45 248.376 -38.2018 308.898 -46.6287 316.323C-44.3815 314.523 -43.2018 312.16 -41.6849 309.629C-46.5725 315.31 -51.7972 320.204 -56.2354 325.772C-52.9208 323.185 -50.6736 319.529 -46.9096 317.223C-59.3815 332.578 -73.0332 345.965 -85.3927 356.034C-81.7972 342.534 -79.1006 337.809 -80.1118 345.628C-76.5163 319.529 64.1578 175.816 22.6971 248.432C32.3039 240.445 33.0904 234.876 35.5623 228.802C34.7758 229.533 34.1017 230.152 33.259 230.939C57.641 180.991 120.675 165.861 160.619 131.606C137.135 144.824 115.956 158.886 95.3938 170.023C96.9106 168.335 99.3264 167.942 100.338 165.917C94.3264 169.235 88.3713 172.667 82.8657 176.773C86.8545 174.804 90.3376 171.879 94.6634 170.642C69.7196 186.447 46.6859 201.634 32.5286 224.808C14.832 218.396 13.6522 233.358 5.16904 235.439C28.3151 205.571 32.3039 193.253 51.3488 163.498C58.0904 156.523 71.7983 126.769 78.9893 136.724C87.5287 155.399 62.7533 177.616 62.8095 186.335C77.2477 168.785 265.562 16.0734 194.832 107.419C226.854 83.9079 218.427 65.7962 186.237 79.3519L186.18 79.1832ZM-0.0556641 291.743C-11.0107 300.292 -18.7073 307.604 -28.0894 311.317C-17.6399 301.586 -11.5725 292.755 -0.0556641 291.743ZM-16.1793 296.299C-17.1905 297.48 -17.8085 298.549 -19.213 298.605C-18.5388 297.592 -17.977 296.467 -16.1793 296.299ZM-19.9433 297.536L-27.8085 304.961C-24.9433 303.442 -23.0894 300.742 -19.9995 299.561C-29.0444 308.898 -36.0669 316.323 -44.8871 319.36C-34.9995 310.698 -29.7748 298.605 -19.9433 297.536ZM-62.4714 229.364C-50.4489 174.466 -44.831 245.732 -61.0669 248.263C-78.9883 273.35 -60.1118 213.165 -62.4714 229.364ZM-130.842 347.034C-130.842 347.821 -130.842 348.103 -130.842 348.44C-124.662 337.922 -124.494 341.69 -126.685 345.853C-109.494 328.135 -87.4714 288.818 -100.505 333.141C-122.022 376.451 -161.573 408.175 -184.494 446.761C-170.449 429.437 -156.629 416.837 -144.887 403.844C-112.415 367.958 -144.157 426.005 -194.494 458.179C-191.741 454.242 -189.044 450.304 -186.292 446.423C-190.786 449.517 -193.764 454.017 -197.303 458.179C-187.078 441.192 -178.707 423.699 -169.55 410.65C-170.617 412.675 -171.629 414.587 -172.696 416.612C-167.247 411.212 -164.213 402.831 -161.91 398.95C-164.55 402.438 -166.179 406.656 -169.55 409.694C-158.146 385.901 -142.415 366.777 -130.955 347.146L-130.842 347.034ZM-113.033 371.783C-112.977 371.108 -112.921 370.433 -112.865 369.645C-120.28 387.701 -132.022 395.576 -126.853 383.257C-120.955 372.402 -99.9995 348.609 -91.6849 335.616C-96.2355 345.74 -102.584 354.909 -108.202 364.527C-108.033 363.233 -107.808 361.939 -107.584 360.59C-110.674 363.796 -111.348 367.958 -113.033 371.783ZM-157.584 382.92C-159.213 372.233 -143.314 355.077 -139.044 345.121C-140.337 360.646 -153.314 371.389 -157.584 382.92ZM-218.932 429.324C-223.932 414.25 -223.089 397.207 -221.292 385.845C-222.303 378.251 -219.494 380.895 -219.494 383.426C-215.617 304.061 -203.033 434.443 -198.764 450.192C-200.056 413.012 -164.044 346.303 -139.101 328.191C-155.561 371.333 -181.123 417.006 -199.999 458.292C-202.977 485.347 -220.561 434.724 -218.876 429.38L-218.932 429.324ZM-201.629 468.979C-204.101 474.097 -204.662 468.191 -205.337 468.697C-204.101 468.472 -203.033 468.697 -201.629 468.979ZM-266.179 542.438C-265.842 541.932 -265.449 541.425 -264.719 540.469C-272.471 545.756 -276.853 550.987 -281.235 553.8C-266.123 535.913 -299.269 564.824 -306.966 559.593C-291.741 545.475 -272.247 532.707 -258.146 521.682C-257.808 522.132 -258.483 522.301 -258.314 522.695C-238.651 511.502 -204.887 461.723 -182.359 471.06C-192.078 479.216 -194.999 480.509 -197.134 483.772C-208.089 503.571 -251.966 526.914 -266.123 542.438H-266.179ZM-172.303 469.372C-169.382 469.541 -166.629 470.835 -164.044 472.128C-160.393 473.928 -156.853 475.897 -153.314 477.866C-155.056 476.684 -157.303 476.966 -159.382 477.303C-165.449 478.259 -171.404 479.384 -177.471 480.453C-183.707 481.578 -183.483 481.465 -185.674 482.14C-190.955 483.828 -194.887 486.415 -197.415 488.328C-194.157 485.628 -191.91 483.49 -190.393 481.972C-189.831 481.409 -188.876 480.453 -187.19 478.766C-186.011 477.641 -184.831 476.516 -183.707 475.335C-180.898 472.466 -176.573 469.091 -172.359 469.316L-172.303 469.372ZM-61.6287 337.247C-86.4602 373.47 -117.696 409.131 -147.584 435.961C-144.719 432.418 -140.617 430.224 -138.426 426.23C-155.28 440.011 -172.471 460.541 -189.325 461.498C-152.584 433.599 -125.898 397.938 -95.4489 366.945C-97.359 372.739 -99.2692 378.532 -101.292 384.607C-86.8534 367.17 -74.3815 350.971 -61.6287 337.247ZM-106.91 368.07C-96.9096 353.165 -89.7186 337.078 -81.2916 323.354C-81.0669 341.747 -102.865 369.42 -106.91 368.07ZM-91.404 334.547C-90.6175 333.085 -89.8309 331.622 -89.0444 330.103C-90.1118 329.935 -90.4489 331.341 -91.4602 331.116C-87.6961 319.923 -92.6961 308.842 -91.5725 301.755C-92.5838 301.755 -92.3029 302.598 -92.9208 302.88C-61.9096 236.845 -6.57251 199.834 -78.7074 324.085C-76.5725 306.198 -62.359 294.836 -58.595 280.549C-71.404 299.111 -80.8984 319.585 -91.404 334.603V334.547ZM-32.1905 273.518C-28.6512 265.138 -23.7074 258.107 -19.6062 250.513C-23.0332 258.388 -25.1118 266.994 -32.1905 273.518ZM11.6297 221.883C12.4724 215.021 13.2028 213.277 13.3713 210.296C17.5286 208.552 12.3039 220.702 11.6297 221.883ZM-6.01074 225.539C-5.67365 225.202 -5.33658 224.864 -4.99951 224.527C-8.37027 229.195 -10.2242 234.708 -13.3141 240.051C-2.30286 209.621 -48.3141 299.223 -57.5276 298.267C-44.55 275.15 20.787 109.557 5.00052 200.172C9.94434 189.878 10.169 183.466 16.1803 179.023C12.8095 198.147 4.21399 213.783 -6.01074 225.539ZM96.3488 131.043C96.3488 131.043 96.5735 131.325 96.6859 131.493C76.4612 158.717 83.2028 131.156 96.3488 131.043ZM72.4163 129.131C59.9443 133.406 60.7309 146.905 53.4837 152.755C63.4275 108.263 137.416 97.1261 109.888 116.419C93.6522 125.812 86.9106 134.362 72.4163 129.131Z" fill="#A8A385"/>
<path d="M14.5515 325.204C8.48409 330.885 2.41667 336.622 -3.93164 342.528C4.88858 340.841 10.4504 328.973 14.5515 325.204Z" fill="#A8A385"/>
<path d="M95.1691 213.676C93.0904 214.295 91.3488 215.42 89.9443 217.107C91.6859 215.982 93.4275 214.857 95.1691 213.676Z" fill="#A8A385"/>
<path d="M188.091 110.621C189.72 109.777 190.787 108.708 191.855 107.64C190.338 108.146 188.877 108.652 188.091 110.621Z" fill="#A8A385"/>
<path d="M18.0908 340.619C19.7762 340.394 21.0683 340.675 22.6976 340.056C20.956 339.775 19.6639 339.1 18.0908 340.619Z" fill="#A8A385"/>
</svg>
