<svg width="206" height="569" viewBox="0 0 206 569" fill="none" xmlns="http://www.w3.org/2000/svg">
<path d="M28.8197 79.1832C28.8197 78.5644 28.1455 78.4519 28.3702 77.8332C64.1006 108.376 103.033 134.924 138.033 162.711C112.134 124.969 83.3703 98.4198 64.9433 58.8778C79.6062 78.7894 92.1343 109.219 114.381 101.57C113.258 101.963 107.471 92.0638 106.853 91.1639C103.37 85.6516 100.056 80.0269 96.7972 74.3459C89.0444 60.959 81.5725 47.4595 73.5388 34.2414C70.5613 29.3478 67.8084 24.3981 64.6624 19.617C61.6287 15.061 58.5388 10.0549 53.4826 7.58005C52.0781 6.90508 50.5051 6.39885 49.0444 6.84883C47.7523 7.29881 46.741 8.48001 46.3478 9.82995C44.8309 14.2735 46.2354 18.5483 47.5275 22.8231C48.5388 26.1417 49.8309 29.3478 51.0669 32.554C52.8647 37.1662 54.7186 41.7785 56.5163 46.3908C51.8534 39.8099 47.2467 32.9477 44.4939 25.3543C42.4714 19.6733 38.1455 -1.36331 49.4377 0.042877C56.9096 0.999085 63.8759 8.98623 68.2579 14.4985C70.3927 17.2546 72.5837 20.292 73.6512 23.6106C74.1006 23.2731 73.5388 22.7106 74.2129 22.3731C80.6736 52.6343 110.168 78.9582 121.404 97.8573C125.786 107.588 139.943 110.907 143.595 115.463C143.314 114.563 143.089 113.719 142.865 112.932C156.123 128.737 163.033 157.536 172.696 165.636C180.73 182.285 189.157 197.472 197.865 209.846C198.146 202.759 196.741 195.616 194.887 188.753C191.067 174.466 185.112 160.742 178.651 147.468C171.685 133.237 163.82 119.344 155.393 105.957C148.595 95.1574 141.404 84.4142 133.258 74.5709C131.741 72.7147 123.876 61.8027 120.449 63.6588C118.876 64.5025 119.831 67.8774 120.056 69.1148C120.674 72.096 121.516 75.0771 122.696 77.8895C124.157 81.3206 125.674 84.6392 127.359 87.9578C128.82 90.8826 130.28 94.9324 132.471 97.2948C124.887 88.9702 117.359 79.6331 115.674 68.4961C115.224 65.5713 114.943 59.609 119.101 59.4403C121.91 59.3278 125.112 61.6339 127.303 63.0964C130.73 65.4025 133.932 68.1024 136.966 70.971C137.752 71.7585 144.325 77.777 143.764 78.8457C144.044 78.2832 143.483 77.777 143.988 77.327C168.202 109.838 183.258 147.58 203.426 176.716C208.483 153.43 222.921 183.41 227.865 182.904C235.955 205.459 243.988 227.845 255.168 246.126C271.404 150.786 282.303 219.464 290.955 263.338C291.011 262.775 291.067 262.438 291.123 261.875C306.123 291.405 326.91 317.785 347.359 340.172C346.966 339.722 347.471 336.234 347.528 335.559C347.528 333.31 347.528 331.06 347.415 328.81C347.247 322.735 346.91 316.66 346.46 310.642C345.393 295.792 343.932 280.999 341.685 266.262C339.943 254.732 338.258 242.132 333.258 231.501C332.247 229.308 330.561 225.708 327.808 225.314C324.775 224.864 322.808 228.464 321.516 230.602C318.483 235.72 319.494 243.876 320.224 249.613C321.853 262.944 325.674 275.937 328.37 289.099C325.842 282.912 323.707 276.499 321.741 270.087C318.651 260.075 316.011 249.838 315.168 239.376C314.719 233.864 315.786 230.658 318.82 226.214C320.168 224.302 321.685 222.389 323.876 221.377C329.325 218.902 334.55 223.796 337.808 227.62C337.415 226.552 337.022 225.989 337.247 225.314C350.505 256.363 351.741 292.418 353.202 322.791C387.471 338.484 399.999 382.357 413.932 411.381C426.011 294.33 458.764 355.134 428.651 467.46C447.865 501.771 507.359 537.769 545.056 565.837C468.82 591.936 440.224 449.461 328.595 486.696C324.719 487.99 319.606 487.765 315.561 487.934C310.617 488.103 305.617 488.046 300.674 487.484C293.651 486.696 278.82 484.278 277.247 475.503C277.134 474.828 277.078 474.041 277.415 473.422C277.696 472.86 278.258 472.41 278.764 472.072C279.775 471.341 280.786 470.61 281.91 470.16C283.314 469.597 284.775 469.147 286.292 468.922C288.258 468.585 290.224 468.247 292.191 467.966C289.999 469.035 287.808 470.272 285.505 470.947C283.314 471.566 281.516 472.241 280 474.097C279.775 474.378 279.55 474.716 279.494 475.109C278.202 482.703 310.73 482.703 315.224 482.59C327.528 482.309 339.887 480.678 351.853 477.809C356.404 476.741 360.955 475.447 365.337 473.76C367.696 472.803 371.123 471.678 372.752 469.597C376.573 464.704 362.921 464.141 360.898 463.972C340.449 462.566 319.494 464.985 299.157 467.066C314.101 460.654 358.202 463.185 343.089 460.766C344.943 459.923 355.617 460.204 357.415 461.048C354.438 461.273 351.404 460.541 348.314 461.498C363.595 463.073 377.696 464.704 389.775 463.298C347.471 460.316 259.213 392.594 274.325 415.543C273.764 413.743 274.325 412.45 276.292 412.112C274.101 413.518 274.662 415.206 275.28 417.006C276.292 418.412 277.584 420.043 279.213 422.012C286.741 428.818 295.224 434.668 303.202 441.192C297.078 437.424 291.685 432.53 285.337 429.043C299.55 441.53 315.337 451.767 332.19 461.16C317.247 464.197 241.91 403.056 281.235 408.569C274.55 401.65 262.415 393.044 266.797 387.138C287.865 417.625 343.539 442.486 364.101 449.573C339.887 431.124 316.404 411.269 293.539 395.801C312.303 403.506 324.887 417.343 338.539 426.174C337.64 424.543 335.449 424.149 334.999 421.899C339.55 425.443 344.044 428.48 348.033 432.08C340.393 427.13 342.303 427.862 338.932 426.849C352.808 437.761 365.056 447.042 378.37 451.373C383.595 455.198 382.359 453.904 383.707 454.523C382.471 452.217 368.82 440.461 363.876 437.48C368.258 442.148 373.426 445.973 377.808 450.642C353.707 431.574 330.674 414.7 307.696 401.763C315.449 403.563 318.932 407.444 322.134 406.15C302.865 384.045 286.179 388.657 268.202 382.47C270.898 384.157 273.426 385.788 275.955 387.363C253.033 375.158 129.044 343.434 190.449 341.859C133.764 347.259 299.213 379.207 305.786 385.113C330.28 391.919 245.561 347.484 225.337 345.346C234.101 346.246 242.528 348.496 250.617 351.365C248.314 349.903 246.235 348.271 244.662 347.146C231.067 337.303 219.044 325.322 206.741 313.96C201.011 308.673 195.28 303.386 189.269 298.436C187.078 296.636 184.775 294.836 182.415 293.205C181.292 292.474 179.606 291.124 178.202 291.63C175.786 292.418 175.337 296.355 176.123 298.324C176.797 300.011 178.033 301.417 179.325 302.767C183.651 307.267 188.202 311.485 193.033 315.423C189.494 313.229 185.955 311.035 182.415 308.842C178.932 306.648 175.28 304.398 172.977 300.967C170.337 297.086 169.494 287.355 176.46 287.468C179.943 287.524 183.707 290.393 186.46 292.193C192.64 296.242 198.314 300.911 204.044 305.579C206.348 307.436 208.651 309.348 211.011 311.092C211.46 311.429 214.494 312.948 214.662 313.342C214.55 313.004 214.438 312.667 214.269 312.329C229.157 329.71 244.438 343.153 260.955 354.29C260.337 354.459 259.662 354.515 258.932 354.515C268.876 358.621 278.202 363.289 286.741 367.058C283.426 364.977 282.471 364.302 281.46 363.346C287.134 365.708 292.528 368.52 297.64 371.952C293.988 370.433 290.786 367.958 286.853 367.114C292.865 371.614 299.719 374.764 303.202 377.014C274.55 325.885 228.426 316.435 192.247 282.855C87.6399 229.252 85.9545 178.066 156.011 231.389C164.438 241.57 161.235 205.684 175.674 226.158C169.382 217.89 164.269 225.033 163.876 229.477C167.415 245.957 188.202 249.951 196.966 259.457C196.629 257.713 195.224 256.644 194.887 254.9C197.64 258.163 200.28 261.313 203.033 264.575C189.213 259.456 100.786 185.322 111.404 221.321C112.359 218.677 111.011 211.815 114.606 212.377C106.685 222.839 123.595 231.22 127.471 236.283C122.134 232.57 117.19 228.352 112.808 223.571C137.359 252.763 178.146 267.387 205.674 282.462C214.494 283.08 215.449 287.074 218.707 287.243C218.82 283.924 215.393 284.655 214.269 282.968C219.213 282.687 223.483 285.33 228.202 286.174C194.55 248.376 253.202 308.898 261.629 316.323C259.382 314.523 258.202 312.16 256.685 309.629C261.573 315.31 266.797 320.204 271.235 325.772C267.921 323.185 265.674 319.529 261.91 317.223C274.382 332.578 288.033 345.965 300.393 356.034C296.797 342.534 294.101 337.809 295.112 345.628C291.516 319.529 150.842 175.816 192.303 248.432C182.696 240.445 181.91 234.876 179.438 228.802C180.224 229.533 180.898 230.152 181.741 230.939C157.359 180.991 94.3253 165.861 54.3815 131.606C77.8646 144.824 99.0444 158.886 119.606 170.023C118.089 168.335 115.674 167.942 114.662 165.917C120.674 169.235 126.629 172.667 132.134 176.773C128.146 174.804 124.662 171.879 120.337 170.642C145.28 186.447 168.314 201.634 182.471 224.808C200.168 218.396 201.348 233.358 209.831 235.439C186.685 205.571 182.696 193.253 163.651 163.498C156.91 156.523 143.202 126.769 136.011 136.724C127.471 155.399 152.247 177.616 152.19 186.335C137.752 168.785 -50.5623 16.0734 20.168 107.419C-11.8544 83.9079 -3.42749 65.7962 28.7635 79.3519L28.8197 79.1832ZM215.056 291.743C226.011 300.292 233.707 307.604 243.089 311.317C232.64 301.586 226.573 292.755 215.056 291.743ZM231.179 296.299C232.19 297.48 232.808 298.549 234.213 298.605C233.539 297.592 232.977 296.467 231.179 296.299ZM234.943 297.536L242.808 304.961C239.943 303.442 238.089 300.742 234.999 299.561C244.044 308.898 251.067 316.323 259.887 319.36C249.999 310.698 244.775 298.605 234.943 297.536ZM277.471 229.364C265.449 174.466 259.831 245.732 276.067 248.263C293.988 273.35 275.112 213.165 277.471 229.364ZM345.842 347.034C345.842 347.821 345.842 348.103 345.842 348.44C339.662 337.922 339.494 341.69 341.685 345.853C324.494 328.135 302.471 288.818 315.505 333.141C337.022 376.451 376.573 408.175 399.494 446.761C385.449 429.437 371.629 416.837 359.887 403.844C327.415 367.958 359.157 426.005 409.494 458.179C406.741 454.242 404.044 450.304 401.292 446.423C405.786 449.517 408.764 454.017 412.303 458.179C402.078 441.192 393.707 423.699 384.55 410.65C385.617 412.675 386.629 414.587 387.696 416.612C382.247 411.212 379.213 402.831 376.91 398.95C379.55 402.438 381.179 406.656 384.55 409.694C373.146 385.901 357.415 366.777 345.955 347.146L345.842 347.034ZM328.033 371.783C327.977 371.108 327.921 370.433 327.865 369.645C335.28 387.701 347.022 395.576 341.853 383.257C335.955 372.402 314.999 348.609 306.685 335.616C311.235 345.74 317.584 354.909 323.202 364.527C323.033 363.233 322.808 361.939 322.584 360.59C325.674 363.796 326.348 367.958 328.033 371.783ZM372.584 382.92C374.213 372.233 358.314 355.077 354.044 345.121C355.337 360.646 368.314 371.389 372.584 382.92ZM433.932 429.324C438.932 414.25 438.089 397.207 436.292 385.845C437.303 378.251 434.494 380.895 434.494 383.426C430.617 304.061 418.033 434.443 413.764 450.192C415.056 413.012 379.044 346.303 354.101 328.191C370.561 371.333 396.123 417.006 414.999 458.292C417.977 485.347 435.561 434.724 433.876 429.38L433.932 429.324ZM416.629 468.979C419.101 474.097 419.662 468.191 420.337 468.697C419.101 468.472 418.033 468.697 416.629 468.979ZM481.179 542.438C480.842 541.932 480.449 541.425 479.719 540.469C487.471 545.756 491.853 550.987 496.235 553.8C481.123 535.913 514.269 564.824 521.966 559.593C506.741 545.475 487.247 532.707 473.146 521.682C472.808 522.132 473.483 522.301 473.314 522.695C453.651 511.502 419.887 461.723 397.359 471.06C407.078 479.216 409.999 480.509 412.134 483.772C423.089 503.571 466.966 526.914 481.123 542.438H481.179ZM387.303 469.372C384.382 469.541 381.629 470.835 379.044 472.128C375.393 473.928 371.853 475.897 368.314 477.866C370.056 476.684 372.303 476.966 374.382 477.303C380.449 478.259 386.404 479.384 392.471 480.453C398.707 481.578 398.483 481.465 400.674 482.14C405.955 483.828 409.887 486.415 412.415 488.328C409.157 485.628 406.91 483.49 405.393 481.972C404.831 481.409 403.876 480.453 402.19 478.766C401.011 477.641 399.831 476.516 398.707 475.335C395.898 472.466 391.573 469.091 387.359 469.316L387.303 469.372ZM276.629 337.247C301.46 373.47 332.696 409.131 362.584 435.961C359.719 432.418 355.617 430.224 353.426 426.23C370.28 440.011 387.471 460.541 404.325 461.498C367.584 433.599 340.898 397.938 310.449 366.945C312.359 372.739 314.269 378.532 316.292 384.607C301.853 367.17 289.382 350.971 276.629 337.247ZM321.91 368.07C311.91 353.165 304.719 337.078 296.292 323.354C296.067 341.747 317.865 369.42 321.91 368.07ZM306.404 334.547C305.617 333.085 304.831 331.622 304.044 330.103C305.112 329.935 305.449 331.341 306.46 331.116C302.696 319.923 307.696 308.842 306.573 301.755C307.584 301.755 307.303 302.598 307.921 302.88C276.91 236.845 221.573 199.834 293.707 324.085C291.573 306.198 277.359 294.836 273.595 280.549C286.404 299.111 295.898 319.585 306.404 334.603V334.547ZM247.191 273.518C243.651 265.138 238.707 258.107 234.606 250.513C238.033 258.388 240.112 266.994 247.191 273.518ZM203.37 221.883C202.528 215.021 201.797 213.277 201.629 210.296C197.471 208.552 202.696 220.702 203.37 221.883ZM221.011 225.539C220.674 225.202 220.337 224.864 220 224.527C223.37 229.195 225.224 234.708 228.314 240.051C217.303 209.621 263.314 299.223 272.528 298.267C259.55 275.15 194.213 109.557 209.999 200.172C205.056 189.878 204.831 183.466 198.82 179.023C202.19 198.147 210.786 213.783 221.011 225.539ZM118.651 131.043C118.651 131.043 118.426 131.325 118.314 131.493C138.539 158.717 131.797 131.156 118.651 131.043ZM142.584 129.131C155.056 133.406 154.269 146.905 161.516 152.755C151.572 108.263 77.5837 97.1261 105.112 116.419C121.348 125.812 128.089 134.362 142.584 129.131Z" fill="#A8A385"/>
<path d="M200.448 325.204C206.516 330.885 212.583 336.622 218.932 342.528C210.111 340.841 204.55 328.973 200.448 325.204Z" fill="#A8A385"/>
<path d="M119.831 213.676C121.91 214.295 123.651 215.42 125.056 217.107C123.314 215.982 121.573 214.857 119.831 213.676Z" fill="#A8A385"/>
<path d="M26.9092 110.621C25.28 109.777 24.2126 108.708 23.1451 107.64C24.662 108.146 26.1227 108.652 26.9092 110.621Z" fill="#A8A385"/>
<path d="M196.909 340.619C195.224 340.394 193.932 340.675 192.302 340.056C194.044 339.775 195.336 339.1 196.909 340.619Z" fill="#A8A385"/>
</svg>
