<svg width="442" height="455" viewBox="0 0 442 455" fill="none" xmlns="http://www.w3.org/2000/svg">
<path d="M440.39 334.402C439.58 318.946 443.525 303.382 440.12 288.844C439.958 297.221 438.445 305.327 436.067 313.65C427.582 298.139 420.449 282.143 409.748 269.119C409.532 269.821 410.181 270.2 409.857 270.794C407.154 266.309 387.537 251.231 392.779 252.203C329.982 210.645 331.874 243.286 301.61 229.019C301.502 230.046 302.366 230.587 301.934 231.613C298.692 224.21 286.694 223.129 289.775 214.158C284.37 209.132 296.152 209.834 299.286 207.673C306.149 205.943 313.769 192.757 318.795 194.757C320.038 195.243 329.334 188.65 330.955 187.893C334.792 186.056 340.088 183.624 344.411 183.894C345.438 183.948 346.519 184.164 347.546 184.002C348.573 183.84 349.545 183.354 350.518 183.137C351.491 182.921 352.734 182.975 353.436 183.786C353.653 184.056 353.815 184.38 354.085 184.543C354.842 185.029 355.76 184.272 356.571 183.84C359.651 182.003 363.488 184.434 366.785 184.218C369.487 184.056 371.216 182.921 370.244 186.488C370.568 186.596 370.73 186.488 371.054 186.434C374.837 185.569 372.892 181.462 374.405 179.733C388.132 175.085 388.888 179.625 394.671 181.03C397.913 191.46 395.157 212.807 403.209 186.002C419.206 203.025 424.34 225.669 434.446 244.529C432.068 235.883 429.852 228.857 432.284 221.129C429.636 226.155 429.474 214.482 427.42 214.104C428.393 213.779 429.15 213.563 430.014 213.293C427.474 205.889 422.881 201.782 423.475 194.757C420.827 195.297 415.963 185.299 417.639 184.164C414.126 180.597 413.64 176.382 411.316 172.923C412.721 173.68 413.802 174.004 414.558 173.896C412.775 170.762 410.289 168.06 407.479 167.789C405.047 163.574 406.83 157.251 403.588 155.576C403.588 156.278 404.506 156.711 403.912 157.575C398.94 155.414 397.751 148.604 393.968 148.28C399.426 153.468 384.511 146.443 384.997 143.741C385.375 143.524 385.754 143.362 386.132 143.146C370.73 124.718 304.15 60.8398 260.159 54.8952C262.754 57.6513 265.239 60.2994 267.779 63.0015C266.699 58.6781 274.102 65.0551 275.562 64.1364C275.075 64.947 274.751 65.6496 274.319 66.4062C280.101 69.8108 285.613 70.6215 287.505 76.5121C287.775 76.1338 287.937 75.8095 288.153 75.5393C291.504 78.998 297.178 80.8354 296.152 83.8078C300.691 86.2397 303.015 89.6984 305.771 92.0762C304.69 91.9141 303.609 91.4277 302.475 92.1843C308.311 98.2911 314.904 92.1843 318.687 96.5617C326.037 103.209 337.44 110.451 344.844 117.53C349.491 119.908 352.788 131.041 355.436 127.528C378.296 164.007 366.298 146.443 323.497 166.763C322.524 170.113 312.202 175.572 314.31 172.167C310.095 178.976 302.312 179.787 297.07 182.867C306.474 178.868 290.531 189.514 288.315 192.163C286.748 193.568 277.399 188.596 282.749 188.974C267.023 182.003 260.43 167.087 248.108 155.792C239.137 147.091 208.927 126.501 231.355 118.611C231.301 115.909 234.76 116.774 234.76 115.747C228.166 110.775 251.405 93.3733 254.107 81.592C251.351 82.5108 253.891 76.6742 254.917 77.1065C254.971 74.3504 254.917 68.8921 254.377 65.8117C250.54 67.3249 255.89 58.8402 256.322 63.2717C257.511 59.4887 259.619 61.11 261.565 62.2449C266.482 53.5981 248.216 56.6245 247.135 58.0296C245.244 61.056 253.188 75.7555 241.893 72.0266C244.379 73.2695 241.299 74.8908 241.245 75.7014C240.65 75.161 240.11 74.6746 239.515 74.1342C236.435 80.0788 231.031 80.9435 227.788 85.5371C225.789 81.3218 225.41 86.0775 226.113 86.726C227.464 91.4277 226.599 91.5358 225.789 93.1571C230.166 97.2643 221.249 98.2911 223.465 101.426C214.494 87.5367 208.225 92.2924 196.93 83.2133C197.957 83.1052 198.876 83.6997 200.227 83.6997C175.745 73.2695 152.237 68.0274 130.134 54.3007C133.268 57.1109 132.566 56.0841 133.701 57.8675C124.946 50.0854 115.434 45.6539 106.247 41.1144C142.78 45.1135 169.963 71.9725 206.063 77.0525C231.085 79.9708 231.031 60.3534 210.332 50.5177C184.933 39.1689 152.723 42.6816 130.188 27.0093C153.264 29.6034 176.772 30.9004 198.93 33.7646C179.799 29.3332 159.587 26.4689 141.429 21.2809C142.347 22.0375 143.428 22.0915 144.185 22.9021C129.323 22.9021 124.73 17.606 112.894 14.3635C100.411 9.49965 90.1425 8.7971 80.4149 0.0422514C80.523 0.528632 80.6311 1.06905 80.7932 1.7716C71.1737 -4.01092 64.8507 4.63584 56.9065 2.47415C53.0695 3.33883 59.6627 8.58093 56.258 8.47285C44.0985 7.87838 35.9922 12.3098 31.3445 22.9021C20.6982 23.1723 16.7531 42.4654 19.5093 51.1122C29.399 70.3512 49.2865 42.5735 124.081 89.9145C150.616 101.642 183.095 127.69 216.872 132.878C221.952 127.042 205.469 127.42 201.578 124.394C145.428 104.182 99.8161 52.5173 37.6675 53.9224C31.8309 53.5441 27.8858 53.5981 24.9135 49.0586C23.4003 46.5186 23.7246 40.7901 26.3726 42.1412C28.5343 44.7352 26.3726 48.6263 30.3177 49.7611C46.0981 53.7603 61.9865 51.8147 76.6319 57.273C72.6328 55.3815 68.4175 54.2466 64.3103 52.8415C73.6056 54.1926 82.1983 58.0296 91.1693 60.4615C79.0638 55.6517 70.5252 52.9496 57.9874 50.896C50.5295 49.1126 20.0497 51.8147 31.0743 42.7897C53.718 42.0871 78.2532 46.6807 98.8973 53.1118C127.864 75.7014 146.671 86.7801 189.905 101.912C202.226 105.803 206.982 115.909 213.953 99.8043C215.575 100.561 216.277 101.372 215.142 103.155C218.655 100.399 214.007 98.5073 213.305 97.2643C211.197 88.9958 218.007 94.292 220.384 97.4264C222.654 100.939 220.655 103.317 219.466 101.75C216.71 101.966 216.115 108.937 215.412 110.505C212.008 113.963 215.412 120.34 218.925 121.854C219.682 149.415 241.245 152.333 271.238 190.055C297.07 206.916 246.865 198.377 294.152 246.961C297.503 250.366 297.719 247.232 299.394 247.664C309.5 238.044 325.713 247.826 338.413 243.124C332.36 241.503 326.145 240.584 319.822 239.287C322.849 237.99 325.497 236.639 327.983 235.612C339.818 235.883 352.031 238.747 361.056 244.854C357.49 243.611 356.247 242.584 354.409 243.178C372.73 249.663 392.401 266.254 401.318 278.846C403.155 280.035 403.696 281.602 403.047 283.71C391.806 272.037 381.592 256.473 364.191 256.365C367.487 257.932 371.054 259.553 373.216 262.58C375.378 265.606 376.675 268.47 380.025 270.524C380.944 271.118 382.025 271.713 382.457 272.74C382.835 273.658 382.565 274.685 382.619 275.658C382.889 279.387 387.591 280.954 389.645 284.142C390.726 285.764 390.996 287.817 391.212 289.763C391.32 290.519 391.374 291.222 391.752 291.87C393.644 295.005 397.589 294.194 398.724 298.356C399.426 301.004 399.318 303.922 399.643 306.678C400.291 313.055 402.453 318.73 409.478 319.81C415.855 319.648 411.424 325.323 415.315 323.864C416.72 331.213 413.045 341.157 416.18 346.129C416.396 345.264 415.477 344.562 416.18 343.697C421.043 351.317 431.095 359.369 422.124 364.395V361.369C421.151 364.99 417.855 366.233 415.045 368.016C419.638 369.853 410.775 376.014 410.991 378.987C410.397 377.798 411.208 376.771 410.775 375.474C406.236 380.446 406.614 382.607 405.641 385.526C396.292 388.876 406.02 374.555 406.668 371.853C405.101 375.042 399.264 383.688 398.346 379.797C392.455 387.904 385.916 394.281 377.593 396.604C378.512 396.875 379.269 396.496 380.241 397.199C370.298 398.009 373.756 398.334 368.19 402.549C355.706 404.17 352.788 409.088 344.573 415.141C344.736 414.276 345.438 413.844 345.654 413.141C343.817 414.654 341.223 414.546 339.331 416.006C339.656 415.195 340.034 414.384 340.466 413.357C339.061 414.06 338.251 415.249 336.9 415.681C338.575 389.038 346.897 364.395 343.276 338.671C343.006 339.644 342.844 340.238 342.628 340.887C341.385 328.619 332.198 308.137 336.845 312.785C324.848 292.303 305.609 264.795 290.531 254.527C278.642 251.069 265.239 244.313 255.836 253.933C251.891 257.554 247.676 266.2 253.891 268.362C256.755 254.473 267.239 249.177 279.344 256.635C275.075 269.551 289.937 276.252 297.989 282.143C295.503 273.172 282.047 269.389 283.722 260.04C288.045 255.446 314.796 289.331 313.986 290.952C310.365 286.196 305.825 282.521 302.096 278.036C304.474 281.278 307.338 284.197 309.5 287.601C307.555 286.196 306.42 283.818 303.988 283.116C311.608 289.655 315.12 298.41 320.741 304.949C318.957 299.761 314.634 294.519 314.958 291.114C325.226 305.165 332.306 324.242 330.955 340.509C330.793 339.482 330.09 339.212 329.388 338.779C329.928 341.427 332.846 342.4 332.522 344.237C331.874 343.751 331.441 343.481 330.631 342.886C331.009 349.696 330.252 355.748 330.631 362.288C324.362 377.798 323.713 318.135 312.58 310.515C315.012 317.108 315.769 322.296 312.743 327.214C315.715 324.674 314.202 332.456 315.661 332.943C314.688 332.997 313.932 333.105 313.067 333.159C313.715 337.212 314.094 341.373 314.094 345.534C314.094 347.156 314.094 348.669 313.607 350.236C313.067 352.182 311.229 354.073 311.554 356.181C311.77 357.586 312.959 358.883 312.472 360.234C312.148 361.045 311.229 361.477 310.473 362.017C309.716 362.558 309.068 363.531 309.554 364.287C310.419 364.882 311.283 365.53 312.094 366.233C313.607 367.584 313.283 369.529 313.986 371.259C314.31 372.069 315.391 372.988 315.337 373.907C315.337 374.231 314.58 375.744 314.526 375.528C318.255 398.55 302.583 432.651 281.722 437.19C281.993 436.38 282.803 436.434 283.073 435.677C280.912 436.488 278.858 435.245 276.696 435.731C277.291 435.191 277.885 434.65 278.75 433.84C249.405 438.163 219.087 423.031 196.282 413.952C197.741 411.466 215.196 395.361 211.575 401.684C228.437 379.959 247.406 361.909 257.836 337.266C263.834 319.756 277.777 289.763 259.025 272.037C260.754 274.847 262.105 277.711 262.862 281.008C261.781 280.63 261.889 279.657 261.294 279.062C261.024 280.414 261.889 281.711 261.294 283.116C261.024 282.899 260.7 282.683 260.268 282.413C261.24 287.763 260.592 293.33 259.349 298.572C258.808 300.896 257.836 303.111 257.295 305.435C256.809 307.489 257.133 309.813 256.268 311.758C255.188 314.244 252.161 315.379 251.026 317.757C250.378 319.054 250.378 320.567 249.891 321.972C249.405 323.323 248.054 324.674 246.703 324.242C246.163 324.944 247.081 325.755 247.622 326.458C248.594 327.755 248.216 329.7 247.189 330.943C246.163 332.186 244.703 332.997 243.352 333.915C242.055 334.726 236.489 339.698 236.759 341.265C236.597 340.184 236.759 339.158 235.894 338.455C231.463 344.994 237.3 352.182 231.193 354.884C227.572 366.179 205.577 377.636 209.9 378.933C202.118 382.661 195.849 389.201 188.716 390.011C190.877 387.471 194.012 386.553 196.444 384.607C193.201 386.282 186.824 387.741 188.283 385.201C179.799 388.066 180.069 399.847 172.989 402.765C173.854 402.765 174.448 402.279 175.043 402.765C168.45 405.9 167.585 409.737 163.64 414.763C159.749 416.708 155.101 412.547 150.886 411.79C152.021 411.142 153.156 411.682 154.345 411.142C148.778 407.359 147.481 407.791 143.644 407.197C139.213 398.388 154.291 406.278 156.506 406.224C152.507 405.251 144.563 399.577 148.995 399.415C139.915 393.74 130.944 388.12 121.811 382.445C122.027 383.364 122.892 383.688 122.622 384.715C111.219 374.123 111.327 382.499 101.545 366.341C101.167 366.881 100.897 367.259 100.519 367.854C98.7893 364.341 94.3037 364.017 92.4663 360.396C93.331 360.774 93.9795 361.045 94.574 361.315C92.8446 359.694 92.5204 357.154 90.737 355.586C91.6016 355.802 92.4663 355.965 93.6553 356.235C79.9826 342.724 75.9834 342.616 94.3578 334.023C106.842 312.407 166.126 306.462 188.499 287.925C191.039 286.142 189.256 288.466 189.526 289.06C201.091 276.252 213.035 274.469 217.682 257.392C216.872 257.392 216.277 257.283 215.737 257.283C216.007 254.852 214.71 253.014 213.467 251.015C214.602 250.852 215.521 250.69 216.493 250.582C214.332 250.42 212.278 250.096 210.765 248.529C210.711 248.529 210.603 248.529 210.549 248.529C212.278 251.555 210.116 250.798 208.549 251.231C207.36 258.743 206.604 255.716 202.172 257.662C196.93 269.713 188.013 282.791 175.097 287.115C176.07 283.386 174.178 288.142 173.205 287.979C174.989 289.763 170.071 289.763 170.72 287.277C168.99 289.763 164.937 290.087 163.37 289.439C161.478 290.519 160.884 292.681 158.722 291.816C159.046 291.06 159.317 290.411 159.641 289.655C157.641 290.79 156.669 290.898 154.939 290.141C162.937 286.899 171.098 284.359 178.502 279.927C176.232 280.089 173.962 280.468 171.53 279.765C164.505 285.548 155.209 282.954 148.184 286.088C148.995 285.223 150.021 284.575 150.075 283.17C145.752 284.629 143.212 285.818 142.455 289.439C134.187 287.547 125.54 293.222 118.299 297.653C122.027 297.977 116.569 300.139 116.299 298.896C112.192 305.705 110.462 305.327 102.626 306.894C103.005 307.435 103.221 307.813 103.599 308.353C101.113 309.002 96.7357 314.676 97.9786 310.785C96.5735 311.704 94.8442 311.326 93.331 312.515C93.5472 311.542 93.7093 310.893 93.9255 310.137C87.3323 312.569 81.1174 321.648 76.4158 320.297C60.095 331.105 43.3959 308.678 32.8577 291.925C38.9104 287.115 48.8542 282.629 54.6367 276.631C54.8529 273.55 62.9592 267.984 66.0937 265.66C65.8775 259.229 79.28 251.069 75.9294 256.04C92.5204 241.125 111.867 261.661 129.701 254.743C136.673 253.068 139.915 244.584 143.644 241.017C166.18 238.693 188.445 240.747 186.392 214.104C183.473 234.315 164.018 236.477 146.671 235.45C148.508 234.856 150.346 234.261 152.183 233.667C147.481 233.397 142.942 233.667 138.456 236.045C174.557 192.703 110.841 169.303 127.27 219.292C125.918 207.997 131.107 184.597 143.374 200.917C144.077 237.504 122.352 246.151 87.8187 236.153C89.9263 233.397 86.5217 236.855 85.9812 237.342C81.874 234.478 77.6587 236.91 73.1732 239.395C72.903 238.477 73.3894 237.774 73.2273 236.91C71.7681 239.341 69.1741 238.909 67.0124 239.666C70.0388 242.8 63.6618 245.07 63.7158 247.61C63.1754 246.745 63.7699 245.826 63.2295 244.962C49.1785 269.389 52.421 223.885 100.032 220.427C78.8477 218.589 97.6544 217.779 100.627 212.374C80.9553 210.321 87.4404 219.562 80.523 216.914C81.0634 217.346 81.4957 217.67 81.9821 218.049C67.6609 225.561 66.4179 204.808 70.7954 209.24C71.0656 202.809 74.9566 206.916 76.7941 206.214C75.8753 199.782 79.6583 208.159 79.1179 202.539C83.6574 208.753 83.6574 213.996 77.4426 216.644C84.6842 216.644 84.1979 211.131 86.7919 207.078C89.494 209.024 85.9812 201.512 92.9527 206.97C94.574 200.593 96.4114 213.833 105.22 204.052C107.22 201.025 106.193 197.513 105.545 195.945C107.868 199.242 107.652 203.619 110.138 206.862C110.57 202.593 112.84 203.079 115.056 201.674C111.003 203.187 117.92 192.325 115.921 189.514C118.19 186.272 113.921 185.731 118.353 185.569C116.353 180.273 110.03 187.461 109.76 182.543C104.302 178.706 92.5204 181.462 94.4118 189.028C88.4131 193.189 71.3358 187.569 63.986 199.566C66.0937 200.917 62.2567 205.241 60.7976 206.051C61.1758 210.969 62.2026 219.13 66.3099 222.534C57.8252 225.615 54.3665 232.424 50.6916 232.208C44.4227 239.233 43.5581 243.341 42.8015 237.99C41.0721 240.747 40.1534 241.989 40.5317 243.665C50.3134 254.419 26.1024 264.903 31.3986 249.934C34.3709 239.882 26.3186 231.938 15.5642 236.315C16.2127 233.667 17.2395 231.559 19.6173 230.37C17.888 226.209 26.7509 224.21 23.2922 226.912C25.1837 226.75 26.5888 228.371 28.5343 227.993C27.8318 228.749 26.6428 228.533 25.9943 229.938C49.827 232.424 48.9623 220.319 49.7729 203.782C45.1793 177.895 69.012 177.463 88.5212 170.492C100.573 165.682 105.545 155.954 116.515 151.09C136.889 145.362 169.314 147.74 176.016 171.626C176.556 167.249 168.936 149.793 165.423 147.361C165.477 148.064 166.18 148.55 166.072 149.415C157.966 146.875 158.344 144.281 152.886 142.66C146.292 139.796 142.942 142.876 138.078 137.634C137.321 140.12 124.513 137.688 124.946 136.067C117.65 137.039 113.381 136.985 107.706 139.633C110.3 136.877 109.706 137.688 110.57 135.959C106.571 137.796 103.599 139.039 101.708 142.065C98.6271 169.411 48.8542 161.737 51.178 171.302C39.3428 177.409 29.6692 192.379 29.399 204.106C29.9394 203.025 29.399 201.89 30.3718 200.863C30.9122 204.916 32.6415 208.591 29.399 208.537C34.7492 216.265 13.5646 203.674 4.05317 224.804C-0.48638 235.072 0.378296 258.959 0 271.551C2.8102 282.899 12.4297 290.628 16.8612 299.869C17.0233 298.896 16.3208 298.247 16.8071 297.221C21.0224 306.462 28.9667 308.461 32.1551 319.054C32.5334 318.567 32.8037 318.189 33.236 317.649C34.3168 320.351 43.0717 324.512 38.8564 324.296C40.1534 325.971 40.856 328.025 42.5313 329.43C41.6125 329.268 40.6938 329.106 39.3428 328.889C44.2606 334.186 49.6648 334.942 51.7725 341.049C50.4214 330.673 63.6618 358.559 66.4179 358.397C54.8529 337.482 147.427 450.701 181.474 426.922C180.015 427.084 179.042 427.841 177.637 427.787C181.852 424.652 184.662 423.842 187.419 425.355C187.094 426.22 186.284 426.057 185.797 426.598C194.876 425.085 204.388 431.354 211.738 434.974C211.846 434.488 211.954 434.002 212.116 433.353C222.492 439.136 233.679 447.674 242.974 451.619C242.217 450.809 241.137 450.863 240.596 449.836C265.456 456.159 256.268 454.538 282.425 452.376C294.963 449.458 305.609 441.838 316.58 442.378C315.12 442.216 313.823 442.865 312.148 442.054C318.471 439.676 323.011 445.08 327.874 442.324C322.308 442.216 322.957 442.054 321.984 441.946C340.034 439.892 351.437 425.949 366.947 418.275C396.292 409.845 403.263 414.384 434.122 366.557C433.635 366.935 433.203 367.368 432.5 367.908C440.661 353.533 445.2 345.21 440.553 334.672L440.39 334.402ZM375.107 165.52C377.864 162.655 381.971 162.277 381.16 166.655C383.646 167.033 386.24 166.655 387.321 167.627C380.728 167.303 374.297 168.06 368.082 170.383C366.569 164.817 372.892 165.466 375.107 165.466V165.52ZM210.711 65.1091C202.658 64.5687 195.417 61.2181 187.905 58.4619C184.068 60.3534 175.043 52.3011 171.584 50.7879C185.311 54.3007 201.524 55.4356 210.711 65.1091ZM75.6592 43.7625C79.334 44.0867 77.983 44.3029 79.0638 44.465C77.4966 45.2216 76.7941 44.1948 75.6592 43.7625ZM86.5217 47.2752C88.5753 47.8697 90.4668 48.7884 92.2502 49.8692C90.1425 49.4369 88.3051 48.4641 86.5217 47.2752ZM80.6311 28.6847C84.8464 29.3872 88.5212 31.6029 92.3042 33.4404C88.4131 31.8731 84.5221 30.2519 80.6311 28.6847ZM93.1689 33.8727C95.1684 34.4131 97.0059 35.3859 98.6271 36.6289C96.7897 35.7101 95.0063 34.7914 93.1689 33.8727ZM192.931 86.3478C196.119 86.7801 199.146 87.7529 202.064 88.8877C198.93 88.2933 195.687 88.1852 192.931 86.3478ZM301.124 194.919C300.205 196.324 298.313 196.864 297.989 198.702C313.175 184.975 333.495 177.679 349.924 170.329C357.814 176.382 291.936 204.971 287.937 203.457C292.315 200.323 296.638 197.513 301.069 194.919H301.124ZM328.037 235.721C331.657 234.261 335.008 233.505 338.899 234.802C334.305 234.748 330.793 235.504 328.037 235.721ZM406.776 285.872C406.398 287.331 409.37 287.115 409.208 288.412C403.101 289.601 403.209 279.441 406.776 285.872ZM409.478 306.462C410.451 307.219 411.154 308.245 411.694 309.326C410.397 308.786 409.694 307.813 409.478 306.462ZM407.641 289.655C410.127 295.005 412.451 291.492 412.613 294.14C409.478 299.599 408.614 291.06 407.641 289.655ZM264.213 301.328C263.078 295.545 264.483 289.655 263.294 283.926C266.158 289.601 265.888 295.437 264.213 301.328ZM211.089 252.095C214.007 250.42 215.737 258.256 213.089 257.121C211.575 256.581 210.927 252.474 211.089 252.095ZM210.657 258.689C211.251 258.418 210.981 257.608 211.738 257.337C209.576 264.903 203.253 271.443 197.2 274.361C207.576 267.281 208.765 254.365 210.657 258.743V258.689ZM148.346 292.735C157.155 288.088 152.669 294.681 150.183 292.465C147.481 296.95 146.292 294.465 148.346 292.735ZM141.212 296.896C138.24 296.518 140.618 295.545 141.321 295.221C143.969 295.491 142.023 296.896 141.212 296.896ZM142.455 290.087C141.429 292.249 140.186 293.168 139.537 293.384C137.484 292.303 142.563 290.519 142.455 290.087ZM116.569 247.664C115.218 245.989 114.84 246.907 114.462 246.421C117.272 245.826 120.19 247.178 123.108 245.502C121.811 245.286 120.839 245.935 119.65 245.61C126.567 244.746 131.593 240.584 136.295 238.909C131.809 251.717 114.299 252.852 103.545 245.502C107.868 246.529 112.354 246.367 116.569 247.718V247.664ZM94.6821 244.584H86.3055C89.3319 242.962 92.034 244.313 94.6821 244.584ZM324.308 395.794C324.2 394.335 324.308 393.092 324.524 391.741C325.767 392.659 325.767 393.038 324.308 395.794Z" fill="#803D1D"/>
<path d="M263.673 187.684C261.025 183.901 241.3 157.906 247.244 168.553C244.488 166.607 242.759 163.635 239.57 162.338C249.136 170.336 254.594 181.091 263.673 187.684Z" fill="#803D1D"/>
<path d="M133.863 228.259C132.782 228.907 131.918 229.826 130.621 230.204C132.945 227.394 134.782 225.448 134.512 223.071C130.891 232.798 120.191 235.5 112.192 236.203C121.488 237.932 130.08 235.068 133.863 228.259Z" fill="#803D1D"/>
<path d="M82.0361 54.2539C87.8727 57.4424 94.1956 59.2798 99.9241 62.3602C95.6548 56.7939 86.8999 55.8752 82.0361 54.2539Z" fill="#803D1D"/>
<path d="M203.739 241.352C204.82 242.757 206.495 243.892 205.955 246.054C206.766 249.242 204.604 251.782 205.09 253.728C210.062 248.161 208.765 244.27 203.739 241.352Z" fill="#803D1D"/>
<path d="M216.44 254.953C218.98 257.222 221.628 256.574 223.141 255.439C220.277 255.115 216.115 253.115 216.44 254.953Z" fill="#803D1D"/>
<path d="M171.693 172.496C170.18 175.09 171.423 177.522 172.828 178.657C172.558 175.631 173.368 172.388 171.693 172.496Z" fill="#803D1D"/>
<path d="M240.002 167.026C239.353 164.432 237.029 163.351 235.462 161.514C234.814 164.973 239.732 165.945 240.002 167.026Z" fill="#803D1D"/>
<path d="M316.473 308.625C317.337 306.031 315.878 305.112 313.933 304.896C315.122 308.085 315.824 310.246 316.473 308.625Z" fill="#803D1D"/>
<path d="M99.2227 224.158C100.412 226.806 102.627 226.482 104.195 225.023C101.06 224.266 100.195 223.564 99.2227 224.158Z" fill="#803D1D"/>
<path d="M303.665 287.395C303.286 285.071 301.341 284.26 300.152 282.477C298.693 285.666 303.34 286.368 303.665 287.395Z" fill="#803D1D"/>
<path d="M370.838 253.67C369.595 251.347 358.948 247.942 357.651 248.699C360.191 250.05 370.784 255.13 370.838 253.67Z" fill="#803D1D"/>
<path d="M133.971 219.988C130.837 219.663 131.485 223.5 130.566 224.365C132.674 223.392 132.89 221.393 133.971 219.988Z" fill="#803D1D"/>
<path d="M236.274 258.261C239.517 259.666 238.49 256.316 235.085 255.667C222.655 256.748 239.246 259.558 236.274 258.261Z" fill="#803D1D"/>
<path d="M355.544 246.97C353.761 245.349 352.032 244.106 351.167 244.971C352.464 247.727 354.68 246.106 355.544 246.97Z" fill="#803D1D"/>
<path d="M246.54 261.119C243.838 260.687 245.514 262.254 246.108 262.416C249.134 264.686 248.054 260.363 246.54 261.119Z" fill="#803D1D"/>
<path d="M92.4131 63.3279C94.6829 65.4355 97.5471 66.3002 100.357 67.2189C97.7092 65.9219 95.0612 64.6249 92.4131 63.3279Z" fill="#803D1D"/>
<path d="M180.555 200.375C180.068 199.456 179.852 199.078 179.42 198.916C175.961 197.889 180.717 202.915 180.555 200.375Z" fill="#803D1D"/>
<path d="M179.799 279.39C181.204 278.579 182.447 277.877 183.69 277.12C180.069 277.066 180.339 277.444 179.799 279.39Z" fill="#803D1D"/>
<path d="M224.113 418.772C227.193 416.61 221.627 417.151 221.951 416.989C222.924 418.61 223.518 418.664 224.113 418.772Z" fill="#803D1D"/>
<path d="M197.363 233.193C196.444 234.112 196.984 235.03 197.147 234.976C201.902 236.76 197.471 232.977 197.363 233.193Z" fill="#803D1D"/>
<path d="M209.685 414.816C211.036 415.465 212.387 415.627 213.954 415.843C212.549 414.33 211.576 414.114 209.685 414.816Z" fill="#803D1D"/>
<path d="M258.052 275.059C257.404 273.708 257.025 273.6 256.593 273.438C254.593 274.464 258.052 276.248 258.052 275.059Z" fill="#803D1D"/>
<path d="M305.664 291.229C305.069 289.986 304.691 289.878 304.259 289.716C302.313 291.013 305.88 292.31 305.664 291.229Z" fill="#803D1D"/>
<path d="M120.299 226.91C121.542 226.748 121.65 226.423 121.758 226.045C119.326 223.451 119.488 227.45 120.299 226.91Z" fill="#803D1D"/>
<path d="M99.3304 335.762C99.6006 334.951 99.9249 334.302 100.627 333.654C97.3849 333.167 98.2495 335.329 99.3304 335.762Z" fill="#803D1D"/>
<path d="M220.601 396.227C220.601 395.417 220.871 394.768 221.249 394.12C218.331 393.795 219.682 396.065 220.601 396.227Z" fill="#803D1D"/>
<path d="M107.598 326.513C106.409 327.054 105.598 327.756 105.004 328.837C106.517 328.783 107.382 328.134 107.598 326.513Z" fill="#803D1D"/>
<path d="M312.04 298.952C311.013 298.141 310.094 297.438 309.176 296.682C309.77 297.763 310.905 298.411 310.581 300.032C311.121 299.6 311.5 299.33 312.04 298.898V298.952Z" fill="#803D1D"/>
<path d="M110.084 225.731C109.598 228.757 113.273 226.812 114.083 226.596C112.57 226.65 111.111 227.352 110.084 225.731Z" fill="#803D1D"/>
<path d="M223.897 389.155C225.465 388.884 225.627 387.912 225.627 386.507C224.708 387.263 224.168 388.02 223.897 389.155Z" fill="#803D1D"/>
<path d="M136.295 224.106C137.862 223.349 137.808 222.16 137.97 221.025C137.484 221.944 136.997 222.863 136.295 224.106Z" fill="#803D1D"/>
<path d="M238.003 158.115C238.76 158.926 239.516 159.683 240.273 160.493C239.732 158.872 239.3 158.494 238.003 158.115Z" fill="#803D1D"/>
<path d="M214.223 41.5934C208.873 39.9722 203.739 38.1347 198.173 37.7024C203.253 39.8641 208.063 43.1607 214.223 41.5934Z" fill="#803D1D"/>
<path d="M243.676 56.0309C244.162 55.5985 244.865 55.9768 245.243 55.3824C239.731 51.8156 243.46 60.4623 244.325 61.9215C243.73 58.2466 244.865 57.1658 243.676 56.0849V56.0309Z" fill="#803D1D"/>
<path d="M430.447 246.423C429.528 249.341 431.15 251.233 432.933 252.205C431.852 249.233 432.068 245.828 430.447 246.423Z" fill="#803D1D"/>
<path d="M204.496 81.2144C200.551 80.674 196.768 80.1336 193.039 79.6472C196.606 81.6468 200.389 81.971 204.496 81.2144Z" fill="#803D1D"/>
<path d="M232.328 47.3928V47.448H232.383L232.328 47.3928Z" fill="#803D1D"/>
<path d="M241.893 52.0274C238.489 50.9466 235.3 49.4874 232.382 47.4338C233.571 51.2708 240.596 51.9734 241.893 52.0274Z" fill="#803D1D"/>
<path d="M438.716 275.663C440.878 273.987 437.581 271.177 437.743 273.285C438.121 275.501 438.284 275.393 438.716 275.663Z" fill="#803D1D"/>
<path d="M239.677 48.7909C234.543 46.1429 232.273 45.8186 232.327 47.3858C234.759 46.4671 238.164 48.6829 239.677 48.7909Z" fill="#803D1D"/>
<path d="M371.865 119.145C374.999 117.956 370.297 116.93 370.622 116.822C370.838 118.605 371.324 118.875 371.865 119.145Z" fill="#803D1D"/>
<path d="M433.96 260.196C434.717 261.602 435.527 262.953 436.284 264.358C436.014 262.682 434.717 261.223 435.743 259.17C434.933 259.656 434.446 259.926 433.96 260.196Z" fill="#803D1D"/>
<path d="M360.949 110.553C361.976 111.58 362.949 112.39 364.408 112.877C363.813 111.147 362.679 110.607 360.949 110.553Z" fill="#803D1D"/>
<path d="M330.36 183.242C328.955 183.242 329.063 184.161 329.009 184.648C329.982 186.863 333.332 182.864 330.36 183.242Z" fill="#803D1D"/>
<path d="M127.757 246.25C126.136 246.682 124.947 247.006 123.596 247.331C125.163 247.763 126.352 247.385 127.757 246.25Z" fill="#803D1D"/>
<path d="M227.086 180.332C226.816 180.008 223.087 181.575 220.061 184.656C220.061 184.656 220.007 184.71 219.953 184.764C219.953 184.764 219.845 184.818 219.845 184.872C216.44 188.547 215.413 192.978 215.089 195.734C215.954 193.897 217.305 191.411 219.304 188.709C219.412 189.357 219.628 190.06 220.061 190.6C220.925 191.789 222.547 192.492 222.925 192.114C223.141 191.897 222.925 191.195 222.331 189.844C221.682 188.223 221.412 187.898 220.925 186.601C224.276 182.656 227.356 180.603 227.086 180.278V180.332Z" fill="#803D1D"/>
</svg>
