<svg width="372" height="509" viewBox="0 0 372 509" fill="none" xmlns="http://www.w3.org/2000/svg">
<path d="M208.019 235.843C209.776 235.242 211.534 234.641 213.384 233.993C211.58 234.456 209.776 235.057 208.019 235.843Z" fill="#803D1D"/>
<path d="M372 263.839C371.168 267.17 370.983 270.639 369.965 274.108C373.203 253.755 368.485 224.983 370.798 209.533C370.566 191.03 359.326 191.262 354.747 178.356C347.53 149.538 317.186 135.476 298.174 120.072C297.295 118.499 296.648 117.805 295.352 116.973C293.456 122.292 297.11 123.264 297.619 125.438C298.174 124.559 297.156 123.911 297.434 122.94C306.13 128.121 315.012 132.839 322.505 139.777C307.009 134.458 300.718 141.396 301.181 156.199C301.32 161.38 298.914 166.514 294.89 169.752C290.449 173.268 284.343 174.378 280.411 178.448C276.757 182.195 275.693 187.654 273.149 192.233C269.402 198.94 262.602 203.381 255.756 206.943C239.844 215.223 232.766 229.239 213.431 234.096C215.975 233.448 218.612 233.078 221.295 232.801C197.38 240.479 209.684 243.162 185.029 238.166C194.512 223.688 197.38 242.931 216.947 226.047C244.099 219.756 221.572 223.873 267.737 181.178C253.305 194.777 237.3 204.584 228.511 219.525C212.321 220.542 204.087 233.078 189.655 227.805C182.578 237.935 171.245 240.896 159.634 242.329C153.759 243.07 147.838 243.486 142.01 244.735C138.032 245.614 130.261 249.314 126.375 247.557C122.258 245.706 123.831 240.294 125.357 236.686C128.133 230.118 130.816 224.521 134.701 219.062C135.95 217.304 138.68 210.875 142.288 209.441C142.103 209.441 141.964 209.441 141.779 209.348C145.896 207.683 150.753 207.267 150.614 201.577C150.013 205.694 147.052 207.082 143.213 208.145C155.98 197.553 137.384 180.576 152.927 173.915C149.134 185.156 153.806 192.141 154.453 202.04C154.916 209.394 144.554 211.106 140.299 214.251C137.338 216.426 135.303 220.912 133.961 224.335C132.805 227.296 132.389 235.53 129.844 237.38C134.054 234.327 137.523 231.32 139.605 226.417C141.409 222.115 141.316 219.062 146.173 216.934C148.625 215.87 151.076 214.807 153.204 213.234C156.257 210.921 158.431 208.099 159.31 204.306C161.623 194.546 155.933 184.601 158.616 174.655C160.467 167.809 165.37 162.582 171.013 158.512C180.265 151.851 194.974 144.357 206.354 143.247C194.974 144.403 160.698 150.417 165.786 137.187C192.199 145.606 194.558 135.337 201.774 139.037C209.823 134.828 197.935 131.22 198.721 130.942C180.866 137.65 203.578 121.275 202.561 131.682C206.677 131.682 202.746 126.363 202.792 125.762C234.941 121.367 241.972 123.68 250.622 88.5708C256.913 98.1923 250.622 109.849 245.487 118.407C240.445 126.825 235.079 133.718 224.857 135.892C231.749 134.412 238.317 131.174 243.637 126.502C242.388 129.37 240.168 131.775 237.438 133.255C239.242 132.931 241 132.376 242.666 131.59C248.309 128.907 252.333 123.819 256.173 118.869C259.179 114.984 260.983 110.265 262.186 105.547C265.1 94.0754 263.204 88.4321 257.144 78.7643C256.959 78.4868 256.774 78.163 256.728 77.8392C256.543 76.9603 257.144 76.1739 257.745 75.4801C263.666 68.264 268.893 58.1337 266.858 48.5584C265.748 43.3776 262.371 39.6771 263.481 34.0337C264.221 30.1944 266.951 27.1876 267.876 23.4408C269.171 18.1675 266.58 15.7159 264.73 11.1364C264.776 11.2752 264.823 11.414 264.869 11.5527C247.43 7.43585 250.899 15.7621 259.179 20.9892C259.781 18.3988 258.994 16.9648 255.294 14.3282C256.913 14.0969 257.653 15.2996 258.855 16.1322C272.733 16.826 257.884 40.0009 248.586 44.3028C253.212 42.4525 257.19 39.9083 261.03 36.2078C258.439 38.7519 258.393 50.2699 257.098 54.0168C255.479 58.8738 254.554 64.4709 250.899 68.3102C245.95 73.491 241.463 76.359 234.385 77.4229C229.39 78.2092 224.163 78.9494 219.398 77.2378C227.216 79.967 239.844 85.1941 247.291 79.0419C248.818 84.9628 246.042 91.0687 243.313 96.5271C241.925 99.3487 240.445 102.263 237.994 104.206C235.588 106.149 232.535 106.981 229.575 107.768C224.394 109.109 219.121 110.358 213.755 110.497C206.169 110.682 196.963 108.461 190.58 104.159C184.243 99.9038 185.214 92.8265 187.018 86.2117C209.175 66.0899 190.025 66.2749 208.111 51.6577C193.078 56.7459 199.276 70.5306 190.21 77.7929C183.873 81.4472 176.98 86.1655 174.02 93.1503C172.91 95.7407 171.892 98.9787 171.476 101.754C170.874 105.778 173.095 111.191 170.828 114.799C169.764 116.464 167.729 117.25 166.202 118.545C164.121 120.257 162.826 122.986 162.918 125.669C162.918 127.704 163.658 130.017 162.409 131.636C161.762 132.515 160.652 132.931 159.819 133.672C157.367 135.846 157.83 139.685 158.524 142.83C160.004 149.908 162.872 153.146 158.94 160.593C157.367 163.554 155.101 166.237 152.464 168.318C151.77 168.873 143.814 172.851 143.86 172.574C142.288 225.168 125.172 198.293 120.408 231.135C122.351 228.961 123.97 226.602 125.08 223.734C124.34 233.032 119.113 245.429 110.833 244.966C116.846 241.728 117.864 234.512 119.205 230.673C115.597 242.7 107.919 247.51 97.9733 248.667C98.4821 247.834 98.8984 247.187 99.4997 246.215C88.3518 246.076 81.8758 247.233 76.51 254.403C76.7875 253.57 77.065 252.737 77.3426 251.905C65.177 264.07 59.7649 244.596 57.1745 238.86C58.6084 239.092 58.7472 240.479 59.7649 240.803C59.4411 238.721 58.7472 237.565 56.0643 234.327C67.4898 239.554 77.9439 234.003 84.8825 234.327C126.653 217.998 140.391 172.944 149.92 133.348C150.614 130.434 151.863 127.658 153.019 124.836C154.638 120.905 156.165 116.88 157.506 112.856C165.046 90.3749 175.361 73.0747 192.477 56.2371C204.272 44.6728 225.597 24.4585 244.146 29.223C234.709 34.08 225.365 38.8444 216.577 44.7653C231.286 35.1439 251.084 35.0051 260.289 22.1456C256.589 23.7646 253.166 25.1986 249.373 26.8176C250.853 23.4871 251.871 22.4694 250.483 22.3769C228.048 1.74623 218.797 -2.13937 195.067 13.3105C195.344 12.0616 196.501 11.3214 196.501 9.84122C170.042 45.783 150.29 -4.03591 119.205 0.265997C106.022 5.44679 88.4443 9.51742 76.9725 15.1145C77.7589 15.3921 78.314 14.5594 79.0541 14.7445C74.5209 20.8504 64.6219 19.1389 61.3839 20.5729C62.8178 20.5729 63.8355 20.5729 64.8994 20.5729C37.5152 27.5577 19.845 23.9496 18.3648 61.7417C8.97456 88.3396 -11.3786 84.1764 8.23445 160.269C8.23445 159.344 8.2807 158.789 8.32696 158.234C18.1335 185.942 28.1713 213.28 34.9711 239.693C35.3874 239.6 34.9711 239.138 35.3874 238.768C36.8213 259.491 42.4647 260 57.1745 267.586C49.6346 271.657 42.2334 275.403 36.22 281.232C37.0989 280.677 37.9778 280.168 38.9029 279.613C30.0678 286.968 25.8584 303.481 19.845 306.442C9.71467 328.414 29.8828 390.907 54.8154 405.848C40.9382 410.474 63.928 423.75 80.6731 452.661C80.7656 451.782 80.0717 451.273 80.4418 450.394C85.0213 459.784 90.0633 455.991 96.7706 460.524C82.6622 465.613 107.641 500.028 114.256 502.526C93.5788 468.249 92.5612 445.583 120.732 485.873C122.49 482.45 122.998 484.717 123.137 485.966C127.67 485.179 128.781 481.849 129.104 485.226C135.303 483.422 134.886 487.261 135.257 490.591C134.054 489.805 133.915 489.574 133.637 489.389C127.948 506.411 128.087 490.453 129.058 487.862C127.948 491.054 125.034 490.083 122.767 490.776C122.258 495.819 118.511 495.263 118.003 497.114C136.274 505.209 143.398 498.501 157.876 496.189C150.845 501.231 142.103 502.433 135.349 507.845C141.64 506.226 143.351 507.244 146.913 508.585C153.944 504.469 169.07 504.145 174.39 503.173C176.055 502.85 181.652 489.574 183.133 487.4C185.399 484.023 187.897 480.692 191.043 478.102C195.206 474.679 199.693 473.338 205.012 473.615C218.195 474.309 226.892 475.327 237.67 465.613C241.972 461.727 245.95 457.656 247.708 452.198C250.298 444.334 253.397 436.702 257.098 429.255C255.525 432.4 250.853 435.962 248.679 439.154C246.042 443.039 243.452 446.323 239.983 449.423C228.973 459.275 217.085 465.058 202.191 463.716C193.818 462.93 185.492 461.866 177.212 460.571C173.187 459.923 169.209 459.275 165.185 458.582C162.271 458.073 156.211 455.667 153.436 456.407C167.451 452.614 183.271 458.72 192.985 450.209C177.535 451.967 147.515 454.835 134.979 448.821C137.338 450.255 138.356 450.116 138.078 451.134C131.787 447.665 124.849 450.533 118.049 448.914C119.575 448.451 120.871 449.33 122.166 448.497C98.0195 444.334 90.3871 446.046 79.2391 414.961C82.9397 416.488 87.0103 416.719 89.7857 420.651C88.1205 420.003 87.0103 418.8 85.2988 419.587C117.586 452.661 176.934 406.033 229.667 435.823C252.426 438.645 242.989 436.193 255.109 422.131C271.299 415.054 290.31 411.677 302.383 400.529C301.828 400.298 301.366 400.066 300.764 399.835C328.75 379.112 355.44 347.056 366.773 314.537C366.08 316.387 365.386 318.145 364.692 320.041C368.485 301.77 369.826 280.63 371.862 263.793L372 263.839ZM295.63 117.898C296.231 118.175 296.648 118.592 297.018 119.054C296.555 118.684 296.092 118.268 295.63 117.898ZM177.212 150.324C173.927 152.776 169.949 153.701 166.619 156.476C166.665 153.423 166.85 150.74 166.388 147.826C170.042 149.168 173.557 149.908 177.212 150.324ZM177.443 94.1679C181.144 91.3 184.197 88.7559 186.694 86.4893C184.243 92.2252 183.595 98.2848 183.78 102.17C177.304 109.016 174.159 100.043 177.443 94.1679ZM177.952 122.292C177.813 123.171 176.842 123.032 176.518 123.865C191.043 122.662 184.104 128.167 177.489 128.815C178.599 128.815 179.71 128.768 181.236 128.676C174.483 130.48 174.991 129.74 171.707 128.63C172.355 127.566 173.141 128.074 173.604 127.473C167.081 122.2 174.853 122.431 177.859 122.292H177.952ZM147.006 198.755C147.561 200.883 147.145 202.271 145.711 203.381C146.081 201.993 146.497 200.606 147.006 198.755ZM133.314 219.293C132.666 214.205 131.556 216.194 129.613 214.668C135.349 210.273 133.684 218.137 133.314 219.293ZM248.679 27.604C248.124 29.3155 247.754 29.4542 245.626 28.7141C246.459 27.8815 247.569 27.8815 248.679 27.604ZM90.9884 207.775C86.7328 207.174 85.5301 206.203 83.2635 207.313C73.8733 199.079 100.61 203.844 90.9884 207.775ZM82.1996 171.279C77.7126 154.348 85.2063 148.844 96.123 141.813C95.5216 143.386 95.2903 145.19 92.6537 144.912C98.2971 146.762 82.1071 163.276 82.1533 171.279H82.1996ZM90.9422 203.242C87.7042 203.242 87.3804 202.502 86.9178 201.577C87.1028 197.969 90.4333 203.011 90.9422 203.242ZM106.623 189.365C97.6495 203.196 88.4443 210.042 95.1978 189.828C99.2685 184.231 106.346 190.522 108.104 187.792C103.755 170.585 118.373 188.024 106.67 189.365H106.623ZM119.483 191.169C119.575 190.244 119.622 189.504 119.714 188.486C118.511 189.55 117.401 190.151 116.106 190.337C120.824 180.16 127.393 183.583 119.483 191.215V191.169ZM32.5657 161.75C29.0039 131.127 31.8256 115.492 42.881 88.6171C48.1543 59.6139 55.8793 57.3935 84.0036 47.7721C109.399 40.3709 107.41 19.2314 144.97 29.223C125.681 18.445 108.289 23.8571 95.2441 38.8907C75.6311 48.0033 49.8659 46.2456 42.6035 70.2068C37.7927 75.7114 43.2511 62.3431 45.3327 59.3826C44.4538 60.354 43.6211 61.3254 42.7423 62.343C44.1762 58.3187 47.4605 55.682 49.9121 52.444C36.1737 63.9158 35.8962 83.02 30.7617 96.6196C35.6649 89.1722 35.6649 79.6895 40.7995 72.3808C36.8676 98.8399 19.0124 117.62 24.5632 170.353C22.0653 168.179 24.4244 161.518 22.4816 161.241C23.5918 167.717 22.2966 169.29 22.4816 172.157C18.596 169.197 17.3008 155.782 16.0056 151.203C16.7458 151.295 16.8383 152.359 17.9022 152.637C16.5145 141.767 13.6928 136.216 11.935 127.936C13.1377 128.352 12.9989 129.74 14.0628 130.434C8.55824 106.935 14.7104 111.514 18.041 125.947C18.411 110.08 17.2083 94.4918 26.136 82.2799C24.5632 82.9737 24.7482 83.1125 24.2857 83.205C37.4689 68.9578 25.8584 38.8907 44.9626 39.6308C44.1762 40.5097 43.7599 40.9723 43.1123 41.7124C127.3 32.6922 79.2854 -11.5296 177.073 32.646C198.953 36.3928 214.032 1.51494 232.396 18.3988C220.74 15.1608 211.534 19.9715 203.023 27.1876C213.339 21.5443 221.11 18.445 228.881 24.4585C228.742 20.9892 236.282 26.1237 239.566 26.4013C229.158 28.4828 218.982 31.397 208.111 32.646C209.129 33.4324 209.823 32.8773 210.609 33.3398C199.739 40.2784 195.391 42.1287 187.712 46.5694C188.591 45.1354 190.117 44.4415 190.719 42.5913C133.591 85.5641 160.605 113.087 117.124 113.226C117.633 113.873 118.373 113.688 119.02 114.151C117.864 114.845 116.754 115.492 115.69 116.186C117.17 115.955 118.465 114.984 120.269 115.863C122.351 110.173 139.188 117.111 141.964 112.671C138.032 129.925 127.485 142.784 119.298 157.17C119.298 155.644 119.575 154.58 119.02 153.1C114.395 192.418 106.438 156.384 100.194 180.252C99.4072 179.466 99.4997 178.263 98.5746 177.616C98.0658 178.541 97.5569 179.374 96.9556 180.437C96.0767 172.528 99.8235 164.803 104.819 163.6C102.229 158.049 113.608 153.423 113.284 148.335C107.78 160.084 118.511 123.958 117.309 119.147C106.161 124.698 95.9379 127.566 86.8253 131.96L88.5368 129.971C61.1988 137.927 55.0004 213.511 85.2988 219.802C90.1558 222.346 77.9439 220.357 75.5386 217.212C75.7698 217.767 76.0936 218.368 76.2324 219.201C73.5495 215.963 72.5318 212.309 70.404 209.302C71.7455 213.095 73.642 216.611 75.8624 219.987C56.1568 227.666 52.2712 153.47 32.5194 161.935L32.5657 161.75ZM44.6388 243.995C51.2536 244.319 48.7557 253.107 51.3461 255.883C45.8877 254.033 44.5463 251.627 44.6388 243.995ZM46.9979 233.032C42.7885 224.104 54.0752 232.616 53.9365 233.309C49.5421 232.523 49.6346 235.298 46.9979 233.032ZM158.246 495.633C159.31 493.274 161.623 493.182 162.409 492.719C160.328 495.402 159.403 496.096 158.246 495.633ZM118.928 463.67C118.003 464.317 117.494 464.687 116.985 465.011C136.783 465.89 152.418 475.882 170.273 470.701C161.299 475.327 163.242 480.184 151.215 483.237C143.351 486.521 146.867 476.206 140.206 475.142C122.628 467.37 124.34 487.77 109.121 462.328C114.024 460.062 115.597 464.641 118.928 463.624V463.67ZM110.231 448.683C104.033 449.931 95.8917 447.295 93.7176 443.085C101.165 445.121 105.559 448.035 110.231 448.683ZM312.421 223.549C311.219 221.098 310.016 218.646 308.813 216.194C310.525 218.415 312.375 220.542 312.421 223.549ZM108.936 245.938C107.363 247.14 105.606 247.557 103.94 248.112C105.421 247.048 106.855 246.03 108.936 245.938ZM87.1028 256.16C88.028 254.356 88.6293 254.403 89.2769 254.356C104.958 254.403 81.0894 264.718 88.213 255.79C87.7967 255.929 87.4729 256.022 87.1028 256.16ZM64.5756 415.84C60.6438 413.758 59.8111 409.503 56.9894 406.727C61.0601 408.254 59.3948 405.571 58.8397 404.322C63.0954 411.353 65.362 413.203 68.6462 417.644C67.5823 417.783 67.1198 416.811 66.1021 416.765C66.6572 417.829 67.166 418.754 67.7674 419.864C62.7716 420.142 61.8927 416.349 64.6219 415.84H64.5756ZM66.6572 420.836C70.1265 422.501 71.653 423.334 72.3931 425.646C69.5251 428.607 67.351 421.206 66.6572 420.836ZM357.152 274.524C356.504 288.355 354.747 302.325 350.583 315.601C349.103 320.319 347.16 324.945 345.171 329.524C340.962 339.099 337.076 347.657 327.825 353.393C330.277 343.91 330.647 333.872 328.935 324.205C328.426 334.751 326.021 345.159 321.811 354.873C320.979 356.816 320.054 358.759 318.62 360.331C315.891 363.292 312.19 365.003 309.553 368.103C308.304 369.583 308.859 371.063 307.379 372.358C305.298 374.116 300.764 374.671 298.267 376.244C296.925 377.076 295.584 378.094 294.797 379.482C294.15 380.638 293.918 382.026 293.456 383.275C290.958 389.89 282.447 395.163 276.479 397.615L284.898 394.562C283.603 395.718 282.215 396.782 280.643 397.846C271.206 404.044 260.289 407.097 249.049 407.745C250.761 407.652 249.188 396.597 248.216 395.394C244.099 390.352 238.595 395.024 235.172 392.388C227.031 386.235 231.934 365.281 233.969 355.474C233.09 355.012 231.934 355.243 231.333 355.983C229.76 364.171 228.187 372.358 226.614 380.546C225.597 385.958 224.533 391.462 222.081 396.412C215.698 409.364 204.966 406.219 192.893 408.763C186.833 410.012 181.791 412.88 175.5 411.214C172.17 410.335 168.839 408.948 165.37 408.948C160.328 408.948 155.795 411.769 151.77 414.869C150.336 415.979 148.949 417.089 147.376 417.968C139.743 422.177 126.468 422.362 118.095 420.466C108.104 418.199 99.9161 412.278 93.4863 404.461C84.6049 393.59 90.2021 378.788 92.3761 366.53C91.5898 366.021 90.7109 367.039 90.3408 367.871L87.5654 373.931L86.409 373.052C83.6798 375.272 82.7084 378.927 81.2744 382.165C77.5739 390.399 72.1618 396.181 62.3553 394.562C40.7532 391 27.1536 350.571 25.2108 331.467C22.2504 302.094 40.4294 280.26 65.362 267.17C59.071 272.397 53.0576 277.855 48.1543 284.377C53.9827 277.207 67.5361 264.487 74.891 270.315C77.065 272.073 77.4814 274.987 76.695 277.531C83.171 279.196 100.286 264.995 101.905 274.987C103.293 283.637 90.6646 292.472 91.8211 302.649C92.6537 309.819 93.4863 317.035 94.3189 324.205C97.8345 317.96 98.5283 310.559 99.9161 303.528C102.136 292.333 109.63 281.972 117.679 274.154C121.703 270.223 126.421 266.106 131.648 263.885C137.893 261.156 144.092 262.775 150.799 263.423C152.464 263.608 154.129 263.747 155.748 263.608C164.722 262.914 175.408 255.42 184.243 250.656C193.078 250.656 203.486 253.107 205.706 260.231C199.276 256.947 192.985 254.68 186.001 255.05C193.587 255.281 200.34 257.502 205.706 263.793C204.827 263.469 204.365 263.284 203.856 263.145C211.072 265.736 210.563 273.368 213.246 278.78C217.039 286.551 221.387 294.369 226.059 301.492C228.187 304.777 229.112 308.662 230.037 312.455C231.333 318.052 232.674 323.65 233.969 329.247C239.89 312.594 234.432 298.532 228.511 282.943C230.407 285.302 232.35 287.661 234.247 290.067C232.998 285.117 231.24 280.26 228.973 275.635C228.465 274.617 227.91 273.553 227.031 272.813C226.013 271.934 224.533 271.518 223.931 270.315C222.96 268.419 224.764 266.059 224.07 264.07C223.839 263.423 223.423 262.914 223.099 262.359C221.896 260.324 221.989 257.733 222.821 255.559C226.661 245.29 239.15 235.391 250.067 234.327C253.952 233.957 258.162 234.42 261.446 232.292C265.146 229.886 266.257 225.076 268.199 221.097C271.807 213.789 278.839 209.903 285.916 206.527C290.634 204.26 312.144 235.854 314.41 240.063C318.758 248.019 321.441 256.901 322.274 265.967C322.783 271.703 322.644 277.67 325.188 282.804C328.519 262.451 327.27 241.404 321.58 221.606C319.915 215.732 317.833 209.95 316.723 203.936C315.844 199.172 310.432 153.608 320.192 150.602C334.856 146.115 343.506 193.667 351.925 194.13C355.44 194.315 354.191 195.749 352.249 196.951C354.376 201.901 355.209 207.405 355.348 212.864C355.487 216.934 355.302 221.005 355.209 225.076C355.209 226.093 355.163 227.065 355.163 228.082C355.348 229.424 355.533 230.811 355.672 232.153C357.337 246.215 357.846 260.416 357.198 274.571L357.152 274.524Z" fill="#803D1D"/>
<path d="M144.507 209.26C143.721 209.075 142.981 209.075 142.287 209.352C143.166 209.491 143.86 209.213 144.507 209.26Z" fill="#803D1D"/>
<path d="M144.508 209.26C144.739 209.306 144.97 209.306 145.202 209.445C144.97 209.353 144.739 209.306 144.508 209.26Z" fill="#803D1D"/>
<path d="M278.885 105.912C273.473 102.72 268.894 99.2048 265.471 94.394C266.488 99.8061 272.641 105.172 278.885 105.912Z" fill="#803D1D"/>
<path d="M244.885 41.8445C241.231 42.5846 237.022 42.2145 234.848 46.609C238.363 45.0362 241.832 43.8798 244.885 41.8445Z" fill="#803D1D"/>
<path d="M292.484 161.985C295.769 159.348 295.722 156.064 295.769 152.826C294.473 155.648 293.41 158.516 292.484 161.985Z" fill="#803D1D"/>
<path d="M203.856 64.6482C200.941 66.3597 200.062 67.0073 199.692 68.2563C202.699 68.1175 203.162 65.2495 203.856 64.6482Z" fill="#803D1D"/>
<path d="M177.212 141.716C175.408 140.883 173.65 141.716 171.893 141.993C173.697 143.612 175.454 141.901 177.212 141.716Z" fill="#803D1D"/>
<path d="M217.085 140.7C218.843 139.312 218.195 139.266 217.501 138.988C215.003 139.682 216.622 140.515 217.085 140.7Z" fill="#803D1D"/>
<path d="M151.03 193.989C151.4 195.516 151.77 197.042 152.14 198.569C152.696 196.811 151.678 195.423 151.03 193.989Z" fill="#803D1D"/>
<path d="M221.664 456.598C223.561 456.413 225.411 456.413 227.4 455.488C224.069 454.008 223.098 454.193 221.664 456.598Z" fill="#803D1D"/>
<path d="M119.715 445.76C121.565 446.778 123.693 446.731 125.821 447.101C125.034 445.436 124.063 445.251 119.715 445.76Z" fill="#803D1D"/>
<path d="M102.229 466.962C100.841 468.673 108.335 475.334 110.324 478.665C107.456 471.957 106.901 468.211 102.229 466.962Z" fill="#803D1D"/>
<path d="M42.1405 286.27C36.9135 291.728 31.6402 297.233 31.9177 306.114C34.3694 298.667 38.2087 292.468 42.1405 286.27Z" fill="#803D1D"/>
<path d="M44.1758 54.0569C47.3675 52.1604 50.0042 49.5237 53.1959 47.6272C48.894 47.951 46.8587 51.4665 44.1758 54.0569Z" fill="#803D1D"/>
<path d="M66.9341 205.61C66.1477 209.125 68.5531 211.623 69.7558 214.537C69.4782 211.392 67.9517 208.57 66.9341 205.61Z" fill="#803D1D"/>
<path d="M165.972 37.7267C164.538 36.9866 163.058 36.6628 161.3 36.9866C162.641 39.2532 164.353 38.2356 165.972 37.7267Z" fill="#803D1D"/>
<path d="M105.698 120.157C104.079 120.157 102.923 120.712 101.767 121.869C103.894 122.933 104.635 121.545 105.698 120.157Z" fill="#803D1D"/>
<path d="M295.769 228.735C295.769 226.144 294.335 224.387 292.346 222.536C291.79 225.867 295.167 226.468 295.769 228.735Z" fill="#803D1D"/>
<path d="M307.518 252.178C306.963 249.448 306.084 246.904 304.604 244.221C304.927 247.413 305.806 249.911 307.518 252.178Z" fill="#803D1D"/>
<path d="M157.321 152.584C149.827 177.008 137.014 157.302 135.58 194.586C136.551 193.707 136.875 192.458 137.754 191.024C138.263 194.678 137.893 197.87 136.922 201.015C142.519 190.422 133.499 178.766 143.583 172.613C145.572 168.08 153.435 165.721 155.147 162.483C153.805 163.038 152.834 164.241 151.215 164.657C157.506 158.181 158.477 156.238 157.321 152.538V152.584Z" fill="#803D1D"/>
<path d="M112.452 238.714C116.291 233.487 118.327 227.428 121.102 221.692C115.783 226.086 114.811 235.338 112.452 238.714Z" fill="#803D1D"/>
<path d="M154.361 147.317C153.158 150.508 155.332 153.515 154.129 156.383C155.748 154.625 155.841 150.786 154.361 147.317Z" fill="#803D1D"/>
<path d="M125.774 209.898C125.682 214.061 129.382 206.845 128.966 207.307C126.514 208.602 126.19 209.204 125.774 209.898Z" fill="#803D1D"/>
</svg>
