<svg width="443" height="450" viewBox="0 0 443 450" fill="none" xmlns="http://www.w3.org/2000/svg">
<path d="M292.244 188.777C315.296 189.262 338.833 181.399 359.192 188.131C346.858 181.183 325.583 180.375 292.244 188.777Z" fill="#803D1D"/>
<path d="M273.878 74.2278C203.052 167.944 148.438 167.513 185.009 194.551C174.075 170.045 201.867 164.12 216.409 146.346C303.231 63.9406 301.508 32.1093 335.709 68.788C361.023 94.3715 375.834 126.149 374.703 162.72C380.143 114.569 352.675 66.3643 314.326 41.2117C315.565 42.235 316.804 43.2583 318.043 44.2278C305.386 35.7718 283.411 73.7969 274.632 78.4828C276.301 74.3894 278.348 70.2422 280.664 66.1488C278.402 68.788 276.194 71.481 273.985 74.174L273.878 74.2278Z" fill="#803D1D"/>
<path d="M377.45 38.5655C362.315 24.0233 348.635 -0.267568 326.498 0.00173204C268.276 37.596 225.188 103.736 179.73 156.519C303.123 42.1741 312.225 6.73423 329.353 10.289C400.233 47.2908 437.396 160.343 421.022 227.075C421.723 226.483 422.154 226.16 422.8 225.621C412.297 286.806 377.288 342.497 330.484 379.822C338.024 373.951 335.978 375.082 340.179 372.443C317.934 397.111 286.373 410.361 258.365 419.732C264.182 418.709 269.622 416.393 275.708 414.4C162.279 469.391 36.0853 377.829 23.1051 348.637C21.974 344.652 22.9974 341.151 26.3367 338.135C60.7532 297.524 96.3546 250.72 129.748 206.124C119.245 199.93 78.2577 264.67 28.4372 311.851C32.7999 309.05 33.3385 307.273 34.7388 306.357C25.1518 319.176 11.6868 328.601 4.30796 337.434C-23.6992 350.63 89.2451 428.835 141.005 439.122C135.188 438.152 137.127 438.314 135.834 438.26C146.498 441.653 157.163 445.1 168.258 447.093C165.134 446.932 162.01 446.77 158.455 446.555C377.827 484.849 524.003 196.052 377.396 38.5655H377.45Z" fill="#803D1D"/>
<path d="M29.5688 338.083C22.7824 354.025 65.4395 384.833 82.4054 389.142C81.4898 387.903 80.0355 388.226 79.0661 387.042C98.7788 391.135 142.89 402.715 143.536 382.517C146.553 365.444 143.483 236.18 136.319 265.372C136.912 332.428 155.386 423.182 62.154 366.521C65.7088 367.975 68.4556 369.914 71.7411 370.776C20.3048 343.9 64.2546 314.654 81.8668 284.761L78.4197 290.901C93.4467 269.142 122.316 236.449 92.8004 279.375C101.364 266.934 109.712 254.277 120.161 243.02C120.269 244.42 119.084 245.067 118.707 246.682C138.42 213.182 158.671 228.855 147.63 217.221C134.057 192.338 35.9781 337.059 29.5149 338.029L29.5688 338.083Z" fill="#803D1D"/>
<path d="M144.129 278.4C143.483 276.299 143.16 274.63 142.998 273.229C156.84 388.22 143.644 380.087 159.371 387.251C234.129 420.859 296.499 362.906 300.646 324.127C288.205 306.353 264.075 291.757 250.61 277.484C290.79 301.506 303.339 345.779 345.296 291.003C369.156 250.716 384.614 208.113 363.016 190.716C379.766 218.885 352.998 297.52 311.957 312.709C296.984 321.973 192.98 211.775 177.684 219.046C273.339 317.341 319.336 318.095 280.503 350.195C303.878 323.534 283.896 318.472 267.899 304.306C273.07 309.154 278.725 314.432 284.434 319.764C267.899 305.976 252.172 291.326 235.476 277.807C252.495 293.588 273.231 310.931 289.443 325.312C279.21 373.57 215.655 398.508 171.975 381.272C210.646 398.292 255.727 381.434 280.449 351.757C253.196 393.283 196.589 402.008 155.817 378.095C152.693 370.069 150.269 203.75 144.183 278.4H144.129Z" fill="#803D1D"/>
<path d="M365.277 155.01C374.164 169.122 353.805 173.215 347.234 176.77C360.592 174.939 375.942 167.614 365.277 155.01Z" fill="#803D1D"/>
<path d="M251.632 296.333C241.183 285.668 229.819 276.027 218.724 266.117C228.472 277.535 240.591 286.369 251.632 296.333Z" fill="#803D1D"/>
<path d="M204.182 192.558C202.674 191.481 200.843 191.911 199.496 190.888C201.651 189.38 204.075 189.218 206.175 188.087C190.233 189.703 199.227 194.281 204.182 192.558Z" fill="#803D1D"/>
<path d="M217.001 258.584C221.687 262.893 226.426 267.202 231.112 271.511C226.911 266.663 222.064 262.462 217.001 258.584Z" fill="#803D1D"/>
<path d="M437.61 248.574C435.079 253.906 433.786 259.508 433.032 265.271C436.964 260.316 435.887 254.068 437.61 248.574Z" fill="#803D1D"/>
<path d="M441.436 178.806C441.651 185.754 441.92 192.648 442.136 199.596C443.374 192.595 443.051 185.7 441.436 178.806Z" fill="#803D1D"/>
<path d="M123.823 435.719C121.292 434.157 118.653 432.864 115.69 432.541C118.276 433.888 120.969 435.072 123.823 435.719Z" fill="#803D1D"/>
<path d="M250.502 182.214C238.922 182.914 232.458 183.022 232.458 183.56C230.627 189.323 323.051 181.513 338.67 169.826C346.103 167.618 268.922 183.291 250.502 182.214Z" fill="#803D1D"/>
<path d="M338.185 199.178C331.345 198.64 318.042 197.347 311.74 200.525C322.243 205.857 336.57 199.34 346.695 202.087C344.487 199.986 341.255 199.394 338.185 199.178Z" fill="#803D1D"/>
<path d="M350.143 208.716C345.996 207.585 341.095 207.478 336.894 207.909C343.734 210.225 350.736 212.163 357.684 214.21C356.175 211.409 353.213 209.578 350.143 208.663V208.716Z" fill="#803D1D"/>
<path d="M164.541 356.289C165.403 360.813 166.696 365.768 170.52 368.353C165.996 354.08 163.841 337.384 161.687 321.01C161.202 332.752 162.387 344.763 164.541 356.289Z" fill="#803D1D"/>
<path d="M319.551 66.9567C313.788 64.4792 307.809 65.7718 305.224 69.0034C296.445 77.0824 287.127 85.4307 279.694 94.7485C290.736 92.1093 298.761 68.4109 319.497 67.0106L319.551 66.9567Z" fill="#803D1D"/>
<path d="M161.417 186.947C164.972 193.733 162.602 203.59 155.762 210.322C188.024 204.559 154.469 170.466 161.417 186.947Z" fill="#803D1D"/>
</svg>
