<svg width="776" height="481" viewBox="0 0 776 481" fill="none" xmlns="http://www.w3.org/2000/svg">
<path d="M410.618 258.05C429.258 247.936 449.608 248.632 468.782 241.353C457.833 237.233 449.661 234.717 444.427 232.898L431.715 239.266C431.235 239.534 430.754 239.213 430.594 238.785C428.885 239.534 427.175 240.283 425.466 241.032C408.589 248.632 400.898 252.913 391.07 269.128C388.934 272.66 386.797 276.888 388.239 280.741C392.512 270.787 401.058 263.241 410.565 258.05H410.618Z" fill="#1D2419"/>
<path d="M552.262 216.146C550.98 214.38 547.616 213.845 545.586 213.738C539.016 213.363 532.073 216.36 526.358 219.304C521.605 221.765 516.851 224.495 510.121 229.953C498.745 239.158 491.748 248.416 485.339 256.979C479.25 265.167 475.405 271.588 474.283 273.462C470.758 279.455 466.859 286.091 463.494 295.349C461.144 301.878 458.58 310.709 458.313 320.823C458.313 320.823 457.085 329.974 462.907 337.627C463.12 337.895 463.334 338.162 463.601 338.323C464.349 338.697 465.257 338.323 465.951 337.841C465.203 338.269 465.31 345.44 465.417 346.297C465.631 345.387 465.844 344.53 466.111 343.567C466.432 341.587 466.806 339.661 467.5 337.734C468.248 335.647 468.995 333.56 469.85 331.473C474.497 315.097 491.855 291.817 493.938 286.626C491.321 289.142 489.131 292.085 486.728 294.761C489.452 290.105 493.297 286.252 495.914 281.542C482.188 297.597 471.345 316.488 466.485 334.791C467.553 320.609 475.832 312.046 477.541 302.574C476.099 304.768 475.832 307.23 474.443 309.103C477.434 281.81 488.917 260.297 506.222 243.814C505.795 245.794 504.086 246.757 503.605 248.737C521.605 236.429 522.726 230.916 525.45 239.372C525.504 239.586 516.798 244.884 515.997 245.58C513.326 247.827 510.816 250.236 507.932 252.269C506.116 253.5 504.139 254.784 503.392 256.872C505.795 254.999 508.199 253.233 510.656 251.467C512.578 250.129 514.501 248.791 516.584 247.72C520.43 245.74 524.542 245.58 528.548 244.349C531.539 243.439 534.69 242.797 537.628 241.62C541.206 240.175 544.625 238.302 547.562 235.786C552.049 231.933 555.36 226.314 553.865 220.213C553.544 218.982 553.063 217.002 552.316 215.986L552.262 216.146Z" fill="#1D2419"/>
<path d="M254.339 382.739C248.357 381.936 242.429 380.972 236.607 379.474C249.105 386.859 265.609 383.06 276.345 387.127C258.505 389.374 237.782 388.358 226.566 376.424C222.026 374.711 217.593 372.571 213.48 369.948C248.357 417.203 263.419 366.898 387.598 430.742C351.813 427.21 320.301 411.637 288.308 405.429C315.975 420.681 357.849 432.722 382.097 435.398C422.155 440.215 355.018 394.03 291.834 385.254C299.364 385.628 306.682 387.715 314.586 388.465C295.145 381.882 273.781 384.933 254.66 382.739C254.553 382.739 254.446 382.739 254.339 382.739ZM356.887 413.778C352.775 412.333 348.983 411.798 348.502 409.925C354.27 412.6 356.3 412.279 356.887 413.778ZM292.047 387.234C291.246 388.09 290.231 387.394 288.949 388.251C300.646 386.966 310.581 392.211 321.102 394.244C301.982 391.194 255.782 384.023 292.047 387.234Z" fill="#1D2419"/>
<path d="M330.023 309.581C330.877 311.935 331.892 314.129 333.12 316.27C333.761 316.859 334.456 317.608 335.257 318.464C332.052 305.246 328.1 292.241 326.604 278.702C326.551 286.515 327.94 291.385 328.153 295.452C324.842 282.93 323.987 270.193 324.788 257.296C322.225 275.277 326.337 292.509 330.343 309.848C330.236 309.688 330.076 309.527 329.969 309.367C329.969 309.42 329.969 309.474 330.023 309.527V309.581Z" fill="#1D2419"/>
<path d="M765.798 243.818C767.721 230.064 778.724 218.88 775.305 205.875C771.086 223.428 771.032 240.821 755.757 230.653C780.059 236.272 773.062 169.538 769.857 157.925C768.843 154.286 767.507 150.754 766.119 147.275C762.327 137.482 758.534 127.689 754.742 117.949C761.846 127.903 767.721 138.766 772.154 150.165C773.65 144.493 770.979 138.659 768.415 133.415C759.282 114.845 752.499 100.503 734.019 89.6925C734.233 90.5487 735.247 90.8698 735.301 92.0472C722.589 82.3073 723.337 90.1741 714.524 90.6023C714.951 90.6023 715.913 78.1866 716.233 77.5979C712.121 74.9756 714.738 71.5506 713.616 67.6975C712.281 63.0416 707.314 58.3322 703.842 55.2283C698.501 50.4654 684.881 45.649 682.638 39.2806C686.43 37.9962 691.398 39.3341 694.923 41.2072C688.406 37.7822 687.125 35.0529 688.567 34.0896C681.356 28.738 663.464 21.4063 657.428 21.2993C657.802 21.9415 658.817 21.9415 659.031 22.9583C649.31 21.3528 635.637 18.2489 629.869 19.5868C617.798 21.1387 620.095 6.20783 606.154 9.63284C613.418 10.4356 620.789 14.7704 619.4 19.5868C606.048 7.54573 585.324 16.4829 572.239 13.1649C575.337 9.68636 564.067 18.1419 566.15 11.6129C556.429 12.9508 544.946 12.4692 549.806 9.36527C546.388 10.6496 543.824 8.56253 540.887 7.27815C540.086 12.8973 532.128 8.29495 529.724 10.3821C530.205 9.25823 531.54 9.36527 532.074 8.24143C509.802 10.1145 519.897 4.0672 528.763 2.72931C525.131 2.83634 521.499 2.56876 517.974 1.12383C518.348 0.374611 519.256 0.588674 519.683 0C499.761 2.14063 503.98 20.443 503.126 33.5009C506.01 34.4642 504.301 53.2482 499.173 58.4928C502.592 61.8108 498.212 71.4971 498.158 66.9483C497.357 69.1959 495.755 70.6944 495.221 72.8885C494.527 72.0858 494.794 71.0155 493.939 70.3733C466.7 163.223 520.377 188.804 468.569 184.951C461.359 192.336 429.312 172.856 420.66 161.939C414.037 148.827 444.267 158.781 431.395 121.106C431.235 121.963 431.93 122.765 431.502 123.889C427.55 115.166 425.627 113.614 428.137 111.259C422.743 110.35 431.716 100.931 431.289 104.998C499.921 51.1611 416.28 19.6403 489.239 7.92034C426.695 -1.87305 465.578 61.5967 449.769 76.5276C434.013 96.0074 421.728 95.8468 416.601 113.614C422.102 125.816 423.651 132.559 420.072 129.348C421.835 136.626 419.111 134.485 418.31 137.375C424.185 141.068 409.123 150.486 413.503 143.743C395.824 159.531 401.432 144.974 409.764 139.409C403.515 142.191 399.67 149.095 397.961 146.419C389.896 161.404 402.874 174.676 411.473 181.151C403.248 178.529 395.397 175.157 388.507 169.699C391.231 170.448 393.688 172.053 397.106 172.053C369.065 154.661 376.329 166.381 384.02 133.147C385.356 137.75 385.249 140.158 386.905 139.783C416.921 124.852 396.625 95.3116 404.637 72.0858C409.604 56.4592 426.909 67.9116 434.867 60.5799C498.265 -28.3634 306.255 51.0006 279.87 73.2631C291.834 64.1655 332.212 54.2115 330.984 53.8369C354.645 45.2744 374.086 38.7454 397.64 36.5513C404.85 30.2899 436.843 24.0286 431.769 39.6017C431.235 38.5314 431.449 36.9794 429.793 36.6048C425.787 67.5369 409.337 40.2974 396.358 61.5432C394.115 37.0865 347.701 46.6658 359.879 99.3253C359.772 92.7964 359.612 95.3652 359.986 93.5456C364.899 107.941 363.297 120.571 361.748 131.863C363.778 128.438 362.816 126.297 363.511 125.013C362.87 165.203 343.108 147.008 323.4 151.503C314.747 153.483 306.362 154.018 298.03 157.551C292.101 160.066 286.546 163.437 280.564 166.006C262.458 173.659 241.788 175.96 222.881 181.419C219.196 182.489 215.35 183.559 211.558 183.238C210.917 181.633 211.558 179.706 212.733 178.422C213.908 177.137 215.404 176.228 216.846 175.157C219.677 173.07 221.973 170.341 224.483 167.879C231.908 160.547 241.308 155.196 251.402 152.52C244.619 151.396 238.05 154.982 232.228 158.567C226.406 162.153 220.157 166.113 213.321 165.685C212.306 165.631 211.238 165.471 210.383 164.936C208.567 163.812 207.926 161.457 208.033 159.317C208.727 148.025 222.935 147.864 231.053 144.814C240.453 141.228 249.586 135.877 253.859 126.297C253.859 97.8269 295.252 94.6159 183.251 110.243C185.654 108.851 188.325 108.477 190.888 107.62C163.596 108.691 138.279 125.976 115.526 139.462C91.7585 153.59 71.1955 167.879 43.4755 172.963C26.5978 176.067 9.82692 170.608 -0.000601009 157.122C-0.000601009 157.176 -0.0540114 157.283 -0.107422 157.336C3.15061 162.26 7.31663 166.595 12.0167 170.127C11.0554 169.913 10.094 169.645 9.18599 169.431C12.2838 174.515 17.7851 177.78 23.5534 179.278C29.3217 180.776 35.3571 180.616 41.2857 180.241C54.2644 179.439 70.5546 174.622 81.664 167.719C70.608 174.569 84.3879 167.451 85.0822 166.969C81.5037 169.806 77.6048 172.107 73.6524 174.355C73.6524 174.355 73.6524 174.354 73.6524 174.408C97.7405 161.083 132.564 140.586 140.576 136.144C169.043 117.253 202.906 112.49 234.097 111.42C232.228 111.795 230.252 111.795 228.169 113.186C236.928 111.58 242.323 108.423 247.664 111.795C246.435 112.704 244.833 112.49 243.391 113.454C259.467 125.923 198.259 138.231 193.505 143.583C199.648 145.509 181.221 156.48 196.763 167.879C194.04 166.916 192.437 164.615 190.301 162.956C197.191 171.893 187.363 170.822 185.707 175.639C184.212 185.807 191.049 185.058 184.426 189.66C176.735 182.542 181.541 172.374 186.615 168.307C183.197 168.307 174.758 182.596 178.497 188.215C177.375 187.091 176.788 185.7 176.414 184.308C181.274 206.41 213.855 199.453 227.848 198.276C167.334 228.941 172.675 274.376 214.549 241.677C202.478 251.096 192.758 263.405 184.319 275.927C182.449 278.71 180.527 282.135 181.809 285.186C183.571 285.293 184.586 283.366 185.334 281.761C187.897 276.356 192.17 271.7 197.298 268.596C199.541 267.258 201.891 266.241 204.187 264.957C212.733 260.247 222.133 253.023 229.023 246.119C234.738 240.447 241.254 235.363 247.557 230.386C250.174 228.352 252.898 226.318 256.156 225.623C251.723 227.71 248.625 231.83 245.367 235.47C241.041 240.232 236.02 244.353 230.465 247.671C236.341 246.654 241.949 244.407 246.916 241.089C259.467 232.74 270.737 223.107 282.968 214.224C289.751 209.247 296.694 204.537 303.958 200.31C309.406 197.099 318.379 190.463 324.788 189.981C344.817 188.483 355.499 192.603 353.95 196.242C355.713 195.279 357.689 195.065 358.971 195.761C356.995 196.296 355.179 196.938 353.149 197.313C350.425 199.667 341.986 201.541 326.818 201.059C328.153 200.203 329.649 200.738 330.29 199.4C310.955 192.443 293.062 211.12 281.205 225.676C279.389 227.87 277.734 230.011 276.238 231.938C264.114 247.404 246.061 260.461 228.276 268.435C218.822 272.663 211.344 275.018 205.256 283.955C203.119 287.059 201.731 290.805 201.998 294.551C202.158 296.906 204.027 299.742 206.217 298.886C207.819 298.244 208.14 296.156 208.514 294.497C209.582 289.521 213.214 285.346 217.433 282.563C226.353 276.73 237.409 275.125 246.595 269.666C254.927 264.689 267.693 257.679 273.087 249.384C270.256 253.772 267.158 258 263.9 262.12C261.497 265.064 258.987 267.954 255.835 270.094C250.761 273.466 244.512 274.536 238.797 276.784C234.578 278.443 223.736 284.704 229.344 290.644C231.16 292.517 234.845 292.25 236.02 289.895C236.608 288.718 236.501 287.273 236.768 285.988C238.424 278.122 252.471 279.299 258.185 277.908C270.149 274.964 277.734 266.723 283.502 256.287C286.974 249.972 288.896 242.641 293.864 237.45C298.136 233.008 304.546 230.653 310.688 231.242C298.884 244.139 301.662 269.987 305.293 285.774C308.872 301.455 318.326 313.442 329.221 324.68C331.144 326.66 333.975 328.48 336.432 327.249C332.533 323.182 328.954 318.847 325.696 314.245C311.008 293.748 305.614 269.399 313.038 244.835C319.447 223.696 336.912 208.123 359.078 219.522C339.636 227.014 330.557 243.979 329.755 264.154C329.382 274.215 330.503 284.49 332.266 294.39C334.242 305.147 340.918 313.977 344.924 323.878C330.77 289.039 327.299 221.984 380.442 223.321C349.357 229.636 335.31 265.385 347.862 291.715C323.72 214.545 440.475 222.465 398.495 226.586C381.243 243.015 352.936 244.942 356.888 258.963C358.383 249.758 365.647 247.243 373.178 244.674C370.561 247.778 368.478 250.882 369.226 255.431C373.338 249.009 395.824 238.306 388.4 246.012C396.839 241.624 403.195 237.664 409.284 235.63C418.577 240.286 371.255 257.411 371.683 269.827C375.421 266.188 377.611 270.094 378.145 269.827C378.679 265.278 383.7 270.79 383.059 267.151C385.302 267.633 386.531 267.686 387.492 267.686C388.293 266.295 389.201 264.903 390.216 263.619C396.091 255.913 404.316 250.347 412.702 245.745C421.247 241.089 430.327 237.396 439.247 233.543C439.514 233.436 439.728 233.489 439.941 233.543L442.612 232.205C426.802 226.372 449.288 228.298 515.944 197.045C509.268 210.852 497.037 216.257 487.209 223.268C475.299 236.593 468.302 249.972 466.433 244.621C455.27 283.58 420.019 320.239 442.184 360.322C447.258 364.014 451.638 366.476 455.377 367.868C454.309 366.209 453.614 364.389 453.027 362.516C452.493 361.339 452.226 360.215 452.119 358.984C451.798 357.539 451.531 356.094 451.318 354.596C449.502 350.207 448.594 345.445 448.7 340.682C448.7 338.755 448.914 336.828 449.128 334.902C449.448 331.959 449.875 328.962 450.41 326.018C452.226 315.529 455.056 305.201 458.848 295.193C462.534 285.56 466.326 275.981 472.041 267.311C475.726 261.746 480.106 256.769 484.646 251.899C493.458 242.427 502.805 233.329 513.274 225.73C521.285 219.896 530.792 213.956 540.673 212.244C542.008 212.03 543.451 211.923 544.679 211.387C545.48 211.066 546.228 210.371 546.174 209.514C546.174 208.979 545.801 208.551 545.32 208.23C544.893 207.962 544.359 207.802 543.878 207.641C543.13 207.427 542.382 207.16 541.741 206.678C541.101 206.196 540.62 205.501 540.62 204.751C540.62 204.644 540.62 204.484 540.727 204.377C540.833 204.323 540.94 204.27 541.047 204.27C551.889 204.27 558.245 216.578 561.984 225.141C566.898 236.326 570.369 249.277 569.728 261.585C569.515 265.385 568.714 268.542 567.005 271.914C556.91 285.614 535.012 283.687 527.321 296.745C538.911 286.149 555.788 286.256 566.844 282.563C570.156 297.869 567.539 295.193 559.42 301.615C567.111 298.404 569.248 294.39 572.88 300.117C571.758 300.598 570.636 301.026 569.408 301.508C571.224 302.418 573.147 299.367 574.856 302.043C518.508 346.194 589.597 311.569 476.794 370.115C476.955 369.098 478.183 368.884 477.649 367.761C472.148 374.557 467.821 377.393 467.447 372.845C457.673 379.427 445.87 381.514 438.392 381.942C438.98 380.979 440.101 380.818 440.635 379.802C436.202 381.675 431.182 379.213 426.428 381.782C429.099 387.026 424.399 394.947 426.909 399.763C425.681 398.479 425.681 396.873 424.719 395.642C422.796 413.196 428.191 408.754 425.681 416.139C420.66 394.251 417.028 376.698 401.966 363.051C404.37 364.229 406.346 366.102 409.39 367.118C394.062 348.977 369.119 353.954 354.057 341.324C353.416 340.361 352.722 339.29 352.081 338.22C348.502 337.899 344.871 337.31 341.345 336.347C341.88 336.828 342.414 337.257 342.948 337.738C315.014 329.55 281.526 309.803 258.72 306.753C251.883 302.15 243.498 299.474 235.005 298.672C227.848 300.117 220.638 301.24 213.695 303.488C206.11 305.95 198.633 310.285 196.176 318.419C194.734 323.235 195.054 328.534 196.176 333.404C197.191 337.792 199.06 341.966 202.158 345.284C207.98 351.599 216.686 354.168 224.751 356.308C232.709 358.449 240.987 360.215 248.251 364.282C259.948 356.736 290.606 364.229 304.653 363.961C303.478 364.817 302.623 365.406 301.822 365.995C317.204 367.44 331.518 372.791 342.52 377.608H337.981C344.657 378.999 349.838 383.12 355.606 387.187C360.68 382.049 373.659 394.304 379.16 394.893C376.757 395 375.047 393.93 372.591 393.983C384.715 402.599 395.824 401.262 399.403 404.847C398.762 406.024 396.305 406.131 397.854 408.272C388.988 407.416 381.243 403.83 373.338 400.726C380.389 403.991 387.439 407.255 394.275 411.59H391.231C406.933 417.905 407.574 411.108 409.39 401.315C427.336 481.482 415.853 464.357 347.381 449.907C363.564 453.653 391.124 467.514 392.78 466.711C403.729 468.156 410.886 474.953 417.028 467.461C417.562 468.37 417.989 469.12 418.524 470.083C420.393 466.658 421.408 463.072 422.636 459.326C424.238 461.788 425.253 464.357 427.283 466.658C427.069 465.213 426.108 464.196 426.375 462.537C438.766 487.743 468.195 481.856 486.836 475.756C485.66 476.451 484.913 476.879 483.684 477.629C487.637 476.772 491.162 477.307 494.633 476.558C493.565 477.307 492.55 478.057 491.482 478.806C526.252 466.604 637.827 459.808 597.448 405.971C610.961 416.888 623.246 419.885 630.456 420.848C650.004 423.417 669.339 415.871 684.721 404.098C693.641 397.301 701.439 389.006 708.008 379.909C713.937 371.774 721.254 364.71 717.141 354.007C715.432 349.672 711.266 345.926 706.62 346.301C708.168 352.669 707.848 359.412 705.925 365.62C704.056 371.721 701.866 372.416 697.593 376.216C688.513 384.297 678.899 391.95 667.79 397.087C672.757 391.896 677.19 386.17 680.876 379.962C673.078 389.381 662.769 396.445 652.354 402.599C642.26 408.54 630.83 407.095 619.988 403.563C615.661 402.118 609.412 401.047 605.994 398.104C602.149 394.786 599.211 390.665 595.312 387.24C590.612 383.066 587.14 377.608 583.562 372.47C578.915 365.834 573.948 358.502 567.111 354.007C563.853 351.866 559.901 350.582 556.109 351.278C552.797 351.866 549.806 354.007 548.151 356.897C557.337 360.429 562.785 367.547 566.257 376.323C567.218 378.41 568.18 380.497 569.728 382.103C571.331 383.762 573.521 384.779 575.39 386.117C581.639 390.612 582.066 397.515 584.95 403.991C588.102 411.001 591.947 416.995 591.734 425.076C591.52 432.515 586.339 436.742 579.876 439.418C574.535 441.666 568.66 442.629 562.945 443.432C556.269 444.342 544.465 447.232 538.056 445.198C546.442 447.874 516.692 449.051 514.182 450.389C515.357 449.747 518.668 450.175 519.897 450.228C516.585 451.299 513.38 452.583 510.817 454.991C509.695 456.062 508.574 457.346 507.078 457.56C505.102 457.881 503.446 456.329 501.737 455.366C500.936 454.884 500.028 454.51 499.12 454.296C491.215 452.155 487.263 459.594 480.64 461.627C475.833 463.072 470.706 464.089 465.738 464.731C459.276 465.534 452.012 465.641 446.938 460.878C441.223 455.58 440.101 446.268 439.354 438.937C437.858 424.862 436.79 408.326 438.82 394.304C438.82 394.251 446.778 392.699 447.899 392.217C447.472 392.11 446.831 392.057 446.404 391.896C450.944 391.147 455.323 389.702 459.863 389.167C463.549 388.685 472.842 390.986 475.245 387.454C476.26 385.902 475.833 383.708 476.901 382.156C477.489 381.3 478.45 380.818 479.198 380.123C486.836 372.952 495.541 369.527 504.995 364.817C511.084 361.82 518.989 354.756 525.344 353.311C532.074 351.759 539.071 351.331 545.961 351.92C545.534 347.371 545.213 342.394 547.723 338.595C553.705 329.443 563.8 316.064 574.162 310.927C586.286 304.933 601.882 309.642 614.059 312.96C639.055 319.757 663.464 329.015 687.712 338.006C677.564 323.717 599.264 309.964 633.981 312.265C613.205 306.11 575.123 300.919 582.44 283.473C578.915 262.977 597.822 251.096 617.21 246.333C629.602 246.066 641.031 247.778 649.844 248.099C645.785 243.711 663.197 247.671 664.479 246.547C666.508 239.43 702.827 243.657 716.874 240.982C729.372 242.106 753.193 236.165 752.713 248.581C752.926 248.046 753.14 247.564 753.407 246.868C755.383 259.07 756.772 285.346 753.514 280.797C755.543 349.084 724.405 332.601 676.87 327.463C766.172 362.034 754.689 316.171 765.104 260.087C761.739 252.755 761.205 246.601 763.769 244.728C764.249 244.353 764.944 244.086 766.065 244.086L765.798 243.818ZM382.204 66.4666C382.632 77.8655 379.587 84.9296 380.976 93.171C378.626 85.2507 374.674 62.9346 382.204 66.4666ZM203.76 231.67C247.77 202.932 290.285 156.052 345.084 163.812C296.214 159.263 247.877 209.782 203.76 231.67ZM324.201 215.294C324.201 206.25 330.503 209.086 331.091 209.247C328.794 211.28 326.658 213.153 324.201 215.294ZM385.73 243.015C394.329 235.255 402.18 234.078 404.423 234.72C398.228 237.45 392.032 240.232 385.73 243.015ZM425.253 186.717C423.01 186.503 420.927 186.181 418.791 185.593C421.782 183.827 423.491 184.094 425.253 186.717ZM415.853 182.971C414.945 187.573 412.328 179.706 411.954 179.278C415.105 181.258 415.426 182.061 415.853 182.971ZM371.576 211.013C364.472 215.348 352.989 209.835 348.289 207.374C359.665 202.611 367.623 200.203 370.508 204.216C370.508 203.2 370.614 202.129 370.775 201.005C381.884 205.715 392.62 210.638 403.302 216.364C403.248 215.562 403.195 215.08 403.141 214.277C404.477 214.919 405.598 215.455 407.147 216.257C390.483 218.344 375.582 220.592 371.576 211.013ZM418.47 223.964C423.277 224.071 427.817 223.75 432.731 223.321C428.031 226.158 423.224 226.372 418.47 223.964ZM419.218 218.612C443.787 213.849 442.024 206.089 426.428 211.441C418.737 214.063 419.592 208.016 418.897 203.307C416.013 202.45 411.099 199.293 407.468 196.135C414.945 196.992 416.814 200.845 418.844 203.039C418.524 200.952 417.776 199.186 415.853 198.597C437.858 201.808 458.902 207.695 477.863 206.625C456.926 217.542 437.377 221.234 419.218 218.719V218.612ZM357.849 357.379C336.378 354.863 317.044 344.053 277.734 344.642C278.909 344.374 280.084 344.16 281.846 343.786C276.238 343.678 271.271 342.18 266.09 342.608C269.508 341.324 270.79 341.645 271.324 340.628C200.662 354.435 197.885 315.262 233.403 312.639C277.467 326.232 323.293 339.986 363.831 359.573C362.015 358.93 360.146 358.235 357.903 357.432L357.849 357.379ZM502.431 193.62C500.615 187.573 508.52 190.891 508.787 192.817C504.728 193.781 503.66 193.674 502.431 193.62ZM546.922 179.278C546.495 179.492 541.421 181.258 541.635 180.937C536.828 187.948 527.855 184.094 523.635 183.345C496.022 182.756 495.061 129.08 508.039 107.085C507.345 107.567 507.559 108.53 506.491 108.851C505.262 101.466 511.992 96.2214 511.511 93.0105C507.772 86.7491 512.953 73.9053 514.609 67.6975C517.76 55.71 522.62 43.4013 524.597 31.2532C524.971 28.952 525.558 26.5438 527 24.6708C531.54 18.784 545.961 24.5102 552.744 23.3329C561.824 21.7274 571.544 20.0684 580.731 21.888C586.873 23.1188 598.517 27.7747 602.736 32.5911C606.101 36.4443 606.048 42.224 605.086 47.2545C602.202 62.774 593.923 79.471 586.766 93.4921C577.74 111.152 567.432 129.722 563.747 149.416C562.144 157.872 559.474 163.758 554.239 170.983C552.263 173.712 549.913 177.672 546.869 179.385L546.922 179.278ZM553.438 186.984C554.774 194.637 554.774 192.603 555.094 194.369C545.267 192.229 549.86 189.285 553.438 186.984ZM560.168 190.035C568.767 165.524 569.461 167.397 580.25 154.393C580.143 155.731 579.823 156.855 580.624 158.086C584.042 133.094 603.057 109.868 606.048 88.4081C609.252 80.2202 621.964 56.6197 618.919 58.5463C616.997 51.0541 623.086 44.9533 622.498 40.2974C610.694 18.1954 748.867 70.0522 694.762 106.443C694.442 105.587 695.296 105.212 695.243 104.409C693.374 105.961 690.97 106.443 689.208 108.209C688.994 107.032 689.902 106.282 689.528 104.73C681.196 110.885 670.781 127.421 664.799 128.117C642.42 154.072 621.376 166.488 593.923 184.094C582.707 193.246 567.325 219.147 564.868 195.6C561.236 198.972 561.931 190.249 560.221 189.981L560.168 190.035ZM578.488 255.859C578.808 240.286 571.865 233.382 572.719 221.984C568.34 220.539 567.325 208.979 564.868 206.625C570.904 208.23 573.36 206.625 575.871 206.089C562.091 232.205 598.944 241.891 578.488 255.859ZM747.158 225.73C749.294 223.75 751.911 222.947 754.262 222.893C752.873 222.251 751.431 221.02 749.935 218.987C740.909 217.595 731.242 219.094 722.322 220.699C712.067 222.572 702.507 228.566 691.825 227.71C688.674 227.442 685.255 226.586 682.478 228.084C680.715 228.994 679.22 230.814 677.19 230.707C675.107 230.6 673.772 228.352 671.849 227.496C668.217 225.89 664.585 229.422 660.953 230.921C655.773 233.115 650.218 231.135 645.037 230.064C639.002 228.78 633.821 229.369 627.839 230.76C616.302 233.382 604.873 236.647 593.229 238.681C578.808 228.727 585.271 215.294 592.535 207.213C594.137 205.447 594.885 201.862 596.38 199.775C597.929 197.527 599.745 195.44 601.775 193.567C605.887 189.714 610.694 186.61 615.555 183.827C620.308 181.098 625.596 178.903 630.029 175.746C635.53 171.839 640.123 168.147 646.907 166.488C649.096 165.953 651.5 165.524 653.102 163.919C654.704 162.313 655.132 159.852 656.52 158.032C659.992 153.483 668.217 154.34 670.834 149.256C671.315 148.292 671.529 147.275 671.956 146.312C674.413 140.907 682.104 140.854 686.911 137.322C688.567 136.091 689.849 134.485 691.13 132.88C697.54 124.852 714.15 100.503 727.663 108.37C733.325 111.687 736.796 118.912 739.841 124.424C742.351 129.027 744.755 133.736 747.105 138.445C748.547 141.228 749.935 144.065 751.377 146.847C752.392 148.881 755.757 153.109 755.757 155.303V153.055C762.967 169.806 766.172 193.246 762.7 187.626C767.988 202.932 764.303 221.555 757.413 223.321C761.365 224.392 762.7 227.442 755.276 228.031C747.959 227.068 745.769 230.6 747.051 225.783L747.158 225.73Z" fill="#1D2419"/>
<path d="M472.468 332.969C471.987 336.501 471.827 340.033 472.468 343.565C473.109 346.83 474.337 349.826 475.939 352.663C476.687 348.756 477.114 344.368 477.328 339.819C477.916 340.729 477.435 341.746 478.129 342.602C478.556 338.963 479.518 335.591 480.586 332.113C481.654 328.688 483.897 325.53 485.66 322.373C486.621 320.66 487.583 319.055 488.384 317.289C488.811 316.272 489.506 314.56 490.574 314.024C490.787 313.917 492.817 313.757 492.443 314.399C500.775 299.308 507.772 295.294 521.071 283.841C618.866 230.272 497.304 242.634 472.361 332.969H472.468Z" fill="#1D2419"/>
<path d="M301.287 129.246C305.774 125.767 305.987 132.724 305.079 133.259C348.609 137.969 320.462 109.712 334.562 104.307C334.936 98.0459 337.339 93.176 340.597 91.0889C351.76 80.4392 311.115 91.9987 313.678 84.9346C279.282 97.2967 280.511 115.813 301.287 129.192V129.246ZM321.209 94.4069C309.032 102.327 315.708 110.141 312.023 105.378C308.124 108.963 306.361 106.662 304.438 106.02C305.079 106.234 304.065 108.91 303.798 109.231C303.157 109.98 302.249 110.248 301.341 110.194C300.433 110.141 299.471 109.712 298.777 109.124C298.403 108.803 298.189 108.428 297.922 108.053C297.121 107.144 295.359 106.876 294.931 105.966C295.252 104.735 295.679 103.612 296.213 102.595C301.501 92.3198 315.601 94.4069 321.316 94.4069H321.209Z" fill="#1D2419"/>
<path d="M435.668 85.3542C449.768 77.5408 453.08 66.249 451.958 60.0412C451.477 61.4326 451.371 62.931 450.623 64.59C450.302 60.7904 451.21 57.2048 449.288 53.7263C452.866 66.4631 442.932 79.3069 435.668 85.3542Z" fill="#1D2419"/>
<path d="M755.704 324.034C754.796 327.513 752.072 329.921 751.004 333.292C758.428 322.857 764.036 311.779 764.089 298.561C761.633 310.548 756.345 318.682 752.927 326.763C756.024 324.462 754.636 324.783 755.651 324.034H755.704Z" fill="#1D2419"/>
<path d="M276.772 69.7815C265.983 72.3503 265.075 74.5444 264.167 80.4847C270.95 70.9588 274.902 72.4038 276.772 69.7815Z" fill="#1D2419"/>
<path d="M290.392 411.164C288.095 409.238 285.478 408.435 282.914 406.99C284.196 412.181 286.76 415.82 289.857 416.784C288.949 414.697 287.347 413.091 286.226 411.057C287.668 411.057 288.843 411.807 290.392 411.057V411.164Z" fill="#1D2419"/>
<path d="M73.8659 178.735C67.3498 180.662 61.261 184.087 54.3711 185.05C62.2758 187.565 69.4862 180.127 73.8659 178.735Z" fill="#1D2419"/>
<path d="M331.411 441.127C336.218 442.625 340.758 444.445 345.832 445.462C342.788 441.822 334.776 439.414 331.411 441.127Z" fill="#1D2419"/>
<path d="M306.575 383.058C311.703 386.109 320.035 386.537 323.346 388.249C313.625 381.292 309.299 384.824 306.575 383.058Z" fill="#1D2419"/>
<path d="M282.86 398.157C285.157 399.816 287.347 401.1 290.178 401.742C288.575 398.585 286.332 397.461 282.86 398.157Z" fill="#1D2419"/>
<path d="M222.773 98.7966C219.835 98.5291 217.058 99.0642 214.494 100.616C217.699 101.794 220.209 100.295 222.773 98.7966Z" fill="#1D2419"/>
<path d="M749.562 337.849C755.864 337.849 754.529 332.337 756.345 331.588C753.407 333.301 752.179 336.137 749.562 337.849Z" fill="#1D2419"/>
<path d="M446.403 50.5271C444.907 51.7044 445.121 55.1295 446.67 57.7517C447.578 55.3435 446.456 53.0423 446.403 50.5271Z" fill="#1D2419"/>
<path d="M661.701 324.097C662.663 323.402 662.823 324.204 661.701 324.097V324.097Z" fill="#1D2419"/>
<path d="M661.701 324.086C658.764 320.233 659.672 324.568 661.701 324.086V324.086Z" fill="#1D2419"/>
<path d="M51.6465 180.676C54.3704 180.676 56.9875 179.981 59.6046 179.071C56.8273 179.017 54.317 180.034 51.6465 180.676Z" fill="#1D2419"/>
<path d="M567.004 300.483C550.767 309.474 545.159 335.054 521.979 340.673C542.435 337.355 550.927 321.408 560.167 308.082C558.031 309.206 556.428 311.026 554.559 312.524C557.71 307.493 562.624 304.283 567.004 300.536V300.483Z" fill="#1D2419"/>
<path d="M517.492 305.203C519.362 301.296 521.605 297.711 524.329 294.125C520.109 294.767 516.104 301.35 517.492 305.203Z" fill="#1D2419"/>
<path d="M488.705 285.404C492.818 282.247 495.755 277.912 499.654 274.433C492.551 275.825 491.536 283.263 488.705 285.404Z" fill="#1D2419"/>
<path d="M493.992 337.211C493.779 334.642 493.885 332.341 493.084 330.04C491.001 331.592 491.696 334.91 493.992 337.211Z" fill="#1D2419"/>
<path d="M504.247 276.527C502.484 277.972 500.668 279.417 499.333 281.29C501.469 280.22 502.751 278.293 504.247 276.527Z" fill="#1D2419"/>
<path d="M246.008 323.833C246.008 323.833 246.061 323.833 246.115 323.887C246.168 323.887 246.115 323.833 246.008 323.833Z" fill="#1D2419"/>
<path d="M246.008 323.816C243.391 321.675 242.483 321.622 241.468 321.515C238.05 323.816 245.046 323.656 246.008 323.816Z" fill="#1D2419"/>
<path d="M261.871 327.031L270.524 329.44C267.853 328.209 265.022 327.567 261.871 327.031Z" fill="#1D2419"/>
<path d="M325.91 244.145C318.646 252.065 321.156 265.819 320.729 272.508C321.744 262.929 322.118 253.243 325.91 244.145Z" fill="#1D2419"/>
<path d="M300.806 102.276C299.952 103.453 299.56 104.452 299.631 105.273C301.127 101.634 305.24 101.419 307.696 98.6902C302.249 99.2789 299.738 100.403 299.044 102.169C299.631 102.65 300.112 101.848 300.753 102.276H300.806Z" fill="#1D2419"/>
<path d="M195.374 121.103C187.95 123.993 162.474 135.017 147.465 163.22C144.474 168.839 134.54 188.105 137.157 211.973C138.866 227.492 144.154 229.633 148.961 249.648C150.136 254.625 155.156 276.781 151.898 297.652C145.97 336.022 113.977 359.462 114.297 359.73C114.992 360.319 122.095 354.699 122.683 354.271C142.338 339.662 161.619 316.275 166.052 291.176C166.693 287.537 167.013 283.845 167.013 280.152C166.8 246.33 142.338 216.04 149.708 181.683C155.851 153.105 177.749 133.358 195.428 121.103H195.374Z" fill="#1D2419"/>
<path d="M189.233 336.19C188.752 347.16 196.016 357.382 205.416 363.001C214.816 368.567 226.086 370.226 237.035 370.547C242.002 370.707 246.969 370.547 251.936 370.547C257.918 370.493 263.9 370.493 269.882 371.028C253.005 369.369 232.335 364.285 216.151 358.72C209.208 356.365 188.859 345.448 189.286 336.19H189.233Z" fill="#1D2419"/>
<path d="M243.231 408.002C234.792 406.932 225.979 406.557 218.288 402.811C208.728 398.209 202.265 389.111 196.176 380.441C193.986 384.402 191.209 390.877 193.132 397.459C196.497 408.965 212.039 413.086 222.614 415.922C245.901 422.13 255.462 416.243 277.787 421.113C291.033 424.003 301.074 428.927 307.163 432.352C296.641 421.488 282.487 416.565 268.12 412.979C259.895 410.945 251.563 409.072 243.124 408.002H243.231Z" fill="#1D2419"/>
</svg>
